<?xml version="1.0"?>
<svg xmlns="http://www.w3.org/2000/svg" xmlns:xlink="http://www.w3.org/1999/xlink" xmlns:svgjs="http://svgjs.com/svgjs" version="1.1" width="512" height="512" x="0" y="0" viewBox="0 0 512 512" style="enable-background:new 0 0 512 512" xml:space="preserve" class=""><g><g xmlns="http://www.w3.org/2000/svg"><g><g fill="#4980ac"><path d="m300.239 489.367c23.413 0 42.393-18.98 42.393-42.393h-84.786c0 23.413 18.98 42.393 42.393 42.393z" fill="#ffffff" data-original="#4980ac" style="" class=""/><path d="m108.134 489.367c23.413 0 42.393-18.98 42.393-42.393h-84.787c0 23.413 18.98 42.393 42.394 42.393z" fill="#ffffff" data-original="#4980ac" style="" class=""/></g><path d="m391.525 309.373v91.086c25.153 0 45.543-20.39 45.543-45.543s-20.391-45.543-45.543-45.543z" fill="#ffffff" data-original="#75cff9" style="" class=""/><path d="m7.5 268.857v172.117c0 5.523 4.477 10 10 10h373.373c5.523 0 10-4.477 10-10v-172.117c0-5.523-4.477-10-10-10h-373.373c-5.523 0-10 4.477-10 10z" fill="#c3ebf7" data-original="#ffc269" style="" class=""/><path d="m390.873 258.857h-28c5.523 0 10 4.477 10 10v172.117c0 5.523-4.477 10-10 10h28c5.523 0 10-4.477 10-10v-172.117c0-5.523-4.478-10-10-10z" fill="#ffffff" data-original="#ffa95f" style="" class=""/><path d="m390.873 258.857h-373.373c-5.523 0-10 4.477-10 10v32.452h90.237c2.859 0 5.582 1.224 7.479 3.362l37.032 41.728c1.898 2.138 4.62 3.362 7.479 3.362h251.145v-80.905c.001-5.522-4.477-9.999-9.999-9.999z" fill="#e3e7f2" data-original="#cde2ff" style="" class=""/><path d="m372.873 268.857v80.905h28v-80.905c0-5.523-4.477-10-10-10h-28c5.522 0 10 4.477 10 10z" fill="#c3e8f7" data-original="#9ec8fc" style="" class=""/><path d="m47.635 258.857v-226.219c0-5.523 4.477-10 10-10h293.102c5.523 0 10 4.477 10 10v226.219z" fill="#ffffff" data-original="#4980ac" style="" class=""/><path d="m350.737 22.638h-28c5.523 0 10 4.477 10 10v226.219h28v-226.219c0-5.523-4.477-10-10-10z" fill="#e3e7f2" data-original="#407194" style="" class=""/><path d="m178.108 91.56v-68.922h52.156v68.922c0 2.761-2.239 5-5 5h-42.156c-2.761 0-5-2.239-5-5z" fill="#e3e7f2" data-original="#cde2ff" style="" class=""/><ellipse cx="339.594" cy="304.31" fill="#ffffff" rx="16.38" ry="16.38" transform="matrix(.099 -.995 .995 .099 3.302 612.264)" data-original="#4980ac" style="" class=""/><ellipse cx="257.772" cy="304.31" fill="#ffffff" rx="16.38" ry="16.38" transform="matrix(.099 -.995 .995 .099 -70.456 530.842)" data-original="#4980ac" style="" class=""/><path d="m168.823 381.437c-3.196 0-5.623 2.97-4.884 6.08 4.327 18.224 20.7 31.781 40.247 31.781s35.92-13.558 40.248-31.781c.738-3.11-1.688-6.08-4.884-6.08z" fill="#ffffff" data-original="#ffa95f" style="" class=""/></g><g><path d="m408.373 304.627v-35.77c0-9.649-7.851-17.5-17.5-17.5h-22.635v-218.719c0-9.649-7.851-17.5-17.5-17.5h-293.103c-9.649 0-17.5 7.851-17.5 17.5v84.17c0 4.142 3.358 7.5 7.5 7.5s7.5-3.358 7.5-7.5v-84.17c0-1.378 1.122-2.5 2.5-2.5h112.973v61.422c0 6.893 5.607 12.5 12.5 12.5h42.156c6.893 0 12.5-5.607 12.5-12.5v-61.422h112.973c1.378 0 2.5 1.122 2.5 2.5v218.72h-298.102v-99.55c0-4.142-3.358-7.5-7.5-7.5s-7.5 3.358-7.5 7.5v99.55h-22.635c-9.649 0-17.5 7.851-17.5 17.5v172.117c0 9.649 7.851 17.5 17.5 17.5h42.071c5.191 22.304 24.986 38.388 48.559 38.388 23.579 0 43.378-16.084 48.57-38.388h94.98c5.191 22.304 24.987 38.388 48.56 38.388s43.369-16.084 48.559-38.388h42.073c9.649 0 17.5-7.851 17.5-17.5v-35.766c21.297-7.138 36.197-27.382 36.197-50.295.001-22.909-14.899-43.149-36.196-50.287zm-185.609-215.567h-37.156v-58.922h37.156zm-114.634 392.802c-15.245 0-28.231-9.614-32.969-23.388h65.948c-4.74 13.775-17.729 23.388-32.979 23.388zm192.11 0c-15.245 0-28.231-9.614-32.97-23.388h65.939c-4.738 13.775-17.724 23.388-32.969 23.388zm90.633-38.388h-373.373c-1.378 0-2.5-1.122-2.5-2.5v-132.164h82.737c.714 0 1.396.306 1.87.841l37.032 41.727c3.318 3.74 8.089 5.884 13.089 5.884h173.511c4.142 0 7.5-3.358 7.5-7.5s-3.358-7.5-7.5-7.5h-173.511c-.714 0-1.396-.306-1.87-.841l-37.032-41.727c-3.318-3.74-8.089-5.884-13.089-5.884h-82.737v-24.952c0-1.378 1.122-2.5 2.5-2.5h373.373c1.378 0 2.5 1.122 2.5 2.5v73.404h-35.133c-4.142 0-7.5 3.358-7.5 7.5s3.358 7.5 7.5 7.5h35.133v83.712c0 1.379-1.122 2.5-2.5 2.5zm17.5-54.451v-68.211c12.686 6.292 21.197 19.435 21.197 34.101 0 14.67-8.511 27.816-21.197 34.11z" fill="#39b2dd" data-original="#000000" style="" class=""/><path d="m496.277 314.115c-2.779-3.072-7.52-3.312-10.593-.534s-3.312 7.521-.534 10.593c7.642 8.452 11.85 19.37 11.85 30.741s-4.208 22.289-11.85 30.741c-2.778 3.073-2.539 7.815.534 10.593 3.079 2.784 7.822 2.532 10.593-.534 10.139-11.215 15.723-25.705 15.723-40.8s-5.584-29.585-15.723-40.8z" fill="#39b2dd" data-original="#000000" style="" class=""/><path d="m456.251 325.466c-2.861 2.995-2.753 7.742.242 10.604 5.2 4.968 8.063 11.662 8.063 18.849 0 7.183-2.864 13.875-8.063 18.843-2.995 2.861-3.103 7.609-.241 10.604 2.847 2.98 7.595 3.116 10.604.241 8.19-7.826 12.7-18.369 12.7-29.688 0-11.323-4.51-21.869-12.701-29.695-2.994-2.86-7.742-2.752-10.604.242z" fill="#39b2dd" data-original="#000000" style="" class=""/><path d="m92.791 223.139h49.675c4.142 0 7.5-3.358 7.5-7.5s-3.358-7.5-7.5-7.5h-49.675c-4.142 0-7.5 3.358-7.5 7.5s3.358 7.5 7.5 7.5z" fill="#39b2dd" data-original="#000000" style="" class=""/><path d="m92.791 191.481h49.675c4.142 0 7.5-3.358 7.5-7.5s-3.358-7.5-7.5-7.5h-49.675c-4.142 0-7.5 3.358-7.5 7.5s3.358 7.5 7.5 7.5z" fill="#39b2dd" data-original="#000000" style="" class=""/><path d="m363.473 304.31c0-13.167-10.712-23.88-23.879-23.88s-23.88 10.712-23.88 23.88c0 13.167 10.712 23.879 23.88 23.879 13.167 0 23.879-10.712 23.879-23.879zm-23.879 8.879c-4.896 0-8.88-3.983-8.88-8.879s3.983-8.88 8.88-8.88c4.896 0 8.879 3.983 8.879 8.88 0 4.896-3.983 8.879-8.879 8.879z" fill="#39b2dd" data-original="#000000" style="" class=""/><path d="m257.772 280.43c-13.167 0-23.879 10.712-23.879 23.88 0 13.167 10.712 23.879 23.879 23.879s23.879-10.712 23.879-23.879c.001-13.168-10.712-23.88-23.879-23.88zm0 32.759c-4.896 0-8.879-3.983-8.879-8.879s3.983-8.88 8.879-8.88 8.879 3.983 8.879 8.88c.001 4.896-3.983 8.879-8.879 8.879z" fill="#39b2dd" data-original="#000000" style="" class=""/><path d="m239.549 373.937h-70.726c-3.857 0-7.442 1.737-9.836 4.766-2.37 2.999-3.225 6.844-2.345 10.547 5.249 22.108 24.8 37.548 47.544 37.548s42.295-15.44 47.544-37.548c.88-3.704.025-7.548-2.345-10.547-2.393-3.029-5.978-4.766-9.836-4.766zm-35.363 37.861c-14.658 0-27.401-9.249-32.041-22.861h64.083c-4.64 13.612-17.384 22.861-32.042 22.861z" fill="#39b2dd" data-original="#000000" style="" class=""/></g></g></g></svg>
