<?xml version="1.0"?>
<svg xmlns="http://www.w3.org/2000/svg" xmlns:xlink="http://www.w3.org/1999/xlink" xmlns:svgjs="http://svgjs.com/svgjs" version="1.1" width="512" height="512" x="0" y="0" viewBox="0 0 512 512" style="enable-background:new 0 0 512 512" xml:space="preserve" class=""><g><g xmlns="http://www.w3.org/2000/svg"><g fill="#57a4ff"><path d="m476 72h-179.99a119.472 119.472 0 0 1 23.99 72h-120v-72h-32v104h120a120 120 0 1 1 -179.9-104h-72.1a19.994 19.994 0 0 0 -20 20v292h480v-292a19.994 19.994 0 0 0 -20-20z" fill="#c5e4ef" data-original="#57a4ff" style="" class=""/><path d="m208 424-16 40h128l-16-40z" fill="#c5e4ef" data-original="#57a4ff" style="" class=""/></g><g fill="#004fac"><path d="m476 64h-176.16a127.831 127.831 0 0 0 -99.84-48 8 8 0 0 0 -8 8v40h-16v-8a8 8 0 0 0 -8-8 127.219 127.219 0 0 0 -62.26 16.2 7.671 7.671 0 0 0 -1.74-.2h-68a28.031 28.031 0 0 0 -28 28v312a28.031 28.031 0 0 0 28 28h160.18l-9.6 24h-34.58a8 8 0 0 0 -8 8v24a8 8 0 0 0 8 8h208a8 8 0 0 0 8-8v-24a8 8 0 0 0 -8-8h-34.58l-9.6-24h160.18a28.031 28.031 0 0 0 28-28v-312a28.031 28.031 0 0 0 -28-28zm-268-31.72a112.194 112.194 0 0 1 103.72 103.72h-103.72zm-36.69 151.72h108.41a112.007 112.007 0 0 1 -185.06 76.65zm-11.31-119.72v108.41l-76.65 76.65a112.007 112.007 0 0 1 76.65-185.06zm192 407.72v8h-192v-8zm-148.18-16 9.6-24h85.16l9.6 24zm284.18-52a12.01 12.01 0 0 1 -12 12h-440a12.01 12.01 0 0 1 -12-12v-12h464zm0-28h-464v-284a12.01 12.01 0 0 1 12-12h47.44a127.971 127.971 0 1 0 212.56 96 8 8 0 0 0 -8-8h-112v-88h16v64a8 8 0 0 0 8 8h120a8 8 0 0 0 8-8 127.233 127.233 0 0 0 -17.18-64h165.18a12.01 12.01 0 0 1 12 12z" fill="#39b2dd" data-original="#004fac" style="" class=""/><path d="m464 272a8 8 0 0 1 -8 8h-104a8 8 0 0 1 -8-8v-96a8 8 0 0 1 16 0v88h96a8 8 0 0 1 8 8z" fill="#39b2dd" data-original="#004fac" style="" class=""/><path d="m371 254.247a8 8 0 0 0 11.247-1.247l17.753-22.194v9.194a8 8 0 0 0 14.074 5.207l48-56a8 8 0 1 0 -12.148-10.414l-33.926 39.581v-10.374a8 8 0 0 0 -14.247-5l-32 40a8 8 0 0 0 1.247 11.247z" fill="#39b2dd" data-original="#004fac" style="" class=""/><path d="m352 304h104a8 8 0 0 0 0-16h-104a8 8 0 0 0 0 16z" fill="#39b2dd" data-original="#004fac" style="" class=""/><path d="m352 328h104a8 8 0 0 0 0-16h-104a8 8 0 0 0 0 16z" fill="#39b2dd" data-original="#004fac" style="" class=""/><path d="m352 352h104a8 8 0 0 0 0-16h-104a8 8 0 0 0 0 16z" fill="#39b2dd" data-original="#004fac" style="" class=""/></g></g></g></svg>
