<?xml version="1.0"?>
<svg xmlns="http://www.w3.org/2000/svg" xmlns:xlink="http://www.w3.org/1999/xlink" xmlns:svgjs="http://svgjs.com/svgjs" version="1.1" width="512" height="512" x="0" y="0" viewBox="0 0 60 60" style="enable-background:new 0 0 512 512" xml:space="preserve" class=""><g><g xmlns="http://www.w3.org/2000/svg" id="Page-1" fill="none" fill-rule="evenodd"><g id="020---Automation-Technology"><path id="Path" d="m52.885 27.844c-.0799669-.6281335-.5669679-1.1269727-1.193-1.222l-3.054-.5c-.4847599-2.3358454-1.4069696-4.5589207-2.718-6.552l1.8-2.522c.3770398-.5097605.3713308-1.2074775-.014-1.711-.4532148-.5588976-.9380055-1.0914328-1.452-1.595-.5084546-.510726-1.0424732-.995348-1.6-1.452-.5035225-.3853308-1.2012395-.3910398-1.711-.014l-2.522 1.8c-1.9928674-1.3107439-4.2155594-2.2329355-6.551-2.718l-.5-3.054c-.0950273-.62603211-.5938665-1.1130331-1.222-1.193-1.4332441-.15333072-2.8787559-.15333072-4.312 0-.6281335.0799669-1.1269727.56696789-1.222 1.193l-.5 3.054c-2.3332864.4871304-4.5535482 1.4106561-6.544 2.722l-2.522-1.8c-.5097605-.3770398-1.2074775-.3713308-1.711.014-.5558203.4567838-1.0881678.9414036-1.595 1.452-.5139945.5035672-.9987852 1.0361024-1.452 1.595-.3853308.5035225-.3910398 1.2012395-.014 1.711l1.8 2.522c-1.3109147 1.9927769-2.2331202 4.2155025-2.718 6.551l-3.054.5c-.62603211.0950273-1.1130331.5938665-1.193 1.222-.15333072 1.4332441-.15333072 2.8787559 0 4.312.08531417.6255357.56969334 1.1216894 1.193 1.222l3.054.5c.4863466 2.335083 1.4099078 4.5571265 2.722 6.549l-1.8 2.522c-.3768736.509446-.3711643 1.2067929.014 1.71.4564123.5577335.941045 1.091764 1.452 1.6.517.518 1.049.992 1.595 1.452.5035225.3853308 1.2012395.3910398 1.711.014l2.522-1.8c1.9928674 1.3107439 4.2155594 2.2329355 6.551 2.718l.5 3.054c.0950273.6260321.5938665 1.1130331 1.222 1.193 1.4332441.1533307 2.8787559.1533307 4.312 0 .6281335-.0799669 1.1269727-.5669679 1.222-1.193l.5-3.054c2.3353073-.4877581 4.5573344-1.4126697 6.549-2.726l2.522 1.8c.5097605.3770398 1.2074775.3713308 1.711-.014.546-.46 1.078-.934 1.6-1.452.510955-.508236.9955877-1.0422665 1.452-1.6.3851643-.5032071.3908736-1.200554.014-1.71l-1.8-2.522c1.3109147-1.9927769 2.2331202-4.2155025 2.718-6.551l3.054-.5c.6233067-.1003106 1.1076858-.5964643 1.193-1.222.1533307-1.4332441.1533307-2.8787559 0-4.312z" fill="#c5e4ef" data-original="#a4c2f7" style="" class=""/><path id="Path" d="m29.156 7.115c.6281335.0799669 1.1269727.56696789 1.222 1.193l.5 3.054c2.3357885.4849446 4.5588301 1.4071405 6.552 2.718l1.347-.963c-1.5444624-.808447-3.1934663-1.3990596-4.9-1.755l-.5-3.054c-.0950273-.62603211-.5938665-1.1130331-1.222-1.193-.7159111-.0749456-1.4351787-.1133288-2.155-.115-.508 0-1.006.026-1.5.063.219.016.44.03.656.052z" fill="#c5e4ef" data-original="#7facfa" style="" class=""/><path id="Path" d="m37.43 45.92c-1.9928674 1.3107439-4.2155594 2.2329355-6.551 2.718l-.5 3.054c-.0950273.6260321-.5938665 1.1130331-1.222 1.193-.216.022-.437.036-.656.052.494.037.992.063 1.5.063.7201549-.0016372 1.4397572-.0400204 2.156-.115.6281335-.0799669 1.1269727-.5669679 1.222-1.193l.5-3.054c1.7065337-.3559404 3.3555376-.946553 4.9-1.755z" fill="#c5e4ef" data-original="#7facfa" style="" class=""/><path id="Path" d="m52.885 27.844c-.0799669-.6281335-.5669679-1.1269727-1.193-1.222l-3.054-.5c-.4847599-2.3358454-1.4069696-4.5589207-2.718-6.552l1.8-2.522c.3770398-.5097605.3713308-1.2074775-.014-1.711-.4532148-.5588976-.9380055-1.0914328-1.452-1.595-.5084546-.510726-1.0424732-.995348-1.6-1.452-.5035225-.3853308-1.2012395-.3910398-1.711-.014l-.715.511c.346.306.688.621 1.021.955.5139945.5035672.9987852 1.0361024 1.452 1.595.3853308.5035225.3910398 1.2012395.014 1.711l-1.8 2.522c1.3109147 1.9927769 2.2331202 4.2155025 2.718 6.551l3.054.5c.6260321.0950273 1.1130331.5938665 1.193 1.222.1533307 1.4332441.1533307 2.8787559 0 4.312-.0853142.6255357-.5696933 1.1216894-1.193 1.222l-3.054.5c-.4832908 2.3357849-1.4037856 4.5591547-2.713 6.553l1.8 2.522c.3768736.509446.3711643 1.2067929-.014 1.71-.4564123.5577335-.941045 1.091764-1.452 1.6-.334.334-.677.647-1.023.953l.717.513c.5097605.3770398 1.2074775.3713308 1.711-.014.546-.46 1.078-.934 1.6-1.452.510955-.508236.9955877-1.0422665 1.452-1.6.3851643-.5032071.3908736-1.200554.014-1.71l-1.8-2.522c1.3107439-1.9928674 2.2329355-4.2155594 2.718-6.551l3.054-.5c.6233067-.1003106 1.1076858-.5964643 1.193-1.222.1533307-1.4332441.1533307-2.8787559 0-4.312z" fill="#c5e4ef" data-original="#7facfa" style="" class=""/><circle id="Oval" cx="30" cy="30" fill="#ffffff" r="14" data-original="#e8edfc" style="" class=""/><path id="Path" d="m30 16c-.501124.000841-1.0018425.0285475-1.5.083 7.1005043.7766351 12.477794 6.7741488 12.477794 13.917s-5.3772897 13.1403649-12.477794 13.917c5.1556805.5638557 10.2006402-1.7687254 13.1106632-6.0618293s3.2082338-9.8432051.7749798-14.423407-7.1992273-7.4399313-12.385643-7.4317637z" fill="#ffffff" data-original="#cad9fc" style="" class=""/><g fill="#e8edfc"><circle id="Oval" cx="50" cy="3" r="2" fill="#ffffff" data-original="#e8edfc" style="" class=""/><circle id="Oval" cx="10" cy="3" r="2" fill="#ffffff" data-original="#e8edfc" style="" class=""/><circle id="Oval" cx="3" cy="10" r="2" fill="#ffffff" data-original="#e8edfc" style="" class=""/><circle id="Oval" cx="3" cy="50" r="2" fill="#ffffff" data-original="#e8edfc" style="" class=""/><circle id="Oval" cx="10" cy="57" r="2" fill="#ffffff" data-original="#e8edfc" style="" class=""/><circle id="Oval" cx="50" cy="57" r="2" fill="#ffffff" data-original="#e8edfc" style="" class=""/><circle id="Oval" cx="57" cy="50" r="2" fill="#ffffff" data-original="#e8edfc" style="" class=""/><circle id="Oval" cx="57" cy="10" r="2" fill="#ffffff" data-original="#e8edfc" style="" class=""/></g><path id="Path" d="m40 30c.0002304.3641649-.0198006.7280606-.06 1.09-.0374246.3182657-.283132.5721634-.6.62l-1.46.24c-.1886666.79145-.502627 1.5476558-.93 2.24l.86 1.21c.1921607.2557373.1880553.6088001-.01.86-.23.28-.47.55-.73.81s-.53.5-.81.73c-.2511999.1980553-.6042627.2021607-.86.01l-1.21-.86c-.6923442.427373-1.44855.7413334-2.24.93l-.24 1.46c-.0478366.316868-.3017343.5625754-.62.6-.7244649.0799986-1.4555351.0799986-2.18 0-.3182657-.0374246-.5721634-.283132-.62-.6l-.24-1.46c-.79145-.1886666-1.5476558-.502627-2.24-.93l-1.21.86c-.2557373.1921607-.6088001.1880553-.86-.01-.28-.23-.55-.47-.81-.73s-.5-.53-.73-.81c-.1980553-.2511999-.2021607-.6042627-.01-.86l.86-1.21c-.427373-.6923442-.7413334-1.44855-.93-2.24l-1.46-.24c-.316868-.0478366-.5625754-.3017343-.6-.62-.0799986-.7244649-.0799986-1.4555351 0-2.18.0374246-.3182657.283132-.5721634.6-.62l1.46-.24c.1886666-.79145.502627-1.5476558.93-2.24l-.86-1.21c-.1921607-.2557373-.1880553-.6088001.01-.86.23-.28.47-.55.73-.81s.53-.5.81-.73c.2511999-.1980553.6042627-.2021607.86-.01l1.21.86c.6923442-.427373 1.44855-.7413334 2.24-.93l.24-1.46c.0478366-.316868.3017343-.5625754.62-.6.7244649-.0799986 1.4555351-.0799986 2.18 0 .3182657.0374246.5721634.283132.62.6l.24 1.46c.79145.1886666 1.5476558.502627 2.24.93l1.21-.86c.2557373-.1921607.6088001-.1880553.86.01.28.23.55.47.81.73s.5.53.73.81c.1980553.2511999.2021607.6042627.01.86l-.86 1.21c.427373.6923442.7413334 1.44855.93 2.24l1.46.24c.316868.0478366.5625754.3017343.6.62.0401994.3619394.0602304.7258351.06 1.09z" fill="#c5e4ef" data-original="#a4c2f7" style="" class=""/><circle id="Oval" cx="30" cy="30" fill="#ffffff" r="4" data-original="#c6d8fb" style="" class=""/><path id="Path" d="m10 55c-.9242742-.0051901-1.73171037.6236478-1.95304207 1.5210452-.22133171.8973973.20110168 1.829567 1.02178997 2.2547499.8206883.4251828 1.8258284.2326116 2.4312521-.4657951-.6667121-.7460895-.6667121-1.8739105 0-2.62-.376086-.4368996-.9235277-.6887228-1.5-.69z" fill="#c5e4ef" data-original="#ffffff" style="" class=""/><path id="Path" d="m10 1c-.9242742-.00519008-1.73171037.62364783-1.95304207 1.52104519-.22133171.89739735.20110168 1.82956703 1.02178997 2.25474988.8206883.42518285 1.8258284.23261159 2.4312521-.46579507-.6667121-.74608951-.6667121-1.87391049 0-2.62-.376086-.43689963-.9235277-.68872282-1.5-.69z" fill="#c5e4ef" data-original="#ffffff" style="" class=""/><path id="Path" d="m7.115 27.844c-.15333357 1.4335782-.15333357 2.8794218 0 4.313.07089543.6223834.54905367 1.1206014 1.168 1.217l3.079.5c.4844648 2.33718 1.4066778 4.5616202 2.718 6.556l-1.8 2.522c-.3768736.509446-.3711643 1.2067929.014 1.71.4564123.5577335.941045 1.091764 1.452 1.6.517.518 1.049.992 1.595 1.452.5035225.3853308 1.2012395.3910398 1.711.014l.717-.513c-.346-.306-.689-.619-1.023-.953-.510955-.508236-.9955877-1.0422665-1.452-1.6-.3851643-.5032071-.3908736-1.200554-.014-1.71l1.038-1.45c.45094-.623702.4989304-1.4524143.123-2.124-.7700406-1.3543635-1.369912-2.7986227-1.786-4.3-.2105703-.7396813-.8313724-1.2898579-1.591-1.41l-1.777-.291c-.6189463-.0963986-1.0971046-.5946166-1.168-1.217-.15333357-1.4335782-.15333357-2.8794218 0-4.313.0799669-.6281335.5669679-1.1269727 1.193-1.222l1.752-.287c.7596276-.1201421 1.3804297-.6703187 1.591-1.41.416088-1.5013773 1.0159594-2.9456365 1.786-4.3.3759304-.6715857.32794-1.500298-.123-2.124l-1.038-1.45c-.3770398-.5097605-.3713308-1.2074775.014-1.711.4532148-.5588976.9380055-1.0914328 1.452-1.595.333-.334.675-.649 1.021-.955l-.715-.511c-.5097605-.3770398-1.2074775-.3713308-1.711.014-.5558203.4567838-1.0881678.9414036-1.595 1.452-.5139945.5035672-.9987852 1.0361024-1.452 1.595-.3853308.5035225-.3910398 1.2012395-.014 1.711l1.8 2.522c-1.3109147 1.9927769-2.2331202 4.2155025-2.718 6.551l-3.054.5c-.62443625.0944847-1.11096969.5908059-1.193 1.217z" fill="#c5e4ef" data-original="#ffffff" style="" class=""/><path id="Path" d="m3 52c.5764723-.0012772 1.12391403-.2531004 1.5-.69-.66671214-.7460895-.66671214-1.8739105 0-2.62-.60542372-.6984067-1.6105638-.8909779-2.4312521-.4657951-.82068829.4251829-1.24312168 1.3573526-1.02178997 2.2547499.2213317.8973974 1.02876787 1.5262353 1.95304207 1.5210452z" fill="#c5e4ef" data-original="#ffffff" style="" class=""/><path id="Path" d="m3 12c.5764723-.0012772 1.12391403-.2531004 1.5-.69-.66671214-.7460895-.66671214-1.87391049 0-2.62-.60542372-.69840666-1.6105638-.89097792-2.4312521-.46579507-.82068829.42518285-1.24312168 1.35735253-1.02178997 2.25474987.2213317.8973974 1.02876787 1.5262353 1.95304207 1.5210452z" fill="#c5e4ef" data-original="#ffffff" style="" class=""/><path id="Path" d="m4.6 22.97.27-1.981 7.86.011v2h-7.76c-.12384359-.0021666-.24742506-.0121867-.37-.03z" fill="#c5e4ef" data-original="#ffffff" style="" class=""/><circle id="Oval" cx="8.73" cy="22" fill="#39b2dd" r="1" data-original="#428dff" style="" class=""/><path id="Shape" d="m30 15c-8.2842712 0-15 6.7157288-15 15s6.7157288 15 15 15 15-6.7157288 15-15c-.0093685-8.2803876-6.7196124-14.9906315-15-15zm0 28c-7.1797017 0-13-5.8202983-13-13s5.8202983-13 13-13 13 5.8202983 13 13c-.008266 7.1762751-5.8237249 12.991734-13 13z" fill="#39b2dd" fill-rule="nonzero" data-original="#428dff" style="" class=""/><path id="Shape" d="m6 10c.0063217-1.52720792-1.13568032-2.81541857-2.65263035-2.99224222-1.51695003-.17682366-2.92462954.81418272-3.26974327 2.30189926-.34511373 1.48771656.48250048 2.99725616 1.92237362 3.50634296v7c0 .1 0 .225.011.415.11460041 1.4068568 1.19081917 2.5454289 2.589 2.739.30691593.0629535.62463289-.0364039.841-.263.39038194-.3904999.39038194-1.0235001 0-1.414-.16195935-.1465945-.35839516-.2498007-.571-.3-.46418895-.0674758-.82082954-.4456557-.861-.913v-2.642-4.622c1.19080184-.4252753 1.98710794-1.5515424 1.991-2.816zm-3-1c.55228475 0 1 .44771525 1 1 0 .5522847-.44771525 1-1 1s-1-.4477153-1-1c0-.55228475.44771525-1 1-1z" fill="#39b2dd" fill-rule="nonzero" data-original="#428dff" style="" class=""/><path id="Shape" d="m58 20v-7.184c1.3775467-.4870363 2.2038721-1.8956662 1.9567957-3.33573306-.2470764-1.44006683-1.4956868-2.49269406-2.9567957-2.49269406s-2.7097193 1.05262723-2.9567957 2.49269406c-.2470764 1.44006686.579249 2.84869676 1.9567957 3.33573306v7.184c0 .5522847-.4477153 1-1 1h-7.1c-.239-.473-.5-.939-.773-1.4l1.411-1.971c.638548-.8775803.617733-2.0721977-.051-2.927-.4743623-.5855511-.9818593-1.1434639-1.52-1.671-.5374737-.5396387-1.1029192-1.0506759-1.694-1.531-.8503574-.65736-2.0331482-.6724508-2.9-.037l-1.973 1.412c-.456-.278-.922-.534-1.4-.774v-7.101c0-.55228475.4477153-1 1-1h7.184c.4870363 1.37754669 1.8956662 2.20387209 3.3357331 1.95679568 1.4400668-.24707641 2.492694-1.49568678 2.492694-2.95679568s-1.0526272-2.70971927-2.492694-2.95679568c-1.4400669-.24707641-2.8486968.579249-3.3357331 1.95679568h-7.184c-1.6568542 0-3 1.34314575-3 3v6.239c-.7331794-.2774456-1.4821594-.5111888-2.243-.7l-.392-2.388c-.1692766-1.07192431-1.0295827-1.90119895-2.107-2.031-.435-.044-.85-.074-1.258-.094v-5.026c0-.55228475-.4477153-1-1-1s-1 .44771525-1 1v5.026c-.41.02-.829.05-1.27.1-1.0712793.1329227-1.9252706.95877387-2.094 2.025l-.393 2.389c-.7608406.1888112-1.5098206.4225544-2.243.7v-6.24c0-1.65685425-1.3431458-3-3-3h-7.184c-.4870363-1.37754668-1.8956662-2.20387209-3.33573306-1.95679568-1.44006683.24707641-2.49269406 1.49568678-2.49269406 2.95679568s1.05262723 2.70971927 2.49269406 2.95679568c1.44006686.24707641 2.84869676-.57924899 3.33573306-1.95679568h7.184c.5522847 0 1 .44771525 1 1v7.1c-.474.24-.94.5-1.4.774l-1.971-1.411c-.8767184-.6412723-2.0731541-.6204256-2.927.051-.5792309.4744745-1.1336324.9784758-1.661 1.51-.5446761.5337009-1.0581914 1.0983007-1.538 1.691-.6620927.852985-.6804385 2.0409776-.045 2.914l1.417 1.971c-1.065948 1.7481984-1.8552668 3.6506593-2.34 5.64l-2.388.391c-1.07181553.1710096-1.8996283 1.0331274-2.027 2.111-.044.433-.074.849-.093 1.258h-5.027c-.55228475 0-1 .4477153-1 1s.44771525 1 1 1h5.027c.02.411.05.831.095 1.271.13344797 1.0706637.95849036 1.9242402 2.024 2.094l2.389.391c.1903238.7613098.4257391 1.5106317.705 2.244h-6.24c-1.65685425 0-3 1.3431458-3 3v7.184c-1.37754668.4870363-2.20387209 1.8956662-1.95679568 3.3357331.24707641 1.4400668 1.49568678 2.492694 2.95679568 2.492694s2.70971927-1.0526272 2.95679568-2.492694c.24707641-1.4400669-.57924899-2.8486968-1.95679568-3.3357331v-7.184c0-.5522847.44771525-1 1-1h7.1c.2386667.4726667.4966667.9393333.774 1.4l-1.4 1.96c-.6442714.8792585-.6263037 2.0794221.044 2.939.4780332.5820841.9850054 1.1397869 1.519 1.671.494.493 1.022.973 1.692 1.535.850465.6573949 2.0334781.6720805 2.9.036l1.971-1.416c.456.278.922.534 1.4.774v7.101c0 .5522847-.4477153 1-1 1h-7.184c-.4870363-1.3775467-1.8956662-2.2038721-3.33573306-1.9567957-1.44006683.2470764-2.49269406 1.4956868-2.49269406 2.9567957s1.05262723 2.7097193 2.49269406 2.9567957c1.44006686.2470764 2.84869676-.579249 3.33573306-1.9567957h7.184c1.6568542 0 3-1.3431458 3-3v-6.239c.7331794.2774456 1.4821594.5111888 2.243.7l.392 2.388c.1708789 1.0698139 1.0303735 1.8966592 2.106 2.026.433.045.85.074 1.259.094v5.031c0 .5522847.4477153 1 1 1s1-.4477153 1-1v-5.027c.411-.02.83-.05 1.269-.095 1.0715081-.132078 1.9260719-.9576804 2.095-2.024l.393-2.389c.7608406-.1888112 1.5098206-.4225544 2.243-.7v6.235c0 1.6568542 1.3431458 3 3 3h7.184c.4870363 1.3775467 1.8956662 2.2038721 3.3357331 1.9567957 1.4400668-.2470764 2.492694-1.4956868 2.492694-2.9567957s-1.0526272-2.7097193-2.492694-2.9567957c-1.4400669-.2470764-2.8486968.579249-3.3357331 1.9567957h-7.184c-.5522847 0-1-.4477153-1-1v-7.1c.474-.24.94-.5 1.4-.774l1.97 1.41c.8818343.6438973 2.0851705.6193395 2.94-.06.637-.536 1.165-1.016 1.659-1.51.5387572-.5379634 1.049753-1.1030294 1.531-1.693.6527486-.852078.6673956-2.0319809.036-2.9l-1.411-1.973c.278-.4573333.536-.924.774-1.4h7.101c.5522847 0 1 .4477153 1 1v7.184c-1.3775467.4870363-2.2038721 1.8956662-1.9567957 3.3357331.2470764 1.4400668 1.4956868 2.492694 2.9567957 2.492694s2.7097193-1.0526272 2.9567957-2.492694c.2470764-1.4400669-.579249-2.8486968-1.9567957-3.3357331v-7.184c0-1.6568542-1.3431458-3-3-3h-6.24c.2792609-.7333683.5146762-1.4826902.705-2.244l2.387-.391c1.0704235-.1711218 1.8978895-1.0308214 2.028-2.107.044-.433.074-.849.093-1.258h5.027c.5522847 0 1-.4477153 1-1s-.4477153-1-1-1h-5.027c-.019-.409-.049-.825-.093-1.258v-.01c-.1308688-1.0737612-.9576221-1.9307118-2.026-2.1l-2.388-.391c-.1907652-.7603167-.4265135-1.5086339-.706-2.241h6.24c1.6568542 0 3-1.3431458 3-3zm-1-11c.5522847 0 1 .44771525 1 1 0 .5522847-.4477153 1-1 1s-1-.4477153-1-1c0-.55228475.4477153-1 1-1zm-7-7c.5522847 0 1 .44771525 1 1s-.4477153 1-1 1-1-.44771525-1-1 .4477153-1 1-1zm-40 2c-.55228475 0-1-.44771525-1-1s.44771525-1 1-1c.5522847 0 1 .44771525 1 1 0 .26521649-.1053568.5195704-.2928932.70710678s-.4418903.29289322-.7071068.29289322zm-7 47c-.55228475 0-1-.4477153-1-1s.44771525-1 1-1 1 .4477153 1 1-.44771525 1-1 1zm7 7c-.55228475 0-1-.4477153-1-1s.44771525-1 1-1c.5522847 0 1 .4477153 1 1s-.4477153 1-1 1zm40-2c.5522847 0 1 .4477153 1 1s-.4477153 1-1 1-1-.4477153-1-1 .4477153-1 1-1zm7-5c-.5522847 0-1-.4477153-1-1s.4477153-1 1-1 1 .4477153 1 1-.4477153 1-1 1zm-5.47-23.392c.1826032.0234032.3288227.162737.361.344.1446686 1.3594955.1446686 2.7305045 0 4.09-.0350761.1813622-.1803991.3210805-.363.349l-3.053.5c-.4086965.0667527-.7339673.3785037-.818.784-.4579755 2.2109162-1.3314332 4.3148157-2.574 6.2-.2270938.345322-.2183512.7947706.022 1.131l1.815 2.535c.1058098.1419181.1117996.3347897.015.483-.4.491-.868 1-1.385 1.521-.452.452-.94.895-1.5 1.367-.1538689.1155206-.3663152.1126441-.517-.007l-2.521-1.8c-.3360211-.2406575-.7854728-.2497975-1.131-.023-1.8869967 1.2436881-3.9929483 2.1178311-6.206 2.576-.4048082.0842634-.7160092.4089777-.783.817l-.5 3.055c-.0215393.1805799-.1581409.3260991-.337.359-.682619.0725192-1.3685412.109569-2.055.111-.6820915-.0010724-1.3636703-.0374544-2.042-.109-.1833093-.0296755-.3250644-.176726-.348-.361l-.5-3.054c-.0669908-.4080223-.3781918-.7327366-.783-.817-2.2130517-.4581689-4.3190033-1.3323119-6.206-2.576-.3455272-.2267975-.7949789-.2176575-1.131.023l-2.525 1.808c-.1381898.1096044-.3298841.1219589-.481.031-.592-.5-1.08-.942-1.532-1.394-.517-.518-.983-1.03-1.367-1.5-.113274-.1549615-.11042-.366156.007-.518l1.8-2.522c.2403512-.3362294.2490938-.785678.022-1.131-1.2425668-1.8851843-2.1160245-3.9890838-2.574-6.2-.0840327-.4054963-.4093035-.7172473-.818-.784l-3.055-.5c-.17784598-.0272778-.32054476-.1612318-.359-.337-.14613937-1.36276-.14613937-2.73724 0-4.1.03179694-.1821909.17776594-.3229034.361-.348l3.053-.5c.4090825-.0663754.7348325-.3782045.819-.784.4573733-2.2126558 1.3308526-4.3183043 2.574-6.205.2270938-.345322.2183512-.7947706-.022-1.131l-1.807-2.524c-.1121044-.1434395-.1209374-.3421809-.022-.495.4320011-.5326178.8940878-1.0401118 1.384-1.52.518-.518 1.03-.984 1.5-1.367.1538718-.1151111.3658411-.1126511.517.006l2.521 1.806c.3360211.2406575.7854728.2497975 1.131.023 1.8869967-1.2436881 3.9929483-2.1178311 6.206-2.576.4048082-.0842634.7160092-.4089777.783-.817l.5-3.055c.0216233-.18037963.1575383-.32600282.336-.36.6836428-.07238433 1.3705395-.10976646 2.058-.112h.009c.6807457.00162557 1.3609644.03800625 2.038.109.1836944.03000437.3257308.17733152.349.362l.5 3.054c.0669908.4080223.3781918.7327366.783.817 2.2130517.4581689 4.3190033 1.3323119 6.206 2.576.3455272.2267975.7949789.2176575 1.131-.023l2.524-1.808c.1425788-.1126655.3413567-.1211328.493-.021.5332822.4384673 1.0442563.9033837 1.531 1.393.4831086.4739819.9391629.9747735 1.366 1.5.1058519.154391.0993761.3595906-.016.507l-1.8 2.522c-.2403512.3362294-.2490938.785678-.022 1.131 1.2431474 1.8866957 2.1166267 3.9923442 2.574 6.205.0841675.4057955.4099175.7176246.819.784z" fill="#39b2dd" fill-rule="nonzero" data-original="#428dff" style="" class=""/><path id="Shape" d="m38.133 25.872.474-.668c.4741369-.6241354.4600932-1.4915407-.034-2.1-.2513642-.3078435-.518383-.6025655-.8-.883-.283-.284-.578-.546-.893-.8-.5978004-.4827129-1.4461713-.5007983-2.064-.044l-.693.492c-.4160688-.2137695-.8488275-.393361-1.294-.537l-.129-.832c-.1160094-.7635184-.7320943-1.3529063-1.5-1.435-.7919789-.0864923-1.5910211-.0864923-2.383 0-.7744777.0748068-1.3993151.6658693-1.517 1.435l-.138.832c-.445305.1432789-.8780926.3228824-1.294.537l-.668-.473c-.6239064-.4744257-1.4913085-.4607951-2.1.033-.3.251-.6.513-.882.8-.2816328.283563-.5486452.5812818-.8.892-.4831295.5977862-.5020309 1.4462931-.046 2.065l.493.692c-.2139488.4180579-.3935409.8528245-.537 1.3l-.828.122c-.762736.1168347-1.3511161.7327246-1.433 1.5-.0873256.7922676-.0873256 1.5917324 0 2.384.075033.7734597.664985 1.397582 1.433 1.516l.832.136c.1434591.4471755.3230512.8819421.537 1.3l-.474.668c-.4741369.6241354-.4600932 1.4915407.034 2.1.2513642.3078435.518383.6025655.8.883.283.284.578.546.893.8.5978004.4827129 1.4461713.5007983 2.064.044l.693-.492c.4160688.2137695.8488275.393361 1.294.537l.137.829c.1160094.7635184.7320943 1.3529063 1.5 1.435.7919698.0866592 1.5910302.0866592 2.383 0 .7721943-.0796212 1.3923676-.6722221 1.507-1.44l.138-.832c.445305-.1432789.8780926-.3228824 1.294-.537l.668.473c.6239064.4744257 1.4913085.4607951 2.1-.033.3-.251.6-.513.882-.8.2816328-.283563.5486452-.5812818.8-.892.4831295-.5977862.5020309-1.4462931.046-2.065l-.493-.692c.2139488-.4180579.3935409-.8528245.537-1.3l.828-.122c.762736-.1168347 1.3511161-.7327246 1.433-1.5.0873256-.7922676.0873256-1.5917324 0-2.384-.075033-.7734597-.664985-1.397582-1.433-1.516l-.832-.136c-.1432177-.4443829-.322134-.8764575-.535-1.292zm.867 4.128c0 .253-.01.5-.032.758l-1.25.205c-.3980739.0653527-.7178986.3634877-.811.756-.163499.6875528-.4359417 1.3445213-.807 1.946-.2115104.3418829-.1977224.7771878.035 1.105l.739 1.038c-.162.191-.331.376-.512.555s-.366.351-.553.511l-1.04-.739c-.3266953-.2305311-.7593102-.2442962-1.1-.035-.6009655.3713604-1.2576553.6438276-1.945.807-.3918281.093309-.6894278.4125882-.755.81l-.206 1.251c-.504397.0435044-1.011603.0435044-1.516 0l-.206-1.251c-.0655722-.3974118-.3631719-.716691-.755-.81-.6873447-.1631724-1.3440345-.4356396-1.945-.807-.3406898-.2092962-.7733047-.1955311-1.1.035l-1.04.739c-.189-.163-.375-.331-.554-.511s-.351-.367-.511-.554l.739-1.039c.2327224-.3278122.2465104-.7631171.035-1.105-.3710583-.6014787-.643501-1.2584472-.807-1.946-.0931014-.3925123-.4129261-.6906473-.811-.756l-1.25-.205c-.021-.25-.032-.5-.032-.758s.01-.5.032-.758l1.25-.205c.3980739-.0653527.7178986-.3634877.811-.756.163499-.6875528.4359417-1.3445213.807-1.946.2115104-.3418829.1977224-.7771878-.035-1.105l-.739-1.038c.162-.191.331-.376.512-.555s.366-.351.553-.511l1.04.739c.3266953.2305311.7593102.2442962 1.1.035.6009655-.3713604 1.2576553-.6438276 1.945-.807.3918281-.093309.6894278-.4125882.755-.81l.206-1.251c.5044186-.0430005 1.0115814-.0430005 1.516 0l.206 1.251c.0655722.3974118.3631719.716691.755.81.6873447.1631724 1.3440345.4356396 1.945.807.3406898.2092962.7733047.1955311 1.1-.035l1.04-.739c.189.163.375.331.554.511s.351.367.511.554l-.739 1.039c-.2327224.3278122-.2465104.7631171-.035 1.105.3710583.6014787.643501 1.2584472.807 1.946.0931014.3925123.4129261.6906473.811.756l1.25.205c.021.25.032.501.032.758z" fill="#39b2dd" fill-rule="nonzero" data-original="#428dff" style="" class=""/><path id="Shape" d="m30 25c-2.7614237 0-5 2.2385763-5 5s2.2385763 5 5 5 5-2.2385763 5-5c-.0033061-2.7600532-2.2399468-4.9966939-5-5zm0 8c-1.6568542 0-3-1.3431458-3-3s1.3431458-3 3-3 3 1.3431458 3 3-1.3431458 3-3 3z" fill="#39b2dd" fill-rule="nonzero" data-original="#428dff" style="" class=""/></g></g></g></svg>
