<?xml version="1.0"?>
<svg xmlns="http://www.w3.org/2000/svg" xmlns:xlink="http://www.w3.org/1999/xlink" xmlns:svgjs="http://svgjs.com/svgjs" version="1.1" width="512" height="512" x="0" y="0" viewBox="0 0 512 512" style="enable-background:new 0 0 512 512" xml:space="preserve" class=""><g><linearGradient xmlns="http://www.w3.org/2000/svg" id="a" gradientUnits="userSpaceOnUse" x1="0" x2="512" y1="256" y2="256"><stop stop-opacity="1" stop-color="#00f1ff" offset="0"/><stop stop-opacity="1" stop-color="#00d8ff" offset="0.231"/><stop stop-opacity="1" stop-color="#00c0ff" offset="0.5138"/><stop stop-opacity="1" stop-color="#00b2ff" offset="0.7773"/><stop stop-opacity="1" stop-color="#09c6d9" offset="1"/></linearGradient><path xmlns="http://www.w3.org/2000/svg" d="m512 256c0 141.386719-114.613281 256-256 256s-256-114.613281-256-256 114.613281-256 256-256 256 114.613281 256 256zm0 0" fill="url(#a)" data-original="url(#a)" style="" class=""/><path xmlns="http://www.w3.org/2000/svg" d="m419.914062 372.394531c8.285157 0 15-6.714843 15-15v-111.128906c0-19.757813-16.074218-35.835937-35.835937-35.835937h-30.558594c-19.761719 0-35.839843 16.078124-35.839843 35.835937v158.636719h-97.78125l.101562-81.125h42.160156l-.042968 33.597656c-.011719 8.285156 6.695312 15.007812 14.980468 15.019531h.019532c8.277343 0 14.988281-6.703125 15-14.980469l.230468-173.9375h19.265625c9.246094 0 17.507813-5.519531 21.046875-14.0625 3.539063-8.542968 1.601563-18.285156-4.9375-24.820312l-53.9375-53.9375c-18.078125-18.078125-47.492187-18.078125-65.570312 0l-53.933594 53.9375c-6.539062 6.535156-8.476562 16.28125-4.9375 24.820312 3.539062 8.542969 11.796875 14.0625 21.042969 14.0625h19.785156l-.273437 221.429688h-97.8125v-81.128906h42.234374v33.617187c0 8.285157 6.714844 15 15 15 8.285157 0 15-6.714843 15-15v-90.289062c0-19.761719-16.078124-35.835938-35.835937-35.835938h-30.5625c-19.761719 0-35.835937 16.074219-35.835937 35.835938v152.800781c0 8.28125 6.714843 15 15 15h327.828124c8.285157 0 15-6.71875 15-15 0-8.285156-6.714843-15-15-15h-57.234374v-81.128906h42.234374v33.617187c0 8.285157 6.714844 15 15 15zm-217.09375-218.917969 41.605469-41.609374c6.382813-6.378907 16.765625-6.378907 23.144531 0l41.609376 41.609374h-16.816407c-8.273437 0-14.988281 6.703126-15 14.980469l-.164062 125.320313h-42.164063l.152344-125.28125c.003906-3.980469-1.574219-7.804688-4.386719-10.621094s-6.632812-4.398438-10.613281-4.398438zm-89.898437 107.789063h30.5625c3.21875 0 5.835937 2.617187 5.835937 5.835937v26.671876h-42.234374v-26.671876c0-3.21875 2.617187-5.835937 5.835937-5.835937zm249.757813 32.511719v-47.511719c0-3.21875 2.621093-5.835937 5.839843-5.835937h30.558594c3.21875 0 5.835937 2.617187 5.835937 5.835937v47.511719zm0 0" fill="#ffffff" data-original="#ffffff" style="" class=""/></g></svg>
