<?xml version="1.0"?>
<svg xmlns="http://www.w3.org/2000/svg" xmlns:xlink="http://www.w3.org/1999/xlink" xmlns:svgjs="http://svgjs.com/svgjs" version="1.1" width="512" height="512" x="0" y="0" viewBox="0 0 512 512" style="enable-background:new 0 0 512 512" xml:space="preserve" class=""><g><linearGradient xmlns="http://www.w3.org/2000/svg" id="a" gradientUnits="userSpaceOnUse" x1="0" x2="512" y1="256" y2="256"><stop stop-opacity="1" stop-color="#00f1ff" offset="0"/><stop stop-opacity="1" stop-color="#00d8ff" offset="0.231"/><stop stop-opacity="1" stop-color="#00c0ff" offset="0.5138"/><stop stop-opacity="1" stop-color="#00b2ff" offset="0.7773"/><stop stop-opacity="1" stop-color="#09c6d9" offset="1"/></linearGradient><path xmlns="http://www.w3.org/2000/svg" d="m512 256c0 141.386719-114.613281 256-256 256s-256-114.613281-256-256 114.613281-256 256-256 256 114.613281 256 256zm0 0" fill="url(#a)" data-original="url(#a)" style="" class=""/><g xmlns="http://www.w3.org/2000/svg" fill="#fff"><path d="m407.167969 363.34375c7.640625 0 13.832031-6.195312 13.832031-13.832031v-225.453125c0-18.222656-14.824219-33.046875-33.046875-33.046875h-28.179687c-18.222657 0-33.046876 14.828125-33.046876 33.046875v269.261718h-90.1875v-166.78125c0-2.96875 2.414063-5.382812 5.382813-5.382812h28.183594c2.964843 0 5.378906 2.414062 5.378906 5.382812v122.972657c0 7.636719 6.195313 13.832031 13.832031 13.832031 7.640625 0 13.832032-6.195312 13.832032-13.832031v-122.972657c0-18.222656-14.824219-33.046874-33.042969-33.046874h-28.183594c-18.222656 0-33.046875 14.824218-33.046875 33.046874v166.78125h-90.183594v-77.753906c0-2.96875 2.414063-5.382812 5.382813-5.382812h28.179687c2.96875 0 5.382813 2.414062 5.382813 5.382812v33.945313c0 7.636719 6.195312 13.832031 13.832031 13.832031 7.640625 0 13.832031-6.195312 13.832031-13.832031v-33.945313c0-18.222656-14.824219-33.046875-33.046875-33.046875h-28.179687c-18.222657 0-33.046875 14.824219-33.046875 33.046875v91.585938c0 7.640625 6.191406 13.832031 13.832031 13.832031h302.308594c7.640625 0 13.832031-6.191406 13.832031-13.832031 0-7.636719-6.191406-13.832032-13.832031-13.832032h-52.777344v-269.261718c0-2.964844 2.414063-5.378906 5.382813-5.378906h28.179687c2.96875 0 5.382813 2.414062 5.382813 5.378906v225.453125c0 7.636719 6.191406 13.832031 13.832031 13.832031zm0 0" fill="#ffffff" data-original="#ffffff" style="" class=""/><path d="m143.054688 205.660156h-19.078126c-2.640624 0-5.3125-1.628906-5.3125-4.742187 0-7.636719-6.191406-13.832031-13.832031-13.832031-7.636719 0-13.832031 6.195312-13.832031 13.832031 0 17.4375 13.339844 31.242187 30.757812 32.328125v6.101562c0 7.636719 6.191407 13.832032 13.832032 13.832032 7.636718 0 13.832031-6.195313 13.832031-13.832032v-6.542968c17.679687-2.882813 30.753906-17.609376 30.753906-35.890626v-1.121093c0-20.695313-16.652343-37.527344-37.121093-37.527344h-11.742188c-5.261719 0-9.386719-4.007813-9.386719-9.125v-.929687c0-5.152344 4.035157-9.035157 9.386719-9.035157h11.101562c2.757813 0 5.613282 1.800781 5.613282 4.8125 0 7.640625 6.195312 13.832031 13.832031 13.832031 7.640625 0 13.832031-6.191406 13.832031-13.832031 0-15.5625-11.277344-28.597656-26.269531-31.75v-7.390625c0-7.640625-6.195313-13.832031-13.832031-13.832031-7.640625 0-13.832032 6.191406-13.832032 13.832031v7.851563c-16 4.074219-27.496093 18.21875-27.496093 35.511719v.929687c0 20.285156 16.621093 36.789063 37.050781 36.789063h11.742188c5.125 0 9.457031 4.515624 9.457031 9.863281v1.121093c0 4.988282-4.066407 8.746094-9.457031 8.746094zm0 0" fill="#ffffff" data-original="#ffffff" style="" class=""/></g></g></svg>
