<?xml version="1.0"?>
<svg xmlns="http://www.w3.org/2000/svg" xmlns:xlink="http://www.w3.org/1999/xlink" xmlns:svgjs="http://svgjs.com/svgjs" version="1.1" width="512" height="512" x="0" y="0" viewBox="0 0 512 512" style="enable-background:new 0 0 512 512" xml:space="preserve" class=""><g><linearGradient xmlns="http://www.w3.org/2000/svg" id="a" gradientUnits="userSpaceOnUse" x1="0" x2="512" y1="256" y2="256"><stop stop-opacity="1" stop-color="#00f1ff" offset="0"/><stop stop-opacity="1" stop-color="#00d8ff" offset="0.231"/><stop stop-opacity="1" stop-color="#00c0ff" offset="0.5138"/><stop stop-opacity="1" stop-color="#00b2ff" offset="0.7773"/><stop stop-opacity="1" stop-color="#09c6d9" offset="1"/></linearGradient><path xmlns="http://www.w3.org/2000/svg" d="m512 256c0 141.386719-114.613281 256-256 256s-256-114.613281-256-256 114.613281-256 256-256 256 114.613281 256 256zm0 0" fill="url(#a)" data-original="url(#a)" style="" class=""/><g xmlns="http://www.w3.org/2000/svg" fill="#fff"><path d="m389.996094 239.519531c9.097656 0 16.496094 7.398438 16.496094 16.496094 0 8.28125 6.714843 15 15 15 8.285156 0 15-6.71875 15-15 0-25.636719-20.855469-46.496094-46.496094-46.496094-20.386719 0-37.738282 13.199219-43.996094 31.496094h-48.027344v-89.980469c0-7.167968 5.828125-12.996094 12.996094-12.996094h35.269531c6.453125 17.933594 23.632813 30.796876 43.761719 30.796876 8.28125 0 15-6.71875 15-15 0-8.285157-6.71875-15-15-15-9.097656 0-16.496094-7.402344-16.496094-16.496094s7.398438-16.492188 16.496094-16.492188c9.09375 0 16.492188 7.398438 16.492188 16.492188 0 8.285156 6.71875 15 15 15 8.285156 0 15-6.714844 15-15 0-25.636719-20.855469-46.492188-46.492188-46.492188-20.648438 0-38.1875 13.53125-44.234375 32.191406h-34.796875c-23.707031 0-42.996094 19.289063-42.996094 42.996094v89.980469h-50.484375v-24.921875c0-23.707031-19.285156-42.992188-42.996093-42.992188h-55.988282c-23.707031 0-42.992187 19.285157-42.992187 42.992188v76.285156c0 18.4375 11.660156 34.195313 27.992187 40.296875v88.480469c0 8.285156 6.71875 15 15 15 8.285156 0 15-6.714844 15-15v-100.78125c0-8.285156-6.714844-15-15-15-7.164062 0-12.992187-5.828125-12.992187-12.996094v-76.285156c0-7.164062 5.828125-12.992188 12.992187-12.992188h55.988282c7.167968 0 12.996093 5.828126 12.996093 12.992188v76.285156c0 7.167969-5.828125 12.996094-12.996093 12.996094-8.28125 0-15 6.714844-15 15v100.78125c0 8.285156 6.71875 15 15 15 8.285156 0 15-6.714844 15-15v-88.480469c16.335937-6.101562 27.996093-21.859375 27.996093-40.296875v-21.363281h50.484375v89.976563c0 23.710937 19.289063 42.996093 42.996094 42.996093h34.796875c6.046875 18.660157 23.585937 32.195313 44.234375 32.195313 8.28125 0 15-6.71875 15-15 0-8.285156-6.71875-15-15-15-9.097656 0-16.496094-7.402344-16.496094-16.496094s7.398438-16.492188 16.496094-16.492188c9.09375 0 16.492188 7.398438 16.492188 16.492188 0 8.285156 6.71875 15 15 15 8.285156 0 15-6.714844 15-15 0-25.636719-20.855469-46.492188-46.492188-46.492188-20.128906 0-37.308594 12.859376-43.761719 30.792969h-35.269531c-7.167969 0-12.996094-5.828125-12.996094-12.996093v-89.976563h48.027344c6.257812 18.292969 23.609375 31.492187 43.996094 31.492187 8.285156 0 15-6.714843 15-15 0-8.285156-6.714844-15-15-15-9.09375 0-16.492188-7.398437-16.492188-16.492187 0-9.097656 7.398438-16.496094 16.492188-16.496094zm0 0" fill="#ffffff" data-original="#ffffff" style="" class=""/><path d="m146.496094 161.808594c23.707031 0 42.996094-19.289063 42.996094-42.996094s-19.289063-42.996094-42.996094-42.996094c-23.707032 0-42.992188 19.289063-42.992188 42.996094s19.285156 42.996094 42.992188 42.996094zm0-55.992188c7.167968 0 12.996094 5.828125 12.996094 12.996094 0 7.164062-5.828126 12.996094-12.996094 12.996094-7.164063 0-12.992188-5.832032-12.992188-12.996094 0-7.167969 5.828125-12.996094 12.992188-12.996094zm0 0" fill="#ffffff" data-original="#ffffff" style="" class=""/></g></g></svg>
