<?xml version="1.0"?>
<svg xmlns="http://www.w3.org/2000/svg" xmlns:xlink="http://www.w3.org/1999/xlink" xmlns:svgjs="http://svgjs.com/svgjs" version="1.1" width="512" height="512" x="0" y="0" viewBox="0 0 512 512" style="enable-background:new 0 0 512 512" xml:space="preserve" class=""><g><linearGradient xmlns="http://www.w3.org/2000/svg" id="a" gradientUnits="userSpaceOnUse" x1="0" x2="512" y1="256" y2="256"><stop stop-opacity="1" stop-color="#00f1ff" offset="0"/><stop stop-opacity="1" stop-color="#00d8ff" offset="0.231"/><stop stop-opacity="1" stop-color="#00c0ff" offset="0.5138"/><stop stop-opacity="1" stop-color="#00b2ff" offset="0.7773"/><stop stop-opacity="1" stop-color="#09c6d9" offset="1"/></linearGradient><path xmlns="http://www.w3.org/2000/svg" d="m512 256c0 141.386719-114.613281 256-256 256s-256-114.613281-256-256 114.613281-256 256-256 256 114.613281 256 256zm0 0" fill="url(#a)" data-original="url(#a)" style="" class=""/><g xmlns="http://www.w3.org/2000/svg" fill="#fff"><path d="m431.167969 385.167969h-10.195313v-41.6875c0-8.285157-6.714844-15-15-15-8.28125 0-15 6.714843-15 15v41.6875h-26.6875v-21.390625c0-8.285156-6.714844-15-15-15s-15 6.714844-15 15v21.390625h-25.289062v-233.332031l66.527344 41.839843c9.675781 6.085938 15.449218 16.542969 15.449218 27.972657v52.542968c0 8.285156 6.71875 15 15 15 8.285156 0 15-6.714844 15-15v-52.542968c0-21.808594-11.019531-41.757813-29.476562-53.367188l-88.816406-55.855469c-2.640626-1.664062-5.601563-2.398437-8.5-2.292969-.0625-.003906-.121094-.011718-.183594-.011718h-12.996094v-12.996094c0-8.28125-6.714844-15-15-15h-40.988281v-12.292969c0-8.285156-6.714844-15-15-15-8.285157 0-15 6.714844-15 15v12.292969h-40.992188c-8.28125 0-15 6.71875-15 15v12.996094h-12.992187c-8.285156 0-15 6.714844-15 15v260.050781h-10.195313c-8.285156 0-15 6.714844-15 15 0 8.28125 6.714844 15 15 15h25.195313c8.285156 0 15-6.71875 15-15v-260.050781h12.992187c8.285157 0 15-6.71875 15-15v-12.996094h81.980469v12.996094c0 8.28125 6.714844 15 15 15h12.996094v260.046875c0 8.285156 6.714844 15 15 15h137.171875c8.285156 0 15-6.714844 15-15 0-8.28125-6.714844-15-15-15zm0 0" fill="#ffffff" data-original="#ffffff" style="" class=""/><path d="m181.316406 222.800781c-8.285156 0-15 6.714844-15 15v13.996094c0 8.285156 6.714844 15 15 15 8.28125 0 15-6.714844 15-15v-13.996094c0-8.285156-6.714844-15-15-15zm0 0" fill="#ffffff" data-original="#ffffff" style="" class=""/><path d="m237.304688 222.800781c-8.28125 0-15 6.714844-15 15v13.996094c0 8.285156 6.71875 15 15 15 8.285156 0 15-6.714844 15-15v-13.996094c0-8.285156-6.714844-15-15-15zm0 0" fill="#ffffff" data-original="#ffffff" style="" class=""/><path d="m181.316406 285.789062c-8.285156 0-15 6.714844-15 15v13.996094c0 8.285156 6.714844 15 15 15 8.28125 0 15-6.714844 15-15v-13.996094c0-8.285156-6.714844-15-15-15zm0 0" fill="#ffffff" data-original="#ffffff" style="" class=""/><path d="m237.304688 285.789062c-8.28125 0-15 6.714844-15 15v13.996094c0 8.285156 6.71875 15 15 15 8.285156 0 15-6.714844 15-15v-13.996094c0-8.285156-6.714844-15-15-15zm0 0" fill="#ffffff" data-original="#ffffff" style="" class=""/><path d="m237.304688 348.777344c-8.28125 0-15 6.714844-15 15v13.996094c0 8.285156 6.71875 15 15 15 8.285156 0 15-6.714844 15-15v-13.996094c0-8.285156-6.714844-15-15-15zm0 0" fill="#ffffff" data-original="#ffffff" style="" class=""/><path d="m364.285156 237.800781c0-8.285156-6.71875-15-15-15-8.285156 0-15 6.714844-15 15v13.996094c0 8.285156 6.714844 15 15 15 8.28125 0 15-6.714844 15-15zm0 0" fill="#ffffff" data-original="#ffffff" style="" class=""/><path d="m349.285156 285.789062c-8.285156 0-15 6.714844-15 15v13.996094c0 8.285156 6.714844 15 15 15 8.28125 0 15-6.714844 15-15v-13.996094c0-8.285156-6.71875-15-15-15zm0 0" fill="#ffffff" data-original="#ffffff" style="" class=""/><path d="m181.316406 348.777344c-8.285156 0-15 6.714844-15 15v13.996094c0 8.285156 6.714844 15 15 15 8.28125 0 15-6.714844 15-15v-13.996094c0-8.285156-6.714844-15-15-15zm0 0" fill="#ffffff" data-original="#ffffff" style="" class=""/><path d="m181.316406 159.8125c-8.285156 0-15 6.714844-15 15v13.996094c0 8.285156 6.714844 15 15 15 8.28125 0 15-6.714844 15-15v-13.996094c0-8.285156-6.714844-15-15-15zm0 0" fill="#ffffff" data-original="#ffffff" style="" class=""/><path d="m237.304688 159.8125c-8.28125 0-15 6.714844-15 15v13.996094c0 8.285156 6.71875 15 15 15 8.285156 0 15-6.714844 15-15v-13.996094c0-8.285156-6.714844-15-15-15zm0 0" fill="#ffffff" data-original="#ffffff" style="" class=""/></g></g></svg>
