<?xml version="1.0"?>
<svg xmlns="http://www.w3.org/2000/svg" xmlns:xlink="http://www.w3.org/1999/xlink" xmlns:svgjs="http://svgjs.com/svgjs" version="1.1" width="512" height="512" x="0" y="0" viewBox="0 0 64 64" style="enable-background:new 0 0 512 512" xml:space="preserve" class=""><g><g xmlns="http://www.w3.org/2000/svg" id="Loan"><path d="m25 53-1.5-1.5-11-11-1.64-1.64-7.86 8.14v14h14z" fill="#c5e4ef" data-original="#9bc9ff" style="" class=""/><path d="m17 31h44v-26h-44zm4-19.08a7.724 7.724 0 0 0 2.92-2.92h30.16a7.724 7.724 0 0 0 2.92 2.92v12.16a7.867 7.867 0 0 0 -2.92 2.92h-30.16a7.724 7.724 0 0 0 -2.92-2.92z" fill="#c5e4ef" data-original="#9bc9ff" style="" class=""/><path d="m30 18a9 9 0 0 1 9-9h-15.08a7.724 7.724 0 0 1 -2.92 2.92v12.16a7.724 7.724 0 0 1 2.92 2.92h15.08a9 9 0 0 1 -9-9z" fill="#c5e4ef" data-original="#9bc9ff" style="" class=""/><path d="m54.08 9h-15.08a9 9 0 0 1 0 18h15.08a7.867 7.867 0 0 1 2.92-2.92v-12.16a7.724 7.724 0 0 1 -2.92-2.92z" fill="#c5e4ef" data-original="#9bc9ff" style="" class=""/><g fill="#1e81ce"><path d="m56.751 34.337a4 4 0 0 0 -3.8.1l-10.037 5.79a3.967 3.967 0 0 0 -1.258-2.227 4.056 4.056 0 0 0 -2.666-1h-8.162a1.009 1.009 0 0 1 -.707-.293l-.244-.244a4.961 4.961 0 0 0 -3.531-1.463h-7.686c-.149 0-.3.01-.5.025a5 5 0 0 0 -3.038 1.438l-2.622 2.623-.933-.933a1.029 1.029 0 0 0 -.715-.293 1 1 0 0 0 -.711.3l-7.861 8.145a1.006 1.006 0 0 0 -.28.695v14a1 1 0 0 0 1 1h14a1 1 0 0 0 .707-.293l8-8a1 1 0 0 0 0-1.414l-.793-.793.207-.207a1.009 1.009 0 0 1 .707-.293h13.1a4.93 4.93 0 0 0 2.5-.674l15.52-8.96a3.962 3.962 0 0 0 2-3.466 4.012 4.012 0 0 0 -.534-2 3.921 3.921 0 0 0 -1.663-1.563zm-40.165 25.663h-12.586v-12.6l6.873-7.117 12.713 12.717zm39.364-20.366-15.529 8.966a2.935 2.935 0 0 1 -1.491.4h-13.1a2.978 2.978 0 0 0 -2.121.879l-.207.207-9.588-9.586 2.623-2.623a2.987 2.987 0 0 1 1.808-.86c.11-.009.213-.017.315-.017h7.686a2.977 2.977 0 0 1 2.117.877l.244.244a2.978 2.978 0 0 0 2.121.879h8.162a2.053 2.053 0 0 1 1.345.5 1.965 1.965 0 0 1 .659 1.288 1.871 1.871 0 0 1 -.134.92 1.81 1.81 0 0 1 -.447.708 1.986 1.986 0 0 1 -1.413.584h-6.58a1 1 0 0 0 0 2h6.58a3.979 3.979 0 0 0 2.828-1.173 3.846 3.846 0 0 0 .78-1.113l11.338-6.546a2.009 2.009 0 0 1 1.913-.04 1.926 1.926 0 0 1 .824.77 2.025 2.025 0 0 1 .267 1 1.983 1.983 0 0 1 -1 1.736z" fill="#39b2dd" data-original="#1e81ce" style="" class=""/><path d="m61 4h-44a1 1 0 0 0 -1 1v26a1 1 0 0 0 1 1h44a1 1 0 0 0 1-1v-26a1 1 0 0 0 -1-1zm-1 26h-42v-24h42z" fill="#39b2dd" data-original="#1e81ce" style="" class=""/><path d="m20.508 24.951a6.725 6.725 0 0 1 2.541 2.541 1 1 0 0 0 .871.508h30.16a1 1 0 0 0 .869-.5 6.864 6.864 0 0 1 2.551-2.553 1 1 0 0 0 .5-.867v-12.16a1 1 0 0 0 -.508-.871 6.734 6.734 0 0 1 -2.542-2.541 1 1 0 0 0 -.87-.508h-30.16a1 1 0 0 0 -.87.508 6.734 6.734 0 0 1 -2.542 2.541 1 1 0 0 0 -.508.871v12.16a1 1 0 0 0 .508.871zm10.492-6.951a8 8 0 1 1 8 8 8.009 8.009 0 0 1 -8-8zm22.52-8a8.718 8.718 0 0 0 2.48 2.48v11.043a8.882 8.882 0 0 0 -2.478 2.477h-8.548a9.961 9.961 0 0 0 0-16zm-31.52 2.48a8.718 8.718 0 0 0 2.48-2.48h8.546a9.961 9.961 0 0 0 0 16h-8.546a8.731 8.731 0 0 0 -2.48-2.48z" fill="#39b2dd" data-original="#1e81ce" style="" class=""/><path d="m39 15a1 1 0 0 1 1 1 1 1 0 0 0 2 0 3 3 0 0 0 -2-2.816v-1.184a1 1 0 0 0 -2 0v1.184a2.993 2.993 0 0 0 1 5.816 1 1 0 1 1 -1 1 1 1 0 0 0 -2 0 3 3 0 0 0 2 2.816v1.184a1 1 0 0 0 2 0v-1.184a2.993 2.993 0 0 0 -1-5.816 1 1 0 0 1 0-2z" fill="#39b2dd" data-original="#1e81ce" style="" class=""/><path d="m51 19h2a1 1 0 0 0 0-2h-2a1 1 0 0 0 0 2z" fill="#39b2dd" data-original="#1e81ce" style="" class=""/><path d="m25 19h2a1 1 0 0 0 0-2h-2a1 1 0 0 0 0 2z" fill="#39b2dd" data-original="#1e81ce" style="" class=""/></g></g></g></svg>
