<?xml version="1.0"?>
<svg xmlns="http://www.w3.org/2000/svg" xmlns:xlink="http://www.w3.org/1999/xlink" xmlns:svgjs="http://svgjs.com/svgjs" version="1.1" width="512" height="512" x="0" y="0" viewBox="0 0 64 64" style="enable-background:new 0 0 512 512" xml:space="preserve" class=""><g><g xmlns="http://www.w3.org/2000/svg" id="pc_battery" data-name="pc battery"><path d="m31 51h-5l-1 6h14l-1-6z" fill="#c5e4ef" data-original="#78b9eb" style="" class=""/><path d="m42 24h10v4h-10z" fill="#c5e4ef" data-original="#78b9eb" style="" class=""/><path d="m42 17h10v4h-10z" fill="#c5e4ef" data-original="#78b9eb" style="" class=""/><path d="m42 10h10v4h-10z" fill="#c5e4ef" data-original="#78b9eb" style="" class=""/><path d="m59 15h-4v14a2.006 2.006 0 0 1 -2 2h-12a2.006 2.006 0 0 1 -2-2v-14h-34a2.006 2.006 0 0 0 -2 2v28h58v-28a2.006 2.006 0 0 0 -2-2zm-44 25v-8h-6l6-12v8h6z" fill="#c5e4ef" data-original="#78b9eb" style="" class=""/><g fill="#1a6fb0"><path d="m9 33h5v7a1 1 0 0 0 .771.974 1.051 1.051 0 0 0 .229.026 1 1 0 0 0 .895-.553l6-12a1 1 0 0 0 -.895-1.447h-5v-7a1 1 0 0 0 -1.895-.447l-6 12a1 1 0 0 0 .895 1.447zm5-8.764v3.764a1 1 0 0 0 1 1h4.382l-3.382 6.764v-3.764a1 1 0 0 0 -1-1h-4.382z" fill="#39b2dd" data-original="#1a6fb0" style="" class=""/><path d="m18 19h2v2h-2z" fill="#39b2dd" data-original="#1a6fb0" style="" class=""/><path d="m22 19h14v2h-14z" fill="#39b2dd" data-original="#1a6fb0" style="" class=""/><path d="m46 34h2v2h-2z" fill="#39b2dd" data-original="#1a6fb0" style="" class=""/><path d="m31 47h2v2h-2z" fill="#39b2dd" data-original="#1a6fb0" style="" class=""/><path d="m59 14h-3v-5a3 3 0 0 0 -3-3h-2v-3a1 1 0 0 0 -1-1h-6a1 1 0 0 0 -1 1v3h-2a3 3 0 0 0 -3 3v5h-33a3 3 0 0 0 -3 3v32a3 3 0 0 0 3 3h19.82l-.667 4h-1.153a1 1 0 0 0 -.8.4l-3 4a1 1 0 0 0 .8 1.6h24a1 1 0 0 0 .8-1.6l-3-4a1 1 0 0 0 -.8-.4h-1.153l-.667-4h19.82a3 3 0 0 0 3-3v-32a3 3 0 0 0 -3-3zm-14-10h4v2h-4zm-5 5a1 1 0 0 1 1-1h12a1 1 0 0 1 1 1v20a1 1 0 0 1 -1 1h-12a1 1 0 0 1 -1-1zm-35 7h33v13a3 3 0 0 0 3 3h12a3 3 0 0 0 3-3v-13h3a1 1 0 0 1 1 1v27h-56v-27a1 1 0 0 1 1-1zm37 44h-20l1.5-2h17zm-4.18-4h-11.64l.667-4h10.306zm21.18-6h-54a1 1 0 0 1 -1-1v-3h56v3a1 1 0 0 1 -1 1z" fill="#39b2dd" data-original="#1a6fb0" style="" class=""/><path d="m42 29h10a1 1 0 0 0 1-1v-4a1 1 0 0 0 -1-1h-10a1 1 0 0 0 -1 1v4a1 1 0 0 0 1 1zm1-4h8v2h-8z" fill="#39b2dd" data-original="#1a6fb0" style="" class=""/><path d="m42 22h10a1 1 0 0 0 1-1v-4a1 1 0 0 0 -1-1h-10a1 1 0 0 0 -1 1v4a1 1 0 0 0 1 1zm1-4h8v2h-8z" fill="#39b2dd" data-original="#1a6fb0" style="" class=""/><path d="m42 15h10a1 1 0 0 0 1-1v-4a1 1 0 0 0 -1-1h-10a1 1 0 0 0 -1 1v4a1 1 0 0 0 1 1zm1-4h8v2h-8z" fill="#39b2dd" data-original="#1a6fb0" style="" class=""/><path d="m19 41h28a1 1 0 0 0 1-1v-2h-2v1h-27z" fill="#39b2dd" data-original="#1a6fb0" style="" class=""/></g></g></g></svg>
