<?xml version="1.0"?>
<svg xmlns="http://www.w3.org/2000/svg" xmlns:xlink="http://www.w3.org/1999/xlink" xmlns:svgjs="http://svgjs.com/svgjs" version="1.1" width="512" height="512" x="0" y="0" viewBox="0 0 480 480" style="enable-background:new 0 0 512 512" xml:space="preserve" class=""><g><g xmlns="http://www.w3.org/2000/svg" fill="#9bc9ff"><path d="m120 8h-64c-8.824219.027344-15.972656 7.175781-16 16v48c.027344 8.824219 7.175781 15.972656 16 16h64c8.824219-.027344 15.972656-7.175781 16-16v-48c-.027344-8.824219-7.175781-15.972656-16-16zm0 0" fill="#c5e4ef" data-original="#9bc9ff" style="" class=""/><path d="m272 176h-64c-8.824219.027344-15.972656 7.175781-16 16v48c.027344 8.824219 7.175781 15.972656 16 16h64c8.824219-.027344 15.972656-7.175781 16-16v-48c-.027344-8.824219-7.175781-15.972656-16-16zm0 0" fill="#c5e4ef" data-original="#9bc9ff" style="" class=""/><path d="m424 344h-64c-8.824219.027344-15.972656 7.175781-16 16v48c.027344 8.824219 7.175781 15.972656 16 16h64c8.824219-.027344 15.972656-7.175781 16-16v-48c-.027344-8.824219-7.175781-15.972656-16-16zm0 0" fill="#c5e4ef" data-original="#9bc9ff" style="" class=""/></g><path xmlns="http://www.w3.org/2000/svg" d="m472 208h-176v-16c0-13.253906-10.746094-24-24-24h-64c-13.253906 0-24 10.746094-24 24v16h-176c-4.417969 0-8 3.582031-8 8s3.582031 8 8 8h176v16c0 13.253906 10.746094 24 24 24h64c13.253906 0 24-10.746094 24-24v-16h176c4.417969 0 8-3.582031 8-8s-3.582031-8-8-8zm-192 32c0 4.417969-3.582031 8-8 8h-64c-4.417969 0-8-3.582031-8-8v-48c0-4.417969 3.582031-8 8-8h64c4.417969 0 8 3.582031 8 8zm0 0" fill="#39b2dd" data-original="#1e81ce" style="" class=""/><path xmlns="http://www.w3.org/2000/svg" d="m472 376h-24v-16c0-13.253906-10.746094-24-24-24h-64c-13.253906 0-24 10.746094-24 24v16h-328c-4.417969 0-8 3.582031-8 8s3.582031 8 8 8h328v16c0 13.253906 10.746094 24 24 24h64c13.253906 0 24-10.746094 24-24v-16h24c4.417969 0 8-3.582031 8-8s-3.582031-8-8-8zm-40 32c0 4.417969-3.582031 8-8 8h-64c-4.417969 0-8-3.582031-8-8v-48c0-4.417969 3.582031-8 8-8h64c4.417969 0 8 3.582031 8 8zm0 0" fill="#39b2dd" data-original="#1e81ce" style="" class=""/><path xmlns="http://www.w3.org/2000/svg" d="m8 56h24v16c0 13.253906 10.746094 24 24 24h64c13.253906 0 24-10.746094 24-24v-16h328c4.417969 0 8-3.582031 8-8s-3.582031-8-8-8h-328v-16c0-13.253906-10.746094-24-24-24h-64c-13.253906 0-24 10.746094-24 24v16h-24c-4.417969 0-8 3.582031-8 8s3.582031 8 8 8zm40-32c0-4.417969 3.582031-8 8-8h64c4.417969 0 8 3.582031 8 8v48c0 4.417969-3.582031 8-8 8h-64c-4.417969 0-8-3.582031-8-8zm0 0" fill="#39b2dd" data-original="#1e81ce" style="" class=""/></g></svg>
