<?xml version="1.0"?>
<svg xmlns="http://www.w3.org/2000/svg" xmlns:xlink="http://www.w3.org/1999/xlink" xmlns:svgjs="http://svgjs.com/svgjs" version="1.1" width="512" height="512" x="0" y="0" viewBox="0 0 60 60" style="enable-background:new 0 0 512 512" xml:space="preserve" class=""><g><linearGradient xmlns="http://www.w3.org/2000/svg" id="linearGradient-1" x1="-14.203%" x2="114.203%" y1="12.364%" y2="87.636%"><stop stop-opacity="1" stop-color="#c5e4ef" offset="1"/><stop stop-opacity="1" stop-color="#ffffff" offset="1"/><stop stop-opacity="1" stop-color="#fff3f2" offset="1"/><stop stop-opacity="1" stop-color="#fff3f2" offset="1"/><stop stop-opacity="1" stop-color="#d3dff2" offset="1"/><stop stop-opacity="1" stop-color="#fff3f2" offset="1"/><stop stop-opacity="1" stop-color="#d3dff2" offset="1"/><stop stop-opacity="1" stop-color="#ebeaf2" offset="1"/><stop stop-opacity="1" stop-color="#d3dff2" offset="1"/><stop stop-opacity="1" stop-color="#fff3f2" offset="1"/><stop stop-opacity="1" stop-color="#fff3f2" offset="1"/><stop stop-opacity="1" stop-color="#f8f0f2" offset="1"/><stop stop-opacity="1" stop-color="#e7e8f2" offset="1"/><stop stop-opacity="1" stop-color="#dce3f2" offset="1"/><stop stop-opacity="1" stop-color="#d5e0f2" offset="1"/><stop stop-opacity="1" stop-color="#fff3f2" offset="1"/><stop stop-opacity="1" stop-color="#d3dff2" offset="1"/><stop stop-opacity="1" stop-color="#fff3f2" offset="1"/><stop stop-opacity="1" stop-color="#d3dff2" offset="1"/><stop stop-opacity="1" stop-color="#ebeaf2" offset="1"/><stop stop-opacity="1" stop-color="#f6eff2" offset="1"/><stop stop-opacity="1" stop-color="#dae2f2" offset="1"/><stop stop-opacity="1" stop-color="#fff3f2" offset="1"/><stop stop-opacity="1" stop-color="#fdf2f2" offset="1"/><stop stop-opacity="1" stop-color="#d3dff2" offset="1"/><stop stop-opacity="1" stop-color="#d3dff2" offset="1"/><stop stop-opacity="1" stop-color="#d3dff2" offset="1"/><stop stop-opacity="1" stop-color="#dae2f2" offset="1"/><stop stop-opacity="1" stop-color="#f6eff2" offset="1"/><stop stop-opacity="1" stop-color="#fdf2f2" offset="1"/><stop stop-opacity="1" stop-color="#ffffff" offset="1"/></linearGradient><g xmlns="http://www.w3.org/2000/svg" id="Page-1" fill="none" fill-rule="evenodd"><g id="001---Cross-Platform" fill-rule="nonzero"><path id="Shape" d="m31 1h-3v2c-.0032948 1.10320187-.8967981 1.9967052-2 2h-16c-1.10320187-.0032948-1.9967052-.89679813-2-2v-2h-3c-2.209139 0-4 1.790861-4 4v50c0 2.209139 1.790861 4 4 4h26c2.209139 0 4-1.790861 4-4v-50c0-2.209139-1.790861-4-4-4zm0 20c0 .5522847-.4477153 1-1 1h-24c-.55228475 0-1-.4477153-1-1v-10c0-.5522847.44771525-1 1-1h24c.5522847 0 1 .4477153 1 1z" fill="url(#linearGradient-1)" data-original="url(#linearGradient-1)" style=""/><path id="Shape" d="m31 1h-3c2.209139 0 4 1.790861 4 4v50c0 2.209139-1.790861 4-4 4h3c2.209139 0 4-1.790861 4-4v-50c0-2.209139-1.790861-4-4-4z" fill="#ffffff" data-original="#cad9fc" style="" class=""/><path id="Shape" d="m28 1v2c-.0032948 1.10320187-.8967981 1.9967052-2 2h-16c-1.10320187-.0032948-1.9967052-.89679813-2-2v-2z" fill="#ffffff" data-original="#a4c2f7" style="" class=""/><path id="Shape" d="m25 1v2c-.0032948 1.10320187-.8967981 1.9967052-2 2h3c1.1032019-.0032948 1.9967052-.89679813 2-2v-2z" fill="#c5e4ef" data-original="#7facfa" style="" class=""/><rect id="Rectangle-path" fill="#ffffff" height="12" rx="1" width="26" x="5" y="10" data-original="#a4c2f7" style="" class=""/><path id="Shape" d="m30 10h-3c.5522847 0 1 .4477153 1 1v10c0 .5522847-.4477153 1-1 1h3c.5522847 0 1-.4477153 1-1v-10c0-.5522847-.4477153-1-1-1z" fill="#c5e4ef" data-original="#7facfa" style="" class=""/><path id="Shape" d="m35 14v4h19c.5522847 0 1 .4477153 1 1v10c0 .5522847-.4477153 1-1 1h-19v25c0 2.209139-1.790861 4-4 4h26c1.1032019-.0032948 1.9967052-.8967981 2-2v-43zm20 31c0 .5522847-.4477153 1-1 1h-10c-.5522847 0-1-.4477153-1-1v-10c0-.5522847.4477153-1 1-1h10c.5522847 0 1 .4477153 1 1z" fill="#c5e4ef" data-original="#e8edfc" style="" class=""/><path id="Shape" d="m56 14v43c-.0032948 1.1032019-.8967981 1.9967052-2 2h3c1.1032019-.0032948 1.9967052-.8967981 2-2v-43z" fill="#ffffff" data-original="#cad9fc" style="" class=""/><path id="Shape" d="m59 8v6h-24v-8h22c1.1032019.0032948 1.9967052.89679813 2 2z" fill="#ffffff" data-original="#a4c2f7" style="" class=""/><path id="Shape" d="m57 6h-3c1.1032019.0032948 1.9967052.89679813 2 2v6h3v-6c-.0032948-1.10320187-.8967981-1.9967052-2-2z" fill="#c5e4ef" data-original="#7facfa" style="" class=""/><path id="Shape" d="m55 19v10c0 .5522847-.4477153 1-1 1h-19v-12h19c.5522847 0 1 .4477153 1 1z" fill="#ffffff" data-original="#a4c2f7" style="" class=""/><path id="Shape" d="m54 18h-3c.5522847 0 1 .4477153 1 1v10c0 .5522847-.4477153 1-1 1h3c.5522847 0 1-.4477153 1-1v-10c0-.5522847-.4477153-1-1-1z" fill="#c5e4ef" data-original="#7facfa" style="" class=""/><rect id="Rectangle-path" fill="#ffffff" height="12" rx="1" width="12" x="43" y="34" data-original="#a4c2f7" style="" class=""/><path id="Shape" d="m54 34h-3c.5522847 0 1 .4477153 1 1v10c0 .5522847-.4477153 1-1 1h3c.5522847 0 1-.4477153 1-1v-10c0-.5522847-.4477153-1-1-1z" fill="#c5e4ef" data-original="#7facfa" style="" class=""/><path id="Shape" d="m5 59h3c-2.209139 0-4-1.790861-4-4v-50c0-2.209139 1.790861-4 4-4h-3c-2.209139 0-4 1.790861-4 4v50c0 2.209139 1.790861 4 4 4z" fill="#c5e4ef" data-original="#ffffff" style="" class=""/><path id="Rectangle-path" d="m0 47h2v8h-2z" fill="#c5e4ef" data-original="#ffffff" style="" class=""/><g fill="#428dff"><path id="Shape" d="m1.02 52c-.55228473.0027614-1.00223852-.4427153-1.00499994-.995-.00276143-.5522847.44271521-1.0022385.99499994-1.005h.01c.55228475 0 1 .4477153 1 1s-.44771525 1-1 1z" fill="#39b2dd" data-original="#428dff" style="" class=""/><path id="Shape" d="m13 54c-.5522847 0-1 .4477153-1 1s.4477153 1 1 1h10c.5522847 0 1-.4477153 1-1s-.4477153-1-1-1z" fill="#39b2dd" data-original="#428dff" style="" class=""/><path id="Shape" d="m32 21v-10c0-1.1045695-.8954305-2-2-2h-24c-1.1045695 0-2 .8954305-2 2v10c0 1.1045695.8954305 2 2 2h24c1.1045695 0 2-.8954305 2-2zm-21.764 0 19.764-9.882v9.882zm15.528-10-19.764 9.882v-9.882z" fill="#39b2dd" data-original="#428dff" style="" class=""/><path id="Shape" d="m7 27h5c.5522847 0 1-.4477153 1-1s-.4477153-1-1-1h-5c-.55228475 0-1 .4477153-1 1s.44771525 1 1 1z" fill="#39b2dd" data-original="#428dff" style="" class=""/><path id="Shape" d="m29 25h-13c-.5522847 0-1 .4477153-1 1s.4477153 1 1 1h13c.5522847 0 1-.4477153 1-1s-.4477153-1-1-1z" fill="#39b2dd" data-original="#428dff" style="" class=""/><path id="Shape" d="m7 34h12c.5522847 0 1-.4477153 1-1s-.4477153-1-1-1h-12c-.55228475 0-1 .4477153-1 1s.44771525 1 1 1z" fill="#39b2dd" data-original="#428dff" style="" class=""/><path id="Shape" d="m29 32h-6c-.5522847 0-1 .4477153-1 1s.4477153 1 1 1h6c.5522847 0 1-.4477153 1-1s-.4477153-1-1-1z" fill="#39b2dd" data-original="#428dff" style="" class=""/><path id="Shape" d="m29 36h-22c-.55228475 0-1 .4477153-1 1s.44771525 1 1 1h22c.5522847 0 1-.4477153 1-1s-.4477153-1-1-1z" fill="#39b2dd" data-original="#428dff" style="" class=""/><path id="Shape" d="m7 42h12c.5522847 0 1-.4477153 1-1s-.4477153-1-1-1h-12c-.55228475 0-1 .4477153-1 1s.44771525 1 1 1z" fill="#39b2dd" data-original="#428dff" style="" class=""/><path id="Shape" d="m29 40h-6c-.5522847 0-1 .4477153-1 1s.4477153 1 1 1h6c.5522847 0 1-.4477153 1-1s-.4477153-1-1-1z" fill="#39b2dd" data-original="#428dff" style="" class=""/><path id="Shape" d="m30 45c0-.5522847-.4477153-1-1-1h-22c-.55228475 0-1 .4477153-1 1s.44771525 1 1 1h22c.5522847 0 1-.4477153 1-1z" fill="#39b2dd" data-original="#428dff" style="" class=""/><path id="Shape" d="m57 5h-21c-.0033061-2.76005315-2.2399468-4.99669388-5-5h-26c-2.76005315.00330612-4.99669388 2.23994685-5 5v42c0 .5522847.44771525 1 1 1s1-.4477153 1-1v-42c0-1.65685425 1.34314575-3 3-3h2v1c0 1.65685425 1.34314575 3 3 3h16c1.6568542 0 3-1.34314575 3-3v-1h2c1.6568542 0 3 1.34314575 3 3v50c0 1.6568542-1.3431458 3-3 3h-26c-1.65685425 0-3-1.3431458-3-3 0-.5522847-.44771525-1-1-1s-1 .4477153-1 1c.00330612 2.7600532 2.23994685 4.9966939 5 5h52c1.6568542 0 3-1.3431458 3-3v-49c0-1.65685425-1.3431458-3-3-3zm-30-2c0 .55228475-.4477153 1-1 1h-16c-.55228475 0-1-.44771525-1-1v-1h18zm30 4c.5522847 0 1 .44771525 1 1v5h-22v-6zm-3 12v10h-15.7l15-10zm-18 9.132v-9.132h13.7zm21 29.868h-22.026c.4545708-.5887694.7707242-1.2723442.925-2h12.101c.5522847 0 1-.4477153 1-1s-.4477153-1-1-1h-12v-23h18c1.1045695 0 2-.8954305 2-2v-10c0-1.1045695-.8954305-2-2-2h-18v-2h22v42c0 .5522847-.4477153 1-1 1z" fill="#39b2dd" data-original="#428dff" style="" class=""/><circle id="Oval" cx="55" cy="10" r="1" fill="#39b2dd" data-original="#428dff" style="" class=""/><circle id="Oval" cx="51" cy="10" r="1" fill="#39b2dd" data-original="#428dff" style="" class=""/><circle id="Oval" cx="47" cy="10" r="1" fill="#39b2dd" data-original="#428dff" style="" class=""/><path id="Shape" d="m54 33h-10c-1.1045695 0-2 .8954305-2 2v10c0 1.1045695.8954305 2 2 2h10c1.1045695 0 2-.8954305 2-2v-10c0-1.1045695-.8954305-2-2-2zm-.562 2-9.438 7.865v-7.865zm-8.876 10 9.438-7.865v7.865z" fill="#39b2dd" data-original="#428dff" style="" class=""/><path id="Shape" d="m55 54h-3c-.5522847 0-1 .4477153-1 1s.4477153 1 1 1h3c.5522847 0 1-.4477153 1-1s-.4477153-1-1-1z" fill="#39b2dd" data-original="#428dff" style="" class=""/></g></g></g></g></svg>
