<?xml version="1.0"?>
<svg xmlns="http://www.w3.org/2000/svg" xmlns:xlink="http://www.w3.org/1999/xlink" xmlns:svgjs="http://svgjs.com/svgjs" version="1.1" width="512" height="512" x="0" y="0" viewBox="0 0 64 64" style="enable-background:new 0 0 512 512" xml:space="preserve" class=""><g><path xmlns="http://www.w3.org/2000/svg" d="m3 32s19.611 15 29 15 29-15 29-15-19.611-15-29-15-29 15-29 15zm41 0a12 12 0 1 1 -12-12 12 12 0 0 1 12 12z" fill="#c5e4ef" data-original="#9bc9ff" style="" class=""/><circle xmlns="http://www.w3.org/2000/svg" cx="32" cy="32" fill="#c5e4ef" r="5" data-original="#9bc9ff" style="" class=""/><g xmlns="http://www.w3.org/2000/svg" fill="#1e81ce"><path d="m32 48c-9.617 0-28.8-14.585-29.607-15.206l-1.039-.794 1.039-.794c.807-.621 19.99-15.206 29.607-15.206s28.8 14.585 29.607 15.206l1.039.794-1.039.794c-.807.621-19.99 15.206-29.607 15.206zm-27.326-16c4.182 3.073 19.601 14 27.326 14s23.143-10.926 27.326-14c-4.182-3.073-19.601-14-27.326-14s-23.143 10.926-27.326 14z" fill="#39b2dd" data-original="#1e81ce" style="" class=""/><path d="m32 45a13 13 0 1 1 13-13 13.015 13.015 0 0 1 -13 13zm0-24a11 11 0 1 0 11 11 11.013 11.013 0 0 0 -11-11z" fill="#39b2dd" data-original="#1e81ce" style="" class=""/><path d="m31 2h2v8h-2z" fill="#39b2dd" data-original="#1e81ce" style="" class=""/><path d="m12.615 9.615h2v8.001h-2z" transform="matrix(.707 -.707 .707 .707 -5.64 13.615)" fill="#39b2dd" data-original="#1e81ce" style="" class=""/><path d="m9.615 49.385h8.001v2h-8.001z" transform="matrix(.707 -.707 .707 .707 -31.64 24.385)" fill="#39b2dd" data-original="#1e81ce" style="" class=""/><path d="m31 54h2v8h-2z" fill="#39b2dd" data-original="#1e81ce" style="" class=""/><path d="m49.385 46.385h2v8.001h-2z" transform="matrix(.707 -.707 .707 .707 -20.87 50.385)" fill="#39b2dd" data-original="#1e81ce" style="" class=""/><path d="m46.385 12.615h8.001v2h-8.001z" transform="matrix(.707 -.707 .707 .707 5.13 39.615)" fill="#39b2dd" data-original="#1e81ce" style="" class=""/><path d="m32 38a6 6 0 1 1 6-6 6.006 6.006 0 0 1 -6 6zm0-10a4 4 0 1 0 4 4 4 4 0 0 0 -4-4z" fill="#39b2dd" data-original="#1e81ce" style="" class=""/></g></g></svg>
