<?xml version="1.0"?>
<svg xmlns="http://www.w3.org/2000/svg" xmlns:xlink="http://www.w3.org/1999/xlink" xmlns:svgjs="http://svgjs.com/svgjs" version="1.1" width="512" height="512" x="0" y="0" viewBox="0 0 50 60" style="enable-background:new 0 0 512 512" xml:space="preserve" class=""><g><g xmlns="http://www.w3.org/2000/svg" id="Page-1" fill="none" fill-rule="evenodd"><g id="021---Gears" fill-rule="nonzero" transform="translate(-1)"><path id="Shape" d="m46.98 19.69v-5.38l2.11-2c.2712859-.2531148.3295623-.6610497.14-.98l-2.69-4.66c-.1905282-.31960534-.5719875-.47136873-.93-.37l-2.78.83-4.67-2.7-.68-2.82c-.0878066-.35914409-.4102802-.61133502-.78-.61h-5.4c-.3697198-.00133502-.6921934.25085591-.78.61l-.68 2.82-4.67 2.7-2.78-.83c-.3580125-.10136873-.7394718.05039466-.93.37l-2.69 4.66c-.1895623.3189503-.1312859.7268852.14.98l.73.69 1.38 1.31v5.38l-2.11 2c-.2712859.2531148-.3295623.6610497-.14.98l2.69 4.66c.1905282.3196053.5719875.4713687.93.37l2.78-.83 4.67 2.7.68 2.82c.0878066.3591441.4102802.611335.78.61h5.4c.3697198.001335.6921934-.2508559.78-.61l.68-2.82 4.67-2.7 1.92.57.86.26c.3580125.1013687.7394718-.0503947.93-.37l2.69-4.66c.1895623-.3189503.1312859-.7268852-.14-.98zm-5.93 1.11v.01c-.07.13-.14.26-.22.38-1.8811247 3.0503657-5.5573225 4.4829784-9.0064212 3.5097983-3.4490987-.97318-5.8343027-4.1160468-5.8435788-7.6997983-.0016891-1.3281233.3319537-2.6351776.97-3.8.07-.13.14-.26.22-.39 1.8811247-3.05036571 5.5573225-4.48297838 9.0064212-3.50979834s5.8343027 4.11604684 5.8435788 7.69979834c.0016891 1.3281233-.3319537 2.6351776-.97 3.8z" fill="#e8edfc" data-original="#e8edfc" style="" class=""/><path id="Shape" d="m34.48 1.61.68 2.82 4.67 2.7 1.978-.591-3.648-2.109-.68-2.82c-.0878066-.35914409-.4102802-.61133502-.78-.61l-3-.00000527c.3697198-.00132975.6921934.25086118.78.61000527z" fill="#cad9fc" data-original="#cad9fc" style="" class=""/><path id="Shape" d="m46.98 19.69v-5.38l2.11-2c.2712859-.2531148.3295623-.6610497.14-.98l-2.69-4.66c-.1905282-.31960534-.5719875-.47136873-.93-.37l-1.948.582 2.568 4.448c.1895623.3189503.1312859.7268852-.14.98l-2.11 2v5.38l2.11 2c.2712859.2531148.3295623.6610497.14.98l-2.567 4.447 1.087.323.86.26c.3580125.1013687.7394718-.0503947.93-.37l2.69-4.66c.1895623-.3189503.1312859-.7268852-.14-.98z" fill="#cad9fc" data-original="#cad9fc" style="" class=""/><path id="Shape" d="m42.02 17c.0016891 1.3281233-.3319537 2.6351776-.97 3.8v.01c-.07.13-.14.26-.22.38-1.8811247 3.0503657-5.5573225 4.4829784-9.0064212 3.5097983-3.4490987-.97318-5.8343027-4.1160468-5.8435788-7.6997983-.0016891-1.3281233.3319537-2.6351776.97-3.8.07-.13.14-.26.22-.39 1.8811247-3.05036571 5.5573225-4.48297838 9.0064212-3.50979834s5.8343027 4.11604684 5.8435788 7.69979834z" fill="#c3e5f1" data-original="#a4c2f7" style="" class=""/><path id="Shape" d="m16.6 21.508.887-3.7c.1119473-.4742432.535724-.8089563 1.023-.808h7.043c.4851909.0006784.9066063.334006 1.019.806l.887 3.7 6.1 3.531 3.64-1.08c.464834-.1380619.9636112.061449 1.205.482l3.522 6.118c.2420911.4209217.1652872.952768-.186 1.288l-2.753 2.622v7.062l2.753 2.622c.3512872.335232.4280911.8670783.186 1.288l-3.526 6.12c-.2413888.420551-.740166.6200619-1.205.482l-3.64-1.08-6.1 3.531-.887 3.7c-.111255.4713407-.5307148.8052555-1.015.808h-7.043c-.4851909-.0006784-.9066063-.334006-1.019-.806l-.887-3.7-6.1-3.531-3.64 1.08c-.46329946.1354604-.95912856-.0636977-1.2-.482l-3.524-6.12c-.24209111-.4209217-.16528722-.952768.186-1.288l2.753-2.622v-7.062l-2.753-2.622c-.35128722-.335232-.42809111-.8670783-.186-1.288l3.522-6.118c.24138883-.420551.740166-.6200619 1.205-.482l3.64 1.08z" fill="#e8edfc" data-original="#e8edfc" style="" class=""/><path id="Shape" d="m23.572 17.806.887 3.7 6.1 3.531 1.983-.589-5.08-2.942-.887-3.7c-.1126533-.4730842-.5356885-.8067108-1.022-.806l-3-.0000011c.4851909.0006795.9066063.3340071 1.019.8060011z" fill="#cad9fc" data-original="#cad9fc" style="" class=""/><path id="Shape" d="m30.556 50.961-6.1 3.531-.887 3.7c-.1113428.471702-.5313406.805716-1.016.808h3c.4851909-.0006784.9066063-.334006 1.019-.806l.887-3.7 5.08-2.942z" fill="#cad9fc" data-original="#cad9fc" style="" class=""/><path id="Shape" d="m38.984 41.531v-7.062l2.753-2.622c.3512872-.335232.4280911-.8670783.186-1.288l-3.523-6.118c-.241589-.4203471-.7399651-.6201111-1.205-.483l-1.77.526 3.5 6.075c.2420911.4209217.1652872.952768-.186 1.288l-2.753 2.622v7.062l2.753 2.622c.3512872.335232.4280911.8670783.186 1.288l-3.5 6.075 1.77.525c.464834.1380619.9636112-.061449 1.205-.482l3.522-6.118c.2420911-.4209217.1652872-.952768-.186-1.288z" fill="#cad9fc" data-original="#cad9fc" style="" class=""/><circle id="Oval" cx="22" cy="38" fill="#c3e5f1" r="12" data-original="#a4c2f7" style="" class=""/><path id="Shape" d="m2.326 44.153c-.35128722.335232-.42809111.8670783-.186 1.288l3.522 6.118c.24138883.420551.740166.6200619 1.205.482l1.77-.525-3.5-6.075c-.24209111-.4209217-.16528722-.952768.186-1.288l2.753-2.622v-7.062l-2.753-2.622c-.35128722-.335232-.42809111-.8670783-.186-1.288l3.5-6.075-1.77-.526c-.46349782-.1345172-.95893251.0648953-1.2.483l-3.527 6.118c-.24209111.4209217-.16528722.952768.186 1.288l2.753 2.622v7.062z" fill="#ffffff" data-original="#ffffff" style=""/><path id="Shape" d="m18.51 17c-.4851909.0006784-.9066063.334006-1.019.806l-.887 3.7-5.081 2.944 1.984.589 6.1-3.531.887-3.7c.1113428-.471702.5313406-.805716 1.016-.808h2.51v-2.69c-1.656-1.572-1.191-1.131-2.11-2-.2712859-.2531148-.3295623-.6610497-.14-.98l2.568-4.448-1.948-.582c-.3580125-.10136873-.7394718.05039466-.93.37l-2.69 4.66c-.1895623.3189503-.1312859.7268852.14.98.919.869.454.428 2.11 2v2.69z" fill="#ffffff" data-original="#ffffff" style=""/><path id="Shape" d="m30.52 1.61-.68 2.82-3.648 2.109 1.978.591 4.67-2.7.68-2.82c.0878066-.35914409.4102802-.61133502.78-.61000527l-3 .00000527c-.3697198-.00133502-.6921934.25085591-.78.61z" fill="#ffffff" data-original="#ffffff" style=""/><path id="Shape" d="m20.491 58.194-.887-3.7-6.1-3.531-1.984.589 5.08 2.94.887 3.7c.1119473.4742432.535724.8089563 1.023.808l3 .000002c-.4851909-.0006804-.9066063-.334008-1.019-.806002z" fill="#ffffff" data-original="#ffffff" style=""/><g fill="#428dff"><path id="Shape" d="m1.637 43.428c-.68779597.6523247-.83834463 1.6912759-.364 2.512l3.527 6.118c.47000985.821644 1.44367992 1.2117747 2.351.942l3.227-.958 5.353 3.1.788 3.284c.2171061.9236883 1.042142 1.5759266 1.991 1.574h7.043c.9484341.0016666 1.7731678-.6499187 1.991-1.573l.788-3.285 5.353-3.1 3.227.958c.9088503.2723936 1.8854834-.1180939 2.356-.942l3.522-6.119c.4736553-.8201813.3231283-1.8581555-.364-2.51l-2.442-2.329v-6.2l2.443-2.326c.6866154-.6526022.8366812-1.6906608.363-2.511l-3.522-6.118c-.4698453-.8247537-1.4464536-1.2164748-2.356-.945l-3.227.958-5.353-3.1-.788-3.285c-.2178322-.9230813-1.0425659-1.5746666-1.991-1.573h-7.043c-.9485618-.0020353-1.7734971.6497091-1.991 1.573l-.788 3.285-5.353 3.1-3.227-.958c-.90886773-.2727852-1.88574081.1177982-2.356.942l-3.522 6.119c-.47441451.8200352-.3238148 1.8585112.364 2.51l2.442 2.329v6.2zm4.132-9.683-2.762-2.687 3.575-6.141 3.64 1.083c.2637037.078966.5483544.0449238.786-.094l6.1-3.53c.2375023-.1373218.4081575-.3661878.472-.633l.93-3.743 7.089.039.887 3.7c.0638425.2668122.2344977.4956782.472.633l6.1 3.53c.2376456.1389238.5222963.172966.786.094l3.694-1.058 3.512 6.183-2.753 2.622c-.1980181.1887686-.3100521.4504223-.31.724v7.062c-.0000521.2735777.1119819.5352314.31.724l2.762 2.687-3.575 6.141-3.643-1.081c-.2637764-.0781147-.548083-.0441137-.786.094l-6.1 3.53c-.2375023.1373218-.4081575.3661878-.472.633l-.93 3.743-7.089-.039-.887-3.7c-.0638425-.2668122-.2344977-.4956782-.472-.633l-6.1-3.53c-.1517723-.0884804-.3243196-.1350682-.5-.135-.0964578.0001621-.192408.0139654-.285.041l-3.692 1.056-3.512-6.183 2.753-2.622c.19801811-.1887686.31005215-.4504223.31-.724v-7.062c.00005215-.2735777-.11198189-.5352314-.31-.724z" fill="#39b2dd" data-original="#428dff" style="" class=""/><path id="Shape" d="m16.414 28.523c4.3210748-2.5485357 9.8190474-1.850654 13.3663507 1.6966493s4.245185 9.0452759 1.6966493 13.3663507c-.2615945.4741053-.0983023 1.0702967.3683677 1.3449359.4666699.2746392 1.0671597.1279399 1.3546323-.3309359 3.0090633-5.1062892 2.1833696-11.6014067-2.0076118-15.7923882-4.1909815-4.1909814-10.686099-5.0166751-15.7923882-2.0076118-.4755172.2811129-.6331129.8944828-.352 1.37s.8944828.6331129 1.37.352z" fill="#39b2dd" data-original="#428dff" style="" class=""/><path id="Shape" d="m22.006 51.005c2.3200417.0001498 4.5974808-.6232621 6.594-1.805.4755172-.2811129.6331129-.8944828.352-1.37s-.8944828-.6331129-1.37-.352c-4.3211192 2.5453504-9.8168167 1.8457538-13.3624147-1.7010214-3.5455979-3.5467752-4.24337002-9.0427047-1.6965853-13.3629786.2615945-.4741053.0983023-1.0702967-.3683677-1.3449359-.4666699-.2746392-1.0671597-.1279399-1.3546323.3309359-2.3661785 4.021122-2.39757338 9.0015084-.0822768 13.052141 2.3152965 4.0506326 6.6226344 6.5510477 11.2882768 6.552859z" fill="#39b2dd" data-original="#428dff" style="" class=""/><path id="Shape" d="m25 34.5c0 .5522847.4477153 1 1 1s1-.4477153 1-1c-.0965423-2.2415987-1.7783513-4.0953727-4-4.409v-.091c0-.5522847-.4477153-1-1-1s-1 .4477153-1 1v.091c-2.2218483.3132505-3.9038521 2.1672392-4 4.409.0961479 2.2417608 1.7781517 4.0957495 4 4.409v4.937c-1.1130215-.2521637-1.9271195-1.2071006-2-2.346 0-.5522847-.4477153-1-1-1s-1 .4477153-1 1c.0961479 2.2417608 1.7781517 4.0957495 4 4.409v.091c0 .5522847.4477153 1 1 1s1-.4477153 1-1v-.091c2.2689467-.2217152 3.9991648-2.1292464 3.9991648-4.409s-1.7302181-4.1872848-3.9991648-4.409v-4.937c1.1128409.2524624 1.9267959 1.2072317 2 2.346zm-6 0c.0728805-1.1388994.8869785-2.0938363 2-2.346v4.692c-1.1130215-.2521637-1.9271195-1.2071006-2-2.346zm6 7c-.0732041 1.1387683-.8871591 2.0935376-2 2.346v-4.692c1.1128409.2524624 1.9267959 1.2072317 2 2.346z" fill="#39b2dd" data-original="#428dff" style="" class=""/><path id="Shape" d="m49.769 13.044c.6140753-.5700148.7515129-1.489311.331-2.214l-2.7-4.671c-.4275161-.71058696-1.2788598-1.04562929-2.076-.817l-2.367.706-3.925-2.269-.582-2.411c-.1988845-.80446924-.9213116-1.36920083-1.75-1.368h-5.4c-.8314842-.00133616-1.5556782.56702386-1.752 1.375l-.58 2.4-3.925 2.273-2.386-.712c-.7970938-.21967216-1.6425088.1221001-2.063.834l-2.684 4.649c-.4244313.7221061-.294682 1.6415438.313 2.218l.73.69c.2597321.2454415.6306759.3336733.9731005.2314595.3424246-.1022139.6043075-.3793447.687-.727.0826925-.3476554-.0263684-.713018-.2861005-.9584595l-.613-.579 2.536-4.394 2.634.786c.2626891.0805295.5469399.04942826.786-.086l4.67-2.7c.2370662-.13686566.4076626-.36492992.472-.631l.643-2.669h5.09l.643 2.665c.0643374.26607008.2349338.49413434.472.631l4.67 2.704c.2379343.13825157.5225704.17156775.786.092l2.634-.792 2.536 4.393-1.994 1.89c-.1992589.1889046-.3120794.4514293-.312.726v5.38c-.0000794.2745707.1127411.5370954.312.726l1.994 1.89-2.536 4.395-.71-.215c-.5270075-.1555988-1.0808314.1431808-1.2401899.6690637-.1593584.5258829.1354585 1.0818264.6601899 1.2449363l.883.267c.7971147.2200366 1.642747-.1218234 2.063-.834l2.684-4.649c.4264562-.7211894.2969371-1.6415222-.312-2.217l-1.8-1.7v-4.526z" fill="#39b2dd" data-original="#428dff" style="" class=""/><path id="Shape" d="m40.3 22.039c.2251459.1403856.4968537.1855403.7553043.1255227.2584505-.0600175.4824547-.2202867.6226957-.4455227.8796776-1.4166188 1.3446022-3.0514765 1.342-4.719-.009972-4.1222438-2.8127245-7.71346466-6.8090545-8.72457294s-8.1697368.81508004-10.1389455 4.43657294c-.0799467.1466448-.1218896.3109786-.122.478v.01c.0041543.4623371.3247189.8615451.7752503.9654407.4505315.1038957.9135459-.1146136 1.1197497-.5284407 1.5426961-2.8053774 4.7876479-4.21208107 7.889753-3.4202496 3.1021052.7918315 5.2758578 3.5816929 5.285247 6.7832496.0031039 1.2935201-.3568788 2.5619483-1.039 3.661-.1404754.2250247-.1857853.4966442-.1259582.7550821.059827.2584379.2198882.4825151.4449582.6229179z" fill="#39b2dd" data-original="#428dff" style="" class=""/></g></g></g></g></svg>
