<?xml version="1.0"?>
<svg xmlns="http://www.w3.org/2000/svg" xmlns:xlink="http://www.w3.org/1999/xlink" xmlns:svgjs="http://svgjs.com/svgjs" version="1.1" width="512" height="512" x="0" y="0" viewBox="0 0 64 64" style="enable-background:new 0 0 512 512" xml:space="preserve" class=""><g><g xmlns="http://www.w3.org/2000/svg" fill="#c4a2fc"><path d="m46.413 23.5a3 3 0 0 1 0 4.243l-3.531 3.531a1 1 0 0 0 .453 1.669 8.021 8.021 0 0 1 5.194 4.673l6.884 6.884a1.02 1.02 0 0 0 1.413 0l6.174-6.174a22.039 22.039 0 0 0 -18.66-19.464 1 1 0 0 0 -.862 1.7z" fill="#a2c9fc" data-original="#c4a2fc" style=""/><path d="m24 35.327a3.008 3.008 0 0 1 4.242 0l3.532 3.531a1 1 0 0 0 1.669-.453 8.021 8.021 0 0 1 4.673-5.194l6.884-6.884a1 1 0 0 0 0-1.414l-6.174-6.173a22.038 22.038 0 0 0 -19.464 18.66 1 1 0 0 0 1.7.861z" fill="#a2c9fc" data-original="#c4a2fc" style=""/><path d="m35.827 57.741a3 3 0 0 1 0-4.243l3.531-3.531a1 1 0 0 0 -.453-1.669 8.021 8.021 0 0 1 -5.194-4.673l-6.884-6.884a1.021 1.021 0 0 0 -1.414 0l-6.173 6.173a22.039 22.039 0 0 0 18.66 19.464 1 1 0 0 0 .861-1.7z" fill="#a2c9fc" data-original="#c4a2fc" style=""/><path d="m58.241 45.913a3 3 0 0 1 -2.684.828 3.152 3.152 0 0 1 -1.639-.909l-3.452-3.451a1 1 0 0 0 -1.667.45 8.023 8.023 0 0 1 -4.807 5.247.954.954 0 0 1 -.165.249l-6.586 6.586a1 1 0 0 0 0 1.413l6.173 6.174a22.039 22.039 0 0 0 19.464-18.66 1 1 0 0 0 -1.7-.861z" fill="#a2c9fc" data-original="#c4a2fc" style=""/><path d="m41.12 44.609a4 4 0 1 1 4-4 4 4 0 0 1 -4 4z" fill="#a2c9fc" data-original="#c4a2fc" style=""/></g><path xmlns="http://www.w3.org/2000/svg" d="m24.388 18.833a7.667 7.667 0 1 0 7.666 7.667 7.675 7.675 0 0 0 -7.666-7.667zm0 13.334a5.667 5.667 0 1 1 5.666-5.667 5.673 5.673 0 0 1 -5.666 5.667z" fill="#151a6a" data-original="#151a6a" style=""/><path xmlns="http://www.w3.org/2000/svg" d="m46.956 19.53a2.5 2.5 0 0 0 .489-3.093l-2.813-4.874a2.5 2.5 0 0 0 -2.925-1.123l-5.421 1.76-5.464-3.154-1.186-5.574a2.5 2.5 0 0 0 -2.436-1.972h-5.626a2.5 2.5 0 0 0 -2.435 1.972l-1.186 5.574-5.464 3.154-5.421-1.76a2.5 2.5 0 0 0 -2.924 1.123l-2.814 4.874a2.5 2.5 0 0 0 .49 3.094l4.234 3.815v6.308l-4.234 3.815a2.5 2.5 0 0 0 -.49 3.094l2.814 4.874a2.5 2.5 0 0 0 2.924 1.123l5.421-1.76 5.464 3.154 1.186 5.574a2.5 2.5 0 0 0 2.435 1.972h5.626a2.5 2.5 0 0 0 2.435-1.972l1.186-5.574 5.465-3.154 5.422 1.76a2.5 2.5 0 0 0 2.924-1.123l2.813-4.874a2.5 2.5 0 0 0 -.489-3.094l-4.235-3.815v-6.308zm-5.905 11.313 4.565 4.111a.492.492 0 0 1 .1.609l-2.816 4.874a.493.493 0 0 1 -.576.22l-5.844-1.9a1 1 0 0 0 -.808.085l-6.235 3.6a1 1 0 0 0 -.478.659l-1.279 6.011a.492.492 0 0 1 -.479.388h-5.627a.493.493 0 0 1 -.479-.388l-1.279-6.012a1 1 0 0 0 -.478-.659l-6.234-3.6a1 1 0 0 0 -.809-.085l-5.844 1.9a.49.49 0 0 1 -.575-.22l-2.813-4.873a.49.49 0 0 1 .1-.608l4.565-4.112a1 1 0 0 0 .33-.743v-7.2a1 1 0 0 0 -.33-.743l-4.569-4.112a.49.49 0 0 1 -.1-.608l2.813-4.874a.493.493 0 0 1 .575-.22l5.844 1.9a1 1 0 0 0 .809-.085l6.234-3.6a1 1 0 0 0 .478-.659l1.288-6.011a.493.493 0 0 1 .479-.388h5.621a.492.492 0 0 1 .479.388l1.28 6.012a1 1 0 0 0 .478.659l6.235 3.6a1 1 0 0 0 .808.085l5.844-1.9a.494.494 0 0 1 .576.22l2.813 4.874a.492.492 0 0 1 -.1.608l-4.566 4.112a1 1 0 0 0 -.33.743v7.2a1 1 0 0 0 .334.742z" fill="#151a6a" data-original="#151a6a" style=""/><path xmlns="http://www.w3.org/2000/svg" d="m27.218 37.164a11 11 0 0 1 -10.625-18.4 1 1 0 0 0 -.7-1.707l-4.282-.039h-.009a1 1 0 0 0 -.01 2l2.162.019a13 13 0 0 0 13.982 20.063 1 1 0 1 0 -.518-1.932z" fill="#151a6a" data-original="#151a6a" style=""/><path xmlns="http://www.w3.org/2000/svg" d="m37.061 33.985h-.01l-2.037.015a13 13 0 0 0 -14.008-20.018 1 1 0 0 0 .519 1.932 11 11 0 0 1 10.625 18.4 1 1 0 0 0 .707 1.707h.009l4.2-.039a1 1 0 0 0 -.009-2z" fill="#151a6a" data-original="#151a6a" style=""/></g></svg>
