<?xml version="1.0"?>
<svg xmlns="http://www.w3.org/2000/svg" xmlns:xlink="http://www.w3.org/1999/xlink" xmlns:svgjs="http://svgjs.com/svgjs" version="1.1" width="512" height="512" x="0" y="0" viewBox="0 0 64 64" style="enable-background:new 0 0 512 512" xml:space="preserve" class=""><g><g xmlns="http://www.w3.org/2000/svg" id="Golbal-computer-network-laptop-smartphone"><path d="m44 57h-1v2a2.006 2.006 0 0 0 2 2h14a2.006 2.006 0 0 0 2-2v-2z" fill="#c5e4ef" data-original="#bddbff" style="" class=""/><path d="m43 13a2.006 2.006 0 0 0 2 2h14a2.006 2.006 0 0 0 2-2v-2h-18z" fill="#c5e4ef" data-original="#bddbff" style="" class=""/><path d="m40.65 43a13.957 13.957 0 0 0 5.35-11h-9a32.786 32.786 0 0 1 -1.05 8.58 13.732 13.732 0 0 1 4.7 2.42z" fill="#c5e4ef" data-original="#bddbff" style="" class=""/><path d="m35.95 23.42a13.732 13.732 0 0 0 4.7-2.42 13.938 13.938 0 0 0 -8.65-3c1.61 0 3.04 2.12 3.95 5.42z" fill="#c5e4ef" data-original="#bddbff" style="" class=""/><path d="m28.05 23.42a32.786 32.786 0 0 0 -1.05 8.58h10a32.786 32.786 0 0 0 -1.05-8.58 13.74 13.74 0 0 1 -7.9 0z" fill="#c5e4ef" data-original="#bddbff" style="" class=""/><path d="m28.05 40.58c.91 3.3 2.34 5.42 3.95 5.42s3.04-2.12 3.95-5.42a13.74 13.74 0 0 0 -7.9 0z" fill="#c5e4ef" data-original="#bddbff" style="" class=""/><path d="m32 18a13.938 13.938 0 0 0 -8.65 3 13.732 13.732 0 0 0 4.7 2.42c.91-3.3 2.34-5.42 3.95-5.42z" fill="#c5e4ef" data-original="#bddbff" style="" class=""/><path d="m18 32a13.957 13.957 0 0 0 5.35 11 13.732 13.732 0 0 1 4.7-2.42 32.786 32.786 0 0 1 -1.05-8.58z" fill="#c5e4ef" data-original="#bddbff" style="" class=""/><path d="m5 17h14a2.006 2.006 0 0 0 2-2v-2h-18v2a2.006 2.006 0 0 0 2 2z" fill="#c5e4ef" data-original="#bddbff" style="" class=""/><path d="m17 61a2.006 2.006 0 0 0 2-2v-8a2.006 2.006 0 0 0 -2-2h-4a2.006 2.006 0 0 0 -2 2v8a2.006 2.006 0 0 0 2 2z" fill="#c5e4ef" data-original="#bddbff" style="" class=""/><g fill="#57a4ff"><path d="m32 17a15 15 0 1 0 15 15 15.018 15.018 0 0 0 -15-15zm12.95 14h-6.97a34.48 34.48 0 0 0 -.84-6.91 15.209 15.209 0 0 0 3.45-1.82 12.991 12.991 0 0 1 4.36 8.73zm-6.05-10a13.14 13.14 0 0 1 -2.31 1.16 13.79 13.79 0 0 0 -1.2-2.7 13.008 13.008 0 0 1 3.51 1.54zm-6.9-2c.84 0 1.87 1.34 2.67 3.71a12.436 12.436 0 0 1 -5.34 0c.8-2.37 1.83-3.71 2.67-3.71zm0 6a14.989 14.989 0 0 0 3.22-.36 32.03 32.03 0 0 1 .76 6.36h-7.96a32.03 32.03 0 0 1 .76-6.36 14.989 14.989 0 0 0 3.22.36zm-3.39-5.54a13.79 13.79 0 0 0 -1.2 2.7 13.14 13.14 0 0 1 -2.31-1.16 13.008 13.008 0 0 1 3.51-1.54zm-5.2 2.81a15.209 15.209 0 0 0 3.45 1.82 34.48 34.48 0 0 0 -.84 6.91h-6.97a12.991 12.991 0 0 1 4.36-8.73zm-4.36 10.73h6.97a34.48 34.48 0 0 0 .84 6.91 15.209 15.209 0 0 0 -3.45 1.82 12.991 12.991 0 0 1 -4.36-8.73zm6.05 10a13.14 13.14 0 0 1 2.31-1.16 13.79 13.79 0 0 0 1.2 2.7 13.008 13.008 0 0 1 -3.51-1.54zm6.9 2c-.84 0-1.87-1.34-2.67-3.71a12.436 12.436 0 0 1 5.34 0c-.8 2.37-1.83 3.71-2.67 3.71zm0-6a14.989 14.989 0 0 0 -3.22.36 32.03 32.03 0 0 1 -.76-6.36h7.96a32.03 32.03 0 0 1 -.76 6.36 14.989 14.989 0 0 0 -3.22-.36zm3.39 5.54a13.79 13.79 0 0 0 1.2-2.7 13.14 13.14 0 0 1 2.31 1.16 13.008 13.008 0 0 1 -3.51 1.54zm5.2-2.81a15.209 15.209 0 0 0 -3.45-1.82 34.48 34.48 0 0 0 .84-6.91h6.97a12.991 12.991 0 0 1 -4.36 8.73z" fill="#39b2dd" data-original="#57a4ff" style="" class=""/><path d="m59 2h-14a3.009 3.009 0 0 0 -3 3v8a3.009 3.009 0 0 0 3 3h4v2h-2v2h10v-2h-2v-2h4a3.009 3.009 0 0 0 3-3v-8a3.009 3.009 0 0 0 -3-3zm-6 16h-2v-2h2zm7-5a1 1 0 0 1 -1 1h-14a1 1 0 0 1 -1-1v-1h16zm0-3h-16v-5a1 1 0 0 1 1-1h14a1 1 0 0 1 1 1z" fill="#39b2dd" data-original="#57a4ff" style="" class=""/><path d="m17 48h-1v-1a3.009 3.009 0 0 0 -3-3h-8a3.009 3.009 0 0 0 -3 3v12a3.009 3.009 0 0 0 3 3h12a3.009 3.009 0 0 0 3-3v-8a3.009 3.009 0 0 0 -3-3zm-6.82 12h-5.18a1 1 0 0 1 -1-1v-12a1 1 0 0 1 1-1h8a1 1 0 0 1 1 1v1h-1a3.009 3.009 0 0 0 -3 3v8a3 3 0 0 0 .18 1zm7.82-1a1 1 0 0 1 -1 1h-4a1 1 0 0 1 -1-1v-8a1 1 0 0 1 1-1h4a1 1 0 0 1 1 1z" fill="#39b2dd" data-original="#57a4ff" style="" class=""/><path d="m61 56v-7a3.009 3.009 0 0 0 -3-3h-12a3.009 3.009 0 0 0 -3 3v7a1 1 0 0 0 -1 1v2a3.009 3.009 0 0 0 3 3h14a3.009 3.009 0 0 0 3-3v-2a1 1 0 0 0 -1-1zm-16-7a1 1 0 0 1 1-1h12a1 1 0 0 1 1 1v7h-14zm15 10a1 1 0 0 1 -1 1h-14a1 1 0 0 1 -1-1v-1h16z" fill="#39b2dd" data-original="#57a4ff" style="" class=""/><path d="m21 12v-7a3.009 3.009 0 0 0 -3-3h-12a3.009 3.009 0 0 0 -3 3v7a1 1 0 0 0 -1 1v2a3.009 3.009 0 0 0 3 3h14a3.009 3.009 0 0 0 3-3v-2a1 1 0 0 0 -1-1zm-16-7a1 1 0 0 1 1-1h12a1 1 0 0 1 1 1v7h-14zm15 10a1 1 0 0 1 -1 1h-14a1 1 0 0 1 -1-1v-1h16z" fill="#39b2dd" data-original="#57a4ff" style="" class=""/><path d="m25 7h2v2h-2z" fill="#39b2dd" data-original="#57a4ff" style="" class=""/><path d="m33 7h2v2h-2z" fill="#39b2dd" data-original="#57a4ff" style="" class=""/><path d="m29 7h2v2h-2z" fill="#39b2dd" data-original="#57a4ff" style="" class=""/><path d="m37 7h2v2h-2z" fill="#39b2dd" data-original="#57a4ff" style="" class=""/><path d="m25 55h2v2h-2z" fill="#39b2dd" data-original="#57a4ff" style="" class=""/><path d="m33 55h2v2h-2z" fill="#39b2dd" data-original="#57a4ff" style="" class=""/><path d="m29 55h2v2h-2z" fill="#39b2dd" data-original="#57a4ff" style="" class=""/><path d="m37 55h2v2h-2z" fill="#39b2dd" data-original="#57a4ff" style="" class=""/><path d="m51 22h2v2h-2z" fill="#39b2dd" data-original="#57a4ff" style="" class=""/><path d="m51 26h2v2h-2z" fill="#39b2dd" data-original="#57a4ff" style="" class=""/><path d="m51 30h2v2h-2z" fill="#39b2dd" data-original="#57a4ff" style="" class=""/><path d="m51 34h2v2h-2z" fill="#39b2dd" data-original="#57a4ff" style="" class=""/><path d="m51 38h2v2h-2z" fill="#39b2dd" data-original="#57a4ff" style="" class=""/><path d="m51 42h2v2h-2z" fill="#39b2dd" data-original="#57a4ff" style="" class=""/><path d="m10 21h2v2h-2z" fill="#39b2dd" data-original="#57a4ff" style="" class=""/><path d="m10 25h2v2h-2z" fill="#39b2dd" data-original="#57a4ff" style="" class=""/><path d="m10 29h2v2h-2z" fill="#39b2dd" data-original="#57a4ff" style="" class=""/><path d="m10 33h2v2h-2z" fill="#39b2dd" data-original="#57a4ff" style="" class=""/><path d="m10 37h2v2h-2z" fill="#39b2dd" data-original="#57a4ff" style="" class=""/></g></g></g></svg>
