<svg xmlns="http://www.w3.org/2000/svg" width="20" height="20"><path d="M2.76 5.976c0-.438.447-.794 1-.794h12.48c.553 0 1 .356 1 .794 0 .439-.447.794-1 .794H3.76c-.553 0-1-.355-1-.794z" fill-rule="evenodd"/><path d="M2.76 10.014c0-.438.469-.794 1.048-.794h12.384c.58 0 1.049.356 1.049.794 0 .439-.47.794-1.049.794H3.808c-.58 0-1.048-.355-1.048-.794z" fill-rule="evenodd"/><g><path d="M2.76 14.024c0-.439.469-.794 1.048-.794h12.384c.58 0 1.049.355 1.049.794 0 .438-.47.794-1.049.794H3.808c-.58 0-1.049-.356-1.049-.794z" fill-rule="evenodd"/></g></svg>