<?xml version="1.0"?>
<svg xmlns="http://www.w3.org/2000/svg" xmlns:xlink="http://www.w3.org/1999/xlink" xmlns:svgjs="http://svgjs.com/svgjs" version="1.1" width="512" height="512" x="0" y="0" viewBox="0 0 60 56" style="enable-background:new 0 0 512 512" xml:space="preserve" class=""><g><g xmlns="http://www.w3.org/2000/svg" id="Page-1" fill="none" fill-rule="evenodd"><g id="045---AI-Thinking" fill-rule="nonzero"><path id="Shape" d="m59 27.5c.0028965 2.1078229-.7817228 4.1407002-2.2 5.7 0 .0055228-.0044772.01-.01.01-.7411243 3.9883976-3.4509232 7.3304828-7.2 8.88 3.48 3.12 4.22 9.37 4.37 11.86.0137058.2737686-.0855689.5411614-.2746112.739656-.1890424.1984945-.4512775.3106869-.7253888.310344h-3.05c-.4833625.0016499-.9012406-.3368313-1-.81-.29-1.5-1.41-4.69-5.91-6.19-6-2-7-4-7-8-1.7309776-.0002193-3.4468181-.3223633-5.06-.95-1.982789 2.3015187-5.0437547 3.3689132-8.0277201 2.7993596s-5.4365905-2.6893346-6.4322799-5.5593596c-4.7744843 1.7658595-10.14176204.1805325-13.19056131-3.8960816-3.04879927-4.0766142-3.0526399-9.6731236-.00943869-13.7539184-.18511746-.5269734-.27978552-1.0814577-.28-1.64.00153337-2.3879368 1.68819272-4.442899 4.03-4.91-.01996766-.196033-.02998052-.3929526-.03-.59 0-3.58985087 2.91014913-6.5 6.5-6.5.977492-.00320175 1.9425353.21923729 2.82.65 1.4419625-2.43048669 3.891154-4.09281514 6.6823166-4.53545797 2.7911626-.44264282 5.6344957.38035867 7.7576834 2.24545797.9894399-1.58911021 2.7836605-2.49241515 4.6494774-2.3407912s3.4906461 1.33277492 4.2105226 3.0607912c.4581686-.05214319.9188752-.07885082 1.38-.08 6.2404004-.00090447 11.4399667 4.78130536 11.96 11h.04c1.780634-.0009583 3.4274152.9451353 4.3234723 2.4838816s.9061613 3.4379249.0265277 4.9861184c1.0750001 1.456431 1.653443 3.2198054 1.65 5.03z" fill="#e8edfc" data-original="#e8edfc" style=""/><path id="Shape" d="m57.35 22.47c.8796336-1.5481935.8695294-3.4473721-.0265277-4.9861184s-2.5428383-2.4848399-4.3234723-2.4838816h-.04c-.5200333-6.21869464-5.7195996-11.00090447-11.96-11-.4611248.00114918-.9218314.02785681-1.38.08-.9853814-2.39286378-3.6409361-3.63041227-6.107-2.846 1.4038436.44552062 2.5403264 1.48653448 3.107 2.846.4581686-.05214319.9188752-.07885082 1.38-.08 6.2404004-.00090447 11.4399667 4.78130536 11.96 11h.04c1.780634-.0009583 3.4274152.9451353 4.3234723 2.4838816s.9061613 3.4379249.0265277 4.9861184c2.3917065 3.252344 2.1617161 7.739248-.55 10.73 0 .0055228-.0044772.01-.01.01-.7411243 3.9883976-3.4509232 7.3304828-7.2 8.88 3.48 3.12 4.22 9.37 4.37 11.86.0137058.2737686-.0855689.5411614-.2746112.739656-.1890424.1984945-.4512775.3106869-.7253888.310344h3c.2741113.0003429.5363464-.1118495.7253888-.310344.1890423-.1984946.288317-.4658874.2746112-.739656-.15-2.49-.89-8.74-4.37-11.86 3.7490768-1.5495172 6.4588757-4.8916024 7.2-8.88.0055228 0 .01-.0044772.01-.01 2.7117161-2.990752 2.9417065-7.477656.55-10.73z" fill="#cad9fc" data-original="#cad9fc" style=""/><path id="Shape" d="m41.977 11.844 1.446-.844c.3094011-.1786328.6905989-.1786328 1 0l2.165 1.242c.3081591.1779119.498566.5061734.5.862l.01 1.683 1.933 3.313 1.454.837c.3081591.1779119.498566.5061734.5.862l.015 2.511c.0017974.3561749-.1859898.6864215-.493.867l-1.447.849-1.9 3.336v1.684c.0010253.3562282-.1875304.6861055-.495.866l-2.154 1.261c-.3094011.1786328-.6905989.1786328-1 0l-1.454-.831-3.828.017-1.446.845c-.3094011.1786328-.6905989.1786328-1 0l-2.165-1.241c-.3081591-.1779119-.498566-.5061734-.5-.862l-.009-1.684-1.929-3.319-1.454-.836c-.3081591-.1779119-.498566-.5061734-.5-.862l-.011-2.51c-.0012329-.3560232.1869149-.6858533.494-.866l1.447-.85 1.9-3.336-.006-1.684c-.0010253-.3562282.1875304-.6861055.495-.866l2.154-1.261c.3085072-.1801824.6897064-.1820884 1-.005l1.453.831zm-6.6 6.549c-1.0934791 1.9143795-.9256341 4.2990367.4252243 6.0413705 1.3508584 1.7423339 3.618512 2.498977 5.7449498 1.916905 2.1264379-.5820719 3.6925958-2.388148 3.9677572-4.5755738.2751614-2.1874259-.7949007-4.3251182-2.7109313-5.4157017-2.6142865-1.4711488-5.9256101-.5646148-7.426 2.033z" fill="#ffffff" data-original="#a4c2f7" style="" class=""/><path id="Shape" d="m10.713 19.231-.844-1.446c-.17863279-.3094011-.17863279-.6905989 0-1l1.242-2.165c.1779119-.3081591.5061734-.498566.862-.5l1.683-.009 3.319-1.929.837-1.454c.1779119-.3081591.5061734-.498566.862-.5l2.509-.011c.3563798-.0015897.6866736.1866054.867.494l.849 1.447 3.337 1.9 1.683-.006c.3562282-.0010253.6861055.1875304.866.495l1.262 2.154c.1786328.3094011.1786328.6905989 0 1l-.832 1.453.017 3.828.845 1.446c.1786328.3094011.1786328.6905989 0 1l-1.237 2.162c-.1779119.3081591-.5061734.498566-.862.5l-1.684.01-3.319 1.929-.836 1.454c-.1779119.3081591-.5061734.498566-.862.5l-2.51.017c-.3576137.0003484-.6881932-.1902972-.867-.5l-.85-1.447-3.336-1.9h-1.683c-.3576137.0003484-.6881932-.1902972-.867-.5l-1.264-2.139c-.18018238-.3085072-.18208837-.6897064-.005-1l.831-1.454zm6.55 6.6c1.9144903 1.0922155 4.2984268.9234889 6.0399966-.4274895 1.7415697-1.3509784 2.4977288-3.618101 1.9158222-5.7440344-.5819067-2.1259333-2.3872587-3.6919237-4.5740815-3.9676295-2.1868228-.2757059-4.3243694.7931798-5.4157373 2.7081534-1.4755129 2.6155413-.5678711 5.9315129 2.034 7.431z" fill="#ffffff" data-original="#a4c2f7" style="" class=""/><path id="Shape" d="m44.83 23.82c-1.5033975 2.6021583-4.8297305 3.4958679-7.4348273 1.9975681-2.6050968-1.4982999-3.5053174-4.8228767-2.0121209-7.430902 1.4931964-2.6080254 4.8160043-3.5147534 7.4269482-2.0266661 1.2638633.7150591 2.1888054 1.90639 2.5683398 3.3080367.3795343 1.4016467.1820595 2.8969028-.5483398 4.1519633z" fill="#c5e4ef" data-original="#7facfa" style="" class=""/><path id="Shape" d="m24.72 23.81c-1.089176 1.9248906-3.2316551 3.0029663-5.4264906 2.7305599-2.1948355-.2724063-4.0087653-1.8415215-4.594338-3.9742691-.5855727-2.1327477.1728041-4.408122 1.9208238-5.7630889 1.7480198-1.3549668 4.140622-1.5220548 6.0600048-.4232019 2.5992881 1.5006323 3.5085972 4.8124786 2.04 7.43z" fill="#c5e4ef" data-original="#7facfa" style="" class=""/><path id="Shape" d="m4 25.5c-.00295834-2.4732397.79715077-4.8805855 2.28-6.86-.18511746-.5269734-.27978552-1.0814577-.28-1.64.00153337-2.3879368 1.68819272-4.442899 4.03-4.91-.0199677-.196033-.0299805-.3929526-.03-.59.0025253-3.0130533 2.0753952-5.6293892 5.008-6.321-1.9349191-.46388765-3.9757143-.015127-5.53753931 1.21767721-1.56182505 1.23280421-2.47228436 3.11357397-2.47046069 5.10332279.00001948.1970474.01003234.393967.03.59-2.34180728.467101-4.02846663 2.5220632-4.03 4.91.00021448.5585423.09488254 1.1130266.28 1.64-2.79100749 3.6971278-3.08104268 8.7111741-.73494121 12.7054556s6.86664815 6.18276 11.45494121 5.5455444c-5.71809998-.7522633-9.9946063-5.6236316-10-11.391z" fill="#ffffff" data-original="#ffffff" style="" class=""/><path id="Shape" d="m4.444 32.228-1.535 1.283c-1.86558365-2.2543345-2.89342714-5.0848791-2.909-8.011h2c.01500027 2.4572991.87835106 4.8339865 2.444 6.728z" fill="#ffffff" data-original="#ffffff" style="" class=""/><g fill="#428dff"><path id="Shape" d="m1.708 28.432h-.008c-.55451653.0030317-1.00201209.4542122-1.00049624 1.008735.00151585.5545227.45147143 1.00325 1.00599624 1.00325s1.00448039-.4487273 1.00599624-1.00325c.00151586-.5545228-.44597971-1.0057033-1.00049624-1.008735z" fill="#39b2dd" data-original="#428dff" style="" class=""/><path id="Shape" d="m59 20c-.0060655-2.9826209-2.202099-5.5079529-5.155-5.928-.9813137-6.34448902-6.4251646-11.03692316-12.845-11.072-.252 0-.524.029-.785.045-.9415319-1.67218351-2.6286023-2.79069952-4.5354105-3.00694571s-3.8015087.49607044-5.0935895 1.91494571c-1.7753561-1.26975163-3.9033048-1.9526113-6.086-1.953-3.3911154.01743289-6.568038 1.66056615-8.542 4.418-2.2661363-.79084428-4.7740736-.44697611-6.7437103.92464324-1.96963668 1.37161935-3.16203275 3.60459643-3.2062897 6.00435676-2.39815519.8456489-4.0036726 3.1101174-4.008 5.653.00655202.4884207.07373275.9741374.2 1.446-1.43627606 2.0715974-2.20400289 4.5332087-2.2 7.054 0 .5522847.44771525 1 1 1s1-.4477153 1-1c-.00316584-1.7088919.41591772-3.3920964 1.22-4.9.45976154.6199565 1.03496839 1.1452487 1.694 1.547.30635524.1838132.68750232.1902249.9998668.0168201.31236449-.1734049.50849078-.500282.51450001-.8575s-.17901155-.690507-.48536681-.8743201c-1.66776294-1.0012919-2.37338361-3.0572258-1.67200263-4.8716357.70138099-1.8144099 2.60638611-2.8611764 4.51400263-2.4803643.5375871.0995043 1.055435-.251166 1.16260272-.787278.10716768-.536112-.23607507-1.0589127-.77060272-1.173722-.37932497-.0763228-.76508322-.1161711-1.152-.119.2611652-2.82985344 2.6331235-4.99602541 5.475-5 .4834299.00291273.9643207.07017018 1.43.2-.2412739.5257919-.4386143 1.07065191-.59 1.629-.0903882.34583309.0105894.71361757.2648956.96481259.2543061.25119502.6233056.34763807.968.253.3446943-.09463807.6127162-.3659795.7031044-.71181259.7148011-2.71527955 2.7243862-4.90238322 5.3696028-5.84393148 2.6452165-.94154826 5.5847412-.51604926 7.8543972 1.13693148-.1666809.37654124-.2940232.7692919-.38 1.172-.1104569.54123904.238761 1.06954301.78 1.17999996s1.069543-.23876093 1.18-.77999996c.4089374-2.01391422 2.2773875-3.39029495 4.3219968-3.18376875 2.0446093.20652619 3.6000685 1.92875634 3.5980032 3.98376875 0 .55228475.4477153 1 1 1s1-.44771525 1-1c-.0018366-.33522689-.0316063-.6697177-.089-1h.089c5.3369024.02773318 9.8936502 3.86070038 10.835 9.114-.3636575.0722765-.7198437.1780611-1.064.316-.4945719.2169169-.7275658.7873285-.5262977 1.2884726.2012682.5011442.7640763.7519479 1.2712977.5665274 2.0071779-.7862106 4.2763539.1595458 5.1310403 2.1385357.8546864 1.97899-.0125735 4.2793106-1.9610403 5.2014643-.323504.1516592-.5415248.4643855-.571936.8203778s.1314072.7011669.4245.9055c.2930927.204333.672932.2367814.996436.0851222.6328148-.3016728 1.2081153-.7114897 1.7-1.211.5019314 1.0188584.7636332 2.1392158.765 3.275-.0023612 3.3277377-2.1935376 6.2574443-5.385 7.2-.5296411.1565727-.8320727.7128589-.6755 1.2425s.7128589.8320727 1.2425.6755c.5699984-.1759317 1.1221146-.4052826 1.649-.685-1.5638617 3.147306-4.548215 5.3484388-8.017 5.913-.3604226.0480751-.6663459.2880021-.7989343.6265815s-.070944.7224466.1609873 1.0024887c.2319313.280042.5975941.4121206.954947.3449298.7507012-.1226924 1.4889606-.3121098 2.206-.566 2.841 2.986 3.482 8.462 3.624 10.751h-3.072c-.286-1.526-1.5-5.261-6.573-6.951-5.157-1.719-6.146-3.281-6.291-6.092h.053c1.1312047-.0773874 2.2498258-.2840673 3.334-.616.5279842-.1620956.8245955-.7215158.6625-1.2495-.1620956-.5279842-.7215158-.8245956-1.2495-.6625-.9451973.2893749-1.9206664.4685633-2.907.534-1.9119886.1490682-3.8327774-.1402814-5.616-.846-.3914165-.1895876-.8624069-.0721557-1.119.279-1.9939205 2.3150472-5.1928698 3.1891372-8.0869819 2.2097099s-4.9047901-3.6165628-5.0830181-6.6667099c-.0325848-.5522847-.5067153-.9735848-1.059-.941s-.9735848.5067153-.941 1.059c.035875.5307779.1178507 1.0574294.245 1.574-.8990566.2434368-1.8265705.3658498-2.758.364-3.10851633-.0152585-6.0536596-1.3942407-8.056-3.772-.34825584-.3990375-.94349646-.4662841-1.372-.155-.22212279.1621602-.36615705.4099552-.39713241.6832225-.03097535.2732672.05394114.5470143.23413241.7547775 2.3835407 2.8310312 5.89022637 4.4723107 9.591 4.489 1.1529265-.0005548 2.3001998-.1610856 3.409-.477 1.3060566 2.8101569 3.9043715 4.8035376 6.9569043 5.3372125s6.1730543-.4598805 8.3550957-2.6602125c1.2280982.4174766 2.5056724.6719828 3.8.757.185 3.741 1.623 5.982 7.659 7.993 3.919 1.307 4.964 3.959 5.239 5.423.1852949.9505991 1.0215376 1.634301 1.99 1.627h3.052c.5511568.0009279 1.0782664-.2256337 1.4568598-.6261854.3785934-.4005518.5751081-.9395849.5431402-1.4898146-.147-2.4-.812-7.957-3.71-11.486 3.334958-1.82128 5.7005765-5.0166386 6.469-8.738 2.7243304-3.1728666 3.0415169-7.7582451.78-11.276.326413-.7526.4965201-1.5636707.5-2.384z" fill="#39b2dd" data-original="#428dff" style="" class=""/><path id="Shape" d="m36.906 26.716c.9694709.5592269 2.0688005.8540597 3.188.855.5743188-.0005435 1.1460087-.0775535 1.7-.229 1.6554385-.4463388 3.0625635-1.5382476 3.906-3.031 1.7593654-3.0994029.6874604-7.0377604-2.4-8.818-1.4842774-.8495492-3.2457136-1.0732085-4.8952097-.6215719-1.6494962.4516366-3.0513127 1.5414032-3.8957903 3.0285719-1.7585168 3.0981674-.6881793 7.0347949 2.397 8.816zm-.659-7.827c.5802572-1.027411 1.5466581-1.7806654 2.6846449-2.0925275s2.353385-.1565236 3.3763551.4315275c2.1317734 1.2310924 2.8704683 3.9518479 1.654 6.092-.5814146 1.02646-1.5479827 1.7788408-2.6857337 2.0905869-1.137751.311746-2.3528348.1571421-3.3762663-.4295869-2.1318777-1.2310739-2.870222-3.9521831-1.653-6.092z" fill="#39b2dd" data-original="#428dff" style="" class=""/><path id="Shape" d="m30.905 16.189-1.26-2.153c-.3597068-.6131907-1.0170913-.9901976-1.728-.991h-.005l-1.412.005-2.872-1.636-.719-1.214c-.3529264-.62304701-1.0190827-1.00239136-1.735-.988l-2.507.012c-.7123947.00302644-1.3697405.38365514-1.727 1l-.7 1.221-2.86 1.663-1.417.008c-.7112114.0044936-1.3669846.3848725-1.724 1l-1.239 2.169c-.35510231.6200519-.35243392 1.382449.007 2l.707 1.215.015 3.3-.7 1.22c-.35486348.6221883-.35105203 1.3863823.01 2.005l1.26 2.151c.3586375.6137796 1.0161229.9910628 1.727.991h.006 1.417l2.872 1.635.715 1.217c.360787.6093196 1.0168789.9824362 1.725.981h.011l2.51-.011c.7113216-.0040888 1.3672813-.3845758 1.724-1l.7-1.221 2.86-1.668 1.417-.008c.7127456-.0055864 1.3691703-.3884057 1.725-1.006l1.241-2.164c.023-.041.032-.087.053-.129l1.106 1.9.008 1.418c.0042557.7123258.3870647 1.3686243 1.005 1.723l2.166 1.243c.6208938.3526368 1.382305.3492105 2-.009l1.214-.709 3.292-.014 1.221.7c.6205871.3541767 1.3829856.3503648 2-.01l2.153-1.262c.6149392-.359789.9920506-1.0195436.99-1.732v-1.417l1.635-2.873 1.216-.714c.61509-.3589248.9929228-1.017847.992-1.73l-.014-2.507c-.0044936-.7112114-.3848725-1.3669846-1-1.724l-1.221-.7-1.665-2.865-.008-1.417c-.0054783-.7119908-.3879582-1.367725-1.005-1.723l-2.167-1.243c-.6204087-.35448516-1.3828067-.35105437-2 .009l-1.214.708-3.292.015-1.221-.7c-.6209644-.35273718-1.3825939-.34892903-2 .01l-2.156 1.262c-.6125128.361444-.9882783 1.0197943-.988 1.731v1.418l-1.049 1.841c-.0266946-.0796023-.0584253-.1574261-.095-.233zm-2.932 10.9-1.684.009c-.1756299.0003117-.3480802.0468732-.5.135l-3.319 1.93c-.151843.0876395-.2777763.2139178-.365.366l-.836 1.453-2.506.018-.849-1.447c-.0884701-.1513652-.2154387-.2766087-.368-.363l-3.336-1.9c-.1523066-.0867294-.3247331-.1319052-.5-.131h-1.684l-1.26-2.153.831-1.453c.0867294-.1523066.1319052-.3247331.131-.5l-.017-3.828c-.0006154-.1757209-.0475236-.3481773-.136-.5l-.844-1.448 1.242-2.164 1.683-.01c.1756299-.0003117.3480802-.0468732.5-.135l3.319-1.929c.1513823-.0882378.2771767-.2143769.365-.366l.836-1.453 2.509-.011.849 1.446c.089066.1509012.2158946.2760066.368.363l3.336 1.9c.1538961.0827599.3252942.1276662.5.131l1.683-.006 1.258 2.157-.831 1.453c-.0870785.1522101-.1326007.3246425-.132.5 0 .4.015 3.726.017 3.828.0005865.1758575.0478644.3484049.137.5l.844 1.447zm4.048-8.415 1.9-3.337c.0860825-.1525695.1312125-.3248212.131-.5l-.006-1.684 2.154-1.253 1.453.831c.1495109.0934864.3238271.1395059.5.132l3.829-.017c.1758575-.0005865.3484049-.0478644.5-.137l1.446-.844 2.165 1.235.009 1.684c.0003117.1756299.0468732.3480802.135.5l1.93 3.319c.0879039.1516397.2141204.2775114.366.365l1.453.835.014 2.511-1.447.85c-.1515275.0885949-.2770663.2155133-.364.368l-1.9 3.336c-.0864683.1524129-.1316255.3247685-.131.5v1.684l-2.154 1.262-1.453-.832c-.152535-.0861676-.3248096-.1313036-.5-.131h-.005l-3.828.016c-.1758121.000919-.3482745.0481737-.5.137l-1.446.845-2.156-1.249-.01-1.685c-.0003117-.1756299-.0468732-.3480802-.135-.5l-1.929-3.315c-.0876276-.1515126-.2134874-.2773724-.365-.365l-1.446-.832-.012-2.518 1.438-.844c.1508927-.087213.2763722-.2123478.364-.363z" fill="#39b2dd" data-original="#428dff" style="" class=""/><path id="Shape" d="m23.179 15.509c-3.0990291-1.7598615-7.0375116-.687801-8.817 2.4-.8496309 1.4841559-1.073442 3.2455002-.621997 4.8949816.4514449 1.6494815 1.5409986 3.0513722 3.027997 3.8960184 2.0010027 1.1748973 4.4789276 1.1842125 6.4887071.0243927 2.0097795-1.1598199 3.2415206-3.3099391 3.2254436-5.6303134-.016077-2.3203744-1.2774931-4.4532195-3.3031507-5.5850793zm.671 7.8c-1.2321535 2.1304748-3.9519608 2.8684658-6.092 1.653-1.0257458-.5821129-1.7773098-1.5489016-2.088459-2.686529-.3111491-1.1376274-.1562419-2.3523425.430459-3.375471 1.2303525-2.1328147 3.952332-2.8713952 6.092-1.653 1.0262566.5816067 1.7784597 1.5481724 2.090184 2.6858441s.1572721 2.3526628-.429184 3.3761559z" fill="#39b2dd" data-original="#428dff" style="" class=""/></g></g></g></g></svg>
