<?xml version="1.0"?>
<svg xmlns="http://www.w3.org/2000/svg" xmlns:xlink="http://www.w3.org/1999/xlink" xmlns:svgjs="http://svgjs.com/svgjs" version="1.1" width="512" height="512" x="0" y="0" viewBox="0 0 512 512" style="enable-background:new 0 0 512 512" xml:space="preserve" class=""><g>
<path xmlns="http://www.w3.org/2000/svg" style="" d="M112.47,239.983c-8.282,0-14.996,6.714-14.996,14.996s6.714,14.996,14.996,14.996h29.992v-29.992  L112.47,239.983L112.47,239.983z" fill="#c5e4ef" data-original="#cccccc" class=""/>
<polygon xmlns="http://www.w3.org/2000/svg" style="" points="229.439,389.944 259.432,344.956 289.424,344.956 289.424,389.944 " fill="#c5e4ef" data-original="#ffcb63" class=""/>
<g xmlns="http://www.w3.org/2000/svg">
	<rect x="157.458" y="344.96" style="" width="101.973" height="44.988" fill="#e3e7f2" data-original="#ffe2a8" class=""/>
	<polygon style="" points="289.424,471.942 259.432,423.445 289.424,374.948 319.416,374.948 319.416,471.942  " fill="#e3e7f2" data-original="#ffe2a8" class=""/>
</g>
<rect xmlns="http://www.w3.org/2000/svg" x="127.466" y="374.952" style="" width="161.957" height="96.994" fill="#ffffff" data-original="#fff0d3" class=""/>
<path xmlns="http://www.w3.org/2000/svg" style="" d="M409.527,240.003v74.98c24.846,0,44.988-20.142,44.988-44.988L409.527,240.003z" fill="#c5e4ef" data-original="#084f6d" class=""/>
<path xmlns="http://www.w3.org/2000/svg" style="" d="M424.523,269.995l-14.996-29.992l-44.988,29.992c0,24.846,20.142,44.988,44.988,44.988  C417.809,314.983,424.523,294.842,424.523,269.995z" fill="#e3e7f2" data-original="#116f97" class=""/>
<rect xmlns="http://www.w3.org/2000/svg" x="384.529" y="150.031" style="" width="49.987" height="119.948" fill="#ffffff" data-original="#ffffff" class=""/>
<path xmlns="http://www.w3.org/2000/svg" style="" d="M434.52,150.027l-24.993,44.977h-29.992l29.992,74.991h44.988v-99.974  C454.515,158.98,445.564,150.027,434.52,150.027z" fill="#c5e4ef" data-original="#1990c2" class=""/>
<path xmlns="http://www.w3.org/2000/svg" style="" d="M384.534,150.027c-11.043,0-19.995,8.952-19.995,19.995v99.974h44.988v-74.991L384.534,150.027z" fill="#e3e7f2" data-original="#2dade3" class=""/>
<rect xmlns="http://www.w3.org/2000/svg" x="288.554" y="140.034" style="" width="29.992" height="44.988" fill="#e3e7f2" data-original="#ffe2a8" class=""/>
<rect xmlns="http://www.w3.org/2000/svg" x="288.554" y="60.055" style="" width="29.992" height="79.979" fill="#ffffff" data-original="#fff0d3" class=""/>
<path xmlns="http://www.w3.org/2000/svg" style="" d="M409.527,30.059v89.976c24.846,0,44.988-20.142,44.988-44.988S434.373,30.059,409.527,30.059z" fill="#e3e7f2" data-original="#ffb4a9" class=""/>
<path xmlns="http://www.w3.org/2000/svg" style="" d="M424.523,75.047c0-24.846-6.714-44.988-14.996-44.988c-24.846,0-44.988,20.142-44.988,44.988  s20.142,44.988,44.988,44.988C417.809,120.035,424.523,99.893,424.523,75.047z" fill="#ffffff" data-original="#ffd9d4" class=""/>
<polygon xmlns="http://www.w3.org/2000/svg" style="" points="229.439,269.975 259.432,314.963 289.424,314.963 289.424,269.975 " fill="#c5e4ef" data-original="#ffcb63" class=""/>
<g xmlns="http://www.w3.org/2000/svg">
	<rect x="157.458" y="269.979" style="" width="101.973" height="44.988" fill="#e3e7f2" data-original="#ffe2a8" class=""/>
	<path style="" d="M289.424,224.987l-19.995,59.984h29.992c10.997,0,19.995-8.998,19.995-19.995v-39.989   L289.424,224.987L289.424,224.987z" fill="#e3e7f2" data-original="#ffe2a8" class=""/>
</g>
<path xmlns="http://www.w3.org/2000/svg" style="" d="M289.424,264.977v-39.989H127.466v59.984h141.963C280.426,284.971,289.424,275.974,289.424,264.977z" fill="#ffffff" data-original="#fff0d3" class=""/>
<path xmlns="http://www.w3.org/2000/svg" d="M319.416,367.45h-22.494v-22.494c0-4.141-3.356-7.498-7.498-7.498H157.458c-4.142,0-7.498,3.357-7.498,7.498v22.494h-22.494  c-4.142,0-7.498,3.357-7.498,7.498v96.995c0,4.141,3.356,7.498,7.498,7.498h131.965c4.142,0,7.498-3.357,7.498-7.498  s-3.356-7.498-7.498-7.498H134.964v-81.999h176.953v81.999h-22.494c-4.142,0-7.498,3.357-7.498,7.498s3.356,7.498,7.498,7.498  h29.992c4.142,0,7.498-3.357,7.498-7.498v-96.995C326.914,370.807,323.558,367.45,319.416,367.45z M164.956,352.454h116.969v14.996  H164.956V352.454z" fill="#39b2dd" data-original="#000000" style="" class=""/>
<path xmlns="http://www.w3.org/2000/svg" d="M157.458,434.452c-4.142,0-7.498,3.357-7.498,7.498s3.356,7.498,7.498,7.498h101.973c4.142,0,7.498-3.357,7.498-7.498  s-3.356-7.498-7.498-7.498H157.458z" fill="#39b2dd" data-original="#000000" style="" class=""/>
<path xmlns="http://www.w3.org/2000/svg" d="M461.525,277.05c28.401-3.471,50.475-27.72,50.475-57.042c0-29.478-22.307-53.832-50.925-57.1  c-3.127-11.664-13.75-20.291-26.368-20.376c-0.056-0.001-0.112-0.004-0.167-0.004c-0.02,0-50.007,0-50.007,0  c-0.076,0.001-0.121,0.003-0.166,0.004c-12.487,0.075-23.021,8.517-26.279,19.991h-32.04v-22.475c0-0.039,0-79.999,0-79.999  c0-4.141-3.356-7.498-7.498-7.498h-29.992c-4.142,0-7.498,3.357-7.498,7.498v72.481h-7.502c-12.403,0-22.494,10.09-22.494,22.494  s10.091,22.494,22.494,22.494h7.502v7.498c0,4.141,3.356,7.498,7.498,7.498h29.992c4.142,0,7.498-3.357,7.498-7.498v-7.498h30.992  v92.476c0,14.265,5.728,27.213,14.996,36.682v159.86l-24.865,8.289c-3.929,1.31-6.051,5.556-4.742,9.484  c1.048,3.142,3.973,5.129,7.112,5.129c0.786,0,1.586-0.125,2.372-0.387l29.992-9.997c3.061-1.021,5.127-3.886,5.127-7.113V317.407  c6.822,3.25,14.448,5.075,22.494,5.075c8.046,0,15.672-1.825,22.494-5.075v154.535c0,3.227,2.064,6.092,5.127,7.113l29.992,9.997  c0.787,0.262,1.587,0.387,2.372,0.387c3.14,0,6.064-1.987,7.112-5.129c1.31-3.929-0.813-8.175-4.742-9.484l-24.865-8.289V306.679  C454.73,298.798,459.979,288.505,461.525,277.05z M296.057,67.549h14.996v64.983h-14.996V67.549z M273.559,162.524  c-4.135,0-7.498-3.363-7.498-7.498c0-4.135,3.363-7.498,7.498-7.498h7.502v14.996H273.559z M296.057,177.52v-7.459  c0-0.077,0-22.533,0-22.533h14.996v29.992H296.057z M497.004,220.008c0,20.869-15.128,38.26-34.991,41.813v-83.626  C481.876,181.75,497.004,199.14,497.004,220.008z M421.777,157.525l-12.25,22.051l-12.25-22.051L421.777,157.525L421.777,157.525z   M380.5,158.206l22.472,40.45c1.323,2.38,3.832,3.857,6.555,3.857c2.723,0,5.232-1.477,6.555-3.857l22.472-40.45  c4.915,1.684,8.463,6.338,8.463,11.816v92.476h-29.992v-37.502c0-4.141-3.356-7.498-7.498-7.498c-4.142,0-7.498,3.357-7.498,7.498  v37.502h-29.992v-92.476C372.037,164.544,375.585,159.889,380.5,158.206z M372.791,277.493h73.472  c-3.483,17.092-18.63,29.992-36.735,29.992C391.422,307.485,376.275,294.585,372.791,277.493z" fill="#39b2dd" data-original="#000000" style="" class=""/>
<path xmlns="http://www.w3.org/2000/svg" d="M409.527,127.533c28.94,0,52.486-23.545,52.486-52.486s-23.546-52.486-52.486-52.486s-52.486,23.545-52.486,52.486  S380.587,127.533,409.527,127.533z M409.527,37.557c20.673,0,37.49,16.818,37.49,37.49s-16.818,37.49-37.49,37.49  c-20.673,0-37.49-16.818-37.49-37.49S388.854,37.557,409.527,37.557z" fill="#39b2dd" data-original="#000000" style="" class=""/>
<path xmlns="http://www.w3.org/2000/svg" d="M319.416,217.489H127.466c-4.142,0-7.498,3.357-7.498,7.498v7.498h-7.498c-9.774,0-18.109,6.269-21.204,14.996H58.695  c-3.095-8.727-11.43-14.996-21.204-14.996H7.498c-4.142,0-7.498,3.357-7.498,7.498c0,4.141,3.356,7.498,7.498,7.498H37.49  c4.135,0,7.498,3.363,7.498,7.498c0,4.135-3.363,7.498-7.498,7.498H7.498c-4.142,0-7.498,3.357-7.498,7.498  c0,4.141,3.356,7.498,7.498,7.498H37.49c9.774,0,18.109-6.269,21.204-14.996h32.571c3.095,8.727,11.43,14.996,21.204,14.996h7.498  v7.498c0,4.141,3.356,7.498,7.498,7.498h22.494v22.494c0,4.141,3.356,7.498,7.498,7.498h131.965c4.142,0,7.498-3.357,7.498-7.498  v-22.494h2.499c15.159,0,27.493-12.333,27.493-27.493v-39.989C326.914,220.846,323.558,217.489,319.416,217.489z M112.47,262.477  c-4.135,0-7.498-3.363-7.498-7.498c0-4.135,3.363-7.498,7.498-7.498h7.498v14.996H112.47z M281.926,307.465H164.956v-14.996h116.969  V307.465z M311.918,264.977c0,6.891-5.606,12.497-12.497,12.497H134.964v-44.988h176.953V264.977z" fill="#39b2dd" data-original="#000000" style="" class=""/>
<g xmlns="http://www.w3.org/2000/svg">
</g>
<g xmlns="http://www.w3.org/2000/svg">
</g>
<g xmlns="http://www.w3.org/2000/svg">
</g>
<g xmlns="http://www.w3.org/2000/svg">
</g>
<g xmlns="http://www.w3.org/2000/svg">
</g>
<g xmlns="http://www.w3.org/2000/svg">
</g>
<g xmlns="http://www.w3.org/2000/svg">
</g>
<g xmlns="http://www.w3.org/2000/svg">
</g>
<g xmlns="http://www.w3.org/2000/svg">
</g>
<g xmlns="http://www.w3.org/2000/svg">
</g>
<g xmlns="http://www.w3.org/2000/svg">
</g>
<g xmlns="http://www.w3.org/2000/svg">
</g>
<g xmlns="http://www.w3.org/2000/svg">
</g>
<g xmlns="http://www.w3.org/2000/svg">
</g>
<g xmlns="http://www.w3.org/2000/svg">
</g>
</g></svg>
