<svg version="1.2" baseProfile="tiny-ps" xmlns="http://www.w3.org/2000/svg" viewBox="0 0 165 125" width="165" height="125">
	<title>Layer 1</title>
	<defs>
		<linearGradient id="grd1" gradientUnits="userSpaceOnUse"  x1="0.558" y1="45.256" x2="164.811" y2="45.256">
			<stop offset="0" stop-color="#ce2020"  />
			<stop offset="0.462" stop-color="#772020"  />
			<stop offset="1" stop-color="#ffffff"  />
		</linearGradient>
		<linearGradient id="grd2" gradientUnits="userSpaceOnUse"  x1="0.761" y1="37.499" x2="164.668" y2="37.499">
			<stop offset="0" stop-color="#ce2020"  />
			<stop offset="0.419" stop-color="#772020"  />
			<stop offset="0.817" stop-color="#ffffff"  />
			<stop offset="1" stop-color="#ce2020"  />
		</linearGradient>
		<linearGradient id="grd3" gradientUnits="userSpaceOnUse"  x1="65.819" y1="26.897" x2="99.231" y2="26.897">
			<stop offset="0" stop-color="#373c48"  />
			<stop offset="0.247" stop-color="#4e5463"  />
			<stop offset="0.581" stop-color="#292c36"  />
			<stop offset="1" stop-color="#373c48"  />
		</linearGradient>
	</defs>
	<style>
		tspan { white-space:pre }
		.shp0 { fill: #a0a0a0 } 
		.shp1 { fill: #ce2020 } 
		.shp2 { opacity: 0.4;mix-blend-mode: multiply;fill: url(#grd1) } 
		.shp3 { fill: #f74141 } 
		.shp4 { opacity: 0.302;mix-blend-mode: screen;fill: url(#grd2) } 
		.shp5 { fill: #292c36 } 
		.shp6 { fill: #373c48 } 
		.shp7 { fill: url(#grd3) } 
		.shp8 { fill: #772020 } 
		.shp9 { fill: #ffe000 } 
	</style>
	<g id="Layer 1">
		<g id="&lt;Group&gt;">
			<path id="&lt;Path&gt;" class="shp0" d="M163.76 77.21C163.62 77.45 163.47 77.68 163.3 77.9C163.21 78.03 163.11 78.15 163.01 78.27C162.83 78.48 162.65 78.69 162.44 78.9C162.32 79.02 162.21 79.14 162.08 79.25C161.85 79.47 161.6 79.67 161.34 79.88C161.21 79.98 161.1 80.08 160.96 80.17C160.56 80.47 160.13 80.75 159.66 81.03L95.27 118.45C88.47 122.4 77.39 122.41 70.52 118.45L5.71 81.03C5.23 80.75 4.79 80.46 4.37 80.16C4.25 80.06 4.13 79.96 4 79.86C3.73 79.65 3.48 79.44 3.24 79.22C3.11 79.1 2.99 78.98 2.87 78.86C2.66 78.65 2.47 78.43 2.29 78.21C2.19 78.09 2.09 77.97 1.99 77.85C1.82 77.61 1.66 77.37 1.52 77.12C1.47 77.04 1.4 76.96 1.36 76.88C2.22 78.46 3.07 80.03 3.92 81.61C4.62 82.89 5.84 84.1 7.6 85.11L72.41 122.53C78.21 125.88 87.59 125.87 93.34 122.53L157.73 85.11C159.44 84.12 160.64 82.94 161.33 81.68C162.2 80.11 163.06 78.54 163.92 76.97C163.88 77.05 163.81 77.13 163.76 77.21Z" />
			<path id="&lt;Path&gt;" class="shp1" d="M164.73 52.21C164.73 52.22 164.73 52.23 164.73 52.23C164.66 52.64 164.54 53.03 164.39 53.43C164.35 53.54 164.3 53.64 164.25 53.75C164.11 54.07 163.95 54.38 163.76 54.69C163.7 54.77 163.66 54.86 163.6 54.95C163.35 55.32 163.05 55.69 162.72 56.05C162.64 56.14 162.55 56.21 162.47 56.29C162.19 56.58 161.88 56.86 161.54 57.13C161.42 57.23 161.3 57.32 161.18 57.42C160.73 57.75 160.26 58.08 159.73 58.39L95.34 95.81C88.54 99.76 77.45 99.77 70.59 95.81L5.78 58.39C5.24 58.08 4.76 57.75 4.3 57.41C4.18 57.31 4.05 57.22 3.93 57.12C3.59 56.84 3.28 56.56 2.99 56.27C2.91 56.19 2.81 56.11 2.73 56.03C2.39 55.66 2.1 55.29 1.84 54.91C1.78 54.82 1.74 54.73 1.68 54.65C1.49 54.34 1.32 54.02 1.18 53.71C1.13 53.59 1.08 53.48 1.04 53.37C0.89 52.98 0.77 52.59 0.71 52.2C0.7 52.19 0.7 52.17 0.7 52.16C0.64 51.83 0.62 51.5 0.62 51.17L0.55 73.81C0.55 74.93 0.88 76.05 1.52 77.12C1.66 77.37 1.82 77.61 1.99 77.85C2.09 77.97 2.19 78.09 2.29 78.21C2.47 78.43 2.66 78.65 2.87 78.86C2.99 78.98 3.11 79.1 3.24 79.22C3.48 79.44 3.73 79.65 4 79.86C4.13 79.96 4.25 80.06 4.37 80.16C4.79 80.46 5.23 80.75 5.71 81.03L70.52 118.45C77.39 122.41 88.47 122.4 95.27 118.45L159.66 81.03C160.13 80.75 160.56 80.47 160.96 80.17C161.1 80.08 161.21 79.98 161.34 79.88C161.6 79.67 161.85 79.47 162.08 79.25C162.21 79.14 162.33 79.02 162.44 78.9C162.65 78.69 162.83 78.48 163.01 78.27C163.11 78.15 163.21 78.03 163.3 77.9C163.47 77.68 163.62 77.45 163.76 77.21C164.4 76.14 164.74 75.03 164.75 73.91L164.81 51.27C164.81 51.58 164.78 51.9 164.73 52.21Z" />
			<path id="&lt;Path&gt;" class="shp2" d="M164.73 52.21C164.73 52.22 164.73 52.23 164.73 52.23C164.66 52.64 164.54 53.03 164.39 53.43C164.35 53.54 164.3 53.64 164.25 53.75C164.11 54.07 163.95 54.38 163.76 54.69C163.7 54.77 163.66 54.86 163.6 54.95C163.35 55.32 163.05 55.69 162.72 56.05C162.64 56.14 162.55 56.21 162.47 56.29C162.19 56.58 161.88 56.86 161.54 57.13C161.42 57.23 161.3 57.32 161.18 57.42C160.73 57.75 160.26 58.08 159.73 58.39L95.34 95.81C88.54 99.76 77.45 99.77 70.59 95.81L5.78 58.39C5.24 58.08 4.76 57.75 4.3 57.41C4.18 57.31 4.05 57.22 3.93 57.12C3.59 56.84 3.28 56.56 2.99 56.27C2.91 56.19 2.81 56.11 2.73 56.03C2.39 55.66 2.1 55.29 1.84 54.91C1.78 54.82 1.74 54.73 1.68 54.65C1.49 54.34 1.32 54.02 1.18 53.71C1.13 53.59 1.08 53.48 1.04 53.37C0.89 52.98 0.77 52.59 0.71 52.2C0.7 52.19 0.7 52.17 0.7 52.16C0.64 51.83 0.62 51.5 0.62 51.17L0.55 73.81C0.55 74.93 0.88 76.05 1.52 77.12C1.66 77.37 1.82 77.61 1.99 77.85C2.09 77.97 2.19 78.09 2.29 78.21C2.47 78.43 2.66 78.65 2.87 78.86C2.99 78.98 3.11 79.1 3.24 79.22C3.48 79.44 3.73 79.65 4 79.86C4.13 79.96 4.25 80.06 4.37 80.16C4.79 80.46 5.23 80.75 5.71 81.03L70.52 118.45C77.39 122.41 88.47 122.4 95.27 118.45L159.66 81.03C160.13 80.75 160.56 80.47 160.96 80.17C161.1 80.08 161.21 79.98 161.34 79.88C161.6 79.67 161.85 79.47 162.08 79.25C162.21 79.14 162.33 79.02 162.44 78.9C162.65 78.69 162.83 78.48 163.01 78.27C163.11 78.15 163.21 78.03 163.3 77.9C163.47 77.68 163.62 77.45 163.76 77.21C164.4 76.14 164.74 75.03 164.75 73.91L164.81 51.27C164.81 51.58 164.78 51.9 164.73 52.21Z" />
			<path id="&lt;Path&gt;" class="shp1" d="M164.75 67.77C164.74 68.89 164.4 70.01 163.76 71.08C163.62 71.31 163.47 71.54 163.3 71.77C163.21 71.89 163.11 72.01 163.01 72.14C162.83 72.35 162.65 72.56 162.44 72.76C162.33 72.88 162.21 73 162.08 73.12C161.85 73.33 161.6 73.54 161.34 73.74C161.21 73.84 161.1 73.94 160.96 74.04C160.56 74.33 160.13 74.62 159.66 74.89L95.27 112.31C88.47 116.26 77.39 116.27 70.52 112.31L5.71 74.89C5.23 74.61 4.79 74.32 4.37 74.02C4.25 73.92 4.13 73.82 4 73.73C3.73 73.52 3.48 73.3 3.24 73.08C3.11 72.97 2.99 72.85 2.87 72.73C2.66 72.51 2.47 72.3 2.29 72.08C2.19 71.96 2.09 71.84 1.99 71.71C1.82 71.47 1.66 71.23 1.52 70.98C0.89 69.92 0.56 68.81 0.56 67.7L0.55 69.35C0.55 70.47 0.88 71.58 1.52 72.66C1.66 72.9 1.82 73.14 1.99 73.38C2.09 73.51 2.19 73.63 2.29 73.75C2.47 73.97 2.66 74.18 2.87 74.4C2.99 74.52 3.11 74.64 3.24 74.75C3.48 74.97 3.73 75.19 4 75.4C4.13 75.5 4.25 75.6 4.37 75.69C4.79 75.99 5.23 76.28 5.71 76.56L70.52 113.98C77.39 117.94 88.47 117.93 95.27 113.98L159.66 76.56C160.13 76.29 160.56 76 160.96 75.71C161.1 75.61 161.21 75.51 161.34 75.41C161.6 75.21 161.85 75 162.08 74.79C162.21 74.67 162.33 74.55 162.44 74.43C162.65 74.23 162.83 74.02 163.01 73.81C163.11 73.68 163.21 73.56 163.3 73.44C163.47 73.21 163.62 72.98 163.76 72.75C164.4 71.68 164.74 70.56 164.75 69.44L164.81 46.81C164.81 46.83 164.81 46.84 164.8 46.86L164.75 67.77Z" />
			<path id="&lt;Path&gt;" class="shp3" d="M3.36 45.89C3.35 46.02 3.37 46.14 3.37 46.27C3.39 46.65 3.46 47.05 3.57 47.43C3.6 47.55 3.63 47.67 3.67 47.78C3.84 48.26 4.08 48.73 4.4 49.19C4.46 49.27 4.54 49.36 4.6 49.44C4.88 49.82 5.22 50.19 5.6 50.54C5.73 50.66 5.86 50.78 5.99 50.89C6.5 51.31 7.05 51.72 7.69 52.09L72.5 89.51C78.31 92.86 87.69 92.85 93.43 89.51L157.83 52.09C158.47 51.72 159.01 51.31 159.51 50.89C159.64 50.78 159.77 50.67 159.89 50.55C160.28 50.18 160.62 49.81 160.91 49.42C160.96 49.35 161.03 49.28 161.09 49.2C161.4 48.74 161.63 48.27 161.8 47.8C161.84 47.68 161.86 47.56 161.9 47.44C162.01 47.05 162.07 46.65 162.09 46.26C162.09 46.15 162.11 46.03 162.1 45.92C162.09 45.44 162.01 44.95 161.86 44.48C161.83 44.38 161.78 44.29 161.74 44.19C161.15 42.65 159.84 41.17 157.76 39.97L92.95 2.55C87.16 -0.79 77.76 -0.79 72.02 2.55L7.62 39.97C5.55 41.18 4.25 42.66 3.68 44.22C3.65 44.3 3.61 44.37 3.59 44.44C3.43 44.92 3.36 45.41 3.36 45.89Z" />
			<path id="&lt;Path&gt;" class="shp3" d="M164 48.2C163.15 46.63 162.3 45.05 161.44 43.48C161.57 43.71 161.65 43.95 161.74 44.19C161.78 44.29 161.83 44.38 161.86 44.48C162.01 44.95 162.09 45.44 162.1 45.92C162.11 46.03 162.09 46.15 162.09 46.26C162.07 46.66 162.01 47.05 161.9 47.44C161.86 47.56 161.84 47.68 161.8 47.8C161.63 48.27 161.4 48.74 161.09 49.2C161.03 49.28 160.96 49.35 160.91 49.42C160.62 49.81 160.28 50.18 159.89 50.55C159.77 50.67 159.64 50.78 159.51 50.89C159.01 51.31 158.47 51.72 157.83 52.09L93.43 89.51C87.69 92.85 78.31 92.86 72.5 89.51L7.69 52.09C7.05 51.72 6.5 51.31 5.99 50.89C5.86 50.78 5.73 50.66 5.6 50.54C5.22 50.19 4.88 49.82 4.6 49.44C4.54 49.36 4.46 49.27 4.4 49.19C4.08 48.73 3.84 48.26 3.67 47.78C3.63 47.67 3.6 47.55 3.57 47.43C3.46 47.04 3.39 46.66 3.37 46.27C3.37 46.14 3.35 46.02 3.36 45.89C3.36 45.41 3.43 44.92 3.59 44.44C3.61 44.37 3.65 44.3 3.68 44.22C3.78 43.94 3.88 43.66 4.03 43.39C3.17 44.96 2.3 46.53 1.44 48.11C0.72 49.42 0.47 50.8 0.7 52.16C0.7 52.17 0.7 52.19 0.71 52.2C0.77 52.59 0.89 52.98 1.04 53.37C1.08 53.48 1.13 53.59 1.18 53.71C1.32 54.02 1.49 54.34 1.68 54.65C1.74 54.73 1.78 54.82 1.84 54.91C2.1 55.29 2.39 55.66 2.73 56.03C2.81 56.11 2.91 56.19 2.99 56.27C3.28 56.56 3.59 56.84 3.93 57.12C4.05 57.22 4.18 57.31 4.3 57.41C4.76 57.75 5.24 58.08 5.78 58.39L70.59 95.81C77.45 99.77 88.54 99.76 95.34 95.81L159.73 58.39C160.26 58.08 160.73 57.75 161.18 57.42C161.3 57.32 161.42 57.23 161.54 57.13C161.88 56.86 162.19 56.58 162.47 56.29C162.55 56.21 162.64 56.14 162.72 56.05C163.05 55.69 163.35 55.32 163.6 54.95C163.66 54.86 163.7 54.77 163.76 54.69C163.95 54.38 164.11 54.07 164.25 53.75C164.3 53.64 164.35 53.54 164.39 53.43C164.54 53.03 164.66 52.64 164.73 52.23C164.73 52.23 164.73 52.22 164.73 52.21C164.95 50.87 164.71 49.5 164 48.2Z" />
			<path id="&lt;Path&gt;" class="shp4" d="M164 48.2C163.15 46.63 162.3 45.05 161.44 43.48C161.57 43.71 161.65 43.95 161.74 44.19C161.78 44.29 161.83 44.38 161.86 44.48C162.01 44.95 162.09 45.44 162.1 45.92C162.11 46.03 162.09 46.15 162.09 46.26C162.07 46.66 162.01 47.05 161.9 47.44C161.86 47.56 161.84 47.68 161.8 47.8C161.63 48.27 161.4 48.74 161.09 49.2C161.03 49.28 160.96 49.35 160.91 49.42C160.62 49.81 160.28 50.18 159.89 50.55C159.77 50.67 159.64 50.78 159.51 50.89C159.01 51.31 158.47 51.72 157.83 52.09L93.43 89.51C87.69 92.85 78.31 92.86 72.5 89.51L7.69 52.09C7.05 51.72 6.5 51.31 5.99 50.89C5.86 50.78 5.73 50.66 5.6 50.54C5.22 50.19 4.88 49.82 4.6 49.44C4.54 49.36 4.46 49.27 4.4 49.19C4.08 48.73 3.84 48.26 3.67 47.78C3.63 47.67 3.6 47.55 3.57 47.43C3.46 47.04 3.39 46.66 3.37 46.27C3.37 46.14 3.35 46.02 3.36 45.89C3.36 45.41 3.43 44.92 3.59 44.44C3.61 44.37 3.65 44.3 3.68 44.22C3.78 43.94 3.88 43.66 4.03 43.39C3.17 44.96 2.3 46.53 1.44 48.11C0.72 49.42 0.47 50.8 0.7 52.16C0.7 52.17 0.7 52.19 0.71 52.2C0.77 52.59 0.89 52.98 1.04 53.37C1.08 53.48 1.13 53.59 1.18 53.71C1.32 54.02 1.49 54.34 1.68 54.65C1.74 54.73 1.78 54.82 1.84 54.91C2.1 55.29 2.39 55.66 2.73 56.03C2.81 56.11 2.91 56.19 2.99 56.27C3.28 56.56 3.59 56.84 3.93 57.12C4.05 57.22 4.18 57.31 4.3 57.41C4.76 57.75 5.24 58.08 5.78 58.39L70.59 95.81C77.45 99.77 88.54 99.76 95.34 95.81L159.73 58.39C160.26 58.08 160.73 57.75 161.18 57.42C161.3 57.32 161.42 57.23 161.54 57.13C161.88 56.86 162.19 56.58 162.47 56.29C162.55 56.21 162.64 56.14 162.72 56.05C163.05 55.69 163.35 55.32 163.6 54.95C163.66 54.86 163.7 54.77 163.76 54.69C163.95 54.38 164.11 54.07 164.25 53.75C164.3 53.64 164.35 53.54 164.39 53.43C164.54 53.03 164.66 52.64 164.73 52.23C164.73 52.23 164.73 52.22 164.73 52.21C164.95 50.87 164.71 49.5 164 48.2Z" />
			<path id="&lt;Path&gt;" class="shp5" d="M127.72 43.64C127.69 44.03 127.69 44.42 127.62 44.81C127.55 45.26 127.41 45.7 127.3 46.14C127.2 46.52 127.13 46.91 127.01 47.29C126.86 47.73 126.65 48.17 126.46 48.61C126.3 48.98 126.17 49.36 125.98 49.74C125.76 50.18 125.47 50.6 125.21 51.04C124.98 51.4 124.8 51.77 124.55 52.12C124.24 52.57 123.86 52.99 123.51 53.43C123.24 53.76 123 54.11 122.7 54.44C122.3 54.89 121.82 55.32 121.36 55.76C121.05 56.06 120.78 56.37 120.45 56.66C119.91 57.13 119.3 57.58 118.71 58.04C118.39 58.28 118.11 58.53 117.77 58.77C116.82 59.46 115.79 60.12 114.69 60.75C97.12 70.97 68.52 70.97 50.81 60.74C49.7 60.1 48.66 59.44 47.69 58.75C47.35 58.51 47.07 58.25 46.75 58.01C46.15 57.55 45.53 57.1 44.98 56.62C44.65 56.33 44.38 56.03 44.07 55.74C43.6 55.29 43.11 54.84 42.69 54.38C42.39 54.06 42.16 53.72 41.88 53.38C41.52 52.94 41.13 52.5 40.82 52.05C40.56 51.7 40.37 51.33 40.16 50.97C39.88 50.53 39.58 50.09 39.36 49.65C39.17 49.27 39.04 48.89 38.87 48.52C38.68 48.07 38.46 47.63 38.31 47.18C38.18 46.8 38.12 46.42 38.02 46.03C37.9 45.58 37.76 45.14 37.69 44.69C37.62 44.29 37.62 43.9 37.58 43.5C37.54 43.06 37.47 42.62 37.47 42.17C37.47 42.15 37.47 42.13 37.47 42.11L37.46 46.51C37.44 53.25 41.89 60 50.8 65.15C68.51 75.37 97.11 75.37 114.68 65.16C123.42 60.08 127.8 53.43 127.81 46.78L127.83 42.38C127.82 42.8 127.76 43.22 127.72 43.64Z" />
			<path id="&lt;Path&gt;" class="shp6" d="M37.58 43.5C37.62 43.9 37.62 44.29 37.69 44.69C37.76 45.14 37.9 45.58 38.02 46.03C38.12 46.42 38.18 46.8 38.31 47.18C38.46 47.63 38.68 48.07 38.87 48.52C39.04 48.89 39.17 49.27 39.36 49.65C39.58 50.09 39.88 50.53 40.16 50.97C40.37 51.33 40.56 51.7 40.82 52.05C41.13 52.5 41.52 52.94 41.88 53.38C42.16 53.72 42.39 54.06 42.69 54.38C43.11 54.84 43.6 55.29 44.07 55.74C44.38 56.03 44.65 56.33 44.98 56.62C45.53 57.1 46.15 57.55 46.75 58.01C47.07 58.25 47.35 58.51 47.69 58.75C48.66 59.44 49.7 60.1 50.81 60.74C68.52 70.97 97.12 70.97 114.69 60.75C115.79 60.12 116.82 59.46 117.77 58.77C118.11 58.53 118.39 58.28 118.71 58.04C119.3 57.58 119.91 57.13 120.45 56.66C120.78 56.37 121.05 56.06 121.36 55.76C121.82 55.32 122.3 54.89 122.7 54.44C123 54.11 123.24 53.76 123.51 53.43C123.86 52.99 124.24 52.57 124.55 52.12C124.8 51.77 124.98 51.4 125.21 51.04C125.47 50.6 125.76 50.18 125.98 49.74C126.17 49.36 126.3 48.98 126.46 48.61C126.65 48.17 126.86 47.73 127.01 47.29C127.13 46.91 127.2 46.52 127.3 46.14C127.41 45.7 127.55 45.26 127.62 44.81C127.69 44.42 127.69 44.03 127.72 43.64C128.33 36.48 123.95 29.21 114.48 23.74C96.78 13.52 68.18 13.52 50.59 23.74C41.83 28.83 37.47 35.5 37.47 42.17C37.47 42.62 37.54 43.06 37.58 43.5Z" />
			<g id="&lt;Group&gt;">
				<path id="&lt;Compound Path&gt;" fill-rule="evenodd" class="shp0" d="M82.76 62.65C73.85 62.65 64.92 60.68 58.11 56.75C57.26 56.26 56.44 55.74 55.69 55.2C55.52 55.08 55.37 54.96 55.22 54.84L54.7 54.43C54.31 54.14 53.92 53.84 53.58 53.54C53.4 53.39 53.25 53.24 53.1 53.09L52.62 52.62C52.33 52.34 52.04 52.07 51.78 51.79C51.62 51.61 51.48 51.43 51.34 51.25L50.95 50.77C50.73 50.5 50.5 50.23 50.3 49.95C50.17 49.76 50.05 49.56 49.93 49.36L49.6 48.81C49.44 48.55 49.28 48.3 49.14 48.04C49.04 47.84 48.96 47.63 48.88 47.43L48.62 46.85C48.51 46.59 48.4 46.34 48.31 46.08C48.24 45.87 48.19 45.66 48.14 45.45L47.99 44.86C47.92 44.6 47.85 44.34 47.81 44.08C47.77 43.85 47.75 43.63 47.74 43.4L47.69 42.83C47.66 42.57 47.64 42.31 47.64 42.05C47.63 36.51 51.29 31.33 57.94 27.46C71.47 19.6 93.55 19.6 107.17 27.46C114.28 31.57 118.07 37.31 117.57 43.22L117.55 43.51C117.53 43.73 117.52 43.95 117.48 44.16C117.44 44.43 117.37 44.69 117.3 44.95L117.16 45.51C117.11 45.72 117.06 45.94 116.99 46.16C116.9 46.42 116.79 46.69 116.67 46.95L116.45 47.48C116.36 47.69 116.28 47.9 116.17 48.11C116.04 48.36 115.88 48.62 115.72 48.87L115.4 49.4C115.29 49.6 115.17 49.8 115.04 50C114.85 50.26 114.64 50.51 114.43 50.77L114.01 51.29C113.87 51.47 113.74 51.65 113.58 51.82C113.34 52.1 113.06 52.36 112.79 52.62L112.3 53.1C112.14 53.26 111.99 53.42 111.81 53.57C111.46 53.87 111.08 54.17 110.69 54.46L110.18 54.86C110.04 54.98 109.89 55.1 109.73 55.22C108.98 55.75 108.17 56.27 107.33 56.75C100.57 60.68 91.67 62.65 82.76 62.65ZM49.06 43L49.09 43.32C49.1 43.5 49.11 43.68 49.14 43.85C49.17 44.07 49.23 44.28 49.3 44.5L49.46 45.15C49.5 45.31 49.54 45.48 49.59 45.65C49.66 45.86 49.76 46.08 49.86 46.29L50.13 46.93C50.2 47.09 50.26 47.26 50.34 47.42C50.46 47.65 50.6 47.86 50.74 48.08L51.1 48.68C51.2 48.85 51.29 49.01 51.41 49.17C51.58 49.42 51.79 49.66 51.99 49.9L52.41 50.43C52.53 50.58 52.64 50.73 52.78 50.88C53.01 51.13 53.28 51.38 53.55 51.64L54.07 52.14C54.19 52.27 54.32 52.4 54.46 52.52C54.79 52.81 55.15 53.08 55.51 53.35L56.08 53.79C56.2 53.9 56.33 54 56.46 54.1C57.19 54.61 57.97 55.11 58.79 55.58C72.02 63.23 93.5 63.23 106.65 55.59C107.46 55.12 108.23 54.62 108.94 54.12C109.08 54.02 109.2 53.92 109.33 53.81L109.87 53.39C110.23 53.11 110.6 52.84 110.92 52.56C111.07 52.42 111.2 52.29 111.33 52.15L111.86 51.64C112.11 51.4 112.36 51.16 112.58 50.92C112.71 50.77 112.83 50.62 112.94 50.47L113.4 49.91C113.58 49.68 113.77 49.46 113.93 49.23C114.04 49.06 114.14 48.9 114.24 48.73L114.58 48.15C114.72 47.93 114.86 47.72 114.97 47.5C115.06 47.32 115.12 47.15 115.19 46.98L115.43 46.4C115.54 46.18 115.64 45.96 115.71 45.73C115.77 45.56 115.81 45.38 115.84 45.21L116 44.6C116.05 44.38 116.12 44.16 116.15 43.95C116.18 43.78 116.19 43.61 116.2 43.43L116.22 43.11C116.68 37.74 113.13 32.46 106.5 28.63C93.25 20.98 71.77 20.98 58.62 28.63C52.4 32.24 48.98 37.01 48.99 42.05C48.99 42.26 49.01 42.48 49.04 42.69L49.06 43Z" />
			</g>
			<path id="&lt;Path&gt;" class="shp7" d="M65.85 42.57C65.87 42.72 65.87 42.87 65.89 43.02C65.92 43.18 65.97 43.35 66.02 43.51C66.05 43.66 66.08 43.8 66.12 43.95C66.18 44.11 66.26 44.28 66.33 44.44C66.39 44.58 66.44 44.72 66.51 44.86C66.6 45.03 66.71 45.19 66.81 45.35C66.89 45.49 66.96 45.62 67.06 45.76C67.17 45.93 67.32 46.09 67.45 46.25C67.56 46.38 67.64 46.5 67.75 46.63C67.91 46.8 68.09 46.96 68.27 47.13C68.38 47.24 68.48 47.35 68.61 47.46C68.81 47.64 69.04 47.81 69.27 47.98C69.38 48.07 69.49 48.16 69.62 48.25C69.98 48.51 70.36 48.76 70.78 48.99C77.37 52.8 88.02 52.8 94.57 49C94.98 48.76 95.36 48.52 95.71 48.26C95.84 48.17 95.94 48.08 96.06 47.99C96.28 47.82 96.51 47.65 96.71 47.47C96.83 47.36 96.94 47.25 97.05 47.14C97.22 46.97 97.4 46.81 97.55 46.65C97.66 46.52 97.75 46.39 97.85 46.27C97.98 46.11 98.12 45.95 98.24 45.78C98.33 45.65 98.4 45.52 98.48 45.38C98.58 45.22 98.69 45.06 98.77 44.9C98.84 44.76 98.89 44.62 98.95 44.48C99.02 44.31 99.1 44.15 99.15 43.99C99.2 43.84 99.22 43.7 99.26 43.56C99.3 43.39 99.35 43.23 99.38 43.06C99.41 42.92 99.41 42.77 99.42 42.62C99.65 39.96 98.02 37.25 94.49 35.21C87.89 31.41 77.24 31.41 70.69 35.21C67.43 37.11 65.81 39.59 65.81 42.08C65.81 42.24 65.84 42.41 65.85 42.57Z" />
			<path id="&lt;Path&gt;" class="shp8" d="M12.11 71.34C9.75 69.98 7.79 67.07 7.11 64.23L5.1 63.07C5.09 66.42 7.45 70.5 10.36 72.19L19.04 77.2L24.44 80.31L24.44 78.46L20.78 76.35L12.11 71.34Z" />
			<path id="&lt;Path&gt;" class="shp8" d="M71.26 105.68L67.11 103.28L57.19 97.56L57.2 93.33L55.47 92.33L55.45 98.4L65.37 104.12L69.52 106.52C71.35 107.58 72.96 107.44 73.92 106.36C73.13 106.43 72.24 106.24 71.26 105.68Z" />
			<path id="&lt;Path&gt;" class="shp9" d="M7.11 64.23C7.79 67.07 9.75 69.98 12.11 71.34L20.78 76.35L24.44 78.46L24.45 74.24L7.11 64.23Z" />
			<path id="&lt;Path&gt;" class="shp9" d="M57.2 93.33L57.19 97.56L67.11 103.28L71.26 105.68C72.24 106.24 73.13 106.43 73.92 106.36C74.48 105.72 74.82 104.75 74.82 103.51L57.2 93.33Z" />
			<g id="&lt;Group&gt;">
				<g id="&lt;Group&gt;">
					<path id="&lt;Path&gt;" class="shp1" d="M29.09 74.3L28.98 88.12L31.17 86.84L31.28 73.01L29.09 74.3Z" />
					<path id="&lt;Path&gt;" class="shp8" d="M28.15 73.79L28.05 87.61L28.98 88.12L29.09 74.3L28.15 73.79Z" />
					<path id="&lt;Path&gt;" class="shp3" d="M31.28 73.01L30.34 72.51L28.15 73.79L29.09 74.3L31.28 73.01Z" />
				</g>
				<g id="&lt;Group&gt;">
					<path id="&lt;Path&gt;" class="shp1" d="M31.66 75.79L31.55 89.61L33.74 88.33L33.85 74.51L31.66 75.79Z" />
					<path id="&lt;Path&gt;" class="shp8" d="M30.73 75.28L30.62 89.1L31.55 89.61L31.66 75.79L30.73 75.28Z" />
					<path id="&lt;Path&gt;" class="shp3" d="M33.85 74.51L32.92 74L30.73 75.28L31.66 75.79L33.85 74.51Z" />
				</g>
				<g id="&lt;Group&gt;">
					<path id="&lt;Path&gt;" class="shp1" d="M34.23 77.28L34.13 91.1L36.32 89.82L36.43 76L34.23 77.28Z" />
					<path id="&lt;Path&gt;" class="shp8" d="M33.3 76.77L33.19 90.6L34.13 91.1L34.23 77.28L33.3 76.77Z" />
					<path id="&lt;Path&gt;" class="shp3" d="M36.43 76L35.49 75.49L33.3 76.77L34.23 77.28L36.43 76Z" />
				</g>
				<g id="&lt;Group&gt;">
					<path id="&lt;Path&gt;" class="shp1" d="M36.81 78.78L36.7 92.6L38.89 91.31L39 77.49L36.81 78.78Z" />
					<path id="&lt;Path&gt;" class="shp8" d="M35.87 78.27L35.77 92.09L36.7 92.6L36.81 78.78L35.87 78.27Z" />
					<path id="&lt;Path&gt;" class="shp3" d="M39 77.49L38.06 76.99L35.87 78.27L36.81 78.78L39 77.49Z" />
				</g>
				<g id="&lt;Group&gt;">
					<path id="&lt;Path&gt;" class="shp1" d="M39.38 80.27L39.27 94.09L41.46 92.81L41.57 78.99L39.38 80.27Z" />
					<path id="&lt;Path&gt;" class="shp8" d="M38.44 79.76L38.34 93.58L39.27 94.09L39.38 80.27L38.44 79.76Z" />
					<path id="&lt;Path&gt;" class="shp3" d="M41.57 78.99L40.64 78.48L38.44 79.76L39.38 80.27L41.57 78.99Z" />
				</g>
				<g id="&lt;Group&gt;">
					<path id="&lt;Path&gt;" class="shp1" d="M41.95 81.76L41.85 95.58L44.04 94.3L44.15 80.48L41.95 81.76Z" />
					<path id="&lt;Path&gt;" class="shp8" d="M41.02 81.25L40.91 95.08L41.85 95.58L41.95 81.76L41.02 81.25Z" />
					<path id="&lt;Path&gt;" class="shp3" d="M44.15 80.48L43.21 79.97L41.02 81.25L41.95 81.76L44.15 80.48Z" />
				</g>
				<g id="&lt;Group&gt;">
					<path id="&lt;Path&gt;" class="shp1" d="M44.53 83.26L44.42 97.08L46.61 95.79L46.72 81.97L44.53 83.26Z" />
					<path id="&lt;Path&gt;" class="shp8" d="M43.59 82.75L43.49 96.57L44.42 97.08L44.53 83.26L43.59 82.75Z" />
					<path id="&lt;Path&gt;" class="shp3" d="M46.72 81.97L45.79 81.47L43.59 82.75L44.53 83.26L46.72 81.97Z" />
				</g>
				<g id="&lt;Group&gt;">
					<path id="&lt;Path&gt;" class="shp1" d="M47.1 84.75L47 98.57L49.19 97.29L49.29 83.47L47.1 84.75Z" />
					<path id="&lt;Path&gt;" class="shp8" d="M46.16 84.24L46.06 98.06L47 98.57L47.1 84.75L46.16 84.24Z" />
					<path id="&lt;Path&gt;" class="shp3" d="M49.29 83.47L48.36 82.96L46.16 84.24L47.1 84.75L49.29 83.47Z" />
				</g>
			</g>
			<g id="&lt;Group&gt;">
				<g id="&lt;Group&gt;">
					<path id="&lt;Path&gt;" class="shp8" d="M136.58 74.3L136.68 88.12L134.49 86.84L134.39 73.01L136.58 74.3Z" />
					<path id="&lt;Path&gt;" class="shp3" d="M137.51 73.79L137.62 87.61L136.68 88.12L136.58 74.3L137.51 73.79Z" />
					<path id="&lt;Path&gt;" class="shp1" d="M134.39 73.01L135.32 72.51L137.51 73.79L136.58 74.3L134.39 73.01Z" />
				</g>
				<g id="&lt;Group&gt;">
					<path id="&lt;Path&gt;" class="shp8" d="M134 75.79L134.11 89.61L131.92 88.33L131.81 74.51L134 75.79Z" />
					<path id="&lt;Path&gt;" class="shp3" d="M134.94 75.28L135.04 89.1L134.11 89.61L134 75.79L134.94 75.28Z" />
					<path id="&lt;Path&gt;" class="shp1" d="M131.81 74.51L132.74 74L134.94 75.28L134 75.79L131.81 74.51Z" />
				</g>
				<g id="&lt;Group&gt;">
					<path id="&lt;Path&gt;" class="shp8" d="M131.43 77.28L131.54 91.1L129.34 89.82L129.24 76L131.43 77.28Z" />
					<path id="&lt;Path&gt;" class="shp3" d="M132.37 76.77L132.47 90.6L131.54 91.1L131.43 77.28L132.37 76.77Z" />
					<path id="&lt;Path&gt;" class="shp1" d="M129.24 76L130.18 75.49L132.37 76.77L131.43 77.28L129.24 76Z" />
				</g>
				<g id="&lt;Group&gt;">
					<path id="&lt;Path&gt;" class="shp8" d="M128.85 78.78L128.96 92.6L126.77 91.31L126.66 77.49L128.85 78.78Z" />
					<path id="&lt;Path&gt;" class="shp3" d="M129.79 78.27L129.9 92.09L128.96 92.6L128.85 78.78L129.79 78.27Z" />
					<path id="&lt;Path&gt;" class="shp1" d="M126.66 77.49L127.6 76.99L129.79 78.27L128.85 78.78L126.66 77.49Z" />
				</g>
				<g id="&lt;Group&gt;">
					<path id="&lt;Path&gt;" class="shp8" d="M126.28 80.27L126.39 94.09L124.2 92.81L124.09 78.99L126.28 80.27Z" />
					<path id="&lt;Path&gt;" class="shp3" d="M127.22 79.76L127.32 93.58L126.39 94.09L126.28 80.27L127.22 79.76Z" />
					<path id="&lt;Path&gt;" class="shp1" d="M124.09 78.99L125.03 78.48L127.22 79.76L126.28 80.27L124.09 78.99Z" />
				</g>
				<g id="&lt;Group&gt;">
					<path id="&lt;Path&gt;" class="shp8" d="M123.71 81.76L123.82 95.58L121.62 94.3L121.52 80.48L123.71 81.76Z" />
					<path id="&lt;Path&gt;" class="shp3" d="M124.64 81.25L124.75 95.08L123.82 95.58L123.71 81.76L124.64 81.25Z" />
					<path id="&lt;Path&gt;" class="shp1" d="M121.52 80.48L122.45 79.97L124.64 81.25L123.71 81.76L121.52 80.48Z" />
				</g>
				<g id="&lt;Group&gt;">
					<path id="&lt;Path&gt;" class="shp8" d="M121.14 83.26L121.24 97.08L119.05 95.79L118.95 81.97L121.14 83.26Z" />
					<path id="&lt;Path&gt;" class="shp3" d="M122.07 82.75L122.17 96.57L121.24 97.08L121.14 83.26L122.07 82.75Z" />
					<path id="&lt;Path&gt;" class="shp1" d="M118.95 81.97L119.88 81.47L122.07 82.75L121.14 83.26L118.95 81.97Z" />
				</g>
				<g id="&lt;Group&gt;">
					<path id="&lt;Path&gt;" class="shp8" d="M118.56 84.75L118.67 98.57L116.48 97.29L116.37 83.47L118.56 84.75Z" />
					<path id="&lt;Path&gt;" class="shp3" d="M119.5 84.24L119.61 98.06L118.67 98.57L118.56 84.75L119.5 84.24Z" />
					<path id="&lt;Path&gt;" class="shp1" d="M116.37 83.47L117.31 82.96L119.5 84.24L118.56 84.75L116.37 83.47Z" />
				</g>
			</g>
		</g>
	</g>
</svg>