<svg version="1.2" baseProfile="tiny-ps" xmlns="http://www.w3.org/2000/svg" viewBox="0 0 289 381" width="289" height="381">
	<title>Layer 1</title>
	<style>
		tspan { white-space:pre }
		.shp0 { fill: #4d4d4d } 
		.shp1 { fill: #0e6989 } 
		.shp2 { fill: #dd1d35 } 
		.shp3 { fill: #fc2e3d } 
		.shp4 { fill: #ffad97 } 
		.shp5 { fill: #ffffff } 
		.shp6 { fill: #1a8aa8 } 
		.shp7 { fill: #ffc5b3 } 
		.shp8 { fill: #dba763 } 
		.shp9 { fill: #e8b679 } 
		.shp10 { fill: #ffe1c0 } 
		.shp11 { fill: #6d6d6d } 
		.shp12 { fill: #075277 } 
		.shp13 { fill: #e06f22 } 
		.shp14 { fill: #af4c09 } 
		.shp15 { fill: #c65c14 } 
		.shp16 { fill: #ed8e2f } 
		.shp17 { fill: #ffa543 } 
	</style>
	<g id="Layer 1">
		<g id="&lt;Group&gt;">
			<g id="&lt;Group&gt;">
				<path id="&lt;Path&gt;" class="shp0" d="M216.85 248.59C214.85 250.86 212.52 253.36 209.85 256.09C206.14 259.87 204.99 260.96 201.54 264.48C199.53 266.53 201.19 268.41 205.02 268.26C208.39 268.12 216.02 266.41 220.28 264.81C223.32 263.67 228.87 260.45 231.71 258.57C233.6 257.32 234.73 255.83 235.1 254.09L235.1 247.78L216.85 248.59Z" />
				<path id="&lt;Path&gt;" class="shp0" d="M271.68 242.98C270.4 244.94 268.43 247.28 265.75 250C262.04 253.79 260.95 255.28 257.67 259.8C256.92 260.83 256.48 263.77 260.31 263.62C263.68 263.48 268.81 261.98 273.08 260.39C277.96 258.58 282.07 253.44 284.91 251.56C286.8 250.31 288.17 248.3 289 245.53L287.04 239.31L271.68 242.98Z" />
				<path id="&lt;Path&gt;" class="shp1" d="M270.15 140.6C271.1 125.16 267.5 113.39 259.37 105.27C260.02 100.07 248.81 101.11 225.74 108.39C220.8 136.36 217.29 157.7 215.2 172.43C212.83 189.17 212.36 214.58 213.8 248.67C214.09 252.3 217.22 254.11 223.18 254.09C227.76 254.07 231.73 251.97 235.1 247.78L235.81 189.59L243.76 148.32C248.86 170.68 252.22 185.87 253.83 193.89C255.55 202.43 259.71 219.32 266.31 244.58C270.57 249.71 275.36 250.88 280.65 248.11C285.95 245.34 288.08 242.41 287.04 239.31C286 221.4 282.07 204.43 275.26 188.4C274.41 170.14 269.5 151.24 270.15 140.6Z" />
				<path id="&lt;Path&gt;" class="shp2" d="M230.47 47.6C227.17 47.43 223.82 50.69 220.42 57.38C217.01 64.07 213.68 70.98 210.42 78.11C215.38 78.85 220.56 81.82 225.95 87.02C237.02 76.55 238.83 52.49 230.47 47.6Z" />
				<path id="&lt;Path&gt;" class="shp3" d="M230.47 47.6C228.62 51.32 226.84 56.59 225.13 63.42C223.43 70.25 222.88 89.53 223.5 121.28C230.53 126.49 239.93 128.58 251.71 127.56C258.71 126.95 263.99 124.38 267.56 119.85C271.75 88.76 273.56 70.98 272.99 66.53C272.42 62.08 267.69 54.62 258.78 44.16C247 43.53 237.57 44.68 230.47 47.6Z" />
				<path id="&lt;Path&gt;" class="shp4" d="M242.56 41.09L240.51 53.59C244.57 58.36 248.58 58.96 252.56 55.4C256.53 51.83 258.8 49.23 259.37 47.6L256.43 30.54L242.56 41.09Z" />
				<g id="&lt;Group&gt;">
					<path id="&lt;Path&gt;" class="shp1" d="M245.18 76.51C250.31 68.44 254.9 63.27 258.96 61C263.02 58.74 266.14 57.39 268.33 56.97C266.85 53.78 265.62 52 264.63 51.63C262.05 52.03 260.38 52.78 254.9 55.75C249.42 58.72 243.42 65.93 241.03 70.35C236.21 79.26 241.64 81.65 245.18 76.51Z" />
					<path id="&lt;Path&gt;" class="shp1" d="M232.83 46.51C229.49 54.85 227.61 61.02 227.21 65.03C226.61 71.04 227.75 72.89 230.06 73.1C232.38 73.31 232.5 69.02 233.19 64.24C233.62 61.23 235.24 54.77 238.06 44.87L232.83 46.51Z" />
					<path id="&lt;Path&gt;" class="shp1" d="M268.43 113.25C264.68 116.34 260.96 117.68 257.25 117.25C252.38 116.69 245.36 111.73 245.73 95.6C245.98 84.85 246.58 76.99 247.54 72.04L228.9 63.5C225.53 71.66 223.51 83.76 222.84 99.79C222.17 115.81 221.7 126.59 221.42 132.11C234.68 132.96 245.23 132.96 253.07 132.11C260.92 131.26 266.48 130.33 269.76 129.31L268.43 113.25Z" />
					<path id="&lt;Path&gt;" class="shp5" d="M230.96 67.91C230.96 68.9 230.43 69.7 229.78 69.7C229.12 69.7 228.6 68.9 228.6 67.91C228.6 66.92 229.12 66.12 229.78 66.12C230.43 66.12 230.96 66.92 230.96 67.91Z" />
					<path id="&lt;Path&gt;" class="shp5" d="M242.12 73.36C241.57 74.17 241.55 75.14 242.08 75.54C242.61 75.93 243.48 75.61 244.04 74.8C244.59 74 244.61 73.03 244.08 72.63C243.55 72.23 242.67 72.56 242.12 73.36Z" />
					<path id="&lt;Path&gt;" class="shp6" d="M227.3 75.71C226.54 79.74 226.92 92.43 233.8 94.34C240.03 96.07 241.64 88.38 243.08 82.44C237.7 81.17 232.44 78.92 227.3 75.71Z" />
				</g>
				<path id="&lt;Compound Path&gt;" class="shp7" d="M250.97 11.77C245.88 7.71 233.83 6.41 229.43 19.44C224.81 33.1 236.63 50.17 242.93 47.27C246.46 45.65 253.87 39.88 255.96 32.69C258.31 24.59 254.92 14.92 250.97 11.77Z" />
				<g id="&lt;Group&gt;">
					<path id="&lt;Path&gt;" class="shp8" d="M202.33 160.5L202.33 110.94L240.51 91.03L240.51 137.78L202.33 160.5Z" />
					<path id="&lt;Path&gt;" class="shp9" d="M202.33 160.5L202.33 110.94L164.15 91.03L164.15 137.78L202.33 160.5Z" />
					<path id="&lt;Path&gt;" class="shp8" d="M202.34 160.92L202.33 110.94L240.51 87.85L240.51 137.78L202.34 160.92Z" />
					<path id="&lt;Path&gt;" class="shp9" d="M202.34 160.92L202.33 110.94L164.15 87.85L164.15 137.78L202.34 160.92Z" />
					<path id="&lt;Path&gt;" class="shp10" d="M164.15 87.85L202.33 110.94L240.51 87.85L202.34 64.77L164.15 87.85Z" />
					<g id="&lt;Group&gt;">
						<path id="&lt;Path&gt;" class="shp0" d="M226.31 110.97L217.8 116.14L217.8 101.55L226.31 96.38L226.31 110.97Z" />
						<path id="&lt;Path&gt;" class="shp11" d="M226.31 96.38L188.19 73.32L179.66 78.48L217.8 101.57L226.31 96.38Z" />
						<path id="&lt;Path&gt;" class="shp0" d="M207.39 153.77L207.39 151.2L220.2 143.42L220.2 146.03L207.39 153.77Z" />
						<path id="&lt;Path&gt;" class="shp0" d="M207.39 149.17L207.39 146.6L220.2 138.83L220.2 141.44L207.39 149.17Z" />
						<path id="&lt;Path&gt;" class="shp0" d="M231.71 130.46L231.71 139.37L237.84 135.66L237.84 126.74L231.71 130.46Z" />
						<path id="&lt;Path&gt;" class="shp0" d="M172.55 129.52L172.55 138.82L166.42 135.11L166.42 125.82L172.55 129.52Z" />
						<path id="&lt;Path&gt;" class="shp0" d="M180.91 134.6L180.91 143.89L174.78 140.19L174.78 130.9L180.91 134.6Z" />
						<path id="&lt;Path&gt;" class="shp5" d="M179.02 102.37L179.02 115.72L166.42 108.11L166.42 94.74L179.02 102.37Z" />
						<path id="&lt;Path&gt;" class="shp0" d="M177.47 105.1L177.47 102.93L167.56 96.95L167.56 99.09L177.47 105.1Z" />
					</g>
				</g>
				<path id="&lt;Path&gt;" class="shp7" d="M249.94 90.73C245.12 101.33 241.71 108.11 239.72 111.06C236.72 115.5 224.56 125.62 222.06 127.09C219.56 128.57 213.83 130.43 210.84 130.14C207.85 129.84 205.83 131.37 208.71 132.51C210.63 133.27 212.52 133.74 214.39 133.92C210.88 136.63 208.43 139.14 207.05 141.45C205.38 144.24 203.96 149.36 210.42 147.88C215.65 146.68 222.9 138.3 224.8 136.43C228.39 132.91 242.65 124.84 245.88 122.45C248.92 120.2 254.74 112.45 263.34 99.18C260.69 92.15 256.23 89.33 249.94 90.73Z" />
				<path id="&lt;Path&gt;" class="shp2" d="M270.71 60.77C266.96 57.62 258.94 68.31 254.69 74.99C251.85 79.44 249.29 85 247.02 91.67C250.44 94.27 253.68 96.57 256.74 98.59C259.3 100.29 261.94 101.77 264.65 103.06C277.26 82.09 279.28 68 270.71 60.77Z" />
				<path id="&lt;Path&gt;" class="shp0" d="M228.38 23.78C230.48 26.02 233.54 28.51 239.86 27.42C243.3 26.82 246.26 25.68 248.73 24L249.78 31.24C250.47 31.11 251.08 30.88 251.6 30.54C251.71 27.68 252.68 26.79 254.19 27.64C255.32 28.28 255.92 29.96 255.96 32.69C259.39 29.22 260.53 24.77 259.37 19.33C258.29 14.24 251.72 4.19 242.56 5.08C233.4 5.97 228.07 12.3 226.94 17.78C226.37 20.53 227.44 22.77 228.38 23.78Z" />
				<g id="&lt;Group&gt;">
					<path id="&lt;Path&gt;" class="shp1" d="M226.53 17.51C218.69 23.28 214.09 26.78 212.74 28C210.71 29.84 222.04 37.83 230.06 35.16C235.41 33.38 242.11 29.38 250.16 23.15L226.53 17.51Z" />
					<path id="&lt;Path&gt;" class="shp12" d="M226.53 17.51C235.47 23.32 242.74 25.39 248.32 23.73C253.9 22.06 257.45 20.5 258.96 19.05C258.48 6.84 253.1 0.74 242.85 0.74C232.59 0.74 227.15 6.33 226.53 17.51Z" />
					<path id="&lt;Path&gt;" class="shp1" d="M243.53 1.34C243.53 2.07 242.5 2.67 241.22 2.67C239.95 2.67 238.91 2.07 238.91 1.34C238.91 0.6 239.95 0 241.22 0C242.5 0 243.53 0.6 243.53 1.34Z" />
				</g>
			</g>
			<g id="&lt;Group&gt;">
				<g id="&lt;Group&gt;">
					<g id="&lt;Group&gt;">
						<path id="&lt;Path&gt;" class="shp13" d="M227.9 283.55L136.89 338.56L139.73 340.43L231.01 285.29L227.9 283.55Z" />
						<path id="&lt;Path&gt;" class="shp14" d="M231.01 285.28L139.73 340.41L139.73 354L231.01 298.86L231.01 285.28Z" />
						<path id="&lt;Path&gt;" class="shp15" d="M136.89 352.3L136.89 338.56L139.73 340.42L139.73 354L136.89 352.3Z" />
					</g>
					<g id="&lt;Group&gt;">
						<path id="&lt;Path&gt;" class="shp13" d="M126.3 221.9L35.28 276.92L38.12 278.78L129.4 223.64L126.3 221.9Z" />
						<path id="&lt;Path&gt;" class="shp14" d="M129.4 223.63L38.12 278.77L38.12 292.35L129.4 237.22L129.4 223.63Z" />
						<path id="&lt;Path&gt;" class="shp15" d="M35.28 290.65L35.28 276.92L38.12 278.77L38.12 292.35L35.28 290.65Z" />
					</g>
					<g id="&lt;Group&gt;">
						<path id="&lt;Path&gt;" class="shp13" d="M175.63 251.21L84.61 306.22L87.45 308.09L178.73 252.94L175.63 251.21Z" />
						<path id="&lt;Path&gt;" class="shp14" d="M178.73 252.94L87.45 308.07L87.45 321.66L178.73 266.52L178.73 252.94Z" />
						<path id="&lt;Path&gt;" class="shp15" d="M84.61 319.96L84.61 306.22L87.45 308.07L87.45 321.66L84.61 319.96Z" />
					</g>
					<g id="&lt;Group&gt;">
						<path id="&lt;Path&gt;" class="shp15" d="M139.73 336.26L35.28 273.18L35.28 277.58L139.73 340.66L139.73 336.26Z" />
						<path id="&lt;Path&gt;" class="shp13" d="M150.67 329.86L139.73 336.26L35.28 273.18L46.18 266.78L150.67 329.86Z" />
						<path id="&lt;Path&gt;" class="shp14" d="M150.67 329.86L139.73 336.26L139.73 344.45L150.67 337.78L150.67 329.86Z" />
					</g>
					<g id="&lt;Group&gt;">
						<path id="&lt;Path&gt;" class="shp15" d="M160.09 323.71L55.36 260.36L55.36 264.75L160.09 328.1L160.09 323.71Z" />
						<path id="&lt;Path&gt;" class="shp13" d="M171.04 317.3L160.09 323.71L55.36 260.36L66.25 253.95L171.04 317.3Z" />
						<path id="&lt;Path&gt;" class="shp14" d="M171.04 317.3L160.09 323.71L160.09 331.89L171.04 325.23L171.04 317.3Z" />
					</g>
					<g id="&lt;Group&gt;">
						<path id="&lt;Path&gt;" class="shp15" d="M180.95 311.34L75.97 247.86L75.97 252.25L180.95 315.74L180.95 311.34Z" />
						<path id="&lt;Path&gt;" class="shp13" d="M191.9 304.94L180.95 311.34L75.97 247.86L86.86 241.46L191.9 304.94Z" />
						<path id="&lt;Path&gt;" class="shp14" d="M191.9 304.94L180.95 311.34L180.95 319.53L191.9 312.86L191.9 304.94Z" />
					</g>
					<g id="&lt;Group&gt;">
						<path id="&lt;Path&gt;" class="shp15" d="M201.32 298.79L96.58 235.71L96.58 240.1L201.32 303.18L201.32 298.79Z" />
						<path id="&lt;Path&gt;" class="shp13" d="M212.27 292.38L201.32 298.79L96.58 235.71L107.48 229.3L212.27 292.38Z" />
						<path id="&lt;Path&gt;" class="shp14" d="M212.27 292.38L201.32 298.79L201.32 306.97L212.27 300.31L212.27 292.38Z" />
					</g>
					<g id="&lt;Group&gt;">
						<path id="&lt;Path&gt;" class="shp15" d="M220.06 287.78L115.07 224.42L115.07 228.81L220.06 292.17L220.06 287.78Z" />
						<path id="&lt;Path&gt;" class="shp13" d="M231.01 281.37L220.06 287.78L115.07 224.42L125.96 218.02L231.01 281.37Z" />
						<path id="&lt;Path&gt;" class="shp14" d="M231.01 281.37L220.06 287.78L220.06 295.96L231.01 289.3L231.01 281.37Z" />
					</g>
				</g>
				<g id="&lt;Group&gt;">
					<path id="&lt;Path&gt;" class="shp8" d="M93.12 299.95L93.14 265.93L45.95 237.39L45.95 271.35L93.12 299.95Z" />
					<path id="&lt;Path&gt;" class="shp9" d="M93.12 299.95L93.14 265.93L161.05 224.88L161.05 258.83L93.12 299.95Z" />
					<path id="&lt;Path&gt;" class="shp10" d="M161.05 224.88L93.14 265.92L45.95 237.39L113.89 196.35L161.05 224.88Z" />
					<g id="&lt;Group&gt;">
						<path id="&lt;Path&gt;" class="shp0" d="M63.49 265.96L74.02 272.35L74.02 254.33L63.49 247.93L63.49 265.96Z" />
						<path id="&lt;Path&gt;" class="shp11" d="M63.49 247.93L131.36 206.92L141.91 213.3L74.02 254.35L63.49 247.93Z" />
						<path id="&lt;Path&gt;" class="shp0" d="M89.6 294.32L89.6 291.14L73.76 281.53L73.76 284.75L89.6 294.32Z" />
						<path id="&lt;Path&gt;" class="shp0" d="M89.6 288.64L89.6 285.46L73.76 275.85L73.76 279.07L89.6 288.64Z" />
						<path id="&lt;Path&gt;" class="shp0" d="M151.52 249.16L151.52 260.64L159.09 256.06L159.09 244.58L151.52 249.16Z" />
						<path id="&lt;Path&gt;" class="shp0" d="M141.18 255.43L141.18 266.91L148.75 262.33L148.75 250.85L141.18 255.43Z" />
						<path id="&lt;Path&gt;" class="shp0" d="M130.7 261.72L130.7 273.21L138.28 268.63L138.28 257.15L130.7 261.72Z" />
						<path id="&lt;Path&gt;" class="shp5" d="M95.19 267.34L95.19 283.84L110.76 274.43L110.76 257.9L95.19 267.34Z" />
						<path id="&lt;Path&gt;" class="shp0" d="M97.09 270.71L97.09 268.02L109.34 260.64L109.34 263.28L97.09 270.71Z" />
					</g>
				</g>
				<g id="&lt;Group&gt;">
					<path id="&lt;Path&gt;" class="shp8" d="M144.92 331.74L144.94 297.71L97.75 269.18L97.75 303.13L144.92 331.74Z" />
					<path id="&lt;Path&gt;" class="shp9" d="M144.92 331.74L144.94 297.71L212.85 256.66L212.85 290.62L144.92 331.74Z" />
					<path id="&lt;Path&gt;" class="shp10" d="M212.85 256.66L144.94 297.71L97.75 269.17L165.69 228.14L212.85 256.66Z" />
					<g id="&lt;Group&gt;">
						<path id="&lt;Path&gt;" class="shp0" d="M115.29 297.75L125.82 304.14L125.82 286.11L115.29 279.72L115.29 297.75Z" />
						<path id="&lt;Path&gt;" class="shp11" d="M115.29 279.72L183.17 238.71L193.71 245.09L125.82 286.13L115.29 279.72Z" />
						<path id="&lt;Path&gt;" class="shp0" d="M141.4 326.1L141.4 322.93L125.56 313.32L125.56 316.54L141.4 326.1Z" />
						<path id="&lt;Path&gt;" class="shp0" d="M141.4 320.42L141.4 317.25L125.56 307.64L125.56 310.86L141.4 320.42Z" />
						<path id="&lt;Path&gt;" class="shp0" d="M203.32 280.94L203.32 292.43L210.89 287.85L210.89 276.37L203.32 280.94Z" />
						<path id="&lt;Path&gt;" class="shp0" d="M192.98 287.22L192.98 298.7L200.56 294.12L200.56 282.64L192.98 287.22Z" />
						<path id="&lt;Path&gt;" class="shp0" d="M182.51 293.51L182.51 304.99L190.08 300.41L190.08 288.93L182.51 293.51Z" />
						<path id="&lt;Path&gt;" class="shp5" d="M146.99 299.12L146.99 315.62L162.56 306.21L162.56 289.69L146.99 299.12Z" />
						<path id="&lt;Path&gt;" class="shp0" d="M148.9 302.5L148.9 299.81L161.15 292.42L161.15 295.06L148.9 302.5Z" />
					</g>
				</g>
				<g id="&lt;Group&gt;">
					<path id="&lt;Path&gt;" class="shp8" d="M93.12 262.41L93.14 228.39L45.95 199.85L45.95 233.81L93.12 262.41Z" />
					<path id="&lt;Path&gt;" class="shp9" d="M93.12 262.41L93.14 228.39L161.05 187.34L161.05 221.29L93.12 262.41Z" />
					<path id="&lt;Path&gt;" class="shp10" d="M161.05 187.34L93.14 228.39L45.95 199.85L113.89 158.82L161.05 187.34Z" />
					<g id="&lt;Group&gt;">
						<path id="&lt;Path&gt;" class="shp0" d="M63.49 228.43L74.02 234.82L74.02 216.79L63.49 210.39L63.49 228.43Z" />
						<path id="&lt;Path&gt;" class="shp11" d="M63.49 210.39L131.36 169.39L141.91 175.77L74.02 216.81L63.49 210.39Z" />
						<path id="&lt;Path&gt;" class="shp0" d="M89.6 256.78L89.6 253.6L73.76 243.99L73.76 247.21L89.6 256.78Z" />
						<path id="&lt;Path&gt;" class="shp0" d="M89.6 251.1L89.6 247.92L73.76 238.31L73.76 241.54L89.6 251.1Z" />
						<path id="&lt;Path&gt;" class="shp0" d="M151.52 211.62L151.52 223.1L159.09 218.52L159.09 207.04L151.52 211.62Z" />
						<path id="&lt;Path&gt;" class="shp0" d="M141.18 217.89L141.18 229.38L148.75 224.8L148.75 213.31L141.18 217.89Z" />
						<path id="&lt;Path&gt;" class="shp0" d="M130.7 224.19L130.7 235.67L138.28 231.09L138.28 219.61L130.7 224.19Z" />
						<path id="&lt;Path&gt;" class="shp5" d="M95.19 229.8L95.19 246.3L110.76 236.89L110.76 220.37L95.19 229.8Z" />
						<path id="&lt;Path&gt;" class="shp0" d="M97.09 233.17L97.09 230.49L109.34 223.1L109.34 225.74L97.09 233.17Z" />
					</g>
				</g>
				<g id="&lt;Group&gt;">
					<path id="&lt;Path&gt;" class="shp8" d="M144.92 294.2L144.94 260.17L97.75 231.64L97.75 265.59L144.92 294.2Z" />
					<path id="&lt;Path&gt;" class="shp9" d="M144.92 294.2L144.94 260.17L212.85 219.12L212.85 253.08L144.92 294.2Z" />
					<path id="&lt;Path&gt;" class="shp10" d="M212.85 219.12L144.94 260.17L97.75 231.64L165.69 190.6L212.85 219.12Z" />
					<g id="&lt;Group&gt;">
						<path id="&lt;Path&gt;" class="shp0" d="M115.29 260.21L125.82 266.6L125.82 248.57L115.29 242.18L115.29 260.21Z" />
						<path id="&lt;Path&gt;" class="shp11" d="M115.29 242.18L183.17 201.17L193.71 207.55L125.82 248.6L115.29 242.18Z" />
						<path id="&lt;Path&gt;" class="shp0" d="M141.4 288.57L141.4 285.39L125.56 275.78L125.56 279L141.4 288.57Z" />
						<path id="&lt;Path&gt;" class="shp0" d="M141.4 282.89L141.4 279.71L125.56 270.1L125.56 273.32L141.4 282.89Z" />
						<path id="&lt;Path&gt;" class="shp0" d="M203.32 243.41L203.32 254.89L210.89 250.31L210.89 238.83L203.32 243.41Z" />
						<path id="&lt;Path&gt;" class="shp0" d="M192.98 249.68L192.98 261.16L200.56 256.58L200.56 245.1L192.98 249.68Z" />
						<path id="&lt;Path&gt;" class="shp0" d="M182.51 255.97L182.51 267.46L190.08 262.88L190.08 251.39L182.51 255.97Z" />
						<path id="&lt;Path&gt;" class="shp5" d="M146.99 261.59L146.99 278.09L162.56 268.67L162.56 252.15L146.99 261.59Z" />
						<path id="&lt;Path&gt;" class="shp0" d="M148.9 264.96L148.9 262.27L161.15 254.88L161.15 257.53L148.9 264.96Z" />
					</g>
				</g>
			</g>
			<g id="&lt;Group&gt;">
				<path id="&lt;Path&gt;" class="shp8" d="M143.26 253.51L143.24 210.83L202.43 175.04L202.43 217.63L143.26 253.51Z" />
				<path id="&lt;Path&gt;" class="shp9" d="M143.26 253.51L143.24 210.83L58.05 159.34L58.05 201.93L143.26 253.51Z" />
				<path id="&lt;Path&gt;" class="shp10" d="M58.05 159.34L143.24 210.83L202.43 175.03L117.21 123.57L58.05 159.34Z" />
				<g id="&lt;Group&gt;">
					<path id="&lt;Path&gt;" class="shp0" d="M180.42 210.88L167.22 218.89L167.22 196.28L180.42 188.26L180.42 210.88Z" />
					<path id="&lt;Path&gt;" class="shp11" d="M180.42 188.26L95.29 136.82L82.06 144.82L167.22 196.31L180.42 188.26Z" />
					<path id="&lt;Path&gt;" class="shp0" d="M147.67 246.44L147.67 242.46L167.54 230.4L167.54 234.44L147.67 246.44Z" />
					<path id="&lt;Path&gt;" class="shp0" d="M147.67 239.32L147.67 235.33L167.54 223.28L167.54 227.32L147.67 239.32Z" />
					<path id="&lt;Path&gt;" class="shp0" d="M70.02 189.8L70.02 204.2L60.51 198.46L60.51 184.06L70.02 189.8Z" />
					<path id="&lt;Path&gt;" class="shp0" d="M82.98 197.66L82.98 212.07L73.48 206.32L73.48 191.92L82.98 197.66Z" />
					<path id="&lt;Path&gt;" class="shp0" d="M96.12 205.56L96.12 219.96L86.62 214.22L86.62 199.82L96.12 205.56Z" />
					<path id="&lt;Path&gt;" class="shp5" d="M140.67 212.6L140.67 233.29L121.14 221.49L121.14 200.77L140.67 212.6Z" />
					<path id="&lt;Path&gt;" class="shp0" d="M138.28 216.83L138.28 213.46L122.91 204.19L122.91 207.51L138.28 216.83Z" />
				</g>
			</g>
			<g id="&lt;Group&gt;">
				<path id="&lt;Path&gt;" class="shp8" d="M77.16 207.21L77.15 182.22L115.36 159.11L115.36 184.04L77.16 207.21Z" />
				<path id="&lt;Path&gt;" class="shp9" d="M77.16 207.21L77.15 182.22L22.14 148.98L22.14 173.9L77.16 207.21Z" />
				<path id="&lt;Path&gt;" class="shp10" d="M22.14 149.02L77.15 182.27L115.36 159.16L60.34 125.92L22.14 149.02Z" />
				<g id="&lt;Group&gt;">
					<path id="&lt;Path&gt;" class="shp0" d="M80.01 202.64L80.01 200.07L92.84 192.29L92.84 194.9L80.01 202.64Z" />
					<path id="&lt;Path&gt;" class="shp0" d="M80.01 198.04L80.01 195.47L92.84 187.69L92.84 190.3L80.01 198.04Z" />
					<path id="&lt;Path&gt;" class="shp0" d="M31.64 159.07L31.64 170.67L23.99 166.05L23.99 154.45L31.64 159.07Z" />
					<path id="&lt;Path&gt;" class="shp0" d="M42.09 165.41L42.09 177.01L34.44 172.38L34.44 160.78L42.09 165.41Z" />
				</g>
				<path id="&lt;Path&gt;" class="shp5" d="M74.16 184.87L74.16 198.71L54.63 186.91L54.63 173.04L74.16 184.87Z" />
				<path id="&lt;Path&gt;" class="shp0" d="M71.76 189.1L71.76 185.73L56.4 176.46L56.4 179.77L71.76 189.1Z" />
				<path id="&lt;Path&gt;" class="shp0" d="M105.71 178.09L92.51 186.11L92.51 172.97L105.71 164.95L105.71 178.09Z" />
				<path id="&lt;Path&gt;" class="shp11" d="M105.71 164.95L50.77 131.71L37.5 139.74L92.51 173L105.71 164.95Z" />
			</g>
			<g id="&lt;Group&gt;">
				<path id="&lt;Path&gt;" class="shp7" d="M18.48 188.49C21.65 177.24 23.27 164.84 17.92 155.73L6.28 156.02C3.15 163.14 1.19 169.37 0.38 174.68C-0.82 182.66 0.94 186.46 3.97 190.24C7.01 194.02 17.82 188.97 18.22 188.69C18.24 188.68 18.38 188.57 18.48 188.49Z" />
				<path id="&lt;Path&gt;" class="shp0" d="M50.34 363.23C58.67 359.35 64.9 357.31 69.02 357.13C75.2 356.85 75.8 364.44 69.02 370.33C62.24 376.22 57.05 377.01 51.5 379.39C46.5 381.54 44.7 381.71 40.71 379.01C37.16 376.6 36.81 372.21 39.65 365.85L50.34 363.23Z" />
				<path id="&lt;Path&gt;" class="shp0" d="M14.21 340.84C20.82 337.94 26.19 336.4 30.31 336.22C36.5 335.94 38.71 341.53 31.93 347.42C25.15 353.3 20.91 354.61 15.36 357C10.36 359.15 8.59 359.27 4.58 356.61C-0.89 352.98 3.38 343.43 3.52 343.45L14.21 340.84Z" />
				<path id="&lt;Path&gt;" class="shp1" d="M51.13 212.05C58.4 253.14 62.04 280.14 62.04 293.05C62.04 315.8 61.94 339.16 61.75 363.12C58.14 367.08 54.59 369.06 51.08 369.07C43.18 369.09 38.83 367.03 38.04 362.87C37.93 335.75 37.53 316.04 36.84 303.72C36.12 290.86 35.4 272.75 30.47 257.81C30.32 273.16 30.36 278.08 29.16 294.78C28.27 307.11 23.36 340.19 23.09 342.34C19.34 347.09 7.7 350.36 1.8 343.42C2.26 337.97 5.54 299.76 5.11 279.95C4.72 261.74 0.28 218.63 10.23 210.24C15.96 205.4 29.6 206 51.13 212.05Z" />
				<path id="&lt;Path&gt;" class="shp16" d="M21 172.78C20.64 166.73 20.01 161.93 19.12 158.4L24.92 139.1C19.5 136.23 14.96 137.07 11.3 141.64C9.01 144.49 4.81 153.05 1.16 161.04C3.97 166.16 11.63 173.1 21 172.78Z" />
				<path id="&lt;Path&gt;" class="shp7" d="M37.2 101.27C32.85 98.12 24.49 99.1 20.87 107.12C18.86 111.55 21.7 123.48 22.15 131.86C22.39 136.36 21.79 139.91 20.34 142.51C20.34 142.51 22.19 143.31 25.88 144.9C29.58 146.5 33.35 146.5 37.2 144.9L37.02 134.6C40.99 133.98 43.33 133.34 44.03 132.67C46.54 130.26 47.87 123.1 46.7 113.85C44.97 100.09 38.8 102.44 37.2 101.27Z" />
				<path id="&lt;Path&gt;" class="shp17" d="M52.14 175.21C55.41 167.91 48 154.66 45.92 149.9C44.53 146.73 41.62 144.17 37.19 142.24C31.13 139.94 27.04 138.63 24.92 138.29C24 138.15 21.94 137.97 18.75 137.76C11.69 149.37 7.77 158.37 6.99 164.76C6.17 171.48 9.67 193.44 7.07 215.06C5.7 226.5 46.97 223.28 50.61 218.61C48.49 207.79 45.46 190.13 52.14 175.21Z" />
				<path id="&lt;Path&gt;" class="shp1" d="M7.46 179.91C7.48 181.05 8.18 194.32 6.86 202.94C5.99 208.69 5.28 216.01 4.75 224.9C12.57 231.26 21 233.9 30.04 232.79C39.08 231.68 46.72 228.38 52.98 222.88C49.98 206.7 48.56 197.62 48.73 195.64C48.9 193.65 48.99 192.66 48.99 192.66C45.52 194.37 42.69 194.75 40.49 193.79C37.2 192.35 31.71 189.7 30.04 180.92C28.86 174.68 29.63 160.17 29.91 156.3C29.47 156.23 23.64 154.47 12.41 151.02C8.98 162.48 7.33 172.11 7.46 179.91Z" />
				<path id="&lt;Path&gt;" class="shp0" d="M42.56 117.49C43.22 115.18 44.73 109.82 45.11 107.66C45.55 105.15 45.68 101.43 42.4 97.86C39.13 94.3 27.77 93.15 23.66 95.64C19.55 98.13 10.81 102.67 13.86 117.49C16.32 129.47 18.72 130.81 22.18 133.62C24.19 135.26 26.98 136.29 30.53 136.69C32.5 135.2 33.67 132.94 34.03 129.91C34.14 128.96 34.14 127.04 34.03 124.15C32.01 119.97 31.78 117.14 33.34 115.65C35.84 113.27 38.4 117.05 38.98 118.58C41.03 123.94 43.06 126.45 42.56 117.49Z" />
				<path id="&lt;Path&gt;" class="shp7" d="M97.91 193.2C89.92 193.72 81.91 192.85 73.88 190.58C65.9 188.31 61.62 185.53 58.8 184.08C57.77 182.18 56.31 178.24 54.43 172.28L39.28 178.74C41.82 185.88 43.84 191.07 45.34 194.33C47.14 198.25 49.39 199.03 52.98 200.42C58.23 202.44 73.62 203 79.74 203.83C85.87 204.66 89.76 203.95 93.25 203.07C100.67 201.2 98.2 195.35 97.91 193.2Z" />
				<path id="&lt;Path&gt;" class="shp16" d="M39.24 183.58C46.44 185.19 54.21 182.86 58.23 177.11C55.3 163.25 50.64 148.18 44.25 145.96C40.82 144.77 34.68 157.22 35.72 166.04C36.01 168.53 37.45 175.47 39.24 183.58Z" />
				<path id="&lt;Path&gt;" class="shp6" d="M5.7 212.97L5.16 219.06C10.41 223.78 18.7 226.28 30.04 226.55C41.38 226.82 48.9 224.92 52.6 220.87L51.59 214.6C45.75 218.46 38.41 220.46 29.57 220.6C20.72 220.74 12.76 218.2 5.7 212.97Z" />
				<path id="&lt;Path&gt;" class="shp1" d="M24.92 158.16C26.17 152.88 27.98 148.97 30.34 146.42C32.54 144.05 34.82 142.66 37.19 142.24C39.51 142.92 40.65 143.6 40.62 144.29C38.72 145.48 35.24 146.81 33.19 150.46C31.82 152.9 30.63 156.67 29.61 161.77L24.92 158.16Z" />
				<path id="&lt;Path&gt;" class="shp1" d="M18.09 137.76C17.91 137.84 14.82 142.68 12.56 150.46C11.89 152.78 11.19 156.55 10.47 161.77L13.75 162.2C15.85 153.71 17.5 147.92 18.69 144.85C19.88 141.79 20.9 139.5 21.77 137.98L18.09 137.76Z" />
				<path id="&lt;Path&gt;" class="shp7" d="M89.37 195.03C89.73 194.85 93.65 191.12 95.08 189.38C96.51 187.64 97.7 188.08 97.22 190.04C96.9 191.34 95.91 193.11 94.25 195.35C91.83 195.14 90.41 195.03 90 195.03L89.37 195.03Z" />
				<path id="&lt;Path&gt;" class="shp12" d="M37.08 98.22C45.37 99.13 48.66 104.82 44.41 110.94C40.17 117.05 30 121.27 21.7 120.36C13.41 119.45 10.12 113.76 14.37 107.64C18.61 101.53 28.78 97.31 37.08 98.22Z" />
				<path id="&lt;Path&gt;" class="shp12" d="M12.77 114.58C9.48 102.84 12.82 95.2 22.79 91.65C33.54 87.84 41.62 92.29 45.98 103.83C47.75 108.52 36.68 112.1 12.77 114.58Z" />
				<path id="&lt;Path&gt;" class="shp1" d="M40.11 115.21C41.2 114.57 46.27 107.91 44.86 101.86C44.73 101.28 44.04 99.85 42.78 97.56C43.78 97.01 46.34 97.19 50.44 98.1C56.6 99.45 57.74 105.24 52.96 109.29C48.92 112.72 44.63 114.7 40.11 115.21Z" />
			</g>
		</g>
	</g>
</svg>