<!DOCTYPE svg PUBLIC "-//W3C//DTD SVG 1.1//EN" "http://www.w3.org/Graphics/SVG/1.1/DTD/svg11.dtd" [
	<!ENTITY ns_flows "http://ns.adobe.com/Flows/1.0/">
]><svg xmlns="http://www.w3.org/2000/svg" xmlns:xlink="http://www.w3.org/1999/xlink" width="30" height="32" viewBox="125 164 30 32"><defs><path id="a" d="M0 0h400v300H0z"/></defs><clipPath id="b"><use xlink:href="#a" overflow="visible"/></clipPath><path clip-path="url(#b)" fill="#111" d="M139.5 74.52c-1.61 0-2.92-1.31-2.92-2.922 0-1.61 1.31-2.92 2.92-2.92 1.61 0 2.92 1.31 2.92 2.92 0 1.61-1.31 2.922-2.92 2.922m0-3.843a.922.922 0 1 0 .002 1.844.922.922 0 0 0-.002-1.843M151.537 74.08c-1.61 0-2.92-1.31-2.92-2.922 0-1.61 1.31-2.92 2.92-2.92 1.61 0 2.922 1.31 2.922 2.92a2.924 2.924 0 0 1-2.923 2.922m0-3.843a.922.922 0 0 0 0 1.843.923.923 0 0 0 .922-.922.923.923 0 0 0-.923-.92M272.162 104v4.753h-26.324V131.246h26.324V136h2v-32h-2zm-24.324 11.798h24.324V119h-24.324v-3.202zm24.324 13.448h-24.324V121h24.324v8.246zm-24.324-18.493h24.324v3.044h-24.324v-3.044z"/><path clip-path="url(#b)" fill="#111" d="M251.215 124.753h3.966v2h-3.965zM257.817 124.753h3.966v2h-3.966zM215.53 232.49l-5.74-8.25h-19.58l-5.74 8.25-.47.68v22.59h32v-22.59l-.47-.68zm-13.04 2h5.75v7.76l-2.88-1.7-2.87 1.7v-7.76zm-15.58-2l4.35-6.25h17.48l4.35 6.25h-26.18zM214 253.76h-28v-19.27h14.49v11.26l4.87-2.88 4.88 2.88v-11.26H214v19.27z"/><path clip-path="url(#b)" fill="#111" d="M189.76 238.12h7.75v2h-7.75zM189.763 243.124h7.75v2h-7.75zM189.763 248.124h7.75v2h-7.75zM201.487 248.124h7.75v2h-7.75zM212.07 53.04h-7.38v-5.08H184v21.05h3.63a4.033 4.033 0 0 0 3.9 3.03c1.87 0 3.45-1.29 3.89-3.03h9.84c.45 1.74 2.01 3.03 3.89 3.03 1.87 0 3.44-1.29 3.88-3.03H216V61.2l-3.93-8.16zM186 59.4v-3.82l8.64-5.62h5.71L186 59.4zm0-9.44h4.98L186 53.19v-3.23zm7.28 19.05c-.34.61-.99 1.03-1.75 1.03s-1.42-.42-1.76-1.03a1.995 1.995 0 0 1 0-2c.34-.61 1-1.02 1.76-1.02s1.41.41 1.75 1.02a1.995 1.995 0 0 1 0 2m9.41-2h-7.27a4.013 4.013 0 0 0-3.89-3.02c-1.87 0-3.45 1.28-3.9 3.02H186v-5.22l16.69-10.97v16.19zm6.46 3.03a2.03 2.03 0 0 1-2.03-2.03c0-1.12.91-2.02 2.03-2.02 1.12 0 2.02.9 2.02 2.02s-.9 2.03-2.02 2.03m4.85-3.03h-.97c-.45-1.73-2.01-3.02-3.88-3.02s-3.44 1.29-3.89 3.02h-.57V55.04h6.12l3.19 6.61v5.36zM89.61 179.575c2.978-5.328 3.078-11.047 3.078-11.156l.01-.5-.4-.302c-.19-.15-4.777-3.618-11.135-3.618-3.76 0-7.328 1.22-10.637 3.608-8.257 6.158-5.308 16.646-4.428 19.225 0 .005.003.01.005.014-.8 2.722-1.028 5.652-.664 8.717l1.984-.236c-.248-2.09-.193-4.105.15-6.02 4.206 4.445 8.683 6.692 13.32 6.692 8.196 0 13.825-7.018 14.055-7.308l.19-.88c-.022-.07-1.33-4.83-5.53-8.237M71.714 169.22c2.94-2.13 6.118-3.22 9.447-3.22 4.638 0 8.317 2.14 9.507 2.92-.08 1.447-.49 5.606-2.65 9.525-.14.28-.31.56-.49.85-.17.27-.35.55-.55.82-2.5 3.55-6.698 6.518-13.756 6.518-1.28 0-2.63-.1-4.038-.3-.26-.03-.51-.07-.78-.11a18.91 18.91 0 0 1 2.85-5.068c1.14-1.48 2.528-2.87 4.158-4.17 1.3-1.027 2.76-2.008 4.368-2.918l-.98-1.74c-5.478 3.11-9.326 6.93-11.496 11.388-.808-3.77-1.18-10.328 4.41-14.496M80.892 194c-3.91 0-7.748-1.878-11.416-5.617 1.3.17 2.56.25 3.748.25 7.858 0 12.546-3.39 15.336-7.39 2.84 2.37 4.09 5.41 4.49 6.6C91.8 189.24 87.09 194 80.892 194M75.08 128.847h3.166v2H75.08zM80.35 128.847h3.168v2H80.35z"/><path clip-path="url(#b)" fill="#111" d="M79.48 116.07v-2.72h-3.72v-3.84a3.94 3.94 0 0 0-3.94-3.94 3.94 3.94 0 0 0-3.94 3.94v3.84H64v12.9h6.58v8.18H96v-18.36H79.48zm0 2H94v2.03H79.48v-2.03zM94 124.25H79.48v-2.15H94v2.15zm-24.12-14.74c0-1.07.87-1.94 1.94-1.94 1.07 0 1.94.87 1.94 1.94v3.84h-3.88v-3.84zM66 115.35h11.48v8.9H66v-8.9zm28 17.08H72.58v-6.18H94v6.18z"/><path clip-path="url(#b)" fill="#111" d="M70.584 118.55h-.09v2.5h2.5v-2.5zM91.36 229.3V224H70.79c-3.39 0-6.16 2.68-6.3 6.03h-.01v19.67c0 3.47 2.83 6.3 6.31 6.3h24.73v-26.7h-4.16zM70.79 226h18.57v3.3H72.27v5.31h-1.48c-2.37 0-4.31-1.93-4.31-4.31 0-2.37 1.94-4.3 4.31-4.3m22.73 15.342h-5.365a3.967 3.967 0 0 0-3.962 3.962 3.966 3.966 0 0 0 3.962 3.96h5.365V254H70.79c-2.37 0-4.31-1.93-4.31-4.3v-14.8a6.196 6.196 0 0 0 4.11 1.7v.01h22.93v4.732zm-.004 2v3.923h-5.36a1.964 1.964 0 0 1-1.963-1.96c0-1.083.88-1.963 1.962-1.963h5.36zm-5.156-8.732H74.27v-3.31h19.25v3.31h-5.16zM151.038 105.09a2.62 2.62 0 0 0-.705.104l-.002-.007-23.32 6.316v2.18H124v4.702h3.01v2.18l5.646 1.53v2.884h-2.332v9.93h6.665v-9.93h-2.334v-2.344l15.675 4.245.003-.006c.227.062.46.105.705.105 3.223 0 4.962-5.64 4.962-10.946s-1.74-10.945-4.962-10.945m-16.05 27.82h-2.666v-5.93h2.666v5.93zm-.333-14.225a2.84 2.84 0 0 0 1.842-2.65c0-1.568-1.275-2.843-2.842-2.843s-2.84 1.275-2.84 2.842a2.84 2.84 0 0 0 1.84 2.65v1.338l-3.647-.988V113.034l18.595-5.036c-1.003 2.125-1.53 5.127-1.53 8.036 0 2.91.527 5.91 1.53 8.036l-12.948-3.506v-1.88zm16.383 6.294a.716.716 0 0 1-.22-.04l-.018-.004c-1.187-.412-2.725-3.79-2.725-8.902 0-5.11 1.538-8.49 2.725-8.902l.02-.005a.716.716 0 0 1 .218-.038c1.208 0 2.962 3.484 2.962 8.944 0 5.46-1.754 8.945-2.962 8.945M89.5 64.9h-2v2.33h-2.33v2h2.33v2.33h2v-2.33h2.33v-2H89.5z"/><path clip-path="url(#b)" fill="#111" d="M89.5 60.81v-7.33h5.61v-9.21H82.56v1c0 1.65-1.35 3-3.01 3-1.65 0-3-1.35-3-3v-1H64v9.21h5.61v15.75h11.46a7.5 7.5 0 0 0 7.43 6.5c4.13 0 7.5-3.36 7.5-7.5 0-3.79-2.84-6.94-6.5-7.42M66 51.48v-5.21h8.65c.46 2.28 2.49 4 4.9 4a5.02 5.02 0 0 0 4.91-4h8.65v5.21H87.5v9.32a7.5 7.5 0 0 0-6.43 6.43h-9.46V51.48H66zm22.5 22.25a5.5 5.5 0 0 1-5.5-5.5c0-.34.03-.68.1-1 .41-2.23 2.16-4 4.4-4.41.32-.06.66-.09 1-.09.34 0 .68.03 1 .09 2.55.47 4.5 2.72 4.5 5.41 0 3.04-2.47 5.5-5.5 5.5M200 176.277a2.036 2.036 0 0 0-2.034 2.034c0 1.123.912 2.035 2.034 2.035a2.035 2.035 0 0 0 0-4.068"/><path clip-path="url(#b)" fill="#111" d="M206.58 170.855v-5.174H193.42v5.175H184v9.958l.53.282c.054.028.34.18.826.4v9.823c0 1.654 1.345 3 3 3h23.29c1.653 0 3-1.346 3-3v-9.816c.274-.136.553-.263.825-.407l.53-.282v-9.958h-9.42zm-11.158-3.173h9.157v3.174h-9.158v-3.174zM186 172.855h28v6.75c-4.134 2.1-8.652 3.163-13.44 3.163h-.003c-7.12 0-12.837-2.38-14.556-3.18v-6.733zm14.556 11.914h.002c.98 0 1.946-.06 2.904-.142v7.69h-6.925v-7.787c1.276.146 2.615.24 4.02.24m-13.203 6.55v-8.992c1.747.66 4.222 1.43 7.183 1.927v8.064h-6.183a1 1 0 0 1-1-1m25.292 0a1 1 0 0 1-1 1h-6.184v-7.93a30.975 30.975 0 0 0 7.184-1.98v8.91zM146.86 164c-2.92 0-5.45 1.69-6.67 4.14a9.914 9.914 0 0 0-4.45-1.04c-5.55 0-10.06 4.51-10.06 10.06 0 3.88 2.19 7.36 5.64 9.05V196h8.84v-5.78h.01v-4.01a9.99 9.99 0 0 0 5.5-7.39c.39.07.78.1 1.19.1 4.12 0 7.46-3.35 7.46-7.46s-3.34-7.46-7.46-7.46m.31 12.9l3.88-6.44h-4.55l2.38-4.07a5.45 5.45 0 0 1-1.71 10.51m-3.45-.97v-.01a5.46 5.46 0 0 1-2.32-4.46v-.04c.01-.79.18-1.54.49-2.21a5.442 5.442 0 0 1 4.9-3.2l-3.78 6.45h4.5l-2.49 4.14c-.47-.17-.91-.39-1.3-.67M138.16 194h-4.84v-3.78h4.84V194zm.63-9.37l-.62.26v3.33h-1.43v-6.12c1.89-.46 3.31-2.15 3.31-4.18h-2c0 1.27-1.04 2.31-2.31 2.31a2.31 2.31 0 0 1-2.3-2.31h-2c0 2.03 1.41 3.72 3.3 4.18v6.12h-1.42v-3.33l-.62-.26a8.036 8.036 0 0 1-5.02-7.47 8.063 8.063 0 0 1 11.86-7.11c-.09.45-.14.93-.14 1.41 0 3 1.78 5.59 4.34 6.76a8.012 8.012 0 0 1-4.95 6.41M251.5 44v15.06c-4.22.49-7.5 4.09-7.5 8.44 0 4.69 3.81 8.5 8.5 8.5H276V44h-24.5zM246 67.5c0-3.58 2.92-6.5 6.5-6.5s6.5 2.92 6.5 6.5-2.92 6.5-6.5 6.5-6.5-2.92-6.5-6.5m28 6.5h-16.02a8.485 8.485 0 0 0 3.02-6.5c0-4.35-3.28-7.95-7.5-8.44V46H274v28z"/><path clip-path="url(#b)" fill="#111" d="M249.12 66.5h6.76v2h-6.76zM253.5 70.51c0 .55-.45 1-1 1s-1-.45-1-1c0-.56.45-1 1-1s1 .44 1 1M253.5 64.49c0 .56-.45 1-1 1s-1-.44-1-1c0-.55.45-1 1-1s1 .45 1 1M271.852 58.84h-16.204V48.32h16.204v10.52zm-14.205-2h12.204v-6.52h-12.203v6.52zM268.89 63.494h3v3h-3zM268.89 68.506h3v3h-3zM263 63.494h3v3h-3zM263 68.506h3v3h-3zM320.43 183.58l-5.67-.83-2.54-5.14-2.54 5.14-5.68.83 4.11 4-.97 5.66 5.08-2.67 5.08 2.67-.97-5.66 4.1-4zm-12.13 1.39l2.71-.39 1.21-2.45 1.21 2.45 2.71.39-1.96 1.91.46 2.7-2.42-1.27-2.43 1.27.47-2.7-1.96-1.91zM318.9 174.025h2.667v2H318.9zM323.067 174.025h5.25v2h-5.25zM325.4 177.738h2.917v2H325.4zM318.9 177.738h5v2h-5z"/><path clip-path="url(#b)" fill="#111" d="M328.552 193.483l-6.652-6.236h-1.91v-2h2.7l3.862 3.62v-3.62H333a1 1 0 0 0 1-1v-14.73a1 1 0 0 0-1-1h-18.782a1 1 0 0 0-1 1v5.87h-2v-5.87c0-1.653 1.345-3 3-3h18.78c1.655 0 3 1.347 3 3l.002 14.73c0 1.654-1.346 3-3 3h-4.448v6.236zM126.52 246.736V232.26c.72.486 1.584.77 2.515.77h17.674c.93 0 1.794-.283 2.513-.77v10.27h2v-14.278h-.026c-.14-2.365-2.09-4.252-4.488-4.252h-17.675a4.52 4.52 0 0 0-4.515 4.515v18.222a5.21 5.21 0 0 0 5.205 5.205h12.09v-2h-12.09a3.21 3.21 0 0 1-3.205-3.206M129.035 226h17.674a2.517 2.517 0 0 1 0 5.03h-17.675c-1.387 0-2.515-1.128-2.515-2.515s1.128-2.515 2.515-2.515M155.48 249.744h-4.256v-4.256h-2v4.256h-4.256v2h4.256V256h2v-4.256h4.255z"/><path clip-path="url(#b)" fill="#111" d="M140.364 240.124h1.062v.573a3.56 3.56 0 0 1-3.555 3.556 3.56 3.56 0 0 1-3.554-3.556v-.573h1.063v-2h-4.126v2h1.062v.573c0 3.063 2.492 5.556 5.555 5.556s5.557-2.492 5.557-5.556v-.573h1.062v-2h-4.126v2zM195 113.5h10v2h-10zM195 119h10v2h-10zM195 124.5h10v2h-10z"/><path clip-path="url(#b)" fill="#111" d="M216 109.5h-5v-4h-22v4h-5v21h5v4h22v-4h5v-21zm-30 2h3v17h-3v-17zm23 21h-18v-25h18v25zm5-4h-3v-17h3v17zM310.033 233.526h10.062v2h-10.062zM310.033 238.526h6.062v2h-6.062zM335.145 248.067c-1.104-1.103-3.03-1.104-4.135 0a2.903 2.903 0 0 0-.855 2.066c0 .78.304 1.515.855 2.067.554.55 1.286.854 2.067.854s1.514-.304 2.066-.855a2.903 2.903 0 0 0 .856-2.067c0-.78-.305-1.515-.855-2.066m-1.416 2.72a.947.947 0 0 1-1.307 0 .92.92 0 0 1 0-1.305.92.92 0 0 1 1.305 0 .91.91 0 0 1 .27.65.915.915 0 0 1-.27.654M327.096 244.15a2.927 2.927 0 0 0 0-4.132c-1.104-1.104-3.03-1.103-4.133 0-.552.552-.857 1.286-.857 2.066s.306 1.515.856 2.066a2.903 2.903 0 0 0 2.066.856 2.895 2.895 0 0 0 2.068-.855m-2.72-1.413a.92.92 0 0 1 .002-1.304.92.92 0 0 1 1.303 0c.36.36.36.945 0 1.305a.944.944 0 0 1-1.303 0"/><path transform="rotate(-45 328.97 246.033)" clip-path="url(#b)" fill="#111" d="M321.848 245.028h14.25v2h-14.25z"/><path clip-path="url(#b)" fill="#111" d="M306 244.11v-14.166a1 1 0 0 1 1-1h20.035a1 1 0 0 1 1 1v8.165h2v-8.166c0-1.654-1.347-3-3-3H307c-1.654 0-3 1.346-3 3v14.165c0 1.653 1.346 3 3 3h14.035v-2H307a1 1 0 0 1-1-1M247.07 194.17a3.073 3.073 0 0 1-3.07-3.07 3.073 3.073 0 0 1 3.07-3.068 3.074 3.074 0 0 1 3.07 3.07 3.073 3.073 0 0 1-3.07 3.07m0-4.14a1.07 1.07 0 1 0 0 2.14 1.07 1.07 0 0 0 0-2.14M260.442 194.17a3.073 3.073 0 0 1-3.07-3.07 3.073 3.073 0 0 1 3.07-3.068c1.69 0 3.07 1.377 3.07 3.07a3.072 3.072 0 0 1-3.07 3.07m0-4.14a1.07 1.07 0 0 0 0 2.138 1.07 1.07 0 0 0 0-2.14M265.765 165.83a4.108 4.108 0 0 0-4.104 4.104v2.168h-11.484a3.03 3.03 0 0 0-3.027 3.027V183h-3.12v2h13.562a6.076 6.076 0 0 0 6.07-6.07v-8.998c0-1.16.944-2.105 2.104-2.105h2.472v-2h-2.473zm-9.362 8.274h5.256v3.45h-5.257v-3.45zm-6.228 0h4.23v3.45h-5.257v-2.424c0-.566.46-1.026 1.027-1.026m-1.028 5.45h5.256v3.45h-5.256v-3.45zm8.443 3.45h-1.187v-3.45h5.194c-.302 1.948-1.976 3.45-4.007 3.45M267.286 183.003h3.358v2h-3.358zM267.286 177.553h6.146v2h-6.146zM267.318 172.103H276v2h-8.682zM249.36 228.82h-.004v5.36H244v17h26.64v-5.36H276V228.82h-26.64zM246 249.18v-13h3.36v3.356h-.004v6.285h19.283v3.36H246zm28-9.536c-2.03.43-3.714 2.13-4.14 4.177h-14.586c-.415-1.998-2.02-3.7-3.915-4.16v-5.095c1.954-.383 3.498-1.865 3.91-3.744h14.6c.432 1.894 2.066 3.38 4.13 3.75v5.074z"/><path clip-path="url(#b)" fill="#111" d="M262.567 234.224c-1.585 0-2.875 1.29-2.875 2.875s1.29 2.874 2.875 2.874 2.875-1.29 2.875-2.875-1.29-2.876-2.875-2.876M318.26 117.11l3.61 2.16-1.03 1.71-3.61-2.16c-.4.27-.89.44-1.41.44-1.36 0-2.46-1.1-2.46-2.46 0-1 .6-1.86 1.46-2.24v-4.97h2v4.97a2.45 2.45 0 0 1 1.44 2.55"/><path clip-path="url(#b)" fill="#111" d="M327.62 118.26h-.07c.06-.48.09-.97.09-1.46 0-6.51-5.3-11.82-11.82-11.82-6.52 0-11.82 5.31-11.82 11.82 0 6.52 5.3 11.82 11.82 11.82 1.24 0 2.44-.19 3.56-.55.67 3.94 4.11 6.95 8.24 6.95 4.62 0 8.38-3.76 8.38-8.38 0-4.62-3.76-8.38-8.38-8.38m-8.34 7.73a9.7 9.7 0 0 1-3.46.63c-5.41 0-9.82-4.4-9.82-9.82 0-5.41 4.41-9.82 9.82-9.82s9.82 4.41 9.82 9.82c0 .59-.05 1.17-.15 1.73a9.816 9.816 0 0 1-3.96 6.25c-.69.5-1.44.91-2.25 1.21m13.5 4.39l-1.35-1.347-1.414 1.414 1.354 1.353a6.414 6.414 0 0 1-2.747 1.138v-1.914h-2v1.915a6.327 6.327 0 0 1-2.74-1.148l1.345-1.345-1.413-1.414-1.346 1.346a6.295 6.295 0 0 1-1.19-3.09 11.95 11.95 0 0 0 5.344-5.698v.662h2v-1.913c1.018.16 1.957.56 2.746 1.14l-1.353 1.352 1.414 1.414 1.35-1.348v.002c.58.79.98 1.73 1.14 2.74h-1.91v2h1.91a6.317 6.317 0 0 1-1.14 2.74"/><path clip-path="url(#b)" fill="#111" d="M327.623 125.435c-.664 0-1.205.54-1.205 1.205s.54 1.205 1.205 1.205a1.205 1.205 0 0 0 0-2.41M330.95 57.83c.09-.43.39-1.16 1.35-2.12.28-.28.37-.71.21-1.09a1 1 0 0 0-.92-.62h-8.12a11.817 11.817 0 0 0-3.137-2.08c.077-.565.455-1.705 2.074-3.323a1 1 0 0 0-.707-1.707h-11.836a1 1 0 0 0-.707 1.707c1.646 1.646 2.01 2.796 2.083 3.332-4.21 1.912-7.24 6.35-7.24 11.263 0 4.487 2.044 9.836 11.782 9.836 2.655 0 4.723-.408 6.35-1.078 1.368.757 3.146 1.158 5.31 1.158 5.52 0 8.56-2.55 8.56-7.19-.002-3.41-2.042-6.64-5.052-8.09M306 63.193c0-4.346 2.806-8.245 6.613-9.68.005 0 .01-.002.016-.004a8.964 8.964 0 0 1 2.397-.554c.55-.046.96-.53.912-1.08a1.006 1.006 0 0 0-1.08-.913c-.59.05-1.163.16-1.727.303-.145-.64-.458-1.438-1.112-2.376h7.522c-1.638 2.348-1.186 3.857-1.115 4.054.12.34.413.575.746.65 3.77 1.53 6.39 5.446 6.39 9.6 0 5.272-3.2 7.835-9.78 7.835S306 68.465 306 63.192m21.44 7.917c-1.287 0-2.305-.15-3.14-.395 2.545-1.97 3.262-4.89 3.262-7.522 0-2.312-.688-4.56-1.875-6.49a4.933 4.933 0 0 0-.338-.703h4.2c-.88 1.56-.6 2.63-.55 2.78.09.29.31.53.6.64 2.59.99 4.4 3.66 4.4 6.5 0 2.23-.68 5.19-6.56 5.19"/><path clip-path="url(#b)" fill="#111" d="M315.504 67.77v-1.335c-.866-.028-1.735-.276-2.23-.606l.37-1.297c.538.318 1.31.606 2.15.606.867 0 1.46-.427 1.46-1.09 0-.62-.482-1.02-1.5-1.39-1.448-.525-2.385-1.185-2.385-2.468 0-1.185.825-2.093 2.217-2.34V56.5h1.13v1.28c.87.03 1.462.236 1.9.457l-.372 1.266c-.33-.15-.936-.468-1.874-.468-.963 0-1.307.496-1.307.965 0 .565.496.882 1.667 1.35 1.544.58 2.233 1.323 2.233 2.55 0 1.17-.814 2.204-2.33 2.452v1.42h-1.13z"/></svg>