<?xml version="1.0"?>
<svg xmlns="http://www.w3.org/2000/svg" xmlns:xlink="http://www.w3.org/1999/xlink" xmlns:svgjs="http://svgjs.com/svgjs" version="1.1" width="512" height="512" x="0" y="0" viewBox="0 0 480 480.00036" style="enable-background:new 0 0 512 512" xml:space="preserve" class=""><g><path xmlns="http://www.w3.org/2000/svg" d="m152 392h128v-24h-128zm0 0" fill="#c5e4ef" data-original="#9bc9ff" style="" class=""/><path xmlns="http://www.w3.org/2000/svg" d="m152 408c0 17.710938 7.335938 34.628906 20.265625 46.730469 12.929687 12.101562 30.296875 18.304687 47.964844 17.132812 34.144531-2.964843 60.210937-31.773437 59.769531-66.039062v-13.824219h-128zm120 8" fill="#c5e4ef" data-original="#9bc9ff" style="" class=""/><g xmlns="http://www.w3.org/2000/svg" fill="#1e81ce"><path d="m319.199219 202.921875c-4.042969-.007813-7.445313-3.035156-7.925781-7.050781-4.28125-34.242188-26.652344-63.53125-58.5625-76.671875-4.039063-1.71875-5.9375-6.375-4.253907-10.429688 1.683594-4.054687 6.320313-5.996093 10.390625-4.34375 37.230469 15.359375 63.324219 49.554688 68.304688 89.519531.253906 2.269532-.46875 4.539063-1.984375 6.246094-1.519531 1.710938-3.691407 2.691406-5.976563 2.703125zm0 0" fill="#39b2dd" data-original="#1e81ce" style="" class=""/><path d="m228.34375 112.703125c-.304688 0-.609375-.015625-.910156-.046875-3.796875-.4375-7.613282-.65625-11.433594-.65625-4.417969 0-8-3.582031-8-8s3.582031-8 8-8c4.425781.015625 8.84375.285156 13.238281.800781 4.199219.496094 7.28125 4.171875 7.046875 8.390625-.238281 4.21875-3.714844 7.527344-7.941406 7.550782zm0 0" fill="#39b2dd" data-original="#1e81ce" style="" class=""/><path d="m216 48c-4.417969 0-8-3.582031-8-8v-32c0-4.417969 3.582031-8 8-8s8 3.582031 8 8v32c0 4.417969-3.582031 8-8 8zm0 0" fill="#39b2dd" data-original="#1e81ce" style="" class=""/><path d="m128 71.574219c-2.859375.003906-5.503906-1.519531-6.9375-4l-16-27.710938c-2.171875-3.820312-.851562-8.683593 2.957031-10.882812 3.808594-2.199219 8.675781-.910157 10.902344 2.882812l16 27.710938c1.425781 2.476562 1.425781 5.523437 0 8-1.425781 2.472656-4.066406 4-6.921875 4zm0 0" fill="#39b2dd" data-original="#1e81ce" style="" class=""/><path d="m63.566406 136c-1.402344 0-2.78125-.371094-4-1.070312l-27.710937-16c-3.792969-2.226563-5.082031-7.09375-2.882813-10.902344 2.199219-3.808594 7.0625-5.128906 10.882813-2.957032l27.710937 16c3.136719 1.8125 4.664063 5.503907 3.730469 9-.9375 3.496094-4.109375 5.929688-7.730469 5.929688zm0 0" fill="#39b2dd" data-original="#1e81ce" style="" class=""/><path d="m40 224h-32c-4.417969 0-8-3.582031-8-8s3.582031-8 8-8h32c4.417969 0 8 3.582031 8 8s-3.582031 8-8 8zm0 0" fill="#39b2dd" data-original="#1e81ce" style="" class=""/><path d="m35.871094 328c-3.621094 0-6.789063-2.433594-7.726563-5.929688-.9375-3.496093.59375-7.1875 3.726563-9l27.714844-16c2.476562-1.449218 5.539062-1.464843 8.027343-.035156 2.492188 1.429688 4.023438 4.085938 4.015625 6.957032-.003906 2.871093-1.550781 5.515624-4.042968 6.9375l-27.714844 16c-1.214844.703124-2.59375 1.074218-4 1.070312zm0 0" fill="#39b2dd" data-original="#1e81ce" style="" class=""/><path d="m396.128906 328c-1.40625.003906-2.785156-.367188-4-1.070312l-27.710937-16c-2.496094-1.421876-4.042969-4.066407-4.046875-6.9375-.007813-2.871094 1.523437-5.527344 4.015625-6.957032 2.488281-1.429687 5.554687-1.414062 8.03125.035156l27.710937 16c3.136719 1.8125 4.664063 5.503907 3.726563 9-.9375 3.496094-4.105469 5.929688-7.726563 5.929688zm0 0" fill="#39b2dd" data-original="#1e81ce" style="" class=""/><path d="m424 224h-32c-4.417969 0-8-3.582031-8-8s3.582031-8 8-8h32c4.417969 0 8 3.582031 8 8s-3.582031 8-8 8zm0 0" fill="#39b2dd" data-original="#1e81ce" style="" class=""/><path d="m368.433594 136c-3.621094 0-6.792969-2.433594-7.726563-5.929688-.9375-3.496093.589844-7.1875 3.726563-9l27.710937-16c3.824219-2.171874 8.683594-.851562 10.882813 2.957032 2.199218 3.808594.910156 8.675781-2.882813 10.902344l-27.710937 16c-1.21875.699218-2.597656 1.070312-4 1.070312zm0 0" fill="#39b2dd" data-original="#1e81ce" style="" class=""/><path d="m304 71.574219c-2.855469 0-5.496094-1.527344-6.921875-4-1.425781-2.476563-1.425781-5.523438.003906-8l16-27.710938c2.222657-3.792969 7.089844-5.082031 10.898438-2.882812 3.808593 2.199219 5.128906 7.0625 2.957031 10.882812l-16 27.710938c-1.433594 2.480469-4.078125 4.003906-6.9375 4zm0 0" fill="#39b2dd" data-original="#1e81ce" style="" class=""/><path d="m358.921875 190.152344c-8.378906-65.683594-60.324219-117.269532-126.066406-125.191406-64.242188-7.613282-125.675781 28.554687-150.195313 88.421874-24.519531 59.867188-6.105468 128.738282 45.019532 168.378907 10.144531 7.605469 16.175781 19.496093 16.320312 32.175781v54.0625c.03125 19.894531 8.261719 38.898438 22.753906 52.527344 13.289063 12.558594 30.898438 19.53125 49.183594 19.472656 1.597656 0 3.199219-.046875 4.796875-.152344 38.394531-3.160156 67.785156-35.503906 67.265625-74.023437v-51.914063c.101562-12.59375 6.066406-24.421875 16.128906-32 40.371094-31.066406 61.226563-81.222656 54.792969-131.757812zm-86.921875 193.847656h-112v-8h112zm-109.664062 40h106.816406c-.855469 2.738281-1.910156 5.414062-3.152344 8h-100.582031c-1.234375-2.582031-2.265625-5.257812-3.082031-8zm109.664062-18.175781c0 .734375-.070312 1.449219-.105469 2.175781h-111.894531v-8h112zm-52.28125 58.054687c-15.492188 1.097656-30.738281-4.351562-42.023438-15.023437-.296874-.269531-.542968-.574219-.800781-.855469h77.671875c-9.304687 9.34375-21.6875 14.984375-34.847656 15.878906zm74.617188-154.65625c-14.003907 10.601563-22.261719 27.125-22.335938 44.6875v6.089844h-112v-6.0625c-.132812-17.621094-8.449219-34.175781-22.503906-44.800781-43.210938-33.519531-60.351563-90.789063-42.664063-142.535157 17.6875-51.75 66.296875-86.542968 120.984375-86.601562 5.078125.003906 10.152344.292969 15.199219.863281 51.632813 6.101563 94.445313 42.828125 108.332031 92.933594 13.886719 50.101563-3.914062 103.628906-45.042968 135.433594zm0 0" fill="#39b2dd" data-original="#1e81ce" style="" class=""/></g></g></svg>
