<?xml version="1.0"?>
<svg xmlns="http://www.w3.org/2000/svg" xmlns:xlink="http://www.w3.org/1999/xlink" xmlns:svgjs="http://svgjs.com/svgjs" version="1.1" width="512" height="512" x="0" y="0" viewBox="0 0 511.996 511.996" style="enable-background:new 0 0 512 512" xml:space="preserve" class=""><g>
<polygon xmlns="http://www.w3.org/2000/svg" style="" points="375.463,238.934 290.131,238.934 349.863,8.538 136.533,273.067 221.865,273.067   162.133,503.463 " fill="#c5e4ef" data-original="#ebba16" class=""/>
<g xmlns="http://www.w3.org/2000/svg">
	<polygon style="" points="145.067,136.536 93.868,136.536 128,8.538 8.536,153.602 59.735,153.602 25.602,281.6  " fill="#ffffff" data-original="#ed8a19" class=""/>
	<polygon style="" points="503.461,358.399 452.262,358.399 486.394,230.401 366.93,375.465 418.129,375.465    383.996,503.463  " fill="#ffffff" data-original="#ed8a19" class=""/>
</g>
<g xmlns="http://www.w3.org/2000/svg">
	<path style="" d="M162.125,511.996c-1.297,0-2.611-0.299-3.831-0.913c-3.584-1.801-5.436-5.871-4.42-9.762   L210.832,281.6h-74.298c-3.285,0-6.28-1.886-7.697-4.847c-1.417-2.97-1.007-6.485,1.058-9.045L343.224,3.179   c2.517-3.132,6.878-4.079,10.479-2.261c3.584,1.801,5.436,5.871,4.42,9.762l-56.959,219.721h74.298c3.285,0,6.28,1.886,7.697,4.847   c1.417,2.97,1.007,6.485-1.058,9.045l-213.33,264.529C167.108,510.878,164.642,511.996,162.125,511.996z M154.376,264.534h67.489   c2.645,0,5.137,1.22,6.75,3.311c1.613,2.091,2.176,4.804,1.51,7.364l-49.8,192.108L357.62,247.467h-67.489   c-2.645,0-5.137-1.22-6.75-3.311c-1.613-2.091-2.176-4.804-1.51-7.364l49.8-192.108L154.376,264.534z" fill="#39b2dd" data-original="#4d007e" class=""/>
	<path style="" d="M25.593,290.133c-1.323,0-2.662-0.307-3.9-0.947c-3.567-1.835-5.376-5.905-4.343-9.788   l31.274-117.263H8.536c-3.302,0-6.306-1.903-7.714-4.89s-0.973-6.519,1.126-9.062L121.413,3.119   c2.551-3.089,6.92-4.002,10.487-2.159c3.567,1.835,5.376,5.905,4.343,9.788l-31.274,117.263h40.097c3.302,0,6.306,1.903,7.714,4.89   c1.408,2.987,0.973,6.519-1.126,9.062L32.19,287.027C30.526,289.041,28.085,290.133,25.593,290.133z M26.617,145.069h33.117   c2.654,0,5.154,1.237,6.767,3.336c1.613,2.108,2.159,4.838,1.476,7.398l-24.021,90.085l83.028-100.82H93.868   c-2.654,0-5.154-1.237-6.767-3.336c-1.613-2.108-2.159-4.838-1.476-7.398l24.021-90.085L26.617,145.069z" fill="#39b2dd" data-original="#4d007e" class=""/>
	<path style="" d="M383.987,511.996c-1.323,0-2.662-0.307-3.9-0.947c-3.567-1.835-5.376-5.905-4.343-9.788   l31.274-117.263H366.93c-3.302,0-6.306-1.903-7.714-4.89s-0.973-6.519,1.126-9.062l119.465-145.064   c2.551-3.098,6.92-4.002,10.487-2.159c3.567,1.835,5.376,5.905,4.343,9.788l-31.274,117.263h40.097c3.302,0,6.306,1.903,7.714,4.89   c1.408,2.987,0.973,6.519-1.126,9.062L390.584,508.89C388.92,510.904,386.479,511.996,383.987,511.996z M385.011,366.932h33.117   c2.654,0,5.154,1.237,6.767,3.336c1.613,2.108,2.159,4.838,1.476,7.398l-24.021,90.085l83.028-100.82h-33.117   c-2.654,0-5.154-1.237-6.767-3.336c-1.613-2.108-2.159-4.838-1.476-7.398l24.021-90.085L385.011,366.932z" fill="#39b2dd" data-original="#4d007e" class=""/>
</g>
<g xmlns="http://www.w3.org/2000/svg">
</g>
<g xmlns="http://www.w3.org/2000/svg">
</g>
<g xmlns="http://www.w3.org/2000/svg">
</g>
<g xmlns="http://www.w3.org/2000/svg">
</g>
<g xmlns="http://www.w3.org/2000/svg">
</g>
<g xmlns="http://www.w3.org/2000/svg">
</g>
<g xmlns="http://www.w3.org/2000/svg">
</g>
<g xmlns="http://www.w3.org/2000/svg">
</g>
<g xmlns="http://www.w3.org/2000/svg">
</g>
<g xmlns="http://www.w3.org/2000/svg">
</g>
<g xmlns="http://www.w3.org/2000/svg">
</g>
<g xmlns="http://www.w3.org/2000/svg">
</g>
<g xmlns="http://www.w3.org/2000/svg">
</g>
<g xmlns="http://www.w3.org/2000/svg">
</g>
<g xmlns="http://www.w3.org/2000/svg">
</g>
</g></svg>
