<svg xmlns="http://www.w3.org/2000/svg" xmlns:xlink="http://www.w3.org/1999/xlink" width="30" height="32" viewBox="125 164 30 32"><defs><path id="a" d="M0 0h400v300H0z"/></defs><clipPath id="b"><use xlink:href="#a" overflow="visible"/></clipPath><path clip-path="url(#b)" fill="#111" d="M139.5 74.52a2.925 2.925 0 0 1-2.921-2.922c0-1.61 1.31-2.921 2.921-2.921a2.924 2.924 0 0 1 2.921 2.921 2.925 2.925 0 0 1-2.921 2.922m0-3.843a.922.922 0 1 0 .002 1.844.922.922 0 0 0-.002-1.844M151.537 74.08a2.924 2.924 0 0 1-2.921-2.922c0-1.61 1.31-2.921 2.921-2.921a2.925 2.925 0 0 1 2.922 2.921 2.924 2.924 0 0 1-2.922 2.922m0-3.843a.922.922 0 0 0 0 1.843.923.923 0 0 0 .922-.922.923.923 0 0 0-.922-.921M272.162 104v4.753h-26.324V131.246h26.324V136h2v-32h-2zm-24.324 11.798h24.324V119h-24.324v-3.202zm24.324 13.448h-24.324V121h24.324v8.246zm-24.324-18.493h24.324v3.044h-24.324v-3.044z"/><path clip-path="url(#b)" fill="#111" d="M251.215 124.753h3.966v2h-3.966zM257.817 124.753h3.966v2h-3.966zM215.53 232.49l-5.74-8.25h-19.58l-5.74 8.25-.47.68v22.59h32v-22.59l-.47-.68zm-13.04 2h5.75v7.76l-2.88-1.7-2.87 1.7v-7.76zm-15.58-2l4.35-6.25h17.48l4.35 6.25h-26.18zM214 253.76h-28v-19.27h14.49v11.26l4.87-2.88 4.88 2.88v-11.26H214v19.27z"/><path clip-path="url(#b)" fill="#111" d="M189.76 238.12h7.75v2h-7.75zM189.763 243.124h7.75v2h-7.75zM189.763 248.124h7.75v2h-7.75zM201.487 248.124h7.75v2h-7.75zM212.07 53.04h-7.38v-5.08H184v21.05h3.63a4.033 4.033 0 0 0 3.9 3.03c1.87 0 3.45-1.29 3.89-3.03h9.84c.45 1.74 2.01 3.03 3.891 3.03a4.012 4.012 0 0 0 3.88-3.03H216V61.2l-3.93-8.16zM186 59.4v-3.82l8.64-5.62h5.71L186 59.4zm0-9.44h4.98L186 53.19v-3.23zm7.28 19.05c-.34.61-.99 1.03-1.75 1.03s-1.42-.42-1.76-1.03a1.995 1.995 0 0 1 0-2c.34-.61 1-1.02 1.76-1.02s1.41.41 1.75 1.02a1.995 1.995 0 0 1 0 2m9.41-2h-7.271a4.013 4.013 0 0 0-3.89-3.02c-1.87 0-3.45 1.28-3.9 3.02H186v-5.22l16.69-10.97v16.19zm6.46 3.03c-1.12 0-2.03-.91-2.03-2.03 0-1.12.91-2.02 2.03-2.02 1.119 0 2.02.9 2.02 2.02s-.9 2.03-2.02 2.03m4.85-3.03h-.97c-.45-1.73-2.011-3.02-3.88-3.02-1.87 0-3.44 1.29-3.891 3.02h-.569V55.04h6.119l3.19 6.61v5.36zM89.609 179.575c2.979-5.328 3.079-11.047 3.079-11.156l.01-.5-.4-.301c-.189-.149-4.777-3.618-11.135-3.618-3.759 0-7.328 1.22-10.637 3.608-8.257 6.158-5.308 16.646-4.428 19.225l.005.014c-.799 2.722-1.028 5.652-.664 8.717l1.985-.236c-.248-2.091-.193-4.105.149-6.02 4.207 4.445 8.684 6.692 13.32 6.692 8.197 0 13.826-7.018 14.056-7.308l.19-.88c-.021-.07-1.33-4.829-5.53-8.237m-17.894-10.356c2.939-2.13 6.118-3.219 9.447-3.219 4.638 0 8.317 2.139 9.507 2.919-.08 1.448-.49 5.607-2.649 9.526-.14.28-.31.561-.49.851-.17.27-.35.549-.55.818-2.499 3.55-6.698 6.519-13.756 6.519-1.279 0-2.629-.101-4.038-.3-.26-.03-.51-.07-.78-.11a18.91 18.91 0 0 1 2.849-5.068c1.14-1.479 2.529-2.869 4.159-4.169a34.055 34.055 0 0 1 4.368-2.919l-.979-1.739c-5.479 3.109-9.327 6.929-11.497 11.387-.808-3.771-1.179-10.328 4.409-14.496m9.178 24.782c-3.909 0-7.748-1.879-11.416-5.618 1.299.17 2.559.25 3.748.25 7.858 0 12.546-3.39 15.336-7.389 2.839 2.369 4.088 5.408 4.488 6.599-1.25 1.398-5.959 6.158-12.156 6.158M75.079 128.847h3.167v2h-3.167zM80.351 128.847h3.167v2h-3.167z"/><path clip-path="url(#b)" fill="#111" d="M79.48 116.07v-2.72h-3.72v-3.84c0-2.18-1.77-3.94-3.94-3.94s-3.94 1.76-3.94 3.94v3.84H64v12.9h6.58v8.18H96v-18.36H79.48zm0 2H94v2.03H79.48v-2.03zM94 124.25H79.48v-2.15H94v2.15zm-24.12-14.74c0-1.07.87-1.94 1.94-1.94 1.07 0 1.94.87 1.94 1.94v3.84h-3.88v-3.84zM66 115.35h11.48v8.9H66v-8.9zm28 17.08H72.58v-6.18H94v6.18z"/><path clip-path="url(#b)" fill="#111" d="M70.584 118.55h-.089v2.5h2.5v-2.5zM91.36 229.3V224H70.79c-3.39 0-6.16 2.68-6.3 6.03h-.01v19.67c0 3.47 2.83 6.3 6.31 6.3h24.73v-26.7h-4.16zM70.79 226h18.57v3.3H72.27v5.311h-1.48a4.318 4.318 0 0 1-4.31-4.311c-.001-2.37 1.94-4.3 4.31-4.3m22.73 15.342h-5.365a3.967 3.967 0 0 0-3.962 3.962 3.966 3.966 0 0 0 3.962 3.961h5.365V254H70.79c-2.37 0-4.31-1.93-4.31-4.3v-14.8a6.196 6.196 0 0 0 4.11 1.699v.011h22.93v4.732zm-.004 2v3.923h-5.361a1.964 1.964 0 0 1-1.962-1.961c0-1.082.88-1.962 1.962-1.962h5.361zm-5.156-8.732H74.27v-3.31h19.25v3.311h-5.16zM151.038 105.089c-.245 0-.478.042-.705.105l-.002-.007-23.322 6.316v2.181H124v4.701h3.009v2.179l5.647 1.53v2.885h-2.332v9.932h6.665v-9.932h-2.333v-2.343l15.675 4.245.002-.007c.227.062.46.105.705.105 3.223 0 4.962-5.639 4.962-10.945s-1.74-10.945-4.962-10.945m-16.05 27.822h-2.666v-5.932h2.666v5.932zm-.333-14.226a2.84 2.84 0 0 0 1.842-2.651c0-1.567-1.275-2.842-2.842-2.842s-2.841 1.275-2.841 2.842a2.84 2.84 0 0 0 1.841 2.651v1.337l-3.647-.988v-6l18.595-5.036c-1.003 2.125-1.529 5.127-1.529 8.036s.526 5.911 1.529 8.036l-12.948-3.506v-1.879zm16.383 6.294a.716.716 0 0 1-.219-.038l-.019-.005c-1.187-.412-2.725-3.791-2.725-8.902 0-5.111 1.538-8.49 2.725-8.902l.019-.005a.716.716 0 0 1 .219-.038c1.208 0 2.962 3.485 2.962 8.945 0 5.461-1.754 8.945-2.962 8.945M89.5 64.9h-2v2.33h-2.33v2h2.33v2.33h2v-2.33h2.33v-2H89.5z"/><path clip-path="url(#b)" fill="#111" d="M89.5 60.81v-7.33h5.61v-9.21H82.56v1c0 1.65-1.35 3-3.01 3-1.65 0-3-1.35-3-3v-1H64v9.21h5.61v15.75h11.46a7.5 7.5 0 0 0 7.43 6.5c4.13 0 7.5-3.36 7.5-7.5 0-3.79-2.84-6.94-6.5-7.42M66 51.48v-5.21h8.65c.46 2.28 2.49 4 4.9 4a5.02 5.02 0 0 0 4.91-4h8.65v5.21H87.5v9.32a7.5 7.5 0 0 0-6.43 6.43h-9.46V51.48H66zm22.5 22.25a5.5 5.5 0 0 1-5.5-5.5c0-.34.03-.68.1-1 .41-2.23 2.16-4 4.4-4.41.32-.06.66-.09 1-.09.34 0 .68.03 1 .09 2.55.47 4.5 2.72 4.5 5.41 0 3.04-2.47 5.5-5.5 5.5M200 176.277a2.036 2.036 0 0 0-2.034 2.034c0 1.122.912 2.034 2.034 2.034a2.035 2.035 0 0 0 0-4.068"/><path clip-path="url(#b)" fill="#111" d="M206.579 170.855v-5.174h-13.157v5.174H184v9.958l.53.282c.054.028.339.179.826.401l-.001 9.822c0 1.654 1.346 3 3 3h23.291c1.653 0 3-1.346 3-3v-9.816c.274-.136.553-.263.825-.407l.528-.282v-9.958h-9.42zm-11.157-3.173h9.157v3.174h-9.157v-3.174zM186 172.855h28v6.751c-4.134 2.098-8.652 3.162-13.441 3.162h-.002c-7.119-.001-12.837-2.381-14.556-3.181v-6.732zm14.556 11.914h.002c.98 0 1.946-.058 2.904-.141v7.691h-6.925v-7.788c1.276.145 2.615.238 4.019.238m-13.202 6.55l.001-8.991a38.687 38.687 0 0 0 7.182 1.927v8.064h-6.183c-.551 0-1-.448-1-1m25.292 0a1 1 0 0 1-1 1h-6.184v-7.928a30.975 30.975 0 0 0 7.184-1.981v8.909zM146.86 164c-2.92 0-5.45 1.69-6.67 4.14a9.914 9.914 0 0 0-4.45-1.04c-5.55 0-10.06 4.511-10.06 10.061 0 3.88 2.19 7.359 5.64 9.05V196h8.84v-5.78h.01v-4.01a9.991 9.991 0 0 0 5.5-7.39c.39.069.78.1 1.19.1 4.12 0 7.46-3.35 7.46-7.46s-3.34-7.46-7.46-7.46m.31 12.9l3.88-6.44h-4.55l2.38-4.07a5.451 5.451 0 0 1-1.71 10.51m-3.45-.97v-.01a5.46 5.46 0 0 1-2.32-4.46v-.04c.01-.79.18-1.54.49-2.21a5.442 5.442 0 0 1 4.9-3.2l-3.78 6.45h4.5l-2.49 4.14c-.47-.17-.91-.39-1.3-.67M138.16 194h-4.84v-3.78h4.84V194zm.63-9.37l-.62.26v3.33h-1.43v-6.12c1.89-.46 3.31-2.149 3.31-4.18h-2a2.318 2.318 0 0 1-2.31 2.311 2.31 2.31 0 0 1-2.3-2.311h-2c0 2.03 1.41 3.72 3.3 4.18v6.12h-1.42v-3.33l-.62-.26a8.036 8.036 0 0 1-5.02-7.47 8.063 8.063 0 0 1 11.86-7.111c-.09.45-.14.931-.14 1.41 0 3 1.78 5.59 4.34 6.76a8.012 8.012 0 0 1-4.95 6.411M251.5 44v15.06a8.502 8.502 0 0 0-7.5 8.44c0 4.69 3.81 8.5 8.5 8.5H276V44h-24.5zM246 67.5c0-3.58 2.92-6.5 6.5-6.5s6.5 2.92 6.5 6.5-2.92 6.5-6.5 6.5-6.5-2.92-6.5-6.5m28 6.5h-16.021A8.485 8.485 0 0 0 261 67.5c0-4.35-3.28-7.95-7.5-8.44V46H274v28z"/><path clip-path="url(#b)" fill="#111" d="M249.12 66.5h6.76v2h-6.76zM253.5 70.51c0 .55-.45 1-1 1s-1-.45-1-1c0-.56.45-1 1-1s1 .44 1 1M253.5 64.49c0 .56-.45 1-1 1s-1-.44-1-1c0-.55.45-1 1-1s1 .45 1 1M271.852 58.841h-16.204V48.319h16.204v10.522zm-14.205-2h12.204v-6.522h-12.204v6.522zM268.891 63.494h3v3h-3zM268.891 68.506h3v3h-3zM263 63.494h3v3h-3zM263 68.506h3v3h-3zM320.43 183.58l-5.67-.83-2.54-5.14-2.54 5.14-5.68.83 4.11 4-.971 5.66 5.08-2.67 5.08 2.67-.97-5.66 4.101-4zm-12.13 1.39l2.71-.39 1.21-2.45 1.21 2.45 2.71.39-1.96 1.91.46 2.7-2.42-1.271-2.43 1.271.47-2.7-1.96-1.91zM318.9 174.025h2.667v2H318.9zM323.067 174.025h5.25v2h-5.25zM325.4 177.738h2.917v2H325.4zM318.9 177.738h5v2h-5z"/><path clip-path="url(#b)" fill="#111" d="M328.552 193.483l-6.652-6.236h-1.911v-2h2.702l3.861 3.62v-3.62H333a1 1 0 0 0 1-.999l-.001-14.731c0-.551-.448-1-1-1h-18.781c-.552 0-1 .449-1 1v5.871h-2.001v-5.871c0-1.653 1.346-3 3.001-3h18.781c1.654 0 3 1.347 3 3l.001 14.731a3.003 3.003 0 0 1-3 2.999h-4.448v6.236zM126.52 246.736v-14.475a4.482 4.482 0 0 0 2.515.769h17.674c.93 0 1.795-.283 2.514-.769v10.27h2v-14.279h-.026c-.139-2.365-2.089-4.252-4.488-4.252h-17.674a4.52 4.52 0 0 0-4.515 4.515v18.222a5.211 5.211 0 0 0 5.205 5.205h12.089v-2h-12.089a3.21 3.21 0 0 1-3.205-3.206M129.035 226h17.674a2.517 2.517 0 0 1 0 5.031h-17.674c-1.387 0-2.515-1.129-2.515-2.516s1.128-2.515 2.515-2.515M155.479 249.744h-4.255v-4.256h-2v4.256h-4.256v2h4.256V256h2v-4.256h4.255z"/><path clip-path="url(#b)" fill="#111" d="M140.364 240.124h1.062v.573a3.559 3.559 0 0 1-3.555 3.556 3.56 3.56 0 0 1-3.555-3.556v-.573h1.063v-2h-4.125v2h1.062v.573c0 3.063 2.492 5.556 5.555 5.556s5.556-2.492 5.556-5.556v-.573h1.062v-2h-4.125v2zM195 113.5h10v2h-10zM195 119h10v2h-10zM195 124.5h10v2h-10z"/><path clip-path="url(#b)" fill="#111" d="M216 109.5h-5v-4h-22v4h-5v21h5v4h22v-4h5v-21zm-30 2h3v17h-3v-17zm23 21h-18v-25h18v25zm5-4h-3v-17h3v17zM310.033 233.526h10.062v2h-10.062zM310.033 238.526h6.062v2h-6.062zM335.145 248.067c-1.104-1.103-3.029-1.104-4.135-.001a2.903 2.903 0 0 0-.855 2.067c0 .78.304 1.515.855 2.067.554.551 1.286.854 2.067.854s1.514-.304 2.066-.855a2.903 2.903 0 0 0 .856-2.066 2.904 2.904 0 0 0-.854-2.066m-1.416 2.719a.947.947 0 0 1-1.306 0 .919.919 0 0 1 0-1.304.92.92 0 0 1 1.305 0 .91.91 0 0 1 .271.651.915.915 0 0 1-.27.653M327.096 244.151a2.927 2.927 0 0 0 0-4.133c-1.104-1.104-3.031-1.103-4.133 0-.552.552-.857 1.286-.857 2.066s.306 1.515.856 2.066a2.903 2.903 0 0 0 2.066.856 2.895 2.895 0 0 0 2.068-.855m-2.719-1.414a.92.92 0 0 1 .001-1.304.92.92 0 0 1 1.303 0 .925.925 0 0 1 0 1.305.944.944 0 0 1-1.304-.001"/><path transform="rotate(-45.001 328.971 246.033)" clip-path="url(#b)" fill="#111" d="M321.848 245.028h14.25v2h-14.25z"/><path clip-path="url(#b)" fill="#111" d="M306 244.109v-14.165a1 1 0 0 1 1-1h20.035a1 1 0 0 1 1 1v8.165h2v-8.165c0-1.654-1.347-3-3-3H307c-1.654 0-3 1.346-3 3v14.165c0 1.654 1.346 3 3 3h14.035v-2H307a1 1 0 0 1-1-1M247.07 194.171a3.073 3.073 0 0 1-3.07-3.07 3.073 3.073 0 0 1 3.07-3.069 3.074 3.074 0 0 1 3.07 3.069 3.073 3.073 0 0 1-3.07 3.07m0-4.14a1.07 1.07 0 1 0 0 2.14 1.07 1.07 0 0 0 0-2.14M260.442 194.171a3.073 3.073 0 0 1-3.07-3.07 3.073 3.073 0 0 1 3.07-3.069 3.073 3.073 0 0 1 3.069 3.069 3.072 3.072 0 0 1-3.069 3.07m0-4.14a1.07 1.07 0 0 0 0 2.139 1.07 1.07 0 0 0 0-2.139M265.765 165.829a4.108 4.108 0 0 0-4.104 4.105v2.168h-11.485a3.03 3.03 0 0 0-3.027 3.027v7.873h-3.119v2h13.562a6.076 6.076 0 0 0 6.07-6.07v-8.998c0-1.161.944-2.105 2.104-2.105h2.472v-2h-2.473zm-9.362 8.275h5.256v3.449h-5.256v-3.449zm-6.228 0h4.229v3.449h-5.256v-2.423a1.026 1.026 0 0 1 1.027-1.026m-1.028 5.449h5.256v3.45h-5.256v-3.45zm8.443 3.45h-1.187v-3.45h5.194c-.302 1.949-1.976 3.45-4.007 3.45M267.286 183.003h3.358v2h-3.358zM267.286 177.553h6.146v2h-6.146zM267.318 172.103H276v2h-8.682zM249.359 228.82l-.003.001v5.359H244v17h26.64v-5.359H276V228.82h-26.641zM246 249.181v-13h3.359v3.355h-.003v6.285h6.023v-.001h13.26v3.36H246zm28-9.537c-2.03.431-3.714 2.131-4.141 4.177h-14.585c-.415-1.999-2.021-3.702-3.915-4.161V234.565c1.955-.383 3.499-1.865 3.91-3.744h14.601c.432 1.893 2.066 3.379 4.13 3.749v5.074z"/><path clip-path="url(#b)" fill="#111" d="M262.567 234.224c-1.585 0-2.875 1.29-2.875 2.875s1.29 2.875 2.875 2.875 2.875-1.29 2.875-2.875-1.29-2.875-2.875-2.875M318.26 117.11l3.61 2.16-1.03 1.71-3.609-2.16c-.4.27-.891.44-1.41.44-1.36 0-2.46-1.1-2.46-2.46 0-1 .6-1.86 1.46-2.24v-4.97h2v4.97a2.45 2.45 0 0 1 1.439 2.55"/><path clip-path="url(#b)" fill="#111" d="M327.62 118.26h-.07c.061-.48.09-.97.09-1.46 0-6.51-5.3-11.82-11.819-11.82-6.521 0-11.82 5.31-11.82 11.82 0 6.52 5.3 11.82 11.82 11.82 1.239 0 2.439-.19 3.56-.55.67 3.94 4.11 6.95 8.24 6.95 4.62 0 8.38-3.76 8.38-8.38-.001-4.62-3.761-8.38-8.381-8.38m-8.34 7.73c-1.08.41-2.24.63-3.46.63-5.41 0-9.82-4.4-9.82-9.82 0-5.41 4.41-9.82 9.82-9.82s9.819 4.41 9.819 9.82c0 .59-.05 1.17-.149 1.73a9.816 9.816 0 0 1-3.96 6.25c-.69.5-1.44.91-2.25 1.21m13.5 4.39l-1.35-1.347-1.414 1.414 1.354 1.353a6.414 6.414 0 0 1-2.747 1.138v-1.914h-2v1.915a6.327 6.327 0 0 1-2.739-1.147l1.344-1.345-1.413-1.414-1.346 1.346a6.295 6.295 0 0 1-1.188-3.089 11.949 11.949 0 0 0 5.343-5.698v.662h2v-1.913a6.292 6.292 0 0 1 2.746 1.138l-1.353 1.353 1.414 1.414 1.348-1.348.002.002c.58.79.979 1.73 1.14 2.739h-1.912v2h1.912v.001a6.317 6.317 0 0 1-1.141 2.74"/><path clip-path="url(#b)" fill="#111" d="M327.623 125.435c-.664 0-1.205.541-1.205 1.205s.541 1.205 1.205 1.205a1.206 1.206 0 0 0 0-2.41M330.95 57.83c.09-.43.39-1.16 1.35-2.12.28-.28.37-.71.21-1.09-.149-.37-.52-.62-.92-.62h-8.121a11.817 11.817 0 0 0-3.136-2.081c.077-.564.455-1.704 2.074-3.322a1 1 0 0 0-.707-1.707h-11.836a.999.999 0 0 0-.707 1.707c1.646 1.646 2.01 2.796 2.083 3.332-4.211 1.913-7.24 6.35-7.24 11.264 0 4.487 2.044 9.836 11.782 9.836 2.655 0 4.723-.407 6.349-1.077 1.369.757 3.147 1.158 5.31 1.158 5.52 0 8.56-2.55 8.56-7.19-.001-3.41-2.041-6.64-5.051-8.09M306 63.193c0-4.346 2.806-8.245 6.613-9.679l.016-.005a8.964 8.964 0 0 1 2.398-.553.998.998 0 0 0 .912-1.08 1.006 1.006 0 0 0-1.08-.913 10.82 10.82 0 0 0-1.726.303c-.145-.641-.458-1.438-1.112-2.376h7.521c-1.638 2.348-1.186 3.857-1.115 4.054.121.34.413.575.746.651 3.77 1.528 6.389 5.445 6.389 9.598 0 5.273-3.198 7.836-9.78 7.836S306 68.466 306 63.193m21.44 7.917c-1.287 0-2.305-.151-3.139-.395 2.544-1.971 3.261-4.891 3.261-7.522 0-2.312-.688-4.56-1.875-6.49a4.933 4.933 0 0 0-.338-.703h4.2c-.88 1.56-.6 2.63-.55 2.78.09.29.31.53.6.64 2.591.99 4.4 3.66 4.4 6.5.001 2.23-.679 5.19-6.559 5.19"/><path clip-path="url(#b)" fill="#111" d="M315.504 67.771v-1.336c-.866-.028-1.735-.276-2.23-.606l.37-1.296c.538.318 1.31.606 2.149.606.868 0 1.461-.426 1.461-1.088 0-.62-.482-1.02-1.501-1.392-1.447-.524-2.384-1.184-2.384-2.467 0-1.185.826-2.093 2.218-2.341V56.5h1.131v1.281c.868.028 1.461.235 1.9.456l-.373 1.266c-.329-.151-.936-.468-1.874-.468-.964 0-1.308.496-1.308.965 0 .565.496.882 1.667 1.35 1.544.579 2.233 1.323 2.233 2.549 0 1.171-.814 2.205-2.329 2.453v1.419h-1.13z"/></svg>