<?xml version="1.0"?>
<svg xmlns="http://www.w3.org/2000/svg" xmlns:xlink="http://www.w3.org/1999/xlink" xmlns:svgjs="http://svgjs.com/svgjs" version="1.1" width="512" height="512" x="0" y="0" viewBox="0 0 60 60" style="enable-background:new 0 0 512 512" xml:space="preserve" class=""><g><g xmlns="http://www.w3.org/2000/svg" id="006---Reduced" fill="none"><g id="Icons" transform="translate(1 1)"><rect id="Rectangle-path" fill="#c5e4ef" height="58" rx="8" width="58" data-original="#e8edfc" style="" class=""/><path id="Shape" d="m50 0h-3c4.418278 0 8 3.581722 8 8v42c0 4.418278-3.581722 8-8 8h3c4.418278 0 8-3.581722 8-8v-42c0-4.418278-3.581722-8-8-8z" fill="#c5e4ef" data-original="#cad9fc" style="" class=""/><path id="Shape" d="m19 26.17v-10.85c2.315973.6759507 3.9317374 2.7683656 4 5.18 0 1.6568542 1.3431458 3 3 3s3-1.3431458 3-3c-.1037383-5.7179873-4.3391899-10.51675392-10-11.33v-1.17c0-1.1045695-.8954305-2-2-2s-2 .8954305-2 2v1.17c-5.66081011.81324608-9.89626168 5.6120127-10 11.33.10373832 5.7179873 4.33918989 10.5167539 10 11.33v10.85c-2.312245-.6814086-3.9255141-2.7705921-4-5.18 0-1.6568542-1.34314575-3-3-3s-3 1.3431458-3 3c.10373832 5.7179873 4.33918989 10.5167539 10 11.33 0 1.21-.1 1.8.5 2.48.5486136.6221084 1.4242896.8410235 2.2011149.5502689s1.2935646-1.0308309 1.2988851-1.8602689v-1.17c5.6608101-.8132461 9.8962617-5.6120127 10-11.33-.1037383-5.7179873-4.3391899-10.5167539-10-11.33zm-4-.49c-2.312245-.6814086-3.9255141-2.7705921-4-5.18.0775725-2.4083002 1.6896073-4.4958853 4-5.18zm4 17v-10.36c2.3481722.6243912 3.9826112 2.7502311 3.9826112 5.18s-1.634439 4.5556088-3.9826112 5.18z" fill="#ffffff" data-original="#ffffff" style="" class=""/><rect id="Rectangle-path" fill="#c5e4ef" height="6" rx=".5" width="10" x="38" y="8" data-original="#cad9fc" style="" class=""/><rect id="Rectangle-path" fill="#c5e4ef" height="6" rx=".5" width="7" x="38" y="8" data-original="#e8edfc" style="" class=""/><path id="Shape" d="m53.23 29.84-9.86 10.76c-.0962996.1015128-.230077.1590014-.37.1590014s-.2737004-.0574886-.37-.1590014c-1.59-1.7.31.21-9.86-10.76-.1356184-.1462217-.1713736-.3590524-.0909819-.5415634.0803918-.1825111.2615545-.2997946.4609819-.2984366h4.36c.2761424 0 .5-.2238576.5-.5v-10c0-.2761424.2238576-.5.5-.5h9c.2761424 0 .5.2238576.5.5v10c0 .2761424.2238576.5.5.5h4.36c.1994274-.001358.3805901.1159255.4609819.2984366.0803917.182511.0446365.3953417-.0909819.5415634z" fill="#c5e4ef" data-original="#cad9fc" style="" class=""/><path id="Shape" d="m50.23 29.84-8.73 9.53-8.73-9.53c-.1356184-.1462217-.1713736-.3590524-.0909819-.5415634.0803918-.1825111.2615545-.2997946.4609819-.2984366h4.36c.2761424 0 .5-.2238576.5-.5v-10c0-.2761424.2238576-.5.5-.5h6c.2761424 0 .5.2238576.5.5v10c0 .2761424.2238576.5.5.5h4.36c.1994274-.001358.3805901.1159255.4609819.2984366.0803917.182511.0446365.3953417-.0909819.5415634z" fill="#c5e4ef" data-original="#e8edfc" style="" class=""/></g><path id="Shape" d="m8 58h3c-4.418278 0-8-3.581722-8-8v-42c0-4.418278 3.581722-8 8-8h-3c-4.418278 0-8 3.581722-8 8v42c0 4.418278 3.581722 8 8 8z" fill="#ffffff" transform="translate(1 1)" data-original="#ffffff" style="" class=""/><path id="Rectangle-path" d="m0 9h2v8h-2z" fill="#ffffff" data-original="#ffffff" style="" class=""/><g fill="#428dff"><path id="Shape" d="m1 14c-.55228475 0-1-.4477153-1-1s.44771525-1 1-1 1 .4477153 1 1-.44771525 1-1 1z" fill="#39b2dd" data-original="#428dff" style="" class=""/><path id="Shape" d="m9 60h42c4.9705627 0 9-4.0294373 9-9v-42c0-4.97056275-4.0294373-9-9-9h-42c-4.97056275 0-9 4.02943725-9 9 0 .35726559.19059892.68739261.5.8660254.30940108.1786328.69059892.1786328 1 0 .30940108-.17863279.5-.50875981.5-.8660254 0-3.86599325 3.13400675-7 7-7h42c3.8659932 0 7 3.13400675 7 7v42c0 3.8659932-3.1340068 7-7 7h-42c-3.86599325 0-7-3.1340068-7-7v-34c0-.5522847-.44771525-1-1-1s-1 .4477153-1 1v34c0 4.9705627 4.02943725 9 9 9z" fill="#39b2dd" data-original="#428dff" style="" class=""/><path id="Shape" d="m19.41 44.49c.1715792.124224.3781735.1907544.59.19.1028338.0143697.2071662.0143697.31 0 2.7694625-.7486066 4.6930148-3.261144 4.6930148-6.13s-1.9235523-5.3813934-4.6930148-6.13c-.3129344-.102486-.656265-.0443451-.9180084.155459-.2617434.1998042-.4083463.5156583-.3919916.844541v10.26c-.0008303.3200539.1515858.6211686.41.81zm1.59-9.58c1.2443596.76886 2.0018251 2.1272708 2.0018251 3.59s-.7574655 2.82114-2.0018251 3.59z" fill="#39b2dd" data-original="#428dff" style="" class=""/><path id="Shape" d="m17 16.32c.0163547-.3288827-.1302482-.6447368-.3919916-.844541-.2617434-.1998041-.605074-.257945-.9180084-.155459-2.7463827.8130053-4.6460152 3.3161458-4.69 6.18.0655549 2.8452515 1.9609305 5.3225761 4.69 6.13.1004727.0311413.2048314.0479733.31.05.2118265.0007544.4184208-.065776.59-.19.2584142-.1888314.4108303-.4899461.41-.81zm-2 8.77c-1.2443596-.76886-2.0018251-2.1272708-2.0018251-3.59s.7574655-2.82114 2.0018251-3.59z" fill="#39b2dd" data-original="#428dff" style="" class=""/><path id="Shape" d="m13 38.5c0-2.209139-1.790861-4-4-4s-4 1.790861-4 4c.07252432 5.8936115 4.23035542 10.9453763 10 12.15v.35c0 1.6568542 1.3431458 3 3 3s3-1.3431458 3-3v-.35c5.8114834-1.1361179 10.0047316-6.228505 10.0047316-12.15s-4.1932482-11.0138821-10.0047316-12.15v-8.44c1.220192.7914831 1.969179 2.1359147 2 3.59 0 2.209139 1.790861 4 4 4s4-1.790861 4-4c-.0725243-5.8936115-4.2303554-10.9453763-10-12.15v-.35c0-1.65685425-1.3431458-3-3-3s-3 1.34314575-3 3v.35c-5.76964458 1.2046237-9.92747568 6.2563885-10 12.15.07252432 5.8936115 4.23035542 10.9453763 10 12.15v8.44c-1.220192-.7914831-1.969179-2.1359147-2-3.59zm3.16-6.66c-5.1840429-.7187547-9.07160305-5.1071141-9.16-10.34.08839695-5.2328859 3.9759571-9.6212453 9.16-10.34.4890578-.0792284.846376-.5046072.84-1v-1.16c0-.55228475.4477153-1 1-1s1 .44771525 1 1v1.17c-.006376.4953928.3509422.9207716.84 1 5.1803586.7181565 9.0667296 5.1009308 9.16 10.33 0 1.1045695-.8954305 2-2 2s-2-.8954305-2-2c-.0655549-2.8452515-1.9609305-5.3225761-4.69-6.13-.3129344-.102486-.656265-.0443451-.9180084.155459-.2617434.1998042-.4083463.5156583-.3919916.844541v10.8c-.006376.4953928.3509422.9207716.84 1 5.2161207.6501084 9.1312797 5.0835225 9.1312797 10.34s-3.915159 9.6898916-9.1312797 10.34c-.4890578.0792284-.846376.5046072-.84 1v1.15c0 .5522847-.4477153 1-1 1s-1-.4477153-1-1v-1.17c.006376-.4953928-.3509422-.9207716-.84-1-5.1803586-.7181565-9.06672962-5.1009308-9.16-10.33.00000002-1.1045695.89543052-2 2-2 1.1045695 0 2 .8954305 2 2 .0655549 2.8452515 1.9609305 5.3225761 4.69 6.13.3129344.102486.656265.0443451.9180084-.155459.2617434-.1998042.4083463-.5156583.3919916-.844541v-10.8c.001417-.4916162-.3547149-.9113431-.84-.99z" fill="#39b2dd" data-original="#428dff" style="" class=""/><path id="Shape" d="m39.5 16h9c.8284271 0 1.5-.6715729 1.5-1.5v-5c0-.82842712-.6715729-1.5-1.5-1.5h-9c-.8284271 0-1.5.67157288-1.5 1.5v5c0 .3978247.1580353.7793556.4393398 1.0606602.2813046.2813045.6628355.4393398 1.0606602.4393398zm.5-6h8v4h-8z" fill="#39b2dd" data-original="#428dff" style="" class=""/><path id="Shape" d="m38 29h-3.86c-.5995984-.0125098-1.1490191.3333316-1.3970247.8793792-.2480057.5460476-.1469232 1.1873367.2570247 1.6306208l9.86 10.76c.2842867.3127714.687336.4910897 1.11.4910897s.8257133-.1783183 1.11-.4910897l9.92-10.76c.4039479-.4432841.5050304-1.0845732.2570247-1.6306208-.2480056-.5460476-.7974263-.891889-1.3970247-.8793792h-3.86v-9.5c0-.8284271-.6715729-1.5-1.5-1.5h-9c-.8284271 0-1.5.6715729-1.5 1.5zm.5 2c.8284271 0 1.5-.6715729 1.5-1.5v-9.5h8v9.5c0 .8284271.6715729 1.5 1.5 1.5h3.23l-8.73 9.52-8.73-9.52z" fill="#39b2dd" data-original="#428dff" style="" class=""/></g></g></g></svg>
