<?xml version="1.0"?>
<svg xmlns="http://www.w3.org/2000/svg" xmlns:xlink="http://www.w3.org/1999/xlink" xmlns:svgjs="http://svgjs.com/svgjs" version="1.1" width="512" height="512" x="0" y="0" viewBox="0 0 64 64" style="enable-background:new 0 0 512 512" xml:space="preserve" class=""><g><g xmlns="http://www.w3.org/2000/svg"><path d="m62 62v-4c0-5.523-4.477-10-10-10h-10c-5.523 0-10 4.477-10 10v4z" fill="#c5e4ef" data-original="#88929f" style="" class=""/><path d="m43 55 4-1-4-6h-1c-.963 0-1.891.144-2.773.398z" fill="#c5e4ef" data-original="#c1c8d1" style="" class=""/><path d="m51 55 3.773-6.602c-.882-.254-1.81-.398-2.773-.398h-1l-4 6z" fill="#c5e4ef" data-original="#c1c8d1" style="" class=""/><path d="m2 37v-10h4.485c.678-3.481 2.047-6.716 3.964-9.55l-3.449-3.45 7-7 3.45 3.45c2.834-1.918 6.069-3.286 9.55-3.964v-4.486h10v4.485c3.481.678 6.716 2.047 9.55 3.964l3.45-3.449 7 7-3.45 3.45c1.918 2.834 3.286 6.069 3.964 9.55h4.486v10z" fill="#c5e4ef" data-original="#88929f" style="" class=""/><path d="m52 32c0-11.046-8.954-20-20-20s-20 8.954-20 20c0 1.73.243 3.399.656 5h38.689c.412-1.601.655-3.27.655-5z" fill="#c5e4ef" data-original="#c1c8d1" style="" class=""/><path d="m56 32v-1c0-4.971-4.029-9-9-9-4.971 0-9 4.029-9 9v1z" fill="#ffffff" data-original="#f2c351" style="" class=""/><path d="m38.003 30.947c5.67-.296 10.715-3.055 14.179-7.298-1.466-1.035-3.251-1.649-5.182-1.649-4.953 0-8.968 4.001-8.997 8.947z" fill="#ffffff" data-original="#f7d881" style="" class=""/><g fill="#f9d296"><path d="m55 36v4c0 4.418-3.582 8-8 8-4.418 0-8-3.582-8-8v-4z" fill="#ffffff" data-original="#f9d296" style="" class=""/><path d="m39 40v-2h-1c-1.105 0-2 .895-2 2s.895 2 2 2h1.262c-.165-.64-.262-1.308-.262-2z" fill="#ffffff" data-original="#f9d296" style="" class=""/><path d="m56 38h-1v2c0 .692-.097 1.36-.262 2h1.262c1.105 0 2-.895 2-2s-.895-2-2-2z" fill="#ffffff" data-original="#f9d296" style="" class=""/></g><path d="m36 32h22v4h-22z" fill="#c5e4ef" data-original="#666e77" style="" class=""/><path d="m51 48h-8l4 6z" fill="#ffffff" data-original="#f9d296" style="" class=""/><path d="m32 62v-4c0-5.523-4.477-10-10-10h-10c-5.523 0-10 4.477-10 10v4z" fill="#c5e4ef" data-original="#88929f" style="" class=""/><path d="m13 55 4-1-4-6h-1c-.963 0-1.891.144-2.773.398z" fill="#c5e4ef" data-original="#c1c8d1" style="" class=""/><path d="m21 55 3.773-6.602c-.882-.254-1.81-.398-2.773-.398h-1l-4 6z" fill="#c5e4ef" data-original="#c1c8d1" style="" class=""/><path d="m26 32v-1c0-4.971-4.029-9-9-9-4.971 0-9 4.029-9 9v1z" fill="#ffffff" data-original="#f2c351" style="" class=""/><path d="m8.003 30.947c5.67-.296 10.715-3.055 14.179-7.298-1.466-1.035-3.251-1.649-5.182-1.649-4.953 0-8.968 4.001-8.997 8.947z" fill="#ffffff" data-original="#f7d881" style="" class=""/><path d="m25 36v4c0 4.418-3.582 8-8 8-4.418 0-8-3.582-8-8v-4z" fill="#ffffff" data-original="#f9d296" style="" class=""/><path d="m9 40v-2h-1c-1.105 0-2 .895-2 2s.895 2 2 2h1.262c-.165-.64-.262-1.308-.262-2z" fill="#ffffff" data-original="#f9d296" style="" class=""/><path d="m26 38h-1v2c0 .692-.097 1.36-.262 2h1.262c1.105 0 2-.895 2-2s-.895-2-2-2z" fill="#ffffff" data-original="#f9d296" style="" class=""/><path d="m6 32h22v4h-22z" fill="#c5e4ef" data-original="#666e77" style="" class=""/><path d="m21 48h-8l4 6z" fill="#ffffff" data-original="#f9d296" style="" class=""/><g><path d="m62 63c.552 0 1-.447 1-1v-4c0-5.862-4.612-10.653-10.396-10.969 1.301-1.039 2.303-2.432 2.871-4.031h.525c1.654 0 3-1.346 3-3s-1.346-3-3-3h2c.552 0 1-.447 1-1v-4c0-.552-.448-1-1-1h-1c0-4.395-2.853-8.128-6.801-9.466-3.748-6.505-10.679-10.534-18.199-10.534-7.53 0-14.448 4.027-18.197 10.533-3.949 1.338-6.803 5.072-6.803 9.467h-1c-.552 0-1 .448-1 1v4c0 .553.448 1 1 1h2c-1.654 0-3 1.346-3 3s1.346 3 3 3h.525c.568 1.599 1.57 2.991 2.871 4.031-5.784.316-10.396 5.107-10.396 10.969v4c0 .553.448 1 1 1zm-12.868-14-2.132 3.197-2.132-3.197zm-6.667 0 2.916 4.374-1.889.472-2.716-4.753c.402-.055.808-.093 1.224-.093zm9.07 0h.465c.416 0 .822.038 1.224.093l-2.716 4.753-1.889-.472zm-4.535-2c-3.86 0-7-3.141-7-7v-3h14v3c0 3.859-3.14 7-7 7zm-8.941-6h-.059c-.551 0-1-.448-1-1s.449-1 1-1v1c0 .338.022.671.059 1zm18.941-1c0 .552-.449 1-1 1h-.059c.037-.329.059-.662.059-1v-1c.551 0 1 .448 1 1zm0-5h-20v-2h20zm-11-4h-7c0-4.072 3.06-7.436 7-7.931zm9 0h-7v-7.931c3.94.495 7 3.859 7 7.931zm-23-18c6.203 0 11.961 3.032 15.501 8.025-.167-.008-.332-.025-.501-.025-5.514 0-10 4.486-10 10h-1c-.552 0-1 .448-1 1v4c0 .553.448 1 1 1h2c-1.654 0-3 1.346-3 3s1.346 3 3 3h.525c.568 1.599 1.57 2.991 2.871 4.031-4.18.229-7.74 2.792-9.396 6.414-1.657-3.621-5.217-6.185-9.396-6.414 1.301-1.039 2.303-2.432 2.871-4.031h.525c1.654 0 3-1.346 3-3s-1.346-3-3-3h2c.552 0 1-.447 1-1v-4c0-.552-.448-1-1-1h-1c0-5.514-4.486-10-10-10-.17 0-.335.017-.503.025 3.539-4.996 9.291-8.025 15.503-8.025zm-1 48h-4v-6h-2v6h-7v-5.72l2.757.689c.081.021.162.031.243.031.353 0 .687-.188.868-.504l3.363-5.886c3.369 1.302 5.769 4.567 5.769 8.39zm-18.535-12 2.916 4.374-1.889.472-2.716-4.753c.402-.055.808-.093 1.224-.093zm6.667 0-2.132 3.197-2.132-3.197zm2.868 0c.416 0 .822.038 1.224.093l-2.716 4.753-1.889-.472 2.916-4.374zm4-9v-1c.551 0 1 .448 1 1s-.449 1-1 1h-.059c.037-.329.059-.662.059-1zm-8-16.931c3.94.495 7 3.859 7 7.931h-7zm-2 0v7.931h-7c0-4.072 3.06-7.436 7-7.931zm-9 11.931v-2h20v2zm1 6c-.551 0-1-.448-1-1s.449-1 1-1v1c0 .338.022.671.059 1zm2-1v-3h14v3c0 3.859-3.14 7-7 7s-7-3.141-7-7zm-7 18c0-3.823 2.4-7.088 5.768-8.39l3.363 5.886c.181.316.516.504.869.504.081 0 .162-.01.243-.03l2.757-.69v5.72h-7v-6h-2v6h-4zm30 0c0-3.823 2.4-7.088 5.768-8.39l3.363 5.886c.181.316.516.504.869.504.081 0 .162-.01.243-.03l2.757-.69v5.72h-7v-6h-2v6h-4zm28 3h-4v-6h-2v6h-7v-5.72l2.757.689c.081.021.162.031.243.031.353 0 .687-.188.868-.504l3.363-5.886c3.369 1.302 5.769 4.567 5.769 8.39z" fill="#39b2dd" data-original="#000000" style="" class=""/><path d="m62 26h-3.674c-.679-2.998-1.852-5.823-3.494-8.418l2.875-2.875c.391-.391.391-1.023 0-1.414l-7-7c-.391-.391-1.023-.391-1.414 0l-2.875 2.875c-2.595-1.643-5.42-2.815-8.418-3.494v-3.674c0-.552-.448-1-1-1h-10c-.552 0-1 .448-1 1v3.674c-2.998.679-5.823 1.852-8.418 3.494l-2.875-2.875c-.391-.391-1.023-.391-1.414 0l-7 7c-.391.391-.391 1.023 0 1.414l2.875 2.875c-1.643 2.595-2.815 5.42-3.494 8.418h-3.674c-.552 0-1 .448-1 1v10c0 .553.448 1 1 1h2v-2h-1v-8h3.485c.479 0 .89-.339.981-.809.644-3.306 1.926-6.395 3.811-9.181.269-.397.218-.929-.121-1.268l-2.742-2.742 5.586-5.586 2.743 2.743c.338.338.869.39 1.268.121 2.786-1.885 5.875-3.167 9.181-3.811.469-.092.808-.503.808-.982v-3.485h8v3.485c0 .479.339.89.809.981 3.306.644 6.395 1.926 9.181 3.811.399.269.929.217 1.268-.121l2.742-2.742 5.586 5.586-2.743 2.743c-.339.339-.39.871-.121 1.268 1.885 2.786 3.167 5.875 3.811 9.181.092.469.503.808.982.808h3.485v8h-1v2h2c.552 0 1-.447 1-1v-10c0-.552-.448-1-1-1z" fill="#39b2dd" data-original="#000000" style="" class=""/></g></g></g></svg>
