<svg height="512" viewBox="0 0 64 64" width="512" xmlns="http://www.w3.org/2000/svg"><g id="money-dollar-financial-accounting-business"><path d="m32 3a29 29 0 1 0 29 29 29 29 0 0 0 -29-29zm19 44a2.006 2.006 0 0 1 -2 2h-34a2.006 2.006 0 0 1 -2-2v-30a2.006 2.006 0 0 1 2-2h34a2.006 2.006 0 0 1 2 2z" fill="#bddbff"/><path d="m17 24h30v16h-30z" fill="#bddbff"/><g fill="#57a4ff"><path d="m47 23h-30a1 1 0 0 0 -1 1v16a1 1 0 0 0 1 1h30a1 1 0 0 0 1-1v-16a1 1 0 0 0 -1-1zm-1 16h-28v-14h28z"/><path d="m35 34a3.01 3.01 0 0 1 -2 2.82v1.18h-2v-1.18a3.01 3.01 0 0 1 -2-2.82h2a1 1 0 1 0 1-1 3 3 0 0 1 -1-5.82v-1.18h2v1.18a3.01 3.01 0 0 1 2 2.82h-2a1 1 0 1 0 -1 1 3.009 3.009 0 0 1 3 3z"/><path d="m21 29.829a3.013 3.013 0 0 0 1.829-1.829h1.171v-2h-2a1 1 0 0 0 -1 1 1 1 0 0 1 -1 1 1 1 0 0 0 -1 1v2h2z"/><path d="m20 36a1 1 0 0 1 1 1 1 1 0 0 0 1 1h2v-2h-1.171a3.013 3.013 0 0 0 -1.829-1.829v-1.171h-2v2a1 1 0 0 0 1 1z"/><path d="m43 29.829v1.171h2v-2a1 1 0 0 0 -1-1 1 1 0 0 1 -1-1 1 1 0 0 0 -1-1h-2v2h1.171a3.013 3.013 0 0 0 1.829 1.829z"/><path d="m43 37a1 1 0 0 1 1-1 1 1 0 0 0 1-1v-2h-2v1.171a3.013 3.013 0 0 0 -1.829 1.829h-1.171v2h2a1 1 0 0 0 1-1z"/><path d="m56.307 14.413a1 1 0 1 0 -1.62 1.174 28.008 28.008 0 1 1 -4.342-4.741 1 1 0 0 0 1.31-1.51 29.968 29.968 0 1 0 4.652 5.077z"/><path d="m53.153 13.654a1 1 0 0 0 1.512-1.308q-.458-.529-.94-1.035a1 1 0 0 0 -1.45 1.378q.45.473.878.965z"/><path d="m14 47a1 1 0 0 0 -2 0 3 3 0 0 0 3 3 1 1 0 0 0 0-2 1 1 0 0 1 -1-1z"/><path d="m18 50h31a3 3 0 0 0 3-3v-30a3 3 0 0 0 -3-3h-34a3 3 0 0 0 -3 3v27a1 1 0 0 0 2 0v-27a1 1 0 0 1 1-1h34a1 1 0 0 1 1 1v30a1 1 0 0 1 -1 1h-31a1 1 0 0 0 0 2z"/></g></g></svg>