<?xml version="1.0"?>
<svg xmlns="http://www.w3.org/2000/svg" xmlns:xlink="http://www.w3.org/1999/xlink" xmlns:svgjs="http://svgjs.com/svgjs" version="1.1" width="512" height="512" x="0" y="0" viewBox="0 0 64 64" style="enable-background:new 0 0 512 512" xml:space="preserve" class=""><g><g xmlns="http://www.w3.org/2000/svg" fill="#c4a2fc"><path d="m18.593 48-.947 6h7.774a7 7 0 0 0 -6.827-6z" fill="#a2c9fc" data-original="#c4a2fc" style="" class=""/><path d="m51.4 54h.159a9.007 9.007 0 0 1 8.535-7.981l-.319-2.019h-1.275a9.01 9.01 0 0 1 -9-9h-.1z" fill="#a2c9fc" data-original="#c4a2fc" style="" class=""/><path d="m27.6 54 2-19h-.1a9.01 9.01 0 0 1 -9 9h-1.275l-.319 2.019a9.007 9.007 0 0 1 8.535 7.981z" fill="#a2c9fc" data-original="#c4a2fc" style="" class=""/><path d="m58.5 42h.959l-.972-6.156a1 1 0 0 0 -.987-.844h-6a7.008 7.008 0 0 0 7 7z" fill="#a2c9fc" data-original="#c4a2fc" style="" class=""/><path d="m53.58 54h7.774l-.947-6a7 7 0 0 0 -6.827 6z" fill="#a2c9fc" data-original="#c4a2fc" style="" class=""/><circle cx="39.5" cy="45.5" r="3.5" fill="#a2c9fc" data-original="#c4a2fc" style="" class=""/><path d="m51.5 56v7h9a1 1 0 0 0 1-1v-6z" fill="#a2c9fc" data-original="#c4a2fc" style="" class=""/><path d="m27.5 56h-10v6a1 1 0 0 0 1 1h9z" fill="#a2c9fc" data-original="#c4a2fc" style="" class=""/><path d="m20.5 42a7.008 7.008 0 0 0 7-7h-6a1 1 0 0 0 -.987.844l-.972 6.156z" fill="#a2c9fc" data-original="#c4a2fc" style="" class=""/><path d="m29.611 54h19.778l-2-19h-15.779zm9.889-14a5.5 5.5 0 1 1 -5.5 5.5 5.506 5.506 0 0 1 5.5-5.5z" fill="#a2c9fc" data-original="#c4a2fc" style="" class=""/><path d="m29.5 56h20v7h-20z" fill="#a2c9fc" data-original="#c4a2fc" style="" class=""/></g><path xmlns="http://www.w3.org/2000/svg" d="m7.5 51h28a5.006 5.006 0 0 0 5-5v-14a18.976 18.976 0 0 0 -14.838-18.528l2.187-8.744a3 3 0 0 0 -2.911-3.728h-6.824a3 3 0 0 0 -2.9 3.785l2.338 8.632a18.992 18.992 0 0 0 -15.052 18.583v14a5.006 5.006 0 0 0 5 5zm10.614-48h6.824a1 1 0 0 1 .971 1.242l-1.189 4.758h-6.288l-1.284-4.739a1 1 0 0 1 .966-1.261zm.86 8h5.246l-.534 2.135a18.081 18.081 0 0 0 -4.142-.031zm-14.474 21a17 17 0 0 1 34 0v14a3 3 0 0 1 -3 3h-28a3 3 0 0 1 -3-3z" fill="#151a6a" data-original="#151a6a" style="" class=""/><path xmlns="http://www.w3.org/2000/svg" d="m21.5 45a11.5 11.5 0 1 0 -11.5-11.5 11.513 11.513 0 0 0 11.5 11.5zm0-21a9.5 9.5 0 1 1 -9.5 9.5 9.511 9.511 0 0 1 9.5-9.5z" fill="#151a6a" data-original="#151a6a" style="" class=""/><path xmlns="http://www.w3.org/2000/svg" d="m21.5 28a5.506 5.506 0 0 1 5.5 5.5 1 1 0 0 0 2 0 7.508 7.508 0 0 0 -7.5-7.5 1 1 0 0 0 0 2z" fill="#151a6a" data-original="#151a6a" style="" class=""/><path xmlns="http://www.w3.org/2000/svg" d="m21.5 41a1 1 0 0 0 0-2 5.506 5.506 0 0 1 -5.5-5.5 1 1 0 0 0 -2 0 7.508 7.508 0 0 0 7.5 7.5z" fill="#151a6a" data-original="#151a6a" style="" class=""/></g></svg>
