<?xml version="1.0"?>
<svg xmlns="http://www.w3.org/2000/svg" xmlns:xlink="http://www.w3.org/1999/xlink" xmlns:svgjs="http://svgjs.com/svgjs" version="1.1" width="512" height="512" x="0" y="0" viewBox="0 0 480 480" style="enable-background:new 0 0 512 512" xml:space="preserve" class=""><g><path xmlns="http://www.w3.org/2000/svg" d="m136 8v464h64v-112h80v112h64v-464zm128 48h32v32h-32zm0 64h32v32h-32zm0 64h32v32h-32zm0 64h32v32h-32zm-80-192h32v32h-32zm0 64h32v32h-32zm0 64h32v32h-32zm0 64h32v32h-32zm0 0" fill="#c5e4ef" data-original="#9bc9ff" style="" class=""/><path xmlns="http://www.w3.org/2000/svg" d="m344 136v336h36.320312c-2.902343-7.667969-4.367187-15.800781-4.320312-24 0-26.480469 14.320312-48 32-48s32 21.519531 32 48c.046875 8.199219-1.417969 16.332031-4.320312 24h36.320312v-336zm80 208h-32v-32h32zm0-64h-32v-32h32zm0-64h-32v-32h32zm0 0" fill="#c5e4ef" data-original="#9bc9ff" style="" class=""/><path xmlns="http://www.w3.org/2000/svg" d="m8 136v328h128v-328zm48 288c-17.671875 0-32-25.070312-32-56s14.328125-56 32-56 32 25.070312 32 56-14.328125 56-32 56zm32-144h-32v-32h32zm0-64h-32v-32h32zm0 0" fill="#c5e4ef" data-original="#9bc9ff" style="" class=""/><g xmlns="http://www.w3.org/2000/svg" fill="#1e81ce"><path d="m352 128v-128h-224v128h-128v192h16v-176h112v320h-64v-33.238281c18.472656-5.777344 32-31.265625 32-62.761719 0-35.886719-17.601562-64-40-64s-40 28.113281-40 64c0 31.496094 13.527344 56.984375 32 62.761719v33.238281h-48v16h480v-352zm-320 240c0-28.289062 12.648438-48 24-48s24 19.710938 24 48-12.648438 48-24 48-24-19.710938-24-48zm176 96v-96h64v96zm128 0h-48v-112h-96v112h-48v-448h192zm48-16c0-21.679688 10.992188-40 24-40s24 18.320312 24 40c.007812 5.402344-.703125 10.785156-2.113281 16h-43.773438c-1.410156-5.214844-2.121093-10.597656-2.113281-16zm80 16h-17.726562c1.128906-5.257812 1.707031-10.621094 1.726562-16 0-31.398438-17.601562-56-40-56s-40 24.601562-40 56c.019531 5.378906.597656 10.742188 1.726562 16h-17.726562v-320h112zm0 0" fill="#39b2dd" data-original="#1e81ce" style="" class=""/><path d="m160 320h160v16h-160zm0 0" fill="#39b2dd" data-original="#1e81ce" style="" class=""/><path d="m224 48h-48v48h48zm-16 32h-16v-16h16zm0 0" fill="#39b2dd" data-original="#1e81ce" style="" class=""/><path d="m304 48h-48v48h48zm-16 32h-16v-16h16zm0 0" fill="#39b2dd" data-original="#1e81ce" style="" class=""/><path d="m224 112h-48v48h48zm-16 32h-16v-16h16zm0 0" fill="#39b2dd" data-original="#1e81ce" style="" class=""/><path d="m304 112h-48v48h48zm-16 32h-16v-16h16zm0 0" fill="#39b2dd" data-original="#1e81ce" style="" class=""/><path d="m224 176h-48v48h48zm-16 32h-16v-16h16zm0 0" fill="#39b2dd" data-original="#1e81ce" style="" class=""/><path d="m304 176h-48v48h48zm-16 32h-16v-16h16zm0 0" fill="#39b2dd" data-original="#1e81ce" style="" class=""/><path d="m224 240h-48v48h48zm-16 32h-16v-16h16zm0 0" fill="#39b2dd" data-original="#1e81ce" style="" class=""/><path d="m96 176h-48v48h48zm-16 32h-16v-16h16zm0 0" fill="#39b2dd" data-original="#1e81ce" style="" class=""/><path d="m48 288h48v-48h-48zm16-32h16v16h-16zm0 0" fill="#39b2dd" data-original="#1e81ce" style="" class=""/><path d="m304 240h-48v48h48zm-16 32h-16v-16h16zm0 0" fill="#39b2dd" data-original="#1e81ce" style="" class=""/><path d="m432 176h-48v48h48zm-16 32h-16v-16h16zm0 0" fill="#39b2dd" data-original="#1e81ce" style="" class=""/><path d="m432 240h-48v48h48zm-16 32h-16v-16h16zm0 0" fill="#39b2dd" data-original="#1e81ce" style="" class=""/><path d="m432 304h-48v48h48zm-16 32h-16v-16h16zm0 0" fill="#39b2dd" data-original="#1e81ce" style="" class=""/></g></g></svg>
