<?xml version="1.0"?>
<svg xmlns="http://www.w3.org/2000/svg" xmlns:xlink="http://www.w3.org/1999/xlink" xmlns:svgjs="http://svgjs.com/svgjs" version="1.1" width="512" height="512" x="0" y="0" viewBox="0 0 512 512" style="enable-background:new 0 0 512 512" xml:space="preserve" class=""><g><g xmlns="http://www.w3.org/2000/svg"><g fill="#57a4ff"><g><path d="m144 248h48v48h-48z" fill="#c5e4ef" data-original="#000000" style="" class=""/><path d="m144 336h48v48h-48z" fill="#c5e4ef" data-original="#000000" style="" class=""/><path d="m232 248h48v48h-48z" fill="#c5e4ef" data-original="#000000" style="" class=""/><path d="m232 336h48v48h-48z" fill="#c5e4ef" data-original="#000000" style="" class=""/><path d="m192 136h128v48h-128z" fill="#c5e4ef" data-original="#000000" style="" class=""/><path d="m176 44v-12h160v12a19.994 19.994 0 0 1 -20 20h-120a19.994 19.994 0 0 1 -20-20z" fill="#c5e4ef" data-original="#000000" style="" class=""/><path d="m320 248h48v48h-48z" fill="#c5e4ef" data-original="#000000" style="" class=""/><path d="m320 336h48v48h-48z" fill="#c5e4ef" data-original="#000000" style="" class=""/><path d="m424 32v464h-336v-464h32v432h272v-432z" fill="#c5e4ef" data-original="#000000" style="" class=""/><path d="m144 248h48v48h-48z" fill="#c5e4ef" data-original="#000000" style="" class=""/><path d="m144 336h48v48h-48z" fill="#c5e4ef" data-original="#000000" style="" class=""/><path d="m232 248h48v48h-48z" fill="#c5e4ef" data-original="#000000" style="" class=""/><path d="m232 336h48v48h-48z" fill="#c5e4ef" data-original="#000000" style="" class=""/><path d="m192 136h128v48h-128z" fill="#c5e4ef" data-original="#000000" style="" class=""/><path d="m176 44v-12h160v12a19.994 19.994 0 0 1 -20 20h-120a19.994 19.994 0 0 1 -20-20z" fill="#c5e4ef" data-original="#000000" style="" class=""/><path d="m320 248h48v48h-48z" fill="#c5e4ef" data-original="#000000" style="" class=""/><path d="m320 336h48v48h-48z" fill="#c5e4ef" data-original="#000000" style="" class=""/><path d="m336 16v28a19.994 19.994 0 0 1 -20 20h-120a19.994 19.994 0 0 1 -20-20v-28z" fill="#c5e4ef" data-original="#000000" style="" class=""/></g><path d="m192 136h128v48h-128z" fill="#c5e4ef" data-original="#57a4ff" style="" class=""/><path d="m232 336h48v48h-48z" fill="#c5e4ef" data-original="#57a4ff" style="" class=""/><path d="m144 336h48v48h-48z" fill="#c5e4ef" data-original="#57a4ff" style="" class=""/><path d="m320 336h48v48h-48z" fill="#c5e4ef" data-original="#57a4ff" style="" class=""/><path d="m232 248h48v48h-48z" fill="#c5e4ef" data-original="#57a4ff" style="" class=""/><path d="m144 248h48v48h-48z" fill="#c5e4ef" data-original="#57a4ff" style="" class=""/><path d="m320 248h48v48h-48z" fill="#c5e4ef" data-original="#57a4ff" style="" class=""/></g><g fill="#004fac"><path d="m144 392h48a8 8 0 0 0 8-8v-48a8 8 0 0 0 -8-8h-16v-24h16a8 8 0 0 0 8-8v-48a8 8 0 0 0 -8-8h-16v-16h72v16h-16a8 8 0 0 0 -8 8v48a8 8 0 0 0 8 8h16v24h-16a8 8 0 0 0 -8 8v48a8 8 0 0 0 8 8h48a8 8 0 0 0 8-8v-48a8 8 0 0 0 -8-8h-16v-24h16a8 8 0 0 0 8-8v-48a8 8 0 0 0 -8-8h-16v-16h72v16h-16a8 8 0 0 0 -8 8v48a8 8 0 0 0 8 8h16v24h-16a8 8 0 0 0 -8 8v48a8 8 0 0 0 8 8h48a8 8 0 0 0 8-8v-48a8 8 0 0 0 -8-8h-16v-24h16a8 8 0 0 0 8-8v-48a8 8 0 0 0 -8-8h-16v-24a8 8 0 0 0 -8-8h-80v-16h56a8 8 0 0 0 8-8v-48a8 8 0 0 0 -8-8h-128a8 8 0 0 0 -8 8v48a8 8 0 0 0 8 8h56v16h-80a8 8 0 0 0 -8 8v24h-16a8 8 0 0 0 -8 8v48a8 8 0 0 0 8 8h16v24h-16a8 8 0 0 0 -8 8v48a8 8 0 0 0 8 8zm128-16h-32v-32h32zm0-88h-32v-32h32zm88 88h-32v-32h32zm0-88h-32v-32h32zm-160-144h112v32h-112zm-48 112h32v32h-32zm0 88h32v32h-32z" fill="#39b2dd" data-original="#004fac" style="" class=""/><path d="m424 24h-80v-8a8 8 0 0 0 -8-8h-160a8 8 0 0 0 -8 8v8h-80a8 8 0 0 0 -8 8v464a8 8 0 0 0 8 8h336a8 8 0 0 0 8-8v-464a8 8 0 0 0 -8-8zm-240 0h144v20a12.01 12.01 0 0 1 -12 12h-120a12.01 12.01 0 0 1 -12-12zm-56 16h40v4a28.031 28.031 0 0 0 28 28h120a28.031 28.031 0 0 0 28-28v-4h40v416h-256zm288 448h-320v-448h16v424a8 8 0 0 0 8 8h272a8 8 0 0 0 8-8v-424h16z" fill="#39b2dd" data-original="#004fac" style="" class=""/></g></g></g></svg>
