<svg xmlns="http://www.w3.org/2000/svg" width="48" height="48"><path d="M9 11h30v3H9v-3z" fill-rule="evenodd" fill="#424242"/><path d="M4 25h40v-7c0-2.2-1.8-4-4-4H8c-2.2 0-4 1.8-4 4v7z" fill="#616161"/><path d="M8 36h32c2.2 0 4-1.8 4-4v-8H4v8c0 2.2 1.8 4 4 4z" fill="#424242"/><path d="M41 18c0 .552-.448 1-1 1s-1-.448-1-1 .448-1 1-1 1 .448 1 1z" fill-rule="evenodd" fill="#00e676"/><path d="M11 4h26v10H11V4z" fill-rule="evenodd" fill="#b2ebf2"/><g><path d="M37.5 31h-27c-.8 0-1.5-.7-1.5-1.5s.7-1.5 1.5-1.5h27c.8 0 1.5.7 1.5 1.5s-.7 1.5-1.5 1.5z" fill="#242424"/></g><g><path d="M11 31h26v11H11V31z" fill-rule="evenodd" fill="#b2ebf2"/></g><g><path d="M11 29h26v2H11v-2z" fill-rule="evenodd" fill="#00bcd4"/></g><g><path d="M16 33h17v2H16v-2z" fill-rule="evenodd" fill="#0097a7"/></g><g><path d="M16 37h13v2H16v-2z" fill-rule="evenodd" fill="#0097a7"/></g></svg>