<?xml version="1.0"?>
<svg xmlns="http://www.w3.org/2000/svg" xmlns:xlink="http://www.w3.org/1999/xlink" xmlns:svgjs="http://svgjs.com/svgjs" version="1.1" width="512" height="512" x="0" y="0" viewBox="0 0 64 64" style="enable-background:new 0 0 512 512" xml:space="preserve" class=""><g><g xmlns="http://www.w3.org/2000/svg" id="Lunch_product" data-name="Lunch product"><path d="m32 61-22-8v-27l22 7z" fill="#c5e4ef" data-original="#9bc9ff" style="" class=""/><path d="m3 34 22 7 7-8-22-7z" fill="#c5e4ef" data-original="#9bc9ff" style="" class=""/><path d="m39 41 22-7-7-8-22 7z" fill="#c5e4ef" data-original="#9bc9ff" style="" class=""/><path d="m25 11-22 7 7 8 22-7z" fill="#c5e4ef" data-original="#9bc9ff" style="" class=""/><path d="m39 11-7 8 22 7 7-8z" fill="#c5e4ef" data-original="#9bc9ff" style="" class=""/><path d="m45.919 55.938.014-.005-.004-.004z" fill="#c5e4ef" data-original="#9bc9ff" style="" class=""/><path d="m54 26-22 7v28l11.524-4.19-1.824-7.966 9.179 2.135-2.122 2.121 1.325 1.325 3.918-1.425z" fill="#c5e4ef" data-original="#9bc9ff" style="" class=""/><path d="m43.524 56.812.006-.002-.006.002.284 1.238 2.111-2.112-2.395.872z" fill="#c5e4ef" data-original="#9bc9ff" style="" class=""/><g fill="#1e81ce"><path d="m61.963 17.731a1 1 0 0 0 -.66-.684l-22-7a1 1 0 0 0 -1.056.294l-6.247 7.14-6.247-7.14a1 1 0 0 0 -1.056-.294l-22 7a1 1 0 0 0 -.45 1.612l6.424 7.341-6.424 7.341a1 1 0 0 0 .45 1.612l6.303 2.006v16.041a1 1 0 0 0 .658.94l22 8a.17.17 0 0 1 .022 0 .942.942 0 0 0 .64 0h.022l10.46-3.8.031.134a1 1 0 0 0 1.682.484l1.414-1.414 4.364 4.364a1 1 0 0 0 1.414 0l2.828-2.829a1 1 0 0 0 0-1.414l-2.635-2.639 2.444-.886a1 1 0 0 0 .656-.94v-16.041l6.3-2.006a1 1 0 0 0 .45-1.612l-6.421-7.341 6.424-7.341a1 1 0 0 0 .21-.928zm-29.963 14.22-18.7-5.951 17.7-5.632v4.632a1 1 0 0 0 2 0v-4.632l17.7 5.632zm-7.321-19.8 5.563 6.359-19.921 6.339-5.563-6.359zm-14.358 15 19.921 6.339-5.563 6.359-19.921-6.339zm40.679 32.435-4.364-4.364a1 1 0 0 0 -1.414 0l-.843.842-1.347-5.884 5.868 1.365-.847.849a1 1 0 0 0 0 1.414l4.363 4.363zm2-7.286-2.665.965-.163-.163 1.414-1.415a1 1 0 0 0 -.481-1.681l-9.178-2.136a1 1 0 0 0 -1.2 1.2l1.626 7.107-9.353 3.396v-7.573a1 1 0 0 0 -2 0v7.572l-20-7.272v-14.7l13.7 4.358a.987.987 0 0 0 .3.042 1 1 0 0 0 .753-.341l5.247-6v8.341a1 1 0 0 0 2 0v-8.338l5.247 6a1 1 0 0 0 .753.338.987.987 0 0 0 .3-.047l13.7-4.353zm-13.679-12.451-5.563-6.359 19.921-6.339 5.563 6.359zm14.358-15-19.921-6.339 5.563-6.359 19.921 6.339z" fill="#39b2dd" data-original="#1e81ce" style="" class=""/><path d="m36 7a1 1 0 0 0 .833-.445l.516-.774a3.993 3.993 0 0 1 3.327-1.781h1.324a1 1 0 0 0 0-2h-1.324a5.989 5.989 0 0 0 -4.992 2.672l-.516.773a1 1 0 0 0 .832 1.555z" fill="#39b2dd" data-original="#1e81ce" style="" class=""/><path d="m22.8 3.98 1.784.357a3.01 3.01 0 0 1 2.416 2.942v.721a1 1 0 0 0 2 0v-.721a5.013 5.013 0 0 0 -4.02-4.9l-1.78-.359a1 1 0 0 0 -.4 1.96z" fill="#39b2dd" data-original="#1e81ce" style="" class=""/><path d="m49.692 9.264a3.006 3.006 0 0 1 2.4-1.333l-.176.491a3 3 0 0 0 2.026 3.991 3.036 3.036 0 0 0 .783.1 2.989 2.989 0 0 0 1.494-.4 3.038 3.038 0 0 0 1.42-1.9 3 3 0 0 0 -2.339-3.73l-.512-.1a3.99 3.99 0 0 1 3.065-2.283 1 1 0 1 0 -.286-1.98 5.99 5.99 0 0 0 -4.785 3.891l-.35-.066a.974.974 0 0 0 -.221-.017l-.19.007a5.005 5.005 0 0 0 -3.993 2.224 1 1 0 0 0 1.664 1.108zm4.1-.142.3-.832.839.158a.992.992 0 0 1 .661.451 1.054 1.054 0 0 1 .1.875 1 1 0 0 1 -.466.607 1.01 1.01 0 0 1 -.767.1.991.991 0 0 1 -.634-.516 1.008 1.008 0 0 1 -.035-.843z" fill="#39b2dd" data-original="#1e81ce" style="" class=""/><path d="m3.147 4.1a3.992 3.992 0 0 1 3.066 2.29l-.512.1a3.009 3.009 0 0 0 -1.983 1.345 3.054 3.054 0 0 0 -.335 2.456 3 3 0 0 0 2.89 2.224 3.06 3.06 0 0 0 .791-.105 3 3 0 0 0 2.029-3.963l-.186-.517h.006a3.005 3.005 0 0 1 2.395 1.333 1 1 0 1 0 1.664-1.108 5 5 0 0 0 -3.991-2.223l-.192-.007a.912.912 0 0 0 -.221.017l-.35.066a5.99 5.99 0 0 0 -4.785-3.891 1 1 0 0 0 -.286 1.983zm4.073 5.048a1.006 1.006 0 0 1 -1.44 1.233 1.059 1.059 0 0 1 -.488-.692 1 1 0 0 1 .78-1.241l.84-.158z" fill="#39b2dd" data-original="#1e81ce" style="" class=""/><circle cx="32" cy="48" r="1" fill="#39b2dd" data-original="#1e81ce" style="" class=""/><circle cx="32" cy="29" r="1" fill="#39b2dd" data-original="#1e81ce" style="" class=""/><circle cx="34" cy="9" r="1" fill="#39b2dd" data-original="#1e81ce" style="" class=""/><circle cx="45" cy="3" r="1" fill="#39b2dd" data-original="#1e81ce" style="" class=""/><circle cx="61" cy="3" r="1" fill="#39b2dd" data-original="#1e81ce" style="" class=""/><circle cx="20" cy="3" r="1" fill="#39b2dd" data-original="#1e81ce" style="" class=""/><circle cx="14" cy="11" r="1" fill="#39b2dd" data-original="#1e81ce" style="" class=""/></g></g></g></svg>
