<?xml version="1.0"?>
<svg xmlns="http://www.w3.org/2000/svg" xmlns:xlink="http://www.w3.org/1999/xlink" xmlns:svgjs="http://svgjs.com/svgjs" version="1.1" width="512" height="512" x="0" y="0" viewBox="0 0 494.2 494.2" style="enable-background:new 0 0 512 512" xml:space="preserve" class=""><g>
<path xmlns="http://www.w3.org/2000/svg" style="" d="M327.863,312c10-3.9,20.8-6,32.2-6c2.4,0,4.7,0.1,7.1,0.3c13.9,1,27,5.4,38.4,12.2  c26.2,15.5,43.7,44,43.7,76.6c0,49.2-39.9,89.1-89.1,89.1s-89.1-39.9-89.1-89.1c0-21.1,7.4-40.5,19.6-55.8  C300.263,327.1,313.063,317.6,327.863,312z" fill="#e3e7f2" data-original="#fdc75b" class=""/>
<g xmlns="http://www.w3.org/2000/svg">
	<path style="" d="M406.063,136.2v181.2l-0.6,1c-11.4-6.8-24.4-11.2-38.4-12.2l0.3-3.2V136.2H406.063z" fill="#e3e7f2" data-original="#ed664c" class=""/>
	<path style="" d="M327.863,188.4V312c-14.8,5.7-27.6,15.2-37.4,27.3l-1.3-1V188.4H327.863z" fill="#e3e7f2" data-original="#ed664c" class=""/>
	<rect x="210.963" y="245.7" style="" width="38.7" height="180.5" fill="#e3e7f2" data-original="#ed664c" class=""/>
	<rect x="132.163" y="268.9" style="" width="38.7" height="157.3" fill="#e3e7f2" data-original="#ed664c" class=""/>
	<rect x="53.363" y="354.9" style="" width="38.7" height="71.4" fill="#e3e7f2" data-original="#ed664c" class=""/>
</g>
<path xmlns="http://www.w3.org/2000/svg" d="M416.063,313.3V136.2c0-5.5-4.5-9.3-10-9.3h-38.7c-5.5,0-10.3,3.8-10.3,9.3v159.7c-6,0.2-13,1-19,2.5v-110  c0-5.5-4.7-9.5-10.2-9.5h-38.7c-5.5,0-10.1,3.9-10.1,9.5v149.3c-12,16.7-18.2,36.8-18.2,57.4c0,54.7,44.5,99.1,99.2,99.1  s99.2-44.5,99.2-99.1C459.163,362.4,443.063,331.6,416.063,313.3z M396.063,146.9v155.8c-6-2.4-12-4.1-19-5.2V146.9H396.063z   M318.063,198.9v106.5c-7,3.1-13,7-19,11.4V198.9H318.063z M360.063,474.2c-43.6,0-79.1-35.5-79.1-79.1c0-18.2,6-35.3,17.4-49.5  c8.3-10.4,19.2-18.5,31.5-23.5c1.2-0.2,2.3-0.7,3.3-1.3c8.6-3.2,17.7-4.8,27-4.8c2.1,0,4.1,0.1,6.2,0.3h0.1c12,0.9,23.7,4.6,34,10.8  c23.9,14.2,38.8,40.2,38.8,68C439.163,438.7,403.663,474.2,360.063,474.2z" fill="#39b2dd" data-original="#000000" style="" class=""/>
<path xmlns="http://www.w3.org/2000/svg" d="M360.063,361.7c6.9,0,12.6,5.7,12.6,12.6c0,5.5,4.5,10,10,10s10.2-4.5,10.2-10c0-13.9-8.7-25.7-20.7-30.4v-8.3  c0-5.5-4.5-10-10-10s-10,4.5-10,10v7.2c-14,3.7-24.4,16.4-24.4,31.6c0,18,14.5,32.6,32.5,32.6c6.9,0,12.5,5.6,12.5,12.6  s-5.7,12.6-12.6,12.6s-12.6-5.6-12.6-12.6c0-5.5-4.5-10-10-10s-9.8,4.5-9.8,10c0,15.1,10.4,27.8,24.4,31.5v4.5c0,5.5,4.5,10,10,10  s10-4.5,10-10v-5.7c12-4.7,20.7-16.6,20.7-30.4c0-18-14.7-32.6-32.7-32.6c-6.9,0-12.6-5.6-12.6-12.6  C347.463,367.4,353.063,361.7,360.063,361.7z" fill="#39b2dd" data-original="#000000" style="" class=""/>
<path xmlns="http://www.w3.org/2000/svg" d="M181.063,268.9c0-5.5-4.5-10-10-10h-39c-5.5,0-10,4.5-10,10v157c0,5.5,4.5,10,10,10h39c5.5,0,10-4.5,10-10V268.9z   M161.063,416.9h-19v-138h19V416.9z" fill="#39b2dd" data-original="#000000" style="" class=""/>
<path xmlns="http://www.w3.org/2000/svg" d="M260.063,245.9c0-5.5-4.5-10-10-10h-39c-5.5,0-10,4.5-10,10v181c0,5.5,4.5,10,10,10h39c5.5,0,10-4.5,10-10V245.9z   M240.063,416.9h-19v-161h19V416.9z" fill="#39b2dd" data-original="#000000" style="" class=""/>
<path xmlns="http://www.w3.org/2000/svg" d="M102.063,354.9c0-5.5-4.5-10-10-10h-39c-5.5,0-10,4.5-10,10v71c0,5.5,4.5,10,10,10h39c5.5,0,10-4.5,10-10V354.9z   M82.063,416.9h-19v-52h19V416.9z" fill="#39b2dd" data-original="#000000" style="" class=""/>
<path xmlns="http://www.w3.org/2000/svg" d="M52.063,296.5l185-185l37.9,38.2c1.9,1.9,4.4,3.2,7.1,3.2l0,0c2.7,0,5.2-1.4,7.1-3.2l115.3-115.5l-0.1,44.5  c0,5.5,4.5,10.3,10,10.3l0,0c5.5,0,10-4.8,10-10.3l0.1-68.6c0-2.7-1-5.2-2.9-7.1s-4.4-3-7.1-3l0,0l-68.4,0.1c-5.5,0-10,4.5-10,10  s4.5,10,10,10l0,0l44.3-0.1l-108.4,108.1l-37.9-37.6c-1.9-1.9-4.4-2.6-7.1-2.6l0,0c-2.7,0-5.2,0.8-7.1,2.6l-192,192  c-3.9,3.9-3.9,10.2,0,14.1c2,2,4.5,2.9,7.1,2.9S50.063,298.4,52.063,296.5z" fill="#39b2dd" data-original="#000000" style="" class=""/>
<g xmlns="http://www.w3.org/2000/svg">
</g>
<g xmlns="http://www.w3.org/2000/svg">
</g>
<g xmlns="http://www.w3.org/2000/svg">
</g>
<g xmlns="http://www.w3.org/2000/svg">
</g>
<g xmlns="http://www.w3.org/2000/svg">
</g>
<g xmlns="http://www.w3.org/2000/svg">
</g>
<g xmlns="http://www.w3.org/2000/svg">
</g>
<g xmlns="http://www.w3.org/2000/svg">
</g>
<g xmlns="http://www.w3.org/2000/svg">
</g>
<g xmlns="http://www.w3.org/2000/svg">
</g>
<g xmlns="http://www.w3.org/2000/svg">
</g>
<g xmlns="http://www.w3.org/2000/svg">
</g>
<g xmlns="http://www.w3.org/2000/svg">
</g>
<g xmlns="http://www.w3.org/2000/svg">
</g>
<g xmlns="http://www.w3.org/2000/svg">
</g>
</g></svg>
