<?xml version="1.0"?>
<svg xmlns="http://www.w3.org/2000/svg" xmlns:xlink="http://www.w3.org/1999/xlink" xmlns:svgjs="http://svgjs.com/svgjs" version="1.1" width="512" height="512" x="0" y="0" viewBox="0 0 64 64" style="enable-background:new 0 0 512 512" xml:space="preserve" class=""><g><g xmlns="http://www.w3.org/2000/svg" id="Goal"><path d="m32 11a21 21 0 1 0 21 21 21.023 21.023 0 0 0 -21-21zm0 34a13 13 0 1 1 13-13 13.015 13.015 0 0 1 -13 13z" fill="#c5e4ef" data-original="#9bc9ff" style="" class=""/><circle cx="32" cy="32" fill="#c5e4ef" r="5" data-original="#9bc9ff" style="" class=""/><g fill="#1e81ce"><path d="m32 2a30 30 0 1 0 30 30 30.034 30.034 0 0 0 -30-30zm1 57.975v-2.975a1 1 0 0 0 -2 0v2.975a28.027 28.027 0 0 1 -26.975-26.975h2.975a1 1 0 0 0 0-2h-2.975a28.027 28.027 0 0 1 26.975-26.975v2.975a1 1 0 0 0 2 0v-2.975a28.027 28.027 0 0 1 26.975 26.975h-2.975a1 1 0 0 0 0 2h2.975a28.027 28.027 0 0 1 -26.975 26.975z" fill="#39b2dd" data-original="#1e81ce" style="" class=""/><path d="m32 10a22 22 0 1 0 22 22 22.025 22.025 0 0 0 -22-22zm0 42a20 20 0 1 1 20-20 20.023 20.023 0 0 1 -20 20z" fill="#39b2dd" data-original="#1e81ce" style="" class=""/><path d="m32 18a14 14 0 1 0 14 14 14.015 14.015 0 0 0 -14-14zm0 26a12 12 0 1 1 12-12 12.013 12.013 0 0 1 -12 12z" fill="#39b2dd" data-original="#1e81ce" style="" class=""/><path d="m32 26a6 6 0 1 0 6 6 6.006 6.006 0 0 0 -6-6zm0 10a4 4 0 1 1 4-4 4 4 0 0 1 -4 4z" fill="#39b2dd" data-original="#1e81ce" style="" class=""/></g></g></g></svg>
