<?xml version="1.0"?>
<svg xmlns="http://www.w3.org/2000/svg" xmlns:xlink="http://www.w3.org/1999/xlink" xmlns:svgjs="http://svgjs.com/svgjs" version="1.1" width="512" height="512" x="0" y="0" viewBox="0 0 512 512" style="enable-background:new 0 0 512 512" xml:space="preserve" class=""><g><g xmlns="http://www.w3.org/2000/svg"><g><g fill="#4980ac"><path d="m412.638 184.316h-45.248v-56.163h45.248c11.068 0 20.041 8.972 20.041 20.041v16.082c0 11.068-8.973 20.04-20.041 20.04z" fill="#e3e7f2" data-original="#4980ac" style="" class=""/><path d="m99.362 184.316h45.248v-56.163h-45.248c-11.068 0-20.041 8.972-20.041 20.041v16.082c.001 11.068 8.973 20.04 20.041 20.04z" fill="#e3e7f2" data-original="#4980ac" style="" class=""/></g><path d="m131.142 199.106v-90.956c0-55.588 45.063-100.65 100.65-100.65h48.417c55.588 0 100.65 45.063 100.65 100.65v90.956c0 30.52-24.742 55.262-55.262 55.262h-139.194c-30.52 0-55.261-24.742-55.261-55.262z" fill="#e3e7f2" data-original="#cde2ff" style="" class=""/><path d="m280.209 7.5h-25c55.588 0 100.65 45.063 100.65 100.65v90.956c0 30.52-24.741 55.262-55.262 55.262h25c30.52 0 55.262-24.742 55.262-55.262v-90.956c0-55.587-45.063-100.65-100.65-100.65z" fill="#a4c2f7" data-original="#9ec8fc" style="" class=""/><path d="m345.385 192.635v-128.663c0-19.459-9.341-36.734-23.782-47.593-12.626-5.704-26.64-8.88-41.395-8.88h-48.417c-14.755 0-28.769 3.175-41.395 8.88-14.44 10.859-23.782 28.134-23.782 47.593v128.663c0 12.263 9.941 22.204 22.204 22.204h134.361c12.265.001 22.206-9.94 22.206-22.204z" fill="#e3e7f2" data-original="#4980ac" style="" class=""/><path d="m345.367 63.375c-.19-19.213-9.472-36.248-23.764-46.995-12.626-5.704-26.64-8.88-41.395-8.88h-25c39.501 0 73.681 22.758 90.159 55.875z" fill="#a4c2f7" data-original="#407194" style="" class=""/><g fill="#ffc269"><path d="m218.97 121.037h-1.979c-8.23 0-14.902 6.672-14.902 14.902v13.368c0 8.23 6.672 14.902 14.902 14.902h1.979c8.23 0 14.902-6.672 14.902-14.902v-13.368c0-8.23-6.672-14.902-14.902-14.902z" fill="#a4c2f7" data-original="#ffc269" style="" class=""/><path d="m295.01 121.037h-1.979c-8.23 0-14.902 6.672-14.902 14.902v13.368c0 8.23 6.672 14.902 14.902 14.902h1.979c8.23 0 14.902-6.672 14.902-14.902v-13.368c0-8.23-6.672-14.902-14.902-14.902z" fill="#a4c2f7" data-original="#ffc269" style="" class=""/></g><path d="m422.937 504.5h-25.771c-2.612 0-4.784-2.01-4.985-4.615l-9.307-120.364 35.482-4.11 9.567 123.703c.224 2.905-2.072 5.386-4.986 5.386z" fill="#e3e7f2" data-original="#cde2ff" style="" class=""/><path d="m129.126 379.521-9.307 120.364c-.201 2.604-2.373 4.615-4.985 4.615h-25.771c-2.913 0-5.21-2.481-4.985-5.386l9.567-123.703z" fill="#e3e7f2" data-original="#cde2ff" style="" class=""/><path d="m219.832 254.368h72.336v66.184h-72.336z" fill="#e3e7f2" data-original="#4980ac" style="" class=""/><path d="m267.168 254.368h25v66.184h-25z" fill="#a4c2f7" data-original="#407194" style="" class=""/><path d="m405.942 401.008h-50.99v-56.235h50.99c15.529 0 28.118 12.589 28.118 28.118s-12.589 28.117-28.118 28.117z" fill="#e3e7f2" data-original="#4980ac" style="" class=""/><path d="m405.942 344.773h-25c15.529 0 28.118 12.589 28.118 28.118s-12.589 28.118-28.118 28.118h25c15.529 0 28.118-12.589 28.118-28.118s-12.589-28.118-28.118-28.118z" fill="#a4c2f7" data-original="#407194" style="" class=""/><path d="m106.058 401.008h50.99v-56.235h-50.99c-15.529 0-28.118 12.589-28.118 28.118.001 15.528 12.589 28.117 28.118 28.117z" fill="#e3e7f2" data-original="#4980ac" style="" class=""/><path d="m360.477 330.437c-24.899-16.403-62.456-26.85-104.476-26.85s-79.577 10.447-104.476 26.85c-4.092 2.696-6.562 7.258-6.562 12.159v60.589c0 4.906 2.478 9.469 6.575 12.167 4.001 2.635 8.329 5.115 12.949 7.424 17.539 8.761 28.749 26.54 28.749 46.145v30.579c0 2.761 2.239 5 5 5h115.53c2.761 0 5-2.239 5-5v-30.579c0-19.605 11.211-37.385 28.749-46.146 4.621-2.308 8.949-4.789 12.949-7.424 4.097-2.698 6.575-7.261 6.575-12.167v-60.589c0-4.899-2.47-9.462-6.562-12.158z" fill="#e3e7f2" data-original="#cde2ff" style="" class=""/><path d="m360.477 330.437c-24.899-16.403-62.456-26.85-104.476-26.85-4.215 0-8.383.11-12.5.316 36.925 1.845 69.575 11.776 91.976 26.534 4.092 2.696 6.562 7.259 6.562 12.159v60.589c0 4.906-2.478 9.469-6.575 12.167-4.001 2.635-8.329 5.115-12.949 7.424-17.539 8.761-28.749 26.54-28.749 46.146v30.578c0 2.761-2.239 5-5 5h25c2.761 0 5-2.239 5-5v-30.579c0-19.605 11.211-37.385 28.749-46.146 4.621-2.308 8.949-4.789 12.949-7.424 4.097-2.698 6.575-7.261 6.575-12.167v-60.589c0-4.899-2.47-9.462-6.562-12.158z" fill="#a4c2f7" data-original="#9ec8fc" style="" class=""/><path d="m223.205 375.389 25.693 40.134c3.317 5.182 10.888 5.182 14.205 0l25.693-40.134c3.594-5.613-.438-12.98-7.103-12.98h-51.386c-6.665-.001-10.696 7.366-7.102 12.98z" fill="#e3e7f2" data-original="#75cff9" style="" class=""/></g><g><path d="m216.991 171.709h1.979c12.353 0 22.402-10.05 22.402-22.402v-13.367c0-12.353-10.049-22.402-22.402-22.402h-1.979c-12.353 0-22.402 10.049-22.402 22.402v13.367c0 12.352 10.049 22.402 22.402 22.402zm-7.402-35.77c0-4.082 3.32-7.402 7.402-7.402h1.979c4.082 0 7.402 3.32 7.402 7.402v13.367c0 4.082-3.32 7.402-7.402 7.402h-1.979c-4.082 0-7.402-3.321-7.402-7.402z" fill="#428dff" data-original="#000000" style="" class=""/><path d="m293.031 171.709h1.979c12.353 0 22.401-10.05 22.401-22.402v-13.367c0-12.353-10.049-22.402-22.401-22.402h-1.979c-12.353 0-22.401 10.049-22.401 22.402v13.367c-.001 12.352 10.048 22.402 22.401 22.402zm-7.402-35.77c0-4.082 3.32-7.402 7.401-7.402h1.979c4.081 0 7.401 3.32 7.401 7.402v13.367c0 4.082-3.32 7.402-7.401 7.402h-1.979c-4.081 0-7.401-3.321-7.401-7.402z" fill="#428dff" data-original="#000000" style="" class=""/><path d="m427.851 400.943c8.336-6.525 13.709-16.67 13.709-28.052 0-19.641-15.979-35.62-35.619-35.62h-32.054c-1.318-5.312-4.584-10-9.284-13.096-17.392-11.457-39.934-19.771-64.933-24.262v-38.045h25.927c8.954 0 17.604-1.848 25.712-5.494 3.778-1.698 5.464-6.138 3.766-9.916-1.699-3.778-6.141-5.463-9.916-3.765-6.161 2.77-12.742 4.174-19.562 4.174h-139.193c-26.336 0-47.762-21.426-47.762-47.762v-90.955c0-23.135 8.481-44.325 22.493-60.631-1.326 5.301-2.019 10.815-2.019 16.453v128.663c0 16.379 13.325 29.705 29.704 29.705h134.361c16.379 0 29.704-13.325 29.704-29.705v-128.663c0-5.637-.693-11.151-2.018-16.452 14.012 16.306 22.492 37.496 22.492 60.63v90.956c0 8.11-2.066 16.118-5.977 23.156-2.011 3.621-.706 8.187 2.915 10.198 3.619 2.011 8.186.706 10.198-2.914 5.145-9.261 7.863-19.787 7.863-30.44v-7.286h24.281c15.186 0 27.54-12.354 27.54-27.54v-16.09c0-13.854-10.285-25.347-23.62-27.256v-47.604c0-4.142-3.357-7.5-7.5-7.5s-7.5 3.358-7.5 7.5v47.32h-13.201v-12.5c.001-59.908-48.778-108.15-108.15-108.15h-48.417c-59.984 0-108.15 48.886-108.15 108.15v12.5h-13.201v-47.32c0-4.142-3.358-7.5-7.5-7.5s-7.5 3.358-7.5 7.5v47.604c-13.335 1.909-23.62 13.402-23.62 27.256v16.09c0 15.186 12.354 27.54 27.54 27.54h24.281v7.286c0 34.607 28.155 62.762 62.762 62.762h25.929v38.044c-25 4.49-47.542 12.805-64.934 24.262-4.699 3.096-7.966 7.783-9.284 13.096h-32.054c-19.641 0-35.62 15.979-35.62 35.62 0 11.382 5.373 21.527 13.709 28.052l-3.117 40.299c-.319 4.129 2.77 7.736 6.899 8.056.197.015.392.023.586.023 3.879 0 7.165-2.989 7.469-6.922l2.681-34.665c5.809 1.231 9.002.603 20.699.776l-6.845 88.491h-20.755l1.532-19.792c.32-4.13-2.769-7.737-6.899-8.056-4.113-.316-7.737 2.769-8.056 6.899l-1.739 22.468c-.574 7.26 5.174 13.481 12.456 13.481h25.77c6.495 0 11.971-5.067 12.467-11.531l7.115-91.959h3.702c1.32 5.315 4.59 10.006 9.297 13.106 4.235 2.789 8.853 5.437 13.723 7.87 15.174 7.58 24.601 22.691 24.601 39.436v30.578c0 6.893 5.607 12.5 12.5 12.5h115.53c6.893 0 12.5-5.607 12.5-12.5v-30.579c0-16.745 9.427-31.856 24.602-39.436 4.873-2.434 9.489-5.082 13.723-7.87 4.707-3.1 7.977-7.791 9.297-13.106h3.702l7.114 91.956c.497 6.469 5.974 11.535 12.467 11.535h25.771c7.325 0 13.028-6.267 12.457-13.468zm-15.211-265.293c6.915 0 12.54 5.625 12.54 12.54v16.09c0 6.915-5.625 12.54-12.54 12.54h-24.281v-41.17zm-132.432-120.65c13.365 0 26.08 2.835 37.581 7.927 12.775 9.94 20.096 24.841 20.096 41.046v128.663c0 8.108-6.597 14.705-14.704 14.705h-134.361c-8.108 0-14.704-6.597-14.704-14.705v-128.664c0-16.205 7.321-31.106 20.096-41.046 11.501-5.091 24.215-7.926 37.58-7.926zm-180.848 161.82c-6.915 0-12.54-5.625-12.54-12.54v-16.09c0-6.915 5.625-12.54 12.54-12.54h24.281v41.17zm327.2 196.07c0 11.37-9.25 20.62-20.619 20.62h-31.401v-41.24h31.401c11.369 0 20.619 9.25 20.619 20.62zm-199.228-111.022h57.338v35.847c-18.262-2.089-37.681-2.248-57.338 0zm-141.892 111.022c0-11.37 9.25-20.62 20.62-20.62h31.401v41.24h-31.401c-11.37 0-20.62-9.25-20.62-20.62zm274.099 30.295c0 2.376-1.196 4.583-3.2 5.903-3.737 2.461-7.834 4.809-12.176 6.978-20.292 10.136-32.898 30.389-32.898 52.855v28.079h-110.53v-28.079c0-22.466-12.605-42.719-32.898-52.855-4.34-2.168-8.437-4.516-12.175-6.978-2.004-1.319-3.2-3.526-3.2-5.903v-60.589c0-2.376 1.192-4.581 3.188-5.896 49.96-32.912 146.786-35.517 200.701 0 1.996 1.315 3.188 3.52 3.188 5.896zm39.94 93.815-6.846-88.49c11.76-.174 14.875.458 20.699-.776l6.903 89.266z" fill="#428dff" data-original="#000000" style="" class=""/><path d="m281.693 354.908h-51.385c-5.826 0-11.182 3.175-13.978 8.285-2.796 5.111-2.582 11.333.559 16.239l25.693 40.133c2.943 4.598 7.96 7.343 13.419 7.343s10.476-2.745 13.419-7.343l25.694-40.135c3.14-4.906 3.354-11.128.557-16.239s-8.153-8.283-13.978-8.283zm.787 16.437-25.693 40.134c-.068.106-.275.43-.786.43s-.718-.324-.786-.431l-25.693-40.134c-.082-.127-.298-.466-.033-.951s.667-.485.819-.485h51.385c.151 0 .554 0 .819.486.266.485.049.824-.032.951z" fill="#428dff" data-original="#000000" style="" class=""/></g></g></g></svg>
