<?xml version="1.0"?>
<svg xmlns="http://www.w3.org/2000/svg" xmlns:xlink="http://www.w3.org/1999/xlink" xmlns:svgjs="http://svgjs.com/svgjs" version="1.1" width="512" height="512" x="0" y="0" viewBox="0 0 512 512" style="enable-background:new 0 0 512 512" xml:space="preserve" class=""><g><linearGradient xmlns="http://www.w3.org/2000/svg" id="a" gradientUnits="userSpaceOnUse" x1="0" x2="512" y1="256" y2="256"><stop stop-opacity="1" stop-color="#00f1ff" offset="0"/><stop stop-opacity="1" stop-color="#09c6d9" offset="1"/></linearGradient><path xmlns="http://www.w3.org/2000/svg" d="m512 256c0 141.386719-114.613281 256-256 256s-256-114.613281-256-256 114.613281-256 256-256 256 114.613281 256 256zm0 0" fill="url(#a)" data-original="url(#a)" style="" class=""/><g xmlns="http://www.w3.org/2000/svg" fill="#fff"><path d="m399.078125 168.765625h-34.726563c-8.285156 0-15 6.71875-15 15 0 8.285156 6.714844 15 15 15h20.042969l-123.707031 123.707031-45.304688-45.300781c-2.8125-2.816406-6.628906-4.394531-10.605468-4.394531-.035156 0-.074219 0-.109375 0-4.015625.027344-7.855469 1.667968-10.652344 4.546875l-58.175781 59.90625c-5.769532 5.941406-5.632813 15.4375.3125 21.210937 2.914062 2.832032 6.683594 4.238282 10.449218 4.238282 3.910157 0 7.820313-1.519532 10.761719-4.550782l47.570313-48.984375 45.148437 45.148438c2.8125 2.8125 6.628907 4.394531 10.605469 4.394531 3.980469 0 7.792969-1.582031 10.605469-4.394531l133.621093-133.621094v17.964844c0 8.28125 6.714844 15 15 15 8.28125 0 15-6.71875 15-15v-34.035157c0-19.757812-16.074218-35.835937-35.835937-35.835937zm0 0" fill="#ffffff" data-original="#ffffff" style="" class=""/><path d="m419.914062 279.199219c-8.285156 0-15 6.714843-15 15v84.042969c0 14.707031-11.964843 26.671874-26.671874 26.671874h-244.484376c-14.707031 0-26.671874-11.964843-26.671874-26.671874v-179.476563h78.351562v27.371094c0 8.28125 6.714844 15 15 15s15-6.71875 15-15v-78.488281c0-22.367188 18.195312-40.5625 40.5625-40.5625s40.566406 18.195312 40.566406 40.5625v21.117187h-39.871094c-8.285156 0-15 6.71875-15 15 0 8.285156 6.714844 15 15 15h39.871094v27.371094c0 8.28125 6.714844 15 15 15 8.28125 0 15-6.71875 15-15v-78.488281c0-38.90625-31.65625-70.5625-70.566406-70.5625-38.90625 0-70.5625 31.65625-70.5625 70.5625v21.117187h-93.351562c-8.285157 0-15 6.71875-15 15v194.476563c0 31.25 25.425781 56.671874 56.671874 56.671874h244.484376c31.246093 0 56.671874-25.421874 56.671874-56.671874v-84.042969c0-8.285157-6.714843-15-15-15zm0 0" fill="#ffffff" data-original="#ffffff" style="" class=""/></g></g></svg>
