<?xml version="1.0"?>
<svg xmlns="http://www.w3.org/2000/svg" xmlns:xlink="http://www.w3.org/1999/xlink" xmlns:svgjs="http://svgjs.com/svgjs" version="1.1" width="512" height="512" x="0" y="0" viewBox="0 0 64 64" style="enable-background:new 0 0 512 512" xml:space="preserve" class=""><g><g xmlns="http://www.w3.org/2000/svg"><g><g><path d="m46 2h-42c-1.1 0-2 .9-2 2v30c0 1.1.9 2 2 2h12v-6c0-1.105.895-2 2-2h30v-24c0-1.1-.9-2-2-2z" fill="#c5e4ef" data-original="#ffeaa7" style="" class=""/></g><g><path d="m29.54 12h-14.08c.34-.59.54-1.27.54-2s-.2-1.41-.54-2h14.08c-.72 1.23-.72 2.77 0 4z" fill="#c5e4ef" data-original="#ccd1d9" style="" class=""/></g><g><path d="m14 13.46v12.54h-4v-12.54c.59.34 1.27.54 2 .54s1.41-.2 2-.54z" fill="#c5e4ef" data-original="#ccd1d9" style="" class=""/></g><g><path d="m16 26 .8 2.4c-.48.37-.8.95-.8 1.6v2h-10l2-6h2 4z" fill="#ffffff" data-original="#aab2bd" style="" class=""/></g><g><path d="m15.46 8c.34.59.54 1.27.54 2s-.2 1.41-.54 2c-.35.61-.85 1.11-1.46 1.46-.59.34-1.27.54-2 .54s-1.41-.2-2-.54c-1.2-.69-2-1.98-2-3.46 0-2.21 1.79-4 4-4 1.48 0 2.77.8 3.46 2z" fill="#ffffff" data-original="#ff826e" style="" class=""/></g><g><path d="m62 30v30c0 1.1-.9 2-2 2h-42c-1.1 0-2-.9-2-2v-24-4-2c0-.65.32-1.23.8-1.6.34-.25.75-.4 1.2-.4h30 12c1.1 0 2 .9 2 2z" fill="#c5e4ef" data-original="#f0d0b4" style="" class=""/></g><g><path d="m54 54h4v4h-4z" fill="#ffffff" data-original="#b4dd7f" style="" class=""/></g><g><path d="m46 54h4v4h-4z" fill="#ffffff" data-original="#b4dd7f" style="" class=""/></g><g><path d="m38 54h4v4h-4z" fill="#ffffff" data-original="#b4dd7f" style="" class=""/></g><g><path d="m43.54 38h-14.08c.34-.59.54-1.27.54-2s-.2-1.41-.54-2h14.08c-.72 1.23-.72 2.77 0 4z" fill="#c5e4ef" data-original="#ccd1d9" style="" class=""/></g><g><path d="m28 39.46v12.54h-4v-12.54c.59.34 1.27.54 2 .54s1.41-.2 2-.54z" fill="#c5e4ef" data-original="#ccd1d9" style="" class=""/></g><g><path d="m30 52 2 6h-12l2-6h2 4z" fill="#ffffff" data-original="#aab2bd" style="" class=""/></g><g><path d="m29.46 34c.34.59.54 1.27.54 2s-.2 1.41-.54 2c-.35.61-.85 1.11-1.46 1.46-.59.34-1.27.54-2 .54s-1.41-.2-2-.54c-1.2-.69-2-1.98-2-3.46 0-2.21 1.79-4 4-4 1.48 0 2.77.8 3.46 2z" fill="#ffffff" data-original="#fcd770" style="" class=""/></g></g><g><path d="m29 51v-11.026c.369-.279.695-.606.974-.974h13.05c.139.183.274.37.44.535.975.975 2.255 1.462 3.536 1.462s2.561-.487 3.536-1.462l-1.414-1.414c-1.17 1.169-3.073 1.17-4.243 0-.567-.566-.879-1.319-.879-2.121s.312-1.555.878-2.121c1.17-1.17 3.073-1.17 4.243 0l1.414-1.414c-1.949-1.949-5.122-1.949-7.071 0-.166.166-.301.352-.44.535h-13.05c-.914-1.207-2.348-2-3.974-2-2.757 0-5 2.243-5 5 0 1.627.793 3.061 2 3.974v11.026h-1.721l-2.667 8h14.774l-2.667-8zm13.101-16c-.066.326-.101.66-.101 1s.035.674.101 1h-11.202c.066-.323.101-.658.101-1s-.035-.677-.101-1zm-16.101-2c1.654 0 3 1.346 3 3s-1.346 3-3 3-3-1.346-3-3 1.346-3 3-3zm-1 7.899c.323.066.658.101 1 .101s.677-.035 1-.101v10.101h-2zm-3.613 16.101 1.333-4h6.559l1.333 4z" fill="#39b2dd" data-original="#000000" style="" class=""/><path d="m60 27h-11v-23c0-1.654-1.346-3-3-3h-42c-1.654 0-3 1.346-3 3v30c0 1.654 1.346 3 3 3h11v23c0 1.654 1.346 3 3 3h42c1.654 0 3-1.346 3-3v-30c0-1.654-1.346-3-3-3zm-56 8c-.551 0-1-.448-1-1v-30c0-.552.449-1 1-1h42c.551 0 1 .448 1 1v23h-29c-.203 0-.401.021-.593.06l-.686-2.06h-1.721v-11.026c.369-.279.695-.606.974-.974h13.05c.139.183.274.37.44.535.975.975 2.255 1.462 3.536 1.462s2.561-.487 3.536-1.462l-1.414-1.414c-1.17 1.169-3.073 1.17-4.243 0-.567-.566-.879-1.319-.879-2.121s.312-1.555.878-2.121c1.17-1.17 3.073-1.17 4.243 0l1.414-1.414c-1.949-1.949-5.122-1.949-7.071 0-.165.165-.301.352-.44.535h-13.05c-.913-1.207-2.347-2-3.974-2-2.757 0-5 2.243-5 5 0 1.627.793 3.061 2 3.974v11.026h-1.721l-2.667 8h10.388v2zm8-22c-1.654 0-3-1.346-3-3s1.346-3 3-3 3 1.346 3 3-1.346 3-3 3zm0 2c.342 0 .677-.035 1-.101v10.101h-2v-10.101c.323.066.658.101 1 .101zm3.279 12 .381 1.145c-.406.512-.66 1.151-.66 1.855v1h-7.613l1.333-4zm1.62-18h11.202c-.066.326-.101.66-.101 1s.035.674.101 1h-11.202c.066-.323.101-.658.101-1s-.035-.677-.101-1zm44.101 51c0 .552-.449 1-1 1h-42c-.551 0-1-.448-1-1v-30c0-.552.449-1 1-1h42c.551 0 1 .448 1 1z" fill="#39b2dd" data-original="#000000" style="" class=""/><path d="m53 59h6v-6h-6zm2-4h2v2h-2z" fill="#39b2dd" data-original="#000000" style="" class=""/><path d="m45 59h6v-6h-6zm2-4h2v2h-2z" fill="#39b2dd" data-original="#000000" style="" class=""/><path d="m37 59h6v-6h-6zm2-4h2v2h-2z" fill="#39b2dd" data-original="#000000" style="" class=""/><path d="m37 49h22v2h-22z" fill="#39b2dd" data-original="#000000" style="" class=""/><path d="m37 45h22v2h-22z" fill="#39b2dd" data-original="#000000" style="" class=""/><circle cx="26" cy="36" r="1" fill="#39b2dd" data-original="#000000" style="" class=""/><circle cx="12" cy="10" r="1" fill="#39b2dd" data-original="#000000" style="" class=""/><path d="m25 17h20v2h-20z" fill="#39b2dd" data-original="#000000" style="" class=""/><path d="m25 21h20v2h-20z" fill="#39b2dd" data-original="#000000" style="" class=""/><path d="m39 5h6v2h-6z" fill="#39b2dd" data-original="#000000" style="" class=""/><path d="m39 9h6v2h-6z" fill="#39b2dd" data-original="#000000" style="" class=""/><path d="m39 13h6v2h-6z" fill="#39b2dd" data-original="#000000" style="" class=""/><path d="m53 31h6v2h-6z" fill="#39b2dd" data-original="#000000" style="" class=""/><path d="m53 35h6v2h-6z" fill="#39b2dd" data-original="#000000" style="" class=""/><path d="m53 39h6v2h-6z" fill="#39b2dd" data-original="#000000" style="" class=""/></g></g></g></svg>
