<?xml version="1.0"?>
<svg xmlns="http://www.w3.org/2000/svg" xmlns:xlink="http://www.w3.org/1999/xlink" xmlns:svgjs="http://svgjs.com/svgjs" version="1.1" width="512" height="512" x="0" y="0" viewBox="0 0 512 512" style="enable-background:new 0 0 512 512" xml:space="preserve" class=""><g><linearGradient xmlns="http://www.w3.org/2000/svg" id="a" gradientUnits="userSpaceOnUse" x1="0" x2="512" y1="256" y2="256"><stop stop-opacity="1" stop-color="#00f1ff" offset="0"/><stop stop-opacity="1" stop-color="#00d8ff" offset="0.231"/><stop stop-opacity="1" stop-color="#00c0ff" offset="0.5138"/><stop stop-opacity="1" stop-color="#00b2ff" offset="0.7773"/><stop stop-opacity="1" stop-color="#09c6d9" offset="1"/></linearGradient><path xmlns="http://www.w3.org/2000/svg" d="m512 256c0 141.386719-114.613281 256-256 256s-256-114.613281-256-256 114.613281-256 256-256 256 114.613281 256 256zm0 0" fill="url(#a)" data-original="url(#a)" style="" class=""/><g xmlns="http://www.w3.org/2000/svg" fill="#fff"><path d="m128.917969 169.851562c22.570312 0 40.933593-18.363281 40.933593-40.933593 0-22.574219-18.363281-40.9375-40.933593-40.9375-22.574219 0-40.9375 18.363281-40.9375 40.9375 0 22.570312 18.363281 40.933593 40.9375 40.933593zm0-51.871093c6.027343 0 10.933593 4.90625 10.933593 10.9375s-4.90625 10.933593-10.933593 10.933593c-6.03125 0-10.9375-4.902343-10.9375-10.933593s4.90625-10.9375 10.9375-10.9375zm0 0" fill="#ffffff" data-original="#ffffff" style="" class=""/><path d="m383.082031 178.753906h-5.792969c-5.558593 0-10.660156 3.074219-13.261718 7.988282l-32.125 60.742187h-151.804688l-32.125-60.742187c-2.601562-4.914063-7.703125-7.988282-13.261718-7.988282h-5.792969c-22.574219 0-40.9375 18.363282-40.9375 40.9375v76.507813c0 17.34375 10.84375 32.191406 26.105469 38.144531 2.226562 1.335938 4.816406 2.117188 7.59375 2.136719 1.042968.1875 2.097656.347656 3.171874.453125 4.539063 1.328125 7.867188 5.523437 7.867188 10.488281v61.597656c0 8.285157 6.714844 15 15 15s15-6.714843 15-15v-61.597656c0-3.550781-.457031-6.996094-1.3125-10.285156h23.183594v45.945312c0 22.574219 18.363281 40.9375 40.9375 40.9375h61.59375c22.574218 0 40.9375-18.363281 40.9375-40.9375v-45.945312h22.53125c-.855469 3.289062-1.308594 6.734375-1.308594 10.285156v61.597656c0 8.285157 6.714844 15 15 15 8.28125 0 15-6.714843 15-15v-61.597656c0-4.964844 3.328125-9.160156 7.867188-10.488281 1.070312-.105469 2.125-.261719 3.171874-.453125 2.777344-.019531 5.367188-.800781 7.589844-2.136719 15.261719-5.953125 26.109375-20.800781 26.109375-38.144531 0-8.285157-6.71875-15-15-15-8.285156 0-15 6.714843-15 15 0 4.964843-3.332031 9.160156-7.871093 10.492187-1.0625.105469-2.105469.257813-3.140626.445313h-54.949218v-29.652344h12.878906c5.558594 0 10.660156-3.074219 13.261719-7.988281l31.902343-60.316406c4.566407 1.3125 7.917969 5.527343 7.917969 10.511718v12.105469c0 8.28125 6.714844 15 15 15 8.28125 0 15-6.71875 15-15v-12.105469c0-22.574218-18.363281-40.9375-40.9375-40.9375zm-254.089843 128.382813c-1.035157-.1875-2.082032-.339844-3.140626-.445313-4.542968-1.332031-7.871093-5.527344-7.871093-10.492187v-76.507813c0-4.984375 3.351562-9.199218 7.917969-10.511718l31.902343 60.316406c2.597657 4.914062 7.703125 7.988281 13.261719 7.988281h13.527344v29.648437h-55.597656zm169.066406 75.945312c0 6.03125-4.90625 10.9375-10.9375 10.9375h-61.59375c-6.03125 0-10.9375-4.90625-10.9375-10.9375v-105.597656h83.46875zm0 0" fill="#ffffff" data-original="#ffffff" style="" class=""/><path d="m383.082031 169.851562c22.574219 0 40.9375-18.363281 40.9375-40.933593 0-22.574219-18.363281-40.9375-40.9375-40.9375-22.570312 0-40.933593 18.363281-40.933593 40.9375 0 22.570312 18.363281 40.933593 40.933593 40.933593zm0-51.871093c6.03125 0 10.9375 4.90625 10.9375 10.9375s-4.90625 10.933593-10.9375 10.933593-10.933593-4.902343-10.933593-10.933593 4.90625-10.9375 10.933593-10.9375zm0 0" fill="#ffffff" data-original="#ffffff" style="" class=""/><path d="m195.902344 198.066406c-2.824219 5.640625-1.8125 12.445313 2.523437 17.023438 4.335938 4.582031 11.078125 5.960937 16.863281 3.445312l31.507813-13.671875h18.40625l31.507813 13.671875c1.925781.835938 3.957031 1.242188 5.96875 1.242188 4.035156 0 8-1.628906 10.894531-4.6875 4.339843-4.578125 5.347656-11.386719 2.523437-17.023438l-7.332031-14.652344c7-9.261718 10.863281-20.605468 10.863281-32.453124v-9.078126c0-29.722656-24.179687-53.902343-53.902344-53.902343h-19.453124c-29.722657 0-53.902344 24.179687-53.902344 53.902343v9.078126c0 11.847656 3.867187 23.191406 10.863281 32.453124zm26.46875-56.179687c0-13.183594 10.722656-23.90625 23.902344-23.90625h19.453124c13.179688 0 23.902344 10.722656 23.902344 23.90625v9.078125c0 7.085937-3.125 13.769531-8.574218 18.335937-2.410157 2.015625-4.046876 4.65625-4.835938 7.519531-2.554688-1.503906-5.570312-2.261718-8.707031-2.03125-.722657.050782-1.289063.078126-1.785157.078126h-22.046874c-2.054688 0-4.085938.421874-5.972657 1.238281l-1.898437.824219c-.777344-2.90625-2.425782-5.589844-4.863282-7.628907-5.449218-4.566406-8.574218-11.25-8.574218-18.335937zm0 0" fill="#ffffff" data-original="#ffffff" style="" class=""/></g></g></svg>
