<?xml version="1.0"?>
<svg xmlns="http://www.w3.org/2000/svg" xmlns:xlink="http://www.w3.org/1999/xlink" xmlns:svgjs="http://svgjs.com/svgjs" version="1.1" width="512" height="512" x="0" y="0" viewBox="0 0 480 480" style="enable-background:new 0 0 512 512" xml:space="preserve" class=""><g><path xmlns="http://www.w3.org/2000/svg" d="m408 48-16 32 16 32h-112l40-40v-24zm0 0" fill="#c5e4ef" data-original="#bddbff" style="" class=""/><path xmlns="http://www.w3.org/2000/svg" d="m336 72-40 40v-40zm0 0" fill="#c5e4ef" data-original="#bddbff" style="" class=""/><path xmlns="http://www.w3.org/2000/svg" d="m336 48v24h-96v-64h96zm0 0" fill="#c5e4ef" data-original="#bddbff" style="" class=""/><path xmlns="http://www.w3.org/2000/svg" d="m240 112 59.199219 98.640625-27.199219 29.359375-32-32-32 32-27.199219-29.359375zm0 0" fill="#c5e4ef" data-original="#bddbff" style="" class=""/><path xmlns="http://www.w3.org/2000/svg" d="m436.640625 406.320312-23.921875-6.480468-17.839844-4.878906-34.878906 29.039062-34.878906-29.039062-41.761719 11.359374c-20.859375 5.730469-35.328125 24.683594-35.359375 46.320313v19.359375h224v-19.359375c-.03125-21.636719-14.5-40.589844-35.359375-46.320313zm0 0" fill="#c5e4ef" data-original="#bddbff" style="" class=""/><path xmlns="http://www.w3.org/2000/svg" d="m196.640625 406.320312-41.761719-11.359374-34.878906 29.039062-34.878906-29.039062-17.839844 4.878906-23.921875 6.480468c-20.859375 5.730469-35.328125 24.683594-35.359375 46.320313v19.359375h224v-19.359375c-.03125-21.636719-14.5-40.589844-35.359375-46.320313zm0 0" fill="#c5e4ef" data-original="#bddbff" style="" class=""/><path xmlns="http://www.w3.org/2000/svg" d="m360 232c-30.90625.054688-55.945312 25.09375-56 56v24h16c20.117188-.109375 39.042969-9.570312 51.199219-25.601562l4.800781-6.398438 3.441406 13.839844c2.710938 10.652344 12.285156 18.121094 23.277344 18.160156h13.28125v-24c0-30.929688-25.070312-56-56-56zm0 0" fill="#c5e4ef" data-original="#bddbff" style="" class=""/><path xmlns="http://www.w3.org/2000/svg" d="m158.640625 247.519531c-10.359375-10.019531-24.226563-15.589843-38.640625-15.519531-30.929688 0-56 25.070312-56 56v24h16c20.140625-.011719 39.105469-9.492188 51.199219-25.601562l4.800781-6.398438.960938 3.761719 2.480468 10.078125c2.710938 10.652344 12.285156 18.121094 23.277344 18.160156h13.28125v-24c.03125-15.308594-6.246094-29.953125-17.359375-40.480469zm0 0" fill="#c5e4ef" data-original="#bddbff" style="" class=""/><g xmlns="http://www.w3.org/2000/svg" fill="#3d9ae2"><path d="m438.742188 398.601562-46.742188-12.714843v-12c15.027344-10.445313 23.988281-27.585938 24-45.886719v-8c4.417969 0 8-3.582031 8-8v-24c0-35.347656-28.652344-64-64-64s-64 28.652344-64 64v24c0 4.417969 3.582031 8 8 8v8c.011719 18.300781 8.976562 35.4375 24 45.886719v12l-46.769531 12.722656c-24.300781 6.726563-41.15625 28.8125-41.230469 54.03125-.078125-25.226563-16.941406-47.316406-41.257812-54.039063l-46.742188-12.714843v-12c15.027344-10.445313 23.988281-27.585938 24-45.886719v-8c4.417969 0 8-3.582031 8-8v-24c0-35.347656-28.652344-64-64-64s-64 28.652344-64 64v24c0 4.417969 3.582031 8 8 8v8c.011719 18.300781 8.976562 35.4375 24 45.886719v12l-46.769531 12.722656c-24.300781 6.726563-41.1562502 28.8125-41.230469 54.03125v19.359375c0 4.417969 3.582031 8 8 8h224c4.417969 0 8-3.582031 8-8 0 4.417969 3.582031 8 8 8h224c4.417969 0 8-3.582031 8-8v-19.359375c-.078125-25.226563-16.941406-47.316406-41.257812-54.039063zm-366.742188-110.601562c0-26.507812 21.492188-48 48-48s48 21.492188 48 48v16h-5.257812c-7.347657.011719-13.761719-4.988281-15.542969-12.121094l-3.445313-13.816406c-.75-2.992188-3.152344-5.289062-6.179687-5.902344-.515625-.109375-1.042969-.160156-1.574219-.160156-2.519531 0-4.890625 1.1875-6.398438 3.199219l-4.800781 6.402343c-10.605469 14.0625-27.183593 22.351563-44.800781 22.398438h-8zm8 40v-8c19.726562-.042969 38.578125-8.132812 52.199219-22.398438 3.902343 12.351563 14.890625 21.117188 27.800781 22.175782v8.222656c0 22.089844-17.910156 40-40 40s-40-17.910156-40-40zm40 56c5.421875-.015625 10.8125-.824219 16-2.398438v10.398438c.027344 2.292969 1.042969 4.460938 2.792969 5.945312l-18.792969 15.65625-18.792969-15.648437c1.75-1.484375 2.769531-3.65625 2.792969-5.953125v-10.398438c5.1875 1.574219 10.578125 2.382813 16 2.398438zm104 80h-24v-24h-16v24h-128v-24h-16v24h-24v-11.359375c.058594-18.015625 12.101562-33.792969 29.464844-38.601563l37.734375-10.261718 31.679687 26.398437c2.96875 2.472657 7.273438 2.472657 10.242188 0l31.679687-26.398437 37.710938 10.253906c17.371093 4.804688 29.421875 20.585938 29.488281 38.609375zm88-176c0-26.507812 21.492188-48 48-48s48 21.492188 48 48v16h-5.257812c-7.347657.011719-13.761719-4.988281-15.542969-12.121094l-3.445313-13.816406c-.75-2.992188-3.152344-5.289062-6.179687-5.902344-.515625-.109375-1.042969-.160156-1.574219-.160156-2.519531 0-4.890625 1.1875-6.398438 3.199219l-4.800781 6.402343c-10.605469 14.0625-27.183593 22.351563-44.800781 22.398438h-8zm8 40v-8c19.726562-.042969 38.578125-8.132812 52.199219-22.398438 3.902343 12.351563 14.890625 21.117188 27.800781 22.175782v8.222656c0 22.089844-17.910156 40-40 40s-40-17.910156-40-40zm40 56c5.421875-.015625 10.8125-.824219 16-2.398438v10.398438c.027344 2.292969 1.042969 4.460938 2.792969 5.945312l-18.792969 15.65625-18.792969-15.648437c1.75-1.484375 2.769531-3.65625 2.792969-5.953125v-10.398438c5.1875 1.574219 10.578125 2.382813 16 2.398438zm104 80h-24v-24h-16v24h-128v-24h-16v24h-24v-11.359375c.058594-18.015625 12.101562-33.792969 29.464844-38.601563l37.734375-10.261718 31.679687 26.398437c2.96875 2.472657 7.273438 2.472657 10.242188 0l31.679687-26.398437 37.710938 10.253906c17.371093 4.804688 29.421875 20.585938 29.488281 38.609375zm0 0" fill="#39b2dd" data-original="#3d9ae2" style="" class=""/><path d="m174.855469 236.121094 7.328125-12.210938 19.953125 21.53125c1.476562 1.589844 3.535156 2.515625 5.703125 2.558594 2.175781.035156 4.273437-.8125 5.816406-2.34375l26.34375-26.34375 26.34375 26.34375c1.5 1.5 3.535156 2.34375 5.65625 2.34375h.160156c2.167969-.042969 4.226563-.96875 5.703125-2.558594l19.953125-21.53125 7.328125 12.210938 13.710938-8.242188-70.855469-118.09375v-29.785156h40v32c0 4.417969 3.582031 8 8 8h112c2.78125.015625 5.367188-1.414062 6.835938-3.773438 1.46875-2.363281 1.605468-5.316406.363281-7.800781l-14.253907-28.425781 14.253907-28.425781c1.242187-2.484375 1.105469-5.4375-.363281-7.800781-1.46875-2.359376-4.054688-3.789063-6.835938-3.773438h-64v-32c0-4.417969-3.582031-8-8-8h-96c-4.417969 0-8 3.582031-8 8v101.785156l-70.855469 118.09375zm96.929687-7.65625-26.128906-26.121094c-3.125-3.121094-8.1875-3.121094-11.3125 0l-26.128906 26.121094-17.453125-18.863282 49.238281-82.050781 49.238281 82.050781zm44.902344-148.464844-12.6875 12.6875v-12.6875zm78.402344-24-10.21875 20.425781c-1.125 2.25-1.125 4.898438 0 7.148438l10.183594 20.425781h-79.742188l26.335938-26.335938c1.507812-1.496093 2.355468-3.539062 2.351562-5.664062v-16zm-147.089844-40h80v48h-80zm0 0" fill="#39b2dd" data-original="#3d9ae2" style="" class=""/><path d="m232 312h16v16h-16zm0 0" fill="#39b2dd" data-original="#3d9ae2" style="" class=""/><path d="m264 312h16v16h-16zm0 0" fill="#39b2dd" data-original="#3d9ae2" style="" class=""/><path d="m200 312h16v16h-16zm0 0" fill="#39b2dd" data-original="#3d9ae2" style="" class=""/><path d="m32 96h24v-16h-32c-4.417969 0-8 3.582031-8 8v192h16zm0 0" fill="#39b2dd" data-original="#3d9ae2" style="" class=""/><path d="m72 80h16v16h-16zm0 0" fill="#39b2dd" data-original="#3d9ae2" style="" class=""/><path d="m104 80h16v16h-16zm0 0" fill="#39b2dd" data-original="#3d9ae2" style="" class=""/><path d="m136 80h16v16h-16zm0 0" fill="#39b2dd" data-original="#3d9ae2" style="" class=""/><path d="m392 160h56v120h16v-128c0-4.417969-3.582031-8-8-8h-64zm0 0" fill="#39b2dd" data-original="#3d9ae2" style="" class=""/><path d="m360 144h16v16h-16zm0 0" fill="#39b2dd" data-original="#3d9ae2" style="" class=""/><path d="m328 144h16v16h-16zm0 0" fill="#39b2dd" data-original="#3d9ae2" style="" class=""/></g></g></svg>
