<svg xmlns="http://www.w3.org/2000/svg" width="25" height="25"><path d="M8.42 21.44c-2.55 0-4.923-.748-6.92-2.028a9.11 9.11 0 0 0 1.077.063c2.114 0 4.06-.722 5.605-1.932a4.518 4.518 0 0 1-4.216-3.135 4.485 4.485 0 0 0 2.038-.077 4.516 4.516 0 0 1-3.62-4.482c.61.338 1.304.54 2.044.564A4.51 4.51 0 0 1 2.42 6.656c0-.827.223-1.603.612-2.27a12.814 12.814 0 0 0 9.303 4.717 4.514 4.514 0 0 1 7.69-4.117 9.04 9.04 0 0 0 2.867-1.095 4.527 4.527 0 0 1-1.984 2.498 9.023 9.023 0 0 0 2.592-.71 9.174 9.174 0 0 1-2.252 2.335c.008.194.013.39.013.584 0 5.965-4.54 12.842-12.84 12.842z" fill="#fff"/></svg>