<svg xmlns="http://www.w3.org/2000/svg" width="100" height="100"><path d="M25.442 25.438c0-13.118 11.486-23.746 25.647-23.746 14.17 0 25.645 10.628 25.645 23.746 0 13.117-11.475 23.746-25.645 23.746-14.16 0-25.647-10.629-25.647-23.746m-4.471 19.769l3.521 3.626S9.509 53.731 7.071 89.866c0 0-.972 7.978 4.282 7.993h78.096s5.008-.258 4.649-8.178c0 0-2.519-33.859-17.083-40.475l2.333-4.021c-.052-.008-.093-.017-.093-.017l-3.315-1.357C70.119 50.557 61.158 54.9 51.09 54.9c-10.338 0-19.499-4.589-25.312-11.66l-4.738 1.93c-.025.017-.045.02-.069.037z" fill-rule="evenodd"/></svg>