<?xml version="1.0"?>
<svg xmlns="http://www.w3.org/2000/svg" xmlns:xlink="http://www.w3.org/1999/xlink" xmlns:svgjs="http://svgjs.com/svgjs" version="1.1" width="512" height="512" x="0" y="0" viewBox="0 0 64 64" style="enable-background:new 0 0 512 512" xml:space="preserve" class=""><g><path xmlns="http://www.w3.org/2000/svg" d="M60,20H20a3,3,0,0,0-3,3V52a3,3,0,0,0,3,3H33v2H31a5.006,5.006,0,0,0-5,5,1,1,0,0,0,1,1H53a1,1,0,0,0,1-1,5.006,5.006,0,0,0-5-5H47V55H60a3,3,0,0,0,3-3V23A3,3,0,0,0,60,20ZM51.829,61H28.171A3.006,3.006,0,0,1,31,59H49A3.006,3.006,0,0,1,51.829,61ZM61,52a1,1,0,0,1-1,1H20a1,1,0,0,1-1-1V23a1,1,0,0,1,1-1H60a1,1,0,0,1,1,1Z" style="" fill="#fcdda2" data-original="#c4a2fc"/><rect xmlns="http://www.w3.org/2000/svg" x="21" y="24" width="38" height="25" rx="1" style="" fill="#fcdda2" data-original="#c4a2fc"/><path xmlns="http://www.w3.org/2000/svg" d="M50,22H47.949A18.993,18.993,0,0,0,30,4.051V2a1,1,0,0,0-1-1H23a1,1,0,0,0-1,1V4.051A18.993,18.993,0,0,0,4.051,22H2a1,1,0,0,0-1,1v6a1,1,0,0,0,1,1H8a1,1,0,0,0,1-1V23a1,1,0,0,0-1-1H6.051A16.994,16.994,0,0,1,22,6.051V8a1,1,0,0,0,1,1h1.322l-12.2,22.524a1,1,0,0,0-.016.923L17,42.236V50a1,1,0,0,0,1,1H34a1,1,0,0,0,1-1V42.236l4.9-9.789a1,1,0,0,0-.016-.923L27.678,9H29a1,1,0,0,0,1-1V6.051A16.994,16.994,0,0,1,45.949,22H44a1,1,0,0,0-1,1v6a1,1,0,0,0,1,1h6a1,1,0,0,0,1-1V23A1,1,0,0,0,50,22ZM7,28H3V24H7Zm19-1a3,3,0,1,1-3,3A3,3,0,0,1,26,27Zm7,22H19V43H33Zm.382-8H18.618l-4.491-8.981L25,11.946V25.1a5,5,0,1,0,2,0V11.946L37.873,32.019ZM28,7H24V3h4ZM49,28H45V24h4Z" style="" fill="#151a6a" data-original="#151a6a" class=""/></g></svg>
