<?xml version="1.0"?>
<svg xmlns="http://www.w3.org/2000/svg" xmlns:xlink="http://www.w3.org/1999/xlink" xmlns:svgjs="http://svgjs.com/svgjs" version="1.1" width="512" height="512" x="0" y="0" viewBox="0 0 64 64" style="enable-background:new 0 0 512 512" xml:space="preserve" class=""><g><circle xmlns="http://www.w3.org/2000/svg" cx="38" cy="44" fill="#a2bdfc" r="7" data-original="#c4a2fc" style="" class=""/><path xmlns="http://www.w3.org/2000/svg" d="m62 43h-11.59l2.3-2.29a1 1 0 0 0 -1.42-1.42l-4 4a1 1 0 0 0 0 1.42l4 4a1 1 0 0 0 1.42-1.42l-2.3-2.29h11.59a1 1 0 0 0 0-2z" fill="#a2bdfc" data-original="#c4a2fc" style="" class=""/><path xmlns="http://www.w3.org/2000/svg" d="m28.92 43.62a1 1 0 0 0 -.21-.33l-4-4a1 1 0 0 0 -1.42 1.42l2.3 2.29h-11.59a1 1 0 0 0 0 2h11.59l-2.3 2.29a1 1 0 0 0 1.42 1.42l4-4a1 1 0 0 0 .21-1.09z" fill="#a2bdfc" data-original="#c4a2fc" style="" class=""/><path xmlns="http://www.w3.org/2000/svg" d="m37.29 34.71a1 1 0 0 0 1.42 0l4-4a1 1 0 0 0 -1.42-1.42l-2.29 2.3v-11.59a1 1 0 0 0 -2 0v11.59l-2.29-2.3a1 1 0 0 0 -1.42 1.42z" fill="#a2bdfc" data-original="#c4a2fc" style="" class=""/><path xmlns="http://www.w3.org/2000/svg" d="m46 37h5.66a1 1 0 0 0 0-2h-3.25l8.2-8.19a1 1 0 0 0 -1.42-1.42l-8.19 8.2v-3.25a1 1 0 0 0 -2 0v5.66a1 1 0 0 0 1 1z" fill="#a2bdfc" data-original="#c4a2fc" style="" class=""/><path xmlns="http://www.w3.org/2000/svg" d="m27.59 35h-3.25a1 1 0 0 0 0 2h5.66a1 1 0 0 0 1-1v-5.66a1 1 0 0 0 -2 0v3.25l-8.19-8.2a1 1 0 0 0 -1.42 1.42z" fill="#a2bdfc" data-original="#c4a2fc" style="" class=""/><path xmlns="http://www.w3.org/2000/svg" d="m44.15 50.55a8.94 8.94 0 0 1 -12.3 0 13 13 0 0 0 -6.85 11.45 1 1 0 0 0 1 1h24a1 1 0 0 0 1-1 13 13 0 0 0 -6.85-11.45z" fill="#a2bdfc" data-original="#c4a2fc" style="" class=""/><g xmlns="http://www.w3.org/2000/svg" fill="#151a6a"><path d="m50.83 21.45a30.71 30.71 0 0 0 -24.83-12.45 30.71 30.71 0 0 0 -24.83 12.45 1 1 0 0 0 0 1.1 30.71 30.71 0 0 0 24.83 12.45 30.71 30.71 0 0 0 24.83-12.45 1 1 0 0 0 0-1.1zm-24.83 11.55a29.35 29.35 0 0 1 -22.76-11 29 29 0 0 1 45.52 0 29.23 29.23 0 0 1 -22.76 11z" fill="#151a6a" data-original="#151a6a" style="" class=""/><path d="m26 16a6 6 0 1 0 6 6 6 6 0 0 0 -6-6zm0 10a4 4 0 1 1 4-4 4 4 0 0 1 -4 4z" fill="#151a6a" data-original="#151a6a" style="" class=""/><path d="m26 7a1 1 0 0 0 1-1v-4a1 1 0 0 0 -2 0v4a1 1 0 0 0 1 1z" fill="#151a6a" data-original="#151a6a" style="" class=""/><path d="m19.59 7.31a1 1 0 0 0 1.88-.69l-1.37-3.76a1 1 0 0 0 -1.88.69z" fill="#151a6a" data-original="#151a6a" style="" class=""/><path d="m31.13 7.9a1 1 0 0 0 1.28-.59l1.37-3.76a1 1 0 0 0 -1.88-.69l-1.37 3.76a1 1 0 0 0 .6 1.28z" fill="#151a6a" data-original="#151a6a" style="" class=""/><path d="m26 37a1 1 0 0 0 -1 1v4a1 1 0 0 0 2 0v-4a1 1 0 0 0 -1-1z" fill="#151a6a" data-original="#151a6a" style="" class=""/><path d="m20.87 36.1a1 1 0 0 0 -1.28.59l-1.37 3.76a1 1 0 0 0 1.88.69l1.37-3.76a1 1 0 0 0 -.6-1.28z" fill="#151a6a" data-original="#151a6a" style="" class=""/><path d="m32.41 36.69a1 1 0 0 0 -1.88.69l1.37 3.76a1 1 0 0 0 1.88-.69z" fill="#151a6a" data-original="#151a6a" style="" class=""/></g></g></svg>
