<?xml version="1.0"?>
<svg xmlns="http://www.w3.org/2000/svg" xmlns:xlink="http://www.w3.org/1999/xlink" xmlns:svgjs="http://svgjs.com/svgjs" version="1.1" width="512" height="512" x="0" y="0" viewBox="0 0 64 64" style="enable-background:new 0 0 512 512" xml:space="preserve" class=""><g><g xmlns="http://www.w3.org/2000/svg" id="Warehouse"><g fill="#9bc9ff"><path d="m3 13v6h58v-6l-29-10zm32-1a3 3 0 1 1 -3-3 3 3 0 0 1 3 3z" fill="#ffffff" data-original="#9bc9ff" style="" class=""/><path d="m57 25v36h4v-42h-4z" fill="#ffffff" data-original="#9bc9ff" style="" class=""/><path d="m3 19v42h4v-36-6z" fill="#ffffff" data-original="#9bc9ff" style="" class=""/><path d="m40 52-2 1v-8h-6v16h16v-16h-6v8z" fill="#ffffff" data-original="#9bc9ff" style="" class=""/><path d="m26 45v8l-2-1-2 1v-8h-6v16h16v-16z" fill="#ffffff" data-original="#9bc9ff" style="" class=""/><path d="m34 29v8l-2-1-2 1v-8h-6v16h2 6 6 2v-16z" fill="#ffffff" data-original="#9bc9ff" style="" class=""/><path d="m7 19h50v6h-50z" fill="#ffffff" data-original="#9bc9ff" style="" class=""/></g><path d="m61.326 12.055-29-10a.985.985 0 0 0 -.652 0l-29 10a1 1 0 0 0 -.674.945v48a1 1 0 0 0 1 1h4a1 1 0 0 0 1-1v-35h48v35a1 1 0 0 0 1 1h4a1 1 0 0 0 1-1v-48a1 1 0 0 0 -.674-.945zm-57.326 1.658 28-9.655 28 9.655v4.287h-56zm2 46.287h-2v-40h2zm2-36v-4h48v4zm52 36h-2v-40h2z" fill="#8f42ff" data-original="#1e81ce" style="" class=""/><path d="m32 16a4 4 0 1 0 -4-4 4 4 0 0 0 4 4zm0-6a2 2 0 1 1 -2 2 2 2 0 0 1 2-2z" fill="#8f42ff" data-original="#1e81ce" style="" class=""/><path d="m53 60h-4v-15a1 1 0 0 0 -1-1h-7v-15a1 1 0 0 0 -1-1h-16a1 1 0 0 0 -1 1v15h-7a1 1 0 0 0 -1 1v15h-4a1 1 0 0 0 0 2h42a1 1 0 0 0 0-2zm-14-14h2v5.382l-.553-.277a1 1 0 0 0 -.894 0l-.553.277zm-6-16v5.382l-.553-.277a1 1 0 0 0 -.894 0l-.553.277v-5.382zm-8 0h4v7a1 1 0 0 0 1.447.9l1.553-.782 1.553.777a1 1 0 0 0 1.447-.895v-7h4v14h-14zm-1 16h1v5.382l-.553-.277a1 1 0 0 0 -.894 0l-.553.277v-5.382zm-7 0h4v7a1 1 0 0 0 1.447.9l1.553-.782 1.553.777a1 1 0 0 0 1.447-.895v-7h4v14h-14zm16 0h4v7a1 1 0 0 0 1.447.9l1.553-.782 1.553.777a1 1 0 0 0 1.447-.895v-7h4v14h-14z" fill="#8f42ff" data-original="#1e81ce" style="" class=""/></g></g></svg>
