<svg xmlns="http://www.w3.org/2000/svg" width="48" height="35"><path d="M44 28.698H30v-20c0-1.1.9-2 2-2h8c.6 0 1.2.3 1.6.8l6 7.7c.3.4.4.8.4 1.2v8.3c0 2.2-1.8 4-4 4z" fill="#fff59d"/><path d="M8 28.698h22v-23c0-2.2-1.8-4-4-4H4v23c0 2.2 1.8 4 4 4z" fill="#26c6da"/><path d="M0 1.698h10v2H0v-2z" fill-rule="evenodd" fill="#26c6da"/><path d="M0 6.698h10v2H0v-2z" fill-rule="evenodd" fill="#26c6da"/><path d="M0 11.698h10v2H0v-2z" fill-rule="evenodd" fill="#26c6da"/><path d="M0 16.698h10v2H0v-2z" fill-rule="evenodd" fill="#26c6da"/><path d="M4 3.698h16v2H4v-2z" fill-rule="evenodd" fill="#0097a7"/><path d="M4 8.698h12v2H4v-2z" fill-rule="evenodd" fill="#0097a7"/><g><path d="M4 13.698h8v2H4v-2z" fill-rule="evenodd" fill="#0097a7"/></g><g><path d="M4 18.698h4v2H4v-2z" fill-rule="evenodd" fill="#0097a7"/></g><g><path d="M44 28.698a5 5 0 1 1-10 0 5 5 0 0 1 10 0z" fill-rule="evenodd" fill="#37474f"/></g><g><path d="M21 28.698a5 5 0 1 1-10 0 5 5 0 0 1 10 0z" fill-rule="evenodd" fill="#37474f"/></g><g><path d="M41.5 28.698a2.5 2.5 0 1 1-5 0 2.5 2.5 0 0 1 5 0z" fill-rule="evenodd" fill="#78909c"/></g><g><path d="M18.5 28.698a2.5 2.5 0 1 1-5 0 2.5 2.5 0 0 1 5 0z" fill-rule="evenodd" fill="#78909c"/></g><g><path d="M44 18.698h-3.6c-.3 0-.5-.1-.7-.3l-1.4-1.4c-.2-.2-.4-.3-.7-.3H34c-.6 0-1-.4-1-1v-6c0-.6.4-1 1-1h5.5c.3 0 .6.1.8.4l4.5 5.4c.1.2.2.4.2.6v2.6c0 .6-.4 1-1 1z" fill="#fbc02d"/></g></svg>